<svg width="32" height="32" viewBox="0 0 32 32" fill="none" xmlns="http://www.w3.org/2000/svg">
<path d="M0.601074 18.3809L5.81186 13.1701L10.4703 12.2495C16.3991 4.18472 27.7414 0.152344 31.8475 0.152344C31.8475 4.25837 27.815 15.6006 19.7503 21.5295L18.8296 26.1878L13.6189 31.3987L12.3115 24.899C9.71536 24.899 9.71536 24.899 8.40807 23.5917C7.10076 22.2844 7.10076 22.2844 7.10076 19.6882L0.601074 18.3809ZM5.81186 23.5917L8.40807 26.1878L3.51028 31.1041H0.895678V28.4895L5.81186 23.5917ZM3.19726 20.9955L5.48043 21.3086L0.950916 25.8197V23.205L3.19726 20.9955ZM10.6912 26.5193L11.0042 28.8025L8.79473 31.0488H6.18012L10.6912 26.5193ZM19.3635 9.87425C18.631 9.87425 17.9286 10.1652 17.4106 10.6832C16.8927 11.2012 16.6016 11.9036 16.6016 12.6362C16.6016 13.3686 16.8927 14.0712 17.4106 14.5891C17.9286 15.1071 18.631 15.398 19.3635 15.398C20.0962 15.398 20.7987 15.1071 21.3166 14.5891C21.8346 14.0712 22.1254 13.3686 22.1254 12.6362C22.1254 11.9036 21.8346 11.2012 21.3166 10.6832C20.7987 10.1652 20.0962 9.87425 19.3635 9.87425Z" fill="#FD3054"/>
</svg>
