<svg width="220" height="23" viewBox="0 0 220 23" fill="none" xmlns="http://www.w3.org/2000/svg">
<path d="M43.5322 22.001H39.0381C38.9535 21.8825 38.8688 21.7429 38.7842 21.5821C38.6995 21.4128 38.6064 21.2139 38.5049 20.9854L38.3271 20.6045C38.1833 20.2998 38.0479 19.9824 37.9209 19.6524C37.8024 19.3138 37.6501 18.8653 37.4639 18.3067C37.2015 17.5026 36.9688 16.8594 36.7656 16.377C36.571 15.8861 36.3255 15.4756 36.0293 15.1455C35.7331 14.8155 35.3818 14.6504 34.9756 14.6504C34.1123 14.6843 33.2617 14.7012 32.4238 14.7012V22.001H28.3867V2.6787H30.2529C30.6846 2.6787 31.1797 2.65331 31.7383 2.60253C32.2038 2.56868 32.7454 2.53906 33.3633 2.51367C33.9811 2.48827 34.654 2.47558 35.3818 2.47558C37.4385 2.47558 39.11 2.92415 40.3965 3.82128C41.6914 4.70995 42.3389 6.20797 42.3389 8.31547C42.3389 9.83037 42.0638 11.0407 41.5137 11.9463C40.972 12.8519 40.1764 13.5121 39.127 13.9268C39.5755 14.3076 39.9648 14.807 40.2949 15.4248C40.6335 16.0427 41.0312 16.8848 41.4883 17.9512C41.9792 19.1361 42.3939 20.0205 42.7324 20.6045L43.5322 22.001ZM32.4238 11.794C32.847 11.8448 33.7314 11.8701 35.0771 11.8701C36.2197 11.8701 37.0618 11.5443 37.6035 10.8926C38.1452 10.2409 38.416 9.41987 38.416 8.42967C38.416 7.85417 38.3229 7.35477 38.1367 6.93167C37.959 6.49997 37.612 6.15297 37.0957 5.89062C36.5794 5.61979 35.8473 5.48437 34.8994 5.48437C33.8923 5.48437 33.0671 5.56054 32.4238 5.71288V11.794ZM45.4492 14.625C45.4492 13.0762 45.7539 11.7559 46.3633 10.6641C46.9727 9.56377 47.819 8.73437 48.9023 8.17577C49.9857 7.60867 51.2298 7.32517 52.6348 7.32517C54.2344 7.32517 55.5505 7.66377 56.583 8.34077C57.6156 9.00947 58.3646 9.91077 58.8301 11.0449C59.304 12.1706 59.541 13.4444 59.541 14.8662C59.541 16.4235 59.2363 17.7523 58.627 18.8526C58.0176 19.9528 57.1712 20.7865 56.0879 21.3535C55.0046 21.9206 53.7646 22.2041 52.3682 22.2041C50.7601 22.2041 49.4398 21.8656 48.4072 21.1885C47.3747 20.5114 46.6214 19.6058 46.1475 18.4717C45.682 17.3291 45.4492 16.0469 45.4492 14.625ZM55.4404 14.8789C55.4404 13.5248 55.1992 12.3991 54.7168 11.502C54.2344 10.5964 53.5023 10.1436 52.5205 10.1436C50.54 10.1436 49.5498 11.6162 49.5498 14.5615C49.5498 15.4502 49.6514 16.2627 49.8545 16.999C50.0661 17.7269 50.3919 18.3109 50.832 18.751C51.2806 19.1911 51.8392 19.4112 52.5078 19.4112C54.4629 19.4112 55.4404 17.9004 55.4404 14.8789ZM69.1895 7.32517C70.0443 7.32517 70.8187 7.40137 71.5127 7.55367C72.2067 7.69757 72.6849 7.86687 72.9473 8.06147L72.4521 11.1211C72.0882 10.9265 71.682 10.7868 71.2334 10.7022C70.7933 10.6091 70.2474 10.5625 69.5957 10.5625C68.9863 10.5625 68.4066 10.6937 67.8564 10.9561C67.3063 11.21 66.8493 11.6289 66.4854 12.2129C66.1214 12.7884 65.9268 13.5332 65.9014 14.4473C65.876 15.4545 66.0114 16.3008 66.3076 16.9864C66.6038 17.6719 67.0228 18.1839 67.5645 18.5225C68.1146 18.8526 68.7409 19.0176 69.4434 19.0176C70.0781 19.0176 70.6833 18.9626 71.2588 18.8526C71.8428 18.7341 72.2871 18.5902 72.5918 18.4209L73.1631 20.7696C72.7145 21.2012 72.0882 21.5482 71.2842 21.8106C70.4801 22.0729 69.6253 22.2041 68.7197 22.2041C67.264 22.2041 66.0283 21.8952 65.0127 21.2774C63.9971 20.6511 63.2354 19.792 62.7275 18.7002C62.2197 17.6 61.9658 16.3474 61.9658 14.9424C61.9658 13.4867 62.2324 12.1833 62.7656 11.0322C63.2988 9.88117 64.1071 8.97557 65.1904 8.31547C66.2738 7.65527 67.6068 7.32517 69.1895 7.32517ZM81.6562 15.9707L80.1074 17.6592L80.1582 19.2969V22.001H76.1973V0.914062H80.1582V9.59767L80.0312 13.2412L84.9189 7.52827H89.4004L84.2334 13.1524L89.9082 22.001H85.4014L81.6562 15.9707ZM103.657 13C103.657 14.2188 103.611 15.1244 103.518 15.7168H94.9609C95.0371 16.9102 95.4095 17.7989 96.0781 18.3828C96.7552 18.9668 97.669 19.2588 98.82 19.2588C99.37 19.2588 100.035 19.1869 100.813 19.043C101.601 18.8906 102.176 18.7129 102.54 18.5098L103.188 20.7569C102.688 21.1631 101.939 21.5059 100.94 21.7852C99.942 22.0645 98.901 22.2041 97.817 22.2041C96.3617 22.2041 95.1217 21.9079 94.0977 21.3155C93.0736 20.723 92.2992 19.8682 91.7744 18.751C91.2497 17.6253 90.9873 16.2796 90.9873 14.7139C90.9873 13.292 91.2624 12.0225 91.8125 10.9053C92.3626 9.78807 93.1624 8.91207 94.2119 8.27737C95.2699 7.64257 96.5267 7.32517 97.982 7.32517C99.032 7.32517 99.98 7.51557 100.826 7.89647C101.673 8.27737 102.35 8.89097 102.857 9.73727C103.374 10.5837 103.64 11.6712 103.657 13ZM99.976 13.5205C99.984 13.3936 99.988 13.2074 99.988 12.9619C99.988 12.0394 99.815 11.3412 99.468 10.8672C99.121 10.3848 98.558 10.1436 97.779 10.1436C97.001 10.1436 96.3786 10.4017 95.9131 10.918C95.4561 11.4258 95.1598 12.2933 95.0244 13.5205H99.976ZM107.567 10.2705H105.828V8.12497C106.387 7.96417 106.789 7.84147 107.034 7.75687C107.288 7.66377 107.512 7.54097 107.707 7.38867C107.902 7.22787 108.054 7.01627 108.164 6.75387C108.342 6.33077 108.659 5.4886 109.116 4.22753H111.528V7.52827H115.451V10.2705H111.528V16.085C111.528 17.0498 111.579 17.7523 111.681 18.1924C111.782 18.6325 111.943 18.916 112.163 19.043C112.383 19.1615 112.722 19.2207 113.179 19.2207C113.534 19.2207 113.94 19.1615 114.397 19.043C114.863 18.916 115.206 18.7722 115.426 18.6114L115.908 20.833C115.51 21.1885 114.914 21.5059 114.118 21.7852C113.331 22.0645 112.48 22.2041 111.566 22.2041C110.593 22.2041 109.814 22.056 109.23 21.7598C108.655 21.4551 108.232 20.9769 107.961 20.3252C107.699 19.6651 107.567 18.7891 107.567 17.6973V10.2705ZM127.232 2.47558C128.172 2.47558 128.951 2.52213 129.568 2.61523C130.195 2.70833 130.863 2.84374 131.574 3.02148C132.09 3.13997 132.395 3.20768 132.488 3.2246L131.904 6.77927C131.854 6.75387 131.633 6.63537 131.244 6.42387C130.855 6.20377 130.33 6.02607 129.67 5.89062C129.01 5.74674 128.282 5.6748 127.486 5.6748C126.437 5.6748 125.489 5.93294 124.643 6.44917C123.805 6.96547 123.14 7.71447 122.649 8.69627C122.167 9.66957 121.926 10.8164 121.926 12.1367C121.926 13.474 122.159 14.6716 122.624 15.7295C123.098 16.779 123.775 17.6 124.655 18.1924C125.544 18.7849 126.589 19.0811 127.791 19.0811C128.341 19.0811 128.917 19.0176 129.518 18.8906C130.127 18.7552 130.677 18.5944 131.168 18.4082C131.667 18.2136 132.035 18.0316 132.272 17.8623L132.285 21.1885C131.752 21.4001 131.278 21.5736 130.863 21.709C130.457 21.8444 129.962 21.9587 129.378 22.0518C128.794 22.1533 128.138 22.2041 127.41 22.2041C125.455 22.2041 123.75 21.7979 122.294 20.9854C120.838 20.1644 119.717 19.0134 118.93 17.5322C118.151 16.0511 117.762 14.3373 117.762 12.3906C117.762 10.3171 118.176 8.53547 119.006 7.04587C119.844 5.54785 120.978 4.41373 122.408 3.64355C123.847 2.8649 125.455 2.47558 127.232 2.47558ZM134.215 14.625C134.215 13.0762 134.52 11.7559 135.129 10.6641C135.738 9.56377 136.585 8.73437 137.668 8.17577C138.751 7.60867 139.995 7.32517 141.4 7.32517C143 7.32517 144.316 7.66377 145.349 8.34077C146.381 9.00947 147.13 9.91077 147.596 11.0449C148.07 12.1706 148.307 13.4444 148.307 14.8662C148.307 16.4235 148.002 17.7523 147.393 18.8526C146.783 19.9528 145.937 20.7865 144.854 21.3535C143.77 21.9206 142.53 22.2041 141.134 22.2041C139.526 22.2041 138.205 21.8656 137.173 21.1885C136.14 20.5114 135.387 19.6058 134.913 18.4717C134.448 17.3291 134.215 16.0469 134.215 14.625ZM144.206 14.8789C144.206 13.5248 143.965 12.3991 143.482 11.502C143 10.5964 142.268 10.1436 141.286 10.1436C139.306 10.1436 138.315 11.6162 138.315 14.5615C138.315 15.4502 138.417 16.2627 138.62 16.999C138.832 17.7269 139.158 18.3109 139.598 18.751C140.046 19.1911 140.605 19.4112 141.273 19.4112C143.229 19.4112 144.206 17.9004 144.206 14.8789ZM155.327 7.52827L155.403 9.07717C155.987 8.63707 156.715 8.23497 157.587 7.87107C158.459 7.50717 159.301 7.31247 160.113 7.28707C161.154 7.25327 162.005 7.41827 162.665 7.78217C163.325 8.13767 163.816 8.73437 164.138 9.57227C164.468 10.4017 164.633 11.5189 164.633 12.9239V22.001H160.672V13.7744C160.672 12.9535 160.608 12.3187 160.481 11.8701C160.354 11.4131 160.139 11.0873 159.834 10.8926C159.529 10.6979 159.098 10.6091 158.539 10.626C158.116 10.6345 157.638 10.7318 157.104 10.918C156.571 11.1042 156.102 11.375 155.695 11.7305V22.001H151.734V7.52827H155.327ZM181.594 7.52827L176.071 22.2041H172.402L166.905 7.52827H171.184L173.393 14.6377L174.319 18.167L175.195 14.6377L177.404 7.52827H181.594ZM195.698 13C195.698 14.2188 195.652 15.1244 195.559 15.7168H187.002C187.078 16.9102 187.451 17.7989 188.119 18.3828C188.796 18.9668 189.71 19.2588 190.861 19.2588C191.411 19.2588 192.076 19.1869 192.854 19.043C193.642 18.8906 194.217 18.7129 194.581 18.5098L195.229 20.7569C194.729 21.1631 193.98 21.5059 192.981 21.7852C191.983 22.0645 190.942 22.2041 189.858 22.2041C188.403 22.2041 187.163 21.9079 186.139 21.3155C185.115 20.723 184.34 19.8682 183.815 18.751C183.291 17.6253 183.028 16.2796 183.028 14.7139C183.028 13.292 183.303 12.0225 183.854 10.9053C184.404 9.78807 185.203 8.91207 186.253 8.27737C187.311 7.64257 188.568 7.32517 190.023 7.32517C191.073 7.32517 192.021 7.51557 192.867 7.89647C193.714 8.27737 194.391 8.89097 194.898 9.73727C195.415 10.5837 195.681 11.6712 195.698 13ZM192.017 13.5205C192.025 13.3936 192.029 13.2074 192.029 12.9619C192.029 12.0394 191.856 11.3412 191.509 10.8672C191.162 10.3848 190.599 10.1436 189.82 10.1436C189.042 10.1436 188.42 10.4017 187.954 10.918C187.497 11.4258 187.201 12.2933 187.065 13.5205H192.017ZM206.73 7.28707C207.281 7.28707 207.657 7.34637 207.86 7.46487V11.2862C207.666 11.1761 207.441 11.0915 207.188 11.0322C206.942 10.9645 206.587 10.9307 206.121 10.9307C204.902 10.9307 203.827 11.3666 202.896 12.2383V22.001H198.936V7.52827H202.452L202.63 9.50877C202.841 9.13637 203.155 8.78087 203.569 8.44237C203.993 8.10387 204.479 7.82877 205.029 7.61717C205.588 7.39717 206.155 7.28707 206.73 7.28707ZM211.364 10.2705H209.625V8.12497C210.184 7.96417 210.586 7.84147 210.831 7.75687C211.085 7.66377 211.309 7.54097 211.504 7.38867C211.699 7.22787 211.851 7.01627 211.961 6.75387C212.139 6.33077 212.456 5.4886 212.913 4.22753H215.325V7.52827H219.248V10.2705H215.325V16.085C215.325 17.0498 215.376 17.7523 215.478 18.1924C215.579 18.6325 215.74 18.916 215.96 19.043C216.18 19.1615 216.519 19.2207 216.976 19.2207C217.331 19.2207 217.737 19.1615 218.194 19.043C218.66 18.916 219.003 18.7722 219.223 18.6114L219.705 20.833C219.307 21.1885 218.711 21.5059 217.915 21.7852C217.128 22.0645 216.277 22.2041 215.363 22.2041C214.39 22.2041 213.611 22.056 213.027 21.7598C212.452 21.4551 212.029 20.9769 211.758 20.3252C211.495 19.6651 211.364 18.7891 211.364 17.6973V10.2705Z" fill="white"/>
<path d="M0.0449219 14.2973L3.11076 11.2314L5.85159 10.6898C9.3399 5.94477 16.0133 3.57227 18.4291 3.57227C18.4291 5.9881 16.0566 12.6614 11.3116 16.1498L10.7699 18.8906L7.7041 21.9564L6.93492 18.1323C5.40742 18.1323 5.40742 18.1323 4.63826 17.3631C3.86909 16.5939 3.86909 16.5939 3.86909 15.0664L0.0449219 14.2973ZM3.11076 17.3631L4.63826 18.8906L1.75659 21.7831H0.218262V20.2448L3.11076 17.3631ZM1.57242 15.8356L2.91576 16.0198L0.250762 18.6739V17.1356L1.57242 15.8356ZM5.98159 19.0856L6.16576 20.4289L4.86576 21.7506H3.32742L5.98159 19.0856ZM11.0841 9.2923C10.6531 9.2923 10.2398 9.4635 9.935 9.7682C9.6303 10.073 9.4591 10.4863 9.4591 10.9173C9.4591 11.3482 9.6303 11.7616 9.935 12.0663C10.2398 12.3711 10.6531 12.5423 11.0841 12.5423C11.5151 12.5423 11.9284 12.3711 12.2331 12.0663C12.5379 11.7616 12.7091 11.3482 12.7091 10.9173C12.7091 10.4863 12.5379 10.073 12.2331 9.7682C11.9284 9.4635 11.5151 9.2923 11.0841 9.2923Z" fill="#FD3054"/>
</svg>
