<svg width="209" height="223" viewBox="0 0 209 223" version="1.1" xmlns="http://www.w3.org/2000/svg" xmlns:xlink="http://www.w3.org/1999/xlink">
<title>phone-book</title>
<desc>Created using Figma</desc>
<g id="Canvas" transform="translate(17758 -1145)">
<g id="phone-book">
<g id="Group">
<g id="Vector">
<use xlink:href="#path0_fill" transform="translate(-17758 1199.06)" fill="#2E36D2"/>
</g>
<g id="Vector">
<use xlink:href="#path1_fill" transform="translate(-17758 1246.36)" fill="#2E36D2"/>
</g>
<g id="Vector">
<use xlink:href="#path2_fill" transform="translate(-17758 1293.67)" fill="#2E36D2"/>
</g>
</g>
<g id="Group">
<g id="Vector">
<use xlink:href="#path3_fill" transform="translate(-17673.7 1202.44)" fill="#C9DDF4"/>
</g>
<g id="Vector">
<use xlink:href="#path4_fill" transform="translate(-17690.6 1263.26)" fill="#C9DDF4"/>
</g>
</g>
<g id="Vector">
<use xlink:href="#path5_fill" transform="translate(-17737.8 1145)" fill="#5286FA"/>
</g>
<g id="Vector">
<use xlink:href="#path6_fill" transform="translate(-17737.8 1145)" fill="#3D6DEB"/>
</g>
</g>
</g>
<defs>
<path id="path0_fill" d="M 10.113 20.273L 20.226 20.273L 30.339 20.273C 35.9242 20.273 40.4521 15.7346 40.4521 10.1365C 40.4521 4.5384 35.9242 9.57012e-07 30.339 9.57012e-07L 20.226 9.57012e-07L 10.113 9.57012e-07C 4.52789 9.57012e-07 1.49187e-07 4.5384 1.49187e-07 10.1365C 1.49187e-07 15.7346 4.52789 20.273 10.113 20.273Z"/>
<path id="path1_fill" d="M 30.3386 2.17986e-06L 20.226 2.17986e-06L 10.113 2.17986e-06C 4.52789 2.17986e-06 1.49187e-07 4.5384 1.49187e-07 10.1365C 1.49187e-07 15.7346 4.52789 20.273 10.113 20.273L 20.226 20.273L 30.339 20.273C 35.9242 20.273 40.4521 15.7346 40.4521 10.1365C 40.4516 4.5384 35.9237 2.17986e-06 30.3386 2.17986e-06Z"/>
<path id="path2_fill" d="M 30.3386 3.40271e-06L 20.226 3.40271e-06L 10.113 3.40271e-06C 4.52789 3.40271e-06 1.49187e-07 4.53839 1.49187e-07 10.1365C 1.49187e-07 15.7346 4.52789 20.273 10.113 20.273L 20.226 20.273L 30.339 20.273C 35.9242 20.273 40.4521 15.7346 40.4521 10.1365C 40.4521 4.53839 35.9237 3.40271e-06 30.3386 3.40271e-06Z"/>
<path id="path3_fill" d="M 30.3386 60.818C 47.0942 60.818 60.6772 47.2034 60.6772 30.409C 60.6772 13.6146 47.0942 0 30.3386 0C 13.5831 0 0 13.6146 0 30.409C 0 47.2034 13.5831 60.818 30.3386 60.818Z"/>
<path id="path4_fill" d="M 47.1935 3.29638e-06C 21.129 3.29638e-06 3.2357e-06 21.1767 3.2357e-06 47.303L 94.387 47.303C 94.387 21.1767 73.2576 3.29638e-06 47.1935 3.29638e-06Z"/>
<path id="path5_fill" d="M 178.661 0L 94.387 0L 43.8223 0C 19.6585 0 3.58049e-07 19.7046 3.58049e-07 43.924L 3.58049e-07 54.0605L 10.113 54.0605C 15.6981 54.0605 20.226 58.5989 20.226 64.197C 20.226 69.7951 15.6981 74.3335 10.113 74.3335L 3.58049e-07 74.3335L 3.58049e-07 101.364L 10.113 101.364C 15.6981 101.364 20.226 105.902 20.226 111.5C 20.226 117.099 15.6981 121.637 10.113 121.637L 3.58049e-07 121.637L 3.58049e-07 148.667L 10.113 148.667C 15.6981 148.667 20.226 153.206 20.226 158.804C 20.226 164.402 15.6981 168.94 10.113 168.94L 3.58049e-07 168.94L 3.58049e-07 179.077C 3.58049e-07 203.295 19.6585 223 43.8223 223L 94.387 223L 178.661 223C 184.246 223 188.774 218.462 188.774 212.864L 188.774 10.1365C 188.774 4.5384 184.246 0 178.661 0ZM 94.387 165.561L 47.1935 165.561C 47.1935 139.434 68.3225 118.258 94.387 118.258C 77.632 118.258 64.0484 104.642 64.0484 87.8485C 64.0484 71.0534 77.632 57.4395 94.387 57.4395C 111.142 57.4395 124.726 71.0534 124.726 87.8485C 124.726 104.642 111.142 118.258 94.387 118.258C 120.451 118.258 141.58 139.434 141.58 165.561L 94.387 165.561Z"/>
<path id="path6_fill" d="M 47.1935 165.56C 47.1935 139.434 68.3225 118.257 94.387 118.257C 77.632 118.257 64.0484 104.642 64.0484 87.8481C 64.0484 71.0534 77.632 57.4391 94.387 57.4391L 94.387 0L 43.8223 0C 19.6585 0 3.58049e-07 19.7046 3.58049e-07 43.924L 3.58049e-07 54.0605L 10.113 54.0605C 15.6981 54.0605 20.226 58.5989 20.226 64.197C 20.226 69.7951 15.6981 74.3335 10.113 74.3335L 3.58049e-07 74.3335L 3.58049e-07 101.364L 10.113 101.364C 15.6981 101.364 20.226 105.902 20.226 111.5C 20.226 117.099 15.6981 121.637 10.113 121.637L 3.58049e-07 121.637L 3.58049e-07 148.667L 10.113 148.667C 15.6981 148.667 20.226 153.206 20.226 158.804C 20.226 164.402 15.6981 168.94 10.113 168.94L 3.58049e-07 168.94L 3.58049e-07 179.077C 3.58049e-07 203.295 19.6585 223 43.8223 223L 94.387 223L 94.387 165.56L 47.1935 165.56Z"/>
</defs>
</svg>
