<svg width="138" height="138" viewBox="0 0 138 138" version="1.1" xmlns="http://www.w3.org/2000/svg" xmlns:xlink="http://www.w3.org/1999/xlink">
<title>alert-circle-outline</title>
<desc>Created using Figma</desc>
<g id="Canvas" transform="translate(11738 31695)">
<g id="alert-circle-outline">
<g id="Vector">
<use xlink:href="#path0_fill" transform="translate(-11738 -31695)" fill="#FFFFFF"/>
</g>
</g>
</g>
<defs>
<path id="path0_fill" d="M 62.1 89.7L 75.9 89.7L 75.9 103.5L 62.1 103.5L 62.1 89.7ZM 62.1 34.5L 75.9 34.5L 75.9 75.9L 62.1 75.9L 62.1 34.5ZM 69 6.12843e-15C 30.843 6.12843e-15 0 31.05 0 69C 0 87.2999 7.26962 104.85 20.2096 117.79C 26.6169 124.198 34.2234 129.28 42.5948 132.748C 50.9663 136.215 59.9388 138 69 138C 87.2999 138 104.85 130.73 117.79 117.79C 130.73 104.85 138 87.2999 138 69C 138 59.9388 136.215 50.9663 132.748 42.5948C 129.28 34.2234 124.198 26.6169 117.79 20.2096C 111.383 13.8024 103.777 8.71989 95.4052 5.25231C 87.0337 1.78474 78.0612 1.53211e-14 69 6.12843e-15ZM 69 124.2C 54.3601 124.2 40.3197 118.384 29.9677 108.032C 19.6157 97.6803 13.8 83.64 13.8 69C 13.8 54.3601 19.6157 40.3197 29.9677 29.9677C 40.3197 19.6157 54.3601 13.8 69 13.8C 83.64 13.8 97.6803 19.6157 108.032 29.9677C 118.384 40.3197 124.2 54.3601 124.2 69C 124.2 83.64 118.384 97.6803 108.032 108.032C 97.6803 118.384 83.64 124.2 69 124.2Z"/>
</defs>
</svg>
