<svg width="38" height="46" viewBox="0 0 38 46" version="1.1" xmlns="http://www.w3.org/2000/svg" xmlns:xlink="http://www.w3.org/1999/xlink">
<title>Arrow</title>
<desc>Created using Figma</desc>
<g id="Canvas" transform="translate(28295 23265)">
<g id="Arrow">
<use xlink:href="#path0_stroke" transform="matrix(4.37114e-08 1 -1 4.37114e-08 -28276 -23265)" fill="#FFFFFF"/>
</g>
</g>
<defs>
<path id="path0_stroke" d="M 44.7678 1.76777C 45.7441 0.791456 45.7441 -0.791456 44.7678 -1.76777L 28.8579 -17.6777C 27.8816 -18.654 26.2986 -18.654 25.3223 -17.6777C 24.346 -16.7014 24.346 -15.1184 25.3223 -14.1421L 39.4645 0L 25.3223 14.1421C 24.346 15.1184 24.346 16.7014 25.3223 17.6777C 26.2986 18.654 27.8816 18.654 28.8579 17.6777L 44.7678 1.76777ZM 0 2.5L 43 2.5L 43 -2.5L 0 -2.5L 0 2.5Z"/>
</defs>
</svg>
