<svg width="65" height="87" viewBox="0 0 65 87" version="1.1" xmlns="http://www.w3.org/2000/svg" xmlns:xlink="http://www.w3.org/1999/xlink">
<title>gqx2DUBa9c</title>
<desc>Created using Figma</desc>
<g id="Canvas" transform="translate(-721 -1330)">
<g id="gqx2DUBa9c">
<g id="Group">
<g id="Vector">
<use xlink:href="#path0_fill" transform="matrix(0.1 0 0 -0.1 721 1417)" fill="#FFFFFF"/>
</g>
</g>
</g>
</g>
<defs>
<path id="path0_fill" d="M 310.711 869.269C 308.102 868.903 304.19 868.099 301.944 867.513C 299.771 866.928 297.235 866.49 296.366 866.49C 295.496 866.49 293.395 866.051 291.729 865.466C 289.99 864.954 286.513 863.93 283.904 863.272C 244.347 852.814 215.512 840.088 173.202 814.199C 165.16 809.299 144.005 793.502 136.035 786.408C 134.224 784.799 130.746 781.874 128.428 779.826C 120.386 772.878 103.361 755.692 94.5218 745.599C 87.2044 737.116 81.5534 729.876 65.2523 707.789C 64.4553 706.765 62.1369 703.182 60.0359 699.744C 58.0073 696.307 55.544 692.358 54.6747 690.968C 46.0532 677.439 34.2439 653.597 26.4919 634.29C 17.001 610.741 8.81421 581.121 4.6846 555.671C 0.98968 532.561 0.482535 525.979 0.120288 495.701C -0.241959 467.471 0.120288 459.207 2.51112 443.922C 3.09071 440.193 3.52541 436.024 3.52541 434.708C 3.52541 433.318 3.9601 430.027 4.5397 427.248C 5.11929 424.469 6.13358 419.276 6.78563 415.62C 10.4081 396.312 18.5224 368.521 25.9123 350.165C 27.9408 345.119 29.6072 340.804 29.6072 340.438C 29.6072 339.195 45.3287 307.674 49.3134 300.946C 51.6318 296.997 53.5155 293.632 53.5155 293.34C 53.5155 293.12 54.24 291.877 55.1818 290.634C 56.1236 289.391 58.1522 286.246 59.6737 283.613C 62.4267 279.006 63.7308 277.104 72.7145 264.525C 97.5647 229.64 133.572 194.975 169.797 170.914C 179.215 164.624 190.083 157.823 190.735 157.823C 190.952 157.823 192.473 157.018 194.067 155.995C 197.69 153.654 220.729 142.099 228.481 138.589C 244.854 131.348 274.486 121.329 288.251 118.331C 289.628 118.038 294.554 116.941 299.119 115.917C 311.073 113.284 318.463 111.968 329.185 110.652C 334.402 109.993 340.922 109.116 343.675 108.677C 346.79 108.165 365.048 107.653 391.129 107.434L 433.512 106.995L 433.875 53.6072C 434.164 6.87467 434.382 0.219492 435.324 9.00803e-05C 435.976 -0.0730437 480.532 44.3923 543.49 108.019C 629.705 195.121 650.498 216.476 649.991 217.427C 649.122 218.963 435.903 434.269 435.251 434.269C 434.961 434.269 434.527 433.757 434.309 433.099C 434.092 432.44 433.875 408.233 433.875 379.272L 433.875 326.616L 396.056 326.981C 367.221 327.274 355.847 327.64 348.384 328.517C 343.023 329.175 338.097 329.907 337.517 330.053C 336.937 330.272 333.967 330.711 330.996 331.15C 328.026 331.589 322.665 332.686 319.042 333.71C 315.492 334.66 309.624 336.196 306.001 337.074C 302.451 337.951 295.279 340.219 290.063 342.12C 284.919 344.022 279.847 345.85 278.833 346.142C 275.79 347.02 246.738 361.281 244.999 362.744C 243.912 363.621 236.015 368.448 235.581 368.448C 235.074 368.448 222.033 377.371 219.714 379.345C 218.483 380.369 215.367 382.783 212.832 384.611C 210.296 386.512 205.369 390.608 201.964 393.753C 198.559 396.97 193.777 401.358 191.314 403.553C 186.822 407.575 169.507 426.809 166.392 431.124C 165.45 432.44 163.638 435.073 162.262 436.975C 160.885 438.876 159.581 440.631 159.364 440.851C 154.8 444.873 133.644 482.464 129.225 494.238C 128.718 495.628 127.269 499.577 126.037 503.015C 124.733 506.452 123.212 510.547 122.632 512.156C 119.444 520.786 114.518 539.508 112.851 549.454C 112.489 551.868 111.692 556.841 111.04 560.425C 110.461 564.081 109.591 569.128 109.157 571.76C 107.997 577.977 107.997 624.636 109.084 630.267C 109.519 632.461 110.461 638.093 111.113 642.7C 112.272 650.379 116.112 668.882 118.068 675.976C 120.314 683.948 124.516 696.161 128.863 707.058C 131.254 712.982 142.411 735.58 143.715 737.043C 144.295 737.701 144.802 738.432 144.802 738.725C 144.802 739.164 149.076 746.404 151.467 750.134C 152.191 751.158 152.988 752.547 153.278 753.132C 153.568 753.717 156.611 758.032 160.016 762.64C 163.421 767.247 166.754 771.781 167.333 772.659C 167.913 773.536 171.173 777.266 174.578 781.069C 177.983 784.799 182.258 789.553 183.997 791.527C 185.736 793.575 189.72 797.524 192.836 800.303C 195.951 803.156 200.225 807.032 202.254 808.933C 206.094 812.59 211.528 816.905 216.961 820.781C 218.628 822.024 221.598 824.218 223.554 825.754C 231.958 832.555 260.721 848.718 273.762 854.057C 275.935 854.934 278.398 855.958 279.195 856.324C 281.224 857.275 298.974 863.491 301.655 864.222C 302.886 864.588 304.77 865.246 305.857 865.685C 307.016 866.124 308.755 866.49 309.769 866.49C 310.783 866.49 312.594 866.928 313.826 867.513C 315.13 868.025 317.304 868.83 318.68 869.269L 321.216 870L 318.318 870C 316.724 869.927 313.319 869.634 310.711 869.269Z"/>
</defs>
</svg>
