<svg width="24" height="24" viewBox="0 0 24 24" version="1.1" xmlns="http://www.w3.org/2000/svg" xmlns:xlink="http://www.w3.org/1999/xlink">
<title>bitcoin</title>
<desc>Created using Figma</desc>
<g id="Canvas" transform="translate(18284 -1511)">
<g id="bitcoin">
<g id="Vector">
<use xlink:href="#path0_fill" transform="translate(-18284 1511)" fill="#F7931A"/>
</g>
<g id="Vector">
<use xlink:href="#path1_fill" transform="translate(-18278.2 1515.18)" fill="#FFFFFF"/>
</g>
</g>
</g>
<defs>
<path id="path0_fill" d="M 23.6381 14.9029C 22.0353 21.3315 15.5243 25.2438 9.09495 23.6407C 2.66827 22.038 -1.24406 15.5266 0.359419 9.09838C 1.9614 2.66907 8.47246 -1.24364 14.8999 0.359095C 21.3288 1.96183 25.2408 8.47401 23.6381 14.9029Z"/>
<path id="path1_fill" d="M 11.4501 6.10906C 11.689 4.51233 10.4733 3.65396 8.81091 3.08134L 9.35015 0.918366L 8.03354 0.590244L 7.50855 2.69622C 7.16243 2.60997 6.80693 2.5286 6.45368 2.44798L 6.98243 0.328122L 5.66657 -4.57759e-08L 5.12695 2.16223C 4.84045 2.09698 4.5592 2.03248 4.28621 1.96461L 4.28771 1.95786L 2.47197 1.50448L 2.12173 2.91072C 2.12173 2.91072 3.09859 3.13459 3.07797 3.14847C 3.61121 3.28159 3.70759 3.63446 3.69146 3.91421L 3.07722 6.37831C 3.11397 6.38769 3.16159 6.40118 3.21409 6.42218C 3.17022 6.41131 3.12334 6.39931 3.07497 6.38769L 2.21398 9.83952C 2.14873 10.0015 1.98336 10.2445 1.61061 10.1523C 1.62373 10.1714 0.653619 9.9134 0.653619 9.9134L 9.15518e-08 11.4205L 1.71336 11.8476C 2.0321 11.9275 2.34448 12.0111 2.65197 12.0899L 2.1071 14.2776L 3.42222 14.6057L 3.96184 12.4412C 4.32108 12.5387 4.66983 12.6287 5.01107 12.7135L 4.47333 14.8678L 5.78994 15.196L 6.33481 13.0124C 8.57991 13.4372 10.2681 13.2659 10.9788 11.2353C 11.5514 9.60028 10.9503 8.65716 9.76903 8.04217C 10.6293 7.84379 11.2773 7.27793 11.4501 6.10906L 11.4501 6.10906ZM 8.44192 10.3274C 8.03504 11.9624 5.2822 11.0785 4.38971 10.8569L 5.1127 7.95854C 6.00519 8.18129 8.86716 8.62229 8.44192 10.3274ZM 8.84916 6.08544C 8.47791 7.57267 6.18669 6.81706 5.44344 6.63181L 6.09894 4.00308C 6.84218 4.18833 9.23578 4.53408 8.84916 6.08544L 8.84916 6.08544Z"/>
</defs>
</svg>
