<svg width="106" height="96" viewBox="0 0 106 96" version="1.1" xmlns="http://www.w3.org/2000/svg" xmlns:xlink="http://www.w3.org/1999/xlink">
<title>book-open-page-variant</title>
<desc>Created using Figma</desc>
<g id="Canvas" transform="translate(20253 518)">
<g id="book-open-page-variant">
<g id="Vector">
<use xlink:href="#path0_fill" transform="translate(-20253 -518)" fill="#FFFFFF"/>
</g>
</g>
</g>
<defs>
<path id="path0_fill" d="M 86.4 0L 62.4 21.6L 62.4 74.4L 86.4 52.8L 86.4 0ZM 26.4 14.4C 17.04 14.4 6.96 16.32 0 21.6L 0 91.968C 0 93.168 1.2 94.368 2.4 94.368C 2.88 94.368 3.12 94.032 3.6 94.032C 10.08 90.912 19.44 88.8 26.4 88.8C 35.76 88.8 45.84 90.72 52.8 96C 59.28 91.92 71.04 88.8 79.2 88.8C 87.12 88.8 95.28 90.288 102 93.888C 102.48 94.128 102.72 94.032 103.2 94.032C 104.4 94.032 105.6 92.832 105.6 91.632L 105.6 21.6C 102.72 19.44 99.6 18 96 16.8L 96 26.4L 96 52.8L 96 81.6C 90.72 79.92 84.96 79.2 79.2 79.2C 71.04 79.2 59.28 82.32 52.8 86.4L 52.8 52.8L 52.8 31.2L 52.8 21.6C 45.84 16.32 35.76 14.4 26.4 14.4Z"/>
</defs>
</svg>
