<svg width="31" height="30" viewBox="0 0 31 30" version="1.1" xmlns="http://www.w3.org/2000/svg" xmlns:xlink="http://www.w3.org/1999/xlink">
<title>briefcase</title>
<desc>Created using Figma</desc>
<g id="Canvas" transform="translate(63322 17762)">
<g id="briefcase">
<g id="Vector">
<use xlink:href="#path0_fill" transform="translate(-63321.8 -17761.5)" fill="#041429"/>
</g>
</g>
</g>
<defs>
<path id="path0_fill" d="M 12.3139 0L 18.4708 0C 19.2872 6.83756e-16 20.0703 0.324432 20.6476 0.901925C 21.2249 1.47942 21.5492 2.26267 21.5492 3.07937L 21.5492 6.15873L 27.7062 6.15873C 28.5226 6.15873 29.3057 6.48316 29.883 7.06066C 30.4603 7.63815 30.7846 8.4214 30.7846 9.2381L 30.7846 26.1746C 30.7846 26.9913 30.4603 27.7746 29.883 28.352C 29.3057 28.9295 28.5226 29.254 27.7062 29.254L 3.07846 29.254C 1.36992 29.254 0 27.8683 0 26.1746L 0 9.2381C 0 7.52905 1.36992 6.15873 3.07846 6.15873L 9.23539 6.15873L 9.23539 3.07937C 9.23539 1.37032 10.6053 0 12.3139 0ZM 18.4708 6.15873L 18.4708 3.07937L 12.3139 3.07937L 12.3139 6.15873L 18.4708 6.15873Z"/>
</defs>
</svg>
