<svg width="275" height="257" viewBox="0 0 275 257" version="1.1" xmlns="http://www.w3.org/2000/svg" xmlns:xlink="http://www.w3.org/1999/xlink">
<title>browser 2</title>
<desc>Created using Figma</desc>
<g id="Canvas" transform="translate(17736 -301)">
<g id="browser 2">
<g id="Vector">
<use xlink:href="#path0_fill" transform="translate(-17736 301)" fill="#B0C4D8"/>
</g>
<g id="Vector">
<use xlink:href="#path1_fill" transform="translate(-17723.5 338.61)" fill="#ECEFF9"/>
</g>
<g id="Group">
<g id="Vector">
<use xlink:href="#path2_fill" transform="translate(-17704.8 432.633)" fill="#D5E3EF"/>
</g>
<g id="Vector">
<use xlink:href="#path3_fill" transform="translate(-17704.8 445.171)" fill="#D5E3EF"/>
</g>
<g id="Vector">
<use xlink:href="#path4_fill" transform="translate(-17704.8 457.707)" fill="#D5E3EF"/>
</g>
<g id="Vector">
<use xlink:href="#path5_fill" transform="translate(-17704.8 470.243)" fill="#D5E3EF"/>
</g>
<g id="Vector">
<use xlink:href="#path6_fill" transform="translate(-17704.8 482.78)" fill="#D5E3EF"/>
</g>
<g id="Vector">
<use xlink:href="#path7_fill" transform="translate(-17704.8 495.316)" fill="#D5E3EF"/>
</g>
<g id="Vector">
<use xlink:href="#path8_fill" transform="translate(-17545.4 432.634)" fill="#D5E3EF"/>
</g>
<g id="Vector">
<use xlink:href="#path9_fill" transform="translate(-17536 445.171)" fill="#D5E3EF"/>
</g>
<g id="Vector">
<use xlink:href="#path10_fill" transform="translate(-17536 457.707)" fill="#D5E3EF"/>
</g>
<g id="Vector">
<use xlink:href="#path11_fill" transform="translate(-17536 470.243)" fill="#D5E3EF"/>
</g>
<g id="Vector">
<use xlink:href="#path12_fill" transform="translate(-17536 482.78)" fill="#D5E3EF"/>
</g>
<g id="Vector">
<use xlink:href="#path13_fill" transform="translate(-17536 495.316)" fill="#D5E3EF"/>
</g>
</g>
<g id="Vector">
<use xlink:href="#path14_fill" transform="translate(-17671 388.756)" fill="#99B4CD"/>
</g>
<g id="Vector">
<use xlink:href="#path15_fill" transform="translate(-17704.8 369.952)" fill="#D5E3EF"/>
</g>
<g id="Vector">
<use xlink:href="#path16_fill" transform="translate(-17671 388.756)" fill="#C4D7E5"/>
</g>
<g id="Group">
<g id="Vector">
<use xlink:href="#path17_fill" transform="translate(-17545.4 432.634)" fill="#B0C4D9"/>
</g>
<g id="Vector">
<use xlink:href="#path18_fill" transform="translate(-17671.9 432.635)" fill="#B0C4D9"/>
</g>
</g>
<g id="Vector">
<use xlink:href="#path19_fill" transform="translate(-17723.5 313.537)" fill="#F04D4E"/>
</g>
<g id="Vector">
<use xlink:href="#path20_fill" transform="translate(-17698.5 313.537)" fill="#FFCB5B"/>
</g>
<g id="Vector">
<use xlink:href="#path21_fill" transform="translate(-17673.5 313.537)" fill="#3BB54A"/>
</g>
<g id="Vector">
<use xlink:href="#path22_fill" transform="translate(-17648.5 313.537)" fill="#E2E7F0"/>
</g>
<g id="Vector">
<use xlink:href="#path23_fill" transform="translate(-17692.2 351.147)" fill="#B0C4D8"/>
</g>
<g id="Group">
<g id="Vector">
<use xlink:href="#path24_fill" transform="translate(-17536 445.17)" fill="#B0C4D9"/>
</g>
<g id="Vector">
<use xlink:href="#path25_fill" transform="translate(-17536 457.708)" fill="#B0C4D9"/>
</g>
<g id="Vector">
<use xlink:href="#path26_fill" transform="translate(-17536 470.243)" fill="#B0C4D9"/>
</g>
<g id="Vector">
<use xlink:href="#path27_fill" transform="translate(-17536 482.78)" fill="#B0C4D9"/>
</g>
<g id="Vector">
<use xlink:href="#path28_fill" transform="translate(-17536 495.316)" fill="#B0C4D9"/>
</g>
</g>
<g id="Group">
<g id="Vector">
<use xlink:href="#path29_fill" transform="translate(-17511 351.146)" fill="#B0C4D8"/>
</g>
<g id="Vector">
<use xlink:href="#path30_fill" transform="translate(-17536 351.146)" fill="#B0C4D8"/>
</g>
<g id="Vector">
<use xlink:href="#path31_fill" transform="translate(-17561 351.146)" fill="#B0C4D8"/>
</g>
<g id="Vector">
<use xlink:href="#path32_fill" transform="translate(-17704.8 351.147)" fill="#B0C4D8"/>
</g>
</g>
<g id="Group">
<g id="Vector">
<use xlink:href="#path33_fill" transform="translate(-17659.1 415.71)" fill="#B0C4D9"/>
</g>
<g id="Vector">
<use xlink:href="#path34_fill" transform="translate(-17617.3 388.13)" fill="#B0C4D9"/>
</g>
<g id="Vector">
<use xlink:href="#path35_fill" transform="translate(-17537.3 415.71)" fill="#B0C4D9"/>
</g>
</g>
<g id="Vector">
<use xlink:href="#path36_fill" transform="translate(-17661 420.098)" fill="#FFFFFF"/>
</g>
<g id="Group">
<g id="Vector">
<use xlink:href="#path37_fill" transform="translate(-17604.8 526.659)" fill="#595A66"/>
</g>
<g id="Vector">
<use xlink:href="#path38_fill" transform="translate(-17672.2 381.861)" fill="#595A66"/>
</g>
</g>
<g id="Vector">
<use xlink:href="#path39_fill" transform="translate(-17598.5 447.052)" fill="url(#paint39_linear)"/>
</g>
<g id="Vector">
<use xlink:href="#path40_fill" transform="translate(-17598.5 432.633)" fill="#E2E7F0"/>
</g>
<g id="Vector">
<use xlink:href="#path41_fill" transform="translate(-17554.7 476.512)" fill="#595A66"/>
</g>
<g id="Vector">
<use xlink:href="#path42_fill" transform="matrix(0.28655 -0.958065 0.957789 0.287472 -17621.8 495.8)" fill="#F04D4F"/>
</g>
<g id="Vector">
<use xlink:href="#path43_fill" transform="matrix(0.28655 -0.958065 0.957789 0.287472 -17618.7 496.336)" fill="#DE333F"/>
</g>
<g id="Vector">
<use xlink:href="#path44_fill" transform="translate(-17611 470.243)" fill="#595A66"/>
</g>
<g id="Vector">
<use xlink:href="#path45_fill" transform="translate(-17609.8 471.497)" fill="#494A52"/>
</g>
<g id="Vector">
<use xlink:href="#path46_fill" transform="translate(-17661 420.098)" fill="#D5DFEA"/>
</g>
<g id="Group">
<g id="Vector">
<use xlink:href="#path47_fill" transform="translate(-17654.8 476.513)" fill="#595A66"/>
</g>
<g id="Vector">
<use xlink:href="#path48_fill" transform="translate(-17604.8 426.366)" fill="#595A66"/>
</g>
</g>
<g id="Vector">
<use xlink:href="#path49_fill" transform="translate(-17673.5 407.561)" fill="#6F707E"/>
</g>
<g id="Group">
<g id="Vector">
<use xlink:href="#path50_fill" transform="translate(-17611 470.244)" fill="#494A52"/>
</g>
<g id="Vector">
<use xlink:href="#path51_fill" transform="translate(-17604.7 395.025)" fill="#494A52"/>
</g>
</g>
<g id="Group">
<g id="Vector">
<use xlink:href="#path52_fill" transform="translate(-17611 382.488)" fill="#6F707E"/>
</g>
<g id="Vector">
<use xlink:href="#path53_fill" transform="translate(-17604.8 476.513)" fill="#6F707E"/>
</g>
</g>
<g id="Group">
<g id="Vector">
<use xlink:href="#path54_fill" transform="translate(-17661 420.098)" fill="#494A52"/>
</g>
<g id="Vector">
<use xlink:href="#path55_fill" transform="translate(-17549.8 420.098)" fill="#494A52"/>
</g>
</g>
</g>
</g>
<defs>
<linearGradient id="paint39_linear" x1="0" y1="0" x2="1" y2="0" gradientUnits="userSpaceOnUse" gradientTransform="matrix(3.55434 19.8537 -27.7837 4.99147 38.8918 -2.49573)">
<stop offset="0" stop-color="#D5DFEA"/>
<stop offset="1" stop-color="#D5DFEA" stop-opacity="0"/>
</linearGradient>
<path id="path0_fill" d="M 262.499 231.926L 12.5001 231.926C 5.62514 231.926 0 226.285 0 219.39L 0 12.5367C 0 5.64159 5.62514 2.54807e-07 12.5001 2.54807e-07L 262.5 2.54807e-07C 269.375 2.54807e-07 275 5.64159 275 12.5367L 275 219.39C 274.999 226.285 269.374 231.926 262.499 231.926Z"/>
<path id="path1_fill" d="M 250 0L 0 0L 0 181.78L 250 181.78L 250 0Z"/>
<path id="path2_fill" d="M 3.1249 -3.68238e-06L 53.1249 -3.68238e-06C 54.9999 -3.68238e-06 56.2497 1.2535 56.2497 3.13403C 56.2497 5.01456 54.9999 6.26808 53.1249 6.26808L 3.1249 6.26808C 1.24985 6.26808 -4.26172e-07 5.01456 -4.26172e-07 3.13403C -4.26172e-07 1.2535 1.24985 -3.68238e-06 3.1249 -3.68238e-06Z"/>
<path id="path3_fill" d="M 3.1249 1.84119e-06L 40.6247 1.84119e-06C 42.4998 1.84119e-06 43.7496 1.25351 43.7496 3.13403C 43.7496 5.01456 42.4998 6.26807 40.6247 6.26807L 3.1249 6.26807C 1.24985 6.26807 -4.26172e-07 5.01456 -4.26172e-07 3.13403C -4.26172e-07 1.25351 1.24985 1.84119e-06 3.1249 1.84119e-06Z"/>
<path id="path4_fill" d="M 3.1249 7.36476e-06L 40.6247 7.36476e-06C 42.4998 7.36476e-06 43.7496 1.25351 43.7496 3.13404C 43.7496 5.01457 42.4998 6.26807 40.6247 6.26807L 3.1249 6.26807C 1.24985 6.26807 -4.26172e-07 5.01457 -4.26172e-07 3.13404C -4.26172e-07 1.25351 1.24985 7.36476e-06 3.1249 7.36476e-06Z"/>
<path id="path5_fill" d="M 3.1249 -7.36476e-06L 40.6247 -7.36476e-06C 42.4998 -7.36476e-06 43.7496 1.25351 43.7496 3.13404C 43.7496 5.01457 42.4998 6.26808 40.6247 6.26808L 3.1249 6.26808C 1.24985 6.26808 -4.26172e-07 5.01457 -4.26172e-07 3.13404C -4.26172e-07 1.25405 1.24985 -7.36476e-06 3.1249 -7.36476e-06Z"/>
<path id="path6_fill" d="M 3.1249 -1.84119e-06L 40.6247 -1.84119e-06C 42.4998 -1.84119e-06 43.7496 1.2535 43.7496 3.13403C 43.7496 5.01456 42.4998 6.26808 40.6247 6.26808L 3.1249 6.26808C 1.24985 6.26808 -4.26172e-07 5.01456 -4.26172e-07 3.13403C -4.26172e-07 1.2535 1.24985 -1.84119e-06 3.1249 -1.84119e-06Z"/>
<path id="path7_fill" d="M 3.1249 3.68238e-06L 40.6247 3.68238e-06C 42.4998 3.68238e-06 43.7496 1.25351 43.7496 3.13404C 43.7496 5.01457 42.4998 6.26807 40.6247 6.26807L 3.1249 6.26807C 1.24985 6.26807 -4.26172e-07 5.01457 -4.26172e-07 3.13404C -4.26172e-07 1.25351 1.24985 3.68238e-06 3.1249 3.68238e-06Z"/>
<path id="path8_fill" d="M 3.12489 -3.68238e-06L 50 -3.68238e-06C 51.875 -3.68238e-06 53.1248 1.2535 53.1248 3.13403C 53.1248 5.01456 51.875 6.26808 50 6.26808L 3.12489 6.26808C 1.24985 6.26808 -1.83582e-06 5.01456 -1.83582e-06 3.13403C -1.83582e-06 1.2535 1.24985 -3.68238e-06 3.12489 -3.68238e-06Z"/>
<path id="path9_fill" d="M 3.1249 1.84119e-06L 40.6247 1.84119e-06C 42.4998 1.84119e-06 43.7496 1.25351 43.7496 3.13403C 43.7496 5.01456 42.4998 6.26807 40.6247 6.26807L 3.1249 6.26807C 1.24985 6.26807 7.34328e-06 5.01456 7.34328e-06 3.13403C 7.34328e-06 1.25351 1.24985 1.84119e-06 3.1249 1.84119e-06Z"/>
<path id="path10_fill" d="M 3.1249 7.36476e-06L 40.6247 7.36476e-06C 42.4998 7.36476e-06 43.7496 1.25351 43.7496 3.13404C 43.7496 5.01457 42.4998 6.26807 40.6247 6.26807L 3.1249 6.26807C 1.24985 6.26807 7.34328e-06 5.01457 7.34328e-06 3.13404C 7.34328e-06 1.25351 1.24985 7.36476e-06 3.1249 7.36476e-06Z"/>
<path id="path11_fill" d="M 3.1249 -7.36476e-06L 40.6247 -7.36476e-06C 42.4998 -7.36476e-06 43.7496 1.25351 43.7496 3.13404C 43.7496 5.01457 42.4998 6.26808 40.6247 6.26808L 3.1249 6.26808C 1.24985 6.26808 7.34328e-06 5.01457 7.34328e-06 3.13404C 7.34328e-06 1.25405 1.24985 -7.36476e-06 3.1249 -7.36476e-06Z"/>
<path id="path12_fill" d="M 3.1249 -1.84119e-06L 40.6247 -1.84119e-06C 42.4998 -1.84119e-06 43.7496 1.2535 43.7496 3.13403C 43.7496 5.01456 42.4998 6.26808 40.6247 6.26808L 3.1249 6.26808C 1.24985 6.26808 7.34328e-06 5.01456 7.34328e-06 3.13403C 7.34328e-06 1.2535 1.24985 -1.84119e-06 3.1249 -1.84119e-06Z"/>
<path id="path13_fill" d="M 3.1249 3.68238e-06L 40.6247 3.68238e-06C 42.4998 3.68238e-06 43.7496 1.25351 43.7496 3.13404C 43.7496 5.01457 42.4998 6.26807 40.6247 6.26807L 3.1249 6.26807C 1.24985 6.26807 7.34328e-06 5.01457 7.34328e-06 3.13404C 7.34328e-06 1.25351 1.24985 3.68238e-06 3.1249 3.68238e-06Z"/>
<path id="path14_fill" d="M 148.75 52.0262C 150 53.2797 151.875 53.9067 153.75 53.9067C 155.625 53.9067 156.875 53.2797 158.75 52.0262C 161.25 49.5187 161.25 45.1311 158.75 42.6235L 145.625 29.4604C 143.125 26.9528 138.75 26.9528 136.25 29.4604C 133.75 31.9679 133.75 36.3555 136.25 38.863L 138.125 40.7436L 132.5 46.3851C 120 35.729 104.375 28.8339 87.4999 27.5804L 87.4999 13.7902L 94.3749 13.7902C 98.125 13.7902 101.25 10.6562 101.25 6.8951C 101.25 3.13404 98.125 -8.54838e-07 94.3749 -8.54838e-07L 66.2498 -8.54838e-07C 62.4997 -8.54838e-07 59.3748 3.13404 59.3748 6.8951C 59.3748 10.6562 62.4997 13.7902 66.2498 13.7902L 73.1247 13.7902L 73.1247 27.5804C 56.2499 28.8339 40.6249 35.729 28.1247 46.3851L 22.5001 40.7436L 24.3752 38.863C 26.8754 36.3555 26.8754 31.9679 24.3752 29.4604C 21.8749 26.9528 17.5002 26.9528 15 29.4604L 1.87518 42.6235C -0.625059 45.1311 -0.625059 49.5187 1.87518 52.0262C 3.12503 53.2797 5.00007 53.9067 6.87512 53.9067C 8.75016 53.9067 10 53.2797 11.8751 52.0262L 13.7501 50.1457L 19.3752 55.7873C 7.50032 69.5775 0.625328 87.7552 0.625328 107.814C 0.625328 120.977 3.75023 133.514 9.37536 144.797L 152.5 144.797C 158.125 133.514 161.25 121.604 161.25 107.814C 161.25 87.7557 153.75 69.5775 142.5 55.7873L 148.125 50.1457L 148.75 52.0262Z"/>
<path id="path15_fill" d="M 212.499 0L 0 0L 0 50.1462L 212.499 50.1462L 212.499 0Z"/>
<path id="path16_fill" d="M 148.75 52.0262C 150 53.2797 151.875 53.9067 153.75 53.9067C 155.625 53.9067 156.875 53.2797 158.75 52.0262C 161.25 49.5186 161.25 45.1311 158.75 42.6235L 145.625 29.4604C 143.125 26.9528 138.75 26.9528 136.25 29.4604C 133.75 31.9679 133.75 36.3555 136.25 38.863L 138.125 40.7436L 132.5 46.3851C 120 35.729 104.375 28.8339 87.4999 27.5804L 87.4999 13.7902L 94.3749 13.7902C 98.125 13.7902 101.25 10.6562 101.25 6.8951C 101.25 3.13404 98.125 -8.54838e-07 94.3749 -8.54838e-07L 66.2498 -8.54838e-07C 62.4997 -8.54838e-07 59.3748 3.13404 59.3748 6.8951C 59.3748 10.6562 62.4997 13.7902 66.2498 13.7902L 73.1247 13.7902L 73.1247 27.5804C 56.2499 28.8339 40.6249 35.729 28.1247 46.3851L 22.5001 40.7436L 24.3752 38.863C 26.8754 36.3555 26.8754 31.9679 24.3752 29.4604C 21.8749 26.9528 17.5002 26.9528 15 29.4604L 1.87518 42.6235C -0.625059 45.1311 -0.625059 49.5186 1.87518 52.0262C 3.12503 53.2797 5.00007 53.9067 6.87512 53.9067C 8.75016 53.9067 10 53.2797 11.8751 52.0262L 13.7501 50.1457L 19.3752 55.7873C 7.50032 69.5774 0.625328 87.7552 0.625328 107.814C 0.625328 115.963 1.87518 124.112 4.37542 132.26L 157.5 132.26C 160 124.738 161.25 116.59 161.25 107.814C 161.25 87.7557 153.75 69.5774 142.5 55.7873L 148.125 50.1457L 148.75 52.0262Z"/>
<path id="path17_fill" d="M 5.62513 1.88052C 4.99994 1.2535 3.75009 0.627019 3.12489 -3.68238e-06C 1.24985 -3.68238e-06 -1.83582e-06 1.2535 -1.83582e-06 3.13403C -1.83582e-06 5.01456 1.24985 6.26808 3.12489 6.26808L 20.625 6.26808L 21.2502 5.64106L 21.8753 6.26808L 33.7503 6.26808C 35.0001 4.38755 35.0001 1.88053 33.7503 -3.68238e-06L 8.12537 -3.68238e-06L 5.62513 1.88052Z"/>
<path id="path18_fill" d="M 13.4375 5.64104L 20.3125 6.26807C 22.1875 6.26807 23.4374 5.01456 23.4374 3.13403C 23.4374 1.2535 22.1875 1.31514e-07 20.3125 1.31514e-07L 0.937387 1.31514e-07C -0.312464 1.88053 -0.312464 4.38754 0.937387 6.26807L 13.4375 5.64104Z"/>
<path id="path19_fill" d="M 6.24979 12.5361C 9.70146 12.5361 12.4996 9.72983 12.4996 6.26807C 12.4996 2.80631 9.70146 0 6.24979 0C 2.79813 0 0 2.80631 0 6.26807C 0 9.72983 2.79813 12.5361 6.24979 12.5361Z"/>
<path id="path20_fill" d="M 6.24979 12.5361C 9.70146 12.5361 12.4996 9.72983 12.4996 6.26807C 12.4996 2.80631 9.70146 0 6.24979 0C 2.79813 0 0 2.80631 0 6.26807C 0 9.72983 2.79813 12.5361 6.24979 12.5361Z"/>
<path id="path21_fill" d="M 6.24979 12.5361C 9.70146 12.5361 12.4996 9.72983 12.4996 6.26807C 12.4996 2.80631 9.70146 0 6.24979 0C 2.79813 0 0 2.80631 0 6.26807C 0 9.72983 2.79813 12.5361 6.24979 12.5361Z"/>
<path id="path22_fill" d="M 168.75 12.5361L 6.24979 12.5361C 2.4997 12.5361 -1.83582e-06 10.0286 -1.83582e-06 6.26807C -1.83582e-06 2.50701 2.50024 3.45223e-07 6.24979 3.45223e-07L 168.749 3.45223e-07C 172.499 3.45223e-07 174.999 2.50755 174.999 6.26807C 175 10.0286 172.5 12.5361 168.75 12.5361Z"/>
<path id="path23_fill" d="M 3.1249 -9.86351e-07L 40.6247 -9.86351e-07C 42.4998 -9.86351e-07 43.7496 1.25351 43.7496 3.13404C 43.7496 5.01457 42.4998 6.26807 40.6247 6.26807L 3.1249 6.26807C 1.24985 6.26807 9.83475e-07 5.01457 9.83475e-07 3.13404C 9.83475e-07 1.25405 1.24985 -9.86351e-07 3.1249 -9.86351e-07Z"/>
<path id="path24_fill" d="M 6.87499 1.84119e-06L 3.1249 1.84119e-06C 1.24985 1.84119e-06 7.34328e-06 1.25351 7.34328e-06 3.13403C 7.34328e-06 5.01456 1.24985 6.26807 3.1249 6.26807L 11.2497 6.26807C 9.99988 4.38754 8.12484 1.88053 6.87499 1.84119e-06Z"/>
<path id="path25_fill" d="M 14.9998 7.36476e-06L 3.1249 7.36476e-06C 1.24985 7.36476e-06 7.34328e-06 1.25351 7.34328e-06 3.13404C 7.34328e-06 5.01457 1.24985 6.26807 3.1249 6.26807L 18.1247 6.26807C 17.4995 4.38754 16.2497 1.88054 14.9998 7.36476e-06Z"/>
<path id="path26_fill" d="M 20.625 -7.36476e-06L 3.1249 -7.36476e-06C 1.24985 -7.36476e-06 7.34328e-06 1.25351 7.34328e-06 3.13404C 7.34328e-06 5.01457 1.24985 6.26808 3.1249 6.26808L 22.5 6.26808C 21.8748 4.38808 21.2496 1.88052 20.625 -7.36476e-06Z"/>
<path id="path27_fill" d="M 23.7499 -1.84119e-06L 3.1249 -1.84119e-06C 1.24985 -1.84119e-06 7.34328e-06 1.2535 7.34328e-06 3.13403C 7.34328e-06 5.01456 1.24985 6.26808 3.1249 6.26808L 24.3751 6.26808C 24.3745 4.38809 24.3745 1.88053 23.7499 -1.84119e-06Z"/>
<path id="path28_fill" d="M 7.34328e-06 3.13458C 7.34328e-06 5.01511 1.24985 6.26861 3.1249 6.26861L 24.9997 6.26861C 24.9997 4.38808 24.9997 2.50755 24.9997 0.627024L 24.9997 -1.31514e-07L 3.1249 -1.31514e-07C 1.24985 0.000538548 7.34328e-06 1.25405 7.34328e-06 3.13458Z"/>
<path id="path29_fill" d="M 3.12489 -9.86351e-07L 15.625 -9.86351e-07C 17.5001 -9.86351e-07 18.7499 1.25351 18.7499 3.13404C 18.7499 5.01457 17.5001 6.26807 15.625 6.26807L 3.12489 6.26807C 1.24985 6.26807 -1.83582e-06 5.01457 -1.83582e-06 3.13404C -1.83582e-06 1.25405 1.24985 -9.86351e-07 3.12489 -9.86351e-07Z"/>
<path id="path30_fill" d="M 3.1249 -9.86351e-07L 15.625 -9.86351e-07C 17.5001 -9.86351e-07 18.7499 1.25351 18.7499 3.13404C 18.7499 5.01457 17.5001 6.26807 15.625 6.26807L 3.1249 6.26807C 1.24985 6.26807 7.34328e-06 5.01457 7.34328e-06 3.13404C 7.34328e-06 1.25405 1.24985 -9.86351e-07 3.1249 -9.86351e-07Z"/>
<path id="path31_fill" d="M 3.12489 -9.86351e-07L 15.625 -9.86351e-07C 17.5001 -9.86351e-07 18.7499 1.25351 18.7499 3.13404C 18.7499 5.01457 17.5001 6.26807 15.625 6.26807L 3.12489 6.26807C 1.24984 6.26807 -3.67164e-06 5.01457 -3.67164e-06 3.13404C -3.67164e-06 1.25405 1.24984 -9.86351e-07 3.12489 -9.86351e-07Z"/>
<path id="path32_fill" d="M 3.1249 -9.86351e-07C 1.24985 -9.86351e-07 -4.26172e-07 1.25351 -4.26172e-07 3.13404C -4.26172e-07 5.01457 1.24985 6.26807 3.1249 6.26807C 4.99994 6.26807 6.24979 5.01457 6.24979 3.13404C 6.24979 1.25405 4.99994 -9.86351e-07 3.1249 -9.86351e-07ZM 3.1249 1.88053C 3.1249 1.88053 3.1249 1.25405 3.1249 1.88053C 3.1249 1.25405 3.1249 1.88053 3.1249 1.88053Z"/>
<path id="path33_fill" d="M 2.50024 1.88067L -5.90085e-07 4.38822L 13.75 4.38822C 13.1248 3.7612 13.1248 2.50769 12.5001 1.88067C 9.37522 -0.626885 5.62513 -0.626885 2.50024 1.88067Z"/>
<path id="path34_fill" d="M 1.83582e-06 31.9679L 52.4997 31.9679C 46.2499 30.0874 39.9995 28.2069 33.1245 27.5804L 33.1245 13.7902L 39.9995 13.7902C 43.7496 13.7902 46.8745 10.6562 46.8745 6.8951C 46.8745 3.13404 43.7496 -1.64392e-06 39.9995 -1.64392e-06L 12.4996 -1.64392e-06C 8.7495 -1.64392e-06 5.6246 3.13404 5.6246 6.8951C 5.6246 10.6562 8.7495 13.7902 12.4996 13.7902L 19.3746 13.7902L 19.3746 27.5804C 12.5001 28.2074 5.62514 30.0879 1.83582e-06 31.9679Z"/>
<path id="path35_fill" d="M 1.24986 1.88067C 0.624664 2.50769 -6.81876e-06 3.7612 -6.81876e-06 4.38822L 13.75 4.38822L 11.2497 1.88067C 8.12483 -0.626885 3.74956 -0.626885 1.24986 1.88067Z"/>
<path id="path36_fill" d="M 62.5001 125.366C 97.0179 125.366 125 97.3017 125 62.6829C 125 28.0641 97.0179 0 62.5001 0C 27.9822 0 0 28.0641 0 62.6829C 0 97.3017 27.9822 125.366 62.5001 125.366Z"/>
<path id="path37_fill" d="M 6.24979 12.5361C 9.70146 12.5361 12.4996 9.72984 12.4996 6.26807C 12.4996 2.80631 9.70146 7.36476e-06 6.24979 7.36476e-06C 2.79813 7.36476e-06 0 2.80631 0 6.26807C 0 9.72984 2.79813 12.5361 6.24979 12.5361Z"/>
<path id="path38_fill" d="M 136.252 47.0116L 138.127 48.8922C 139.376 50.1457 141.251 50.7727 142.501 50.7727C 143.751 50.7727 145.626 50.1457 146.876 48.8922C 149.376 46.3846 149.376 42.6241 146.876 40.1165L 134.376 27.5798C 131.876 25.0723 128.126 25.0723 125.626 27.5798C 123.126 30.0874 123.126 33.8479 125.626 36.3555L 127.501 38.236L 122.501 43.2506C 110.626 33.2214 96.2509 26.9528 80.6259 25.6993L 80.6259 12.5361L 86.8757 12.5361C 90.6258 12.5361 93.1255 10.0286 93.1255 6.26807C 93.1255 2.50701 90.6252 -2.49876e-06 86.8757 -2.49876e-06L 61.876 -2.49876e-06C 58.1259 -2.49876e-06 55.6262 2.50755 55.6262 6.26807C 55.6262 10.0291 58.1264 12.5361 61.876 12.5361L 68.1257 12.5361L 68.1257 25.6993C 51.8755 26.9528 37.5009 33.2214 26.2506 43.2506L 21.2507 38.236L 23.1257 36.3555C 25.626 33.8479 25.626 30.0874 23.1257 27.5798C 20.6255 25.0723 16.8759 25.0723 14.3757 27.5798L 1.87558 40.1165C -0.624657 42.6241 -0.624657 46.3846 1.87558 48.8922C 3.12543 50.1457 5.00048 50.7727 6.25033 50.7727C 7.50018 50.7727 9.37523 50.1457 10.6251 48.8922L 12.5001 47.0116L 17.5001 52.0262C 6.25033 65.1894 1.90138e-06 82.1141 1.90138e-06 100.292C 1.90138e-06 141.662 33.7497 175.511 74.9997 175.511C 116.25 175.511 149.999 141.662 149.999 100.292C 149.999 82.1141 143.124 65.1894 132.499 52.0262L 136.252 47.0116ZM 73.7514 163.602C 39.3765 163.602 11.2513 135.394 11.2513 100.919C 11.2513 66.4434 39.3765 38.236 73.7514 38.236C 108.126 38.236 136.252 66.4434 136.252 100.919C 136.252 135.394 108.126 163.602 73.7514 163.602Z"/>
<path id="path39_fill" d="M 50 35.729L 0 35.729L 35.6248 3.94541e-07C 44.3748 9.40211 50 21.9388 50 35.729Z"/>
<path id="path40_fill" d="M 35.6248 14.4172L 0 50.1462L 0 -3.68238e-06C 13.75 -3.68238e-06 26.2501 5.64159 35.6248 14.4172Z"/>
<path id="path41_fill" d="M 6.24979 12.5362C 9.70146 12.5362 12.4996 9.72983 12.4996 6.26807C 12.4996 2.80631 9.70146 5.52357e-06 6.24979 5.52357e-06C 2.79813 5.52357e-06 -7.21215e-06 2.80631 -7.21215e-06 6.26807C -7.21215e-06 9.72983 2.79813 12.5362 6.24979 12.5362Z"/>
<path id="path42_fill" d="M 50.0805 56.3244C 48.2024 56.3244 46.9506 55.6984 45.6987 54.4469L 1.8782 10.6392C -0.626065 8.13566 -0.626065 4.38117 1.8782 1.87764C 4.38246 -0.625887 8.13804 -0.625887 10.6423 1.87764L 54.4628 45.6854C 56.9671 48.1889 56.9671 51.9434 54.4628 54.4469C 53.2104 55.6989 51.9586 56.3244 50.0805 56.3244Z"/>
<path id="path43_fill" d="M 54.0827 45.0592C 52.8309 46.3107 50.9528 46.9367 49.7009 46.9367C 48.4491 46.9367 46.571 46.3107 45.3191 45.0592L 1.49865 1.25149C 0.872446 0.625473 0.872445 0.625475 0.872445 -3.67647e-06C -0.379416 2.50352 -0.379415 5.63254 1.49865 7.51005L 45.3191 51.3177C 46.571 52.5692 48.4491 53.1953 49.7009 53.1953C 50.9528 53.1953 52.8309 52.5692 54.0827 51.3177C 55.9608 49.4402 56.587 46.3112 54.7089 43.8077C 54.7089 44.4332 54.7089 44.4332 54.0827 45.0592Z"/>
<path id="path44_fill" d="M 12.5001 25.0734C 19.4038 25.0734 25.0002 19.4605 25.0002 12.5367C 25.0002 5.61286 19.4038 -7.36476e-06 12.5001 -7.36476e-06C 5.5965 -7.36476e-06 2.68816e-06 5.61286 2.68816e-06 12.5367C 2.68816e-06 19.4605 5.5965 25.0734 12.5001 25.0734Z"/>
<path id="path45_fill" d="M 16.2502 -5.7866e-06C 16.8754 1.88052 17.5001 3.13404 17.5001 5.01457C 17.5001 11.9097 11.8749 17.5512 4.99995 17.5512C 3.1249 17.5512 1.24985 16.9242 4.58955e-07 16.2977C 1.87505 20.6853 6.24979 23.8199 11.2497 23.8199C 18.1247 23.8199 23.7499 18.1783 23.7499 11.2832C 23.7504 6.26807 20.6255 1.88052 16.2502 -5.7866e-06Z"/>
<path id="path46_fill" d="M 6.25033 68.951C 6.25033 34.4755 34.3755 6.26807 68.7504 6.26807C 84.3754 6.26807 98.7506 11.9097 109.375 21.9388C 98.1254 8.77563 81.25 -9.86351e-07 62.5001 -9.86351e-07C 28.1251 -9.86351e-07 8.52345e-07 28.2074 8.52345e-07 62.6829C 8.52345e-07 81.4876 8.12484 98.4119 21.8748 109.695C 11.8749 99.0389 6.25033 84.6217 6.25033 68.951Z"/>
<path id="path47_fill" d="M 6.24979 12.5362C 9.70146 12.5362 12.4996 9.72983 12.4996 6.26807C 12.4996 2.80631 9.70146 5.52357e-06 6.24979 5.52357e-06C 2.79813 5.52357e-06 -2.68816e-06 2.80631 -2.68816e-06 6.26807C -2.68816e-06 9.72983 2.79813 12.5362 6.24979 12.5362Z"/>
<path id="path48_fill" d="M 6.24979 12.5362C 9.70146 12.5362 12.4996 9.72983 12.4996 6.26807C 12.4996 2.80631 9.70146 3.68238e-06 6.24979 3.68238e-06C 2.79813 3.68238e-06 0 2.80631 0 6.26807C 0 9.72983 2.79813 12.5362 6.24979 12.5362Z"/>
<path id="path49_fill" d="M 74.9997 -2.69603e-06C 33.7497 -2.69603e-06 -8.52345e-07 33.8485 -8.52345e-07 75.219C 3.1249 75.219 6.24979 72.7115 6.24979 68.951C 7.49964 54.5338 13.1248 41.3706 21.8748 31.3414C 33.1245 17.5512 50 8.14861 68.7499 6.26861C 72.4994 6.26808 74.9997 3.13403 74.9997 -2.69603e-06Z"/>
<path id="path50_fill" d="M 81.2495 12.5367C 81.2495 32.595 73.1246 50.1462 59.3746 62.6829C 46.8745 73.9655 30.6243 81.4876 12.4996 81.4876C 10.6245 81.4876 8.12484 81.4876 6.24979 80.8606C 3.1249 80.2336 -1.70469e-06 82.7411 -1.70469e-06 86.5022C 4.37475 87.1292 8.12484 87.7557 12.5001 87.7557C 33.1251 87.7557 51.875 79.6071 65.625 65.8169C 79.3749 52.0267 87.4998 33.222 87.4998 12.5367C 87.4998 8.14914 86.8746 4.38808 86.2499 -7.36476e-06C 83.125 -7.36476e-06 80.6248 3.13404 80.6248 6.26808C 81.2495 8.14914 81.2495 10.6562 81.2495 12.5367Z"/>
<path id="path51_fill" d="M 6.24979 0L -8.52345e-07 0L -8.52345e-07 6.26807L 6.24979 6.26807L 6.24979 12.5361C 8.12484 12.5361 10.6245 12.5361 12.4996 13.1632L 12.4996 6.26807L 12.4996 0L 6.24979 0Z"/>
<path id="path52_fill" d="M 3.1249 2.69603e-06L 15.625 2.69603e-06C 17.5001 2.69603e-06 18.7499 1.25351 18.7499 3.13404C 18.7499 5.01457 17.5001 6.26808 15.625 6.26808L 3.1249 6.26808C 1.24985 6.26808 2.68816e-06 5.01457 2.68816e-06 3.13404C 2.68816e-06 1.25404 1.25039 2.69603e-06 3.1249 2.69603e-06Z"/>
<path id="path53_fill" d="M 3.1249 6.26807C 4.85073 6.26807 6.24979 4.86492 6.24979 3.13404C 6.24979 1.40316 4.85073 5.52357e-06 3.1249 5.52357e-06C 1.39907 5.52357e-06 0 1.40316 0 3.13404C 0 4.86492 1.39907 6.26807 3.1249 6.26807Z"/>
<path id="path54_fill" d="M 9.37523 9.40211C 10.6251 8.1486 12.5001 6.26807 13.75 5.01456L 8.75003 2.82754e-06L 8.52345e-07 8.77563L 4.99995 13.7902C 6.87499 12.5361 8.12538 11.2826 9.37523 9.40211Z"/>
<path id="path55_fill" d="M 4.37528 9.40265C 5.62513 10.6562 7.50017 12.5367 8.75002 13.7902L 13.75 8.77563L 4.99994 -9.86351e-07L 2.6226e-07 5.01457C 1.25039 6.8951 2.50024 8.14914 4.37528 9.40265Z"/>
</defs>
</svg>
