<svg width="58" height="98" viewBox="0 0 58 98" version="1.1" xmlns="http://www.w3.org/2000/svg" xmlns:xlink="http://www.w3.org/1999/xlink">
<title>cash-usd</title>
<desc>Created using Figma</desc>
<g id="Canvas" transform="translate(17391 517)">
<g id="cash-usd">
<g id="Vector">
<mask id="mask0_outline_ins">
<use xlink:href="#path0_fill" fill="white" transform="translate(-17390.8 -516.125)"/>
</mask>
<g mask="url(#mask0_outline_ins)">
<use xlink:href="#path1_stroke_2x" transform="translate(-17390.8 -516.125)" fill="#FFFFFF"/>
</g>
</g>
</g>
</g>
<defs>
<path id="path0_fill" d="M 38.4 96.25L 19.2 96.25L 19.2 86.625L 0 86.625L 0 67.375L 38.4 67.375L 38.4 57.75L 9.6 57.75C 7.05392 57.75 4.61212 56.7359 2.81178 54.9309C 1.01143 53.1259 0 50.6777 0 48.125L 0 19.25C 0 16.6973 1.01143 14.2491 2.81178 12.4441C 4.61212 10.6391 7.05392 9.625 9.6 9.625L 19.2 9.625L 19.2 0L 38.4 0L 38.4 9.625L 57.6 9.625L 57.6 28.875L 19.2 28.875L 19.2 38.5L 48 38.5C 50.5461 38.5 52.9879 39.5141 54.7882 41.3191C 56.5886 43.1241 57.6 45.5723 57.6 48.125L 57.6 77C 57.6 79.5527 56.5886 82.0009 54.7882 83.8059C 52.9879 85.6109 50.5461 86.625 48 86.625L 38.4 86.625L 38.4 96.25Z"/>
<path id="path1_stroke_2x" d="M 19.2 96.25L 15.2 96.25L 15.2 100.25L 19.2 100.25L 19.2 96.25ZM 38.4 96.25L 38.4 100.25L 42.4 100.25L 42.4 96.25L 38.4 96.25ZM 38.4 86.625L 38.4 82.625L 34.4 82.625L 34.4 86.625L 38.4 86.625ZM 19.2 38.5L 15.2 38.5L 15.2 42.5L 19.2 42.5L 19.2 38.5ZM 19.2 28.875L 19.2 24.875L 15.2 24.875L 15.2 28.875L 19.2 28.875ZM 57.6 28.875L 57.6 32.875L 61.6 32.875L 61.6 28.875L 57.6 28.875ZM 57.6 9.625L 61.6 9.625L 61.6 5.625L 57.6 5.625L 57.6 9.625ZM 38.4 9.625L 34.4 9.625L 34.4 13.625L 38.4 13.625L 38.4 9.625ZM 38.4 0L 42.4 0L 42.4 -4L 38.4 -4L 38.4 0ZM 19.2 0L 19.2 -4L 15.2 -4L 15.2 0L 19.2 0ZM 19.2 9.625L 19.2 13.625L 23.2 13.625L 23.2 9.625L 19.2 9.625ZM 38.4 57.75L 42.4 57.75L 42.4 53.75L 38.4 53.75L 38.4 57.75ZM 38.4 67.375L 38.4 71.375L 42.4 71.375L 42.4 67.375L 38.4 67.375ZM 0 67.375L 0 63.375L -4 63.375L -4 67.375L 0 67.375ZM 0 86.625L -4 86.625L -4 90.625L 0 90.625L 0 86.625ZM 19.2 86.625L 23.2 86.625L 23.2 82.625L 19.2 82.625L 19.2 86.625ZM 19.2 100.25L 38.4 100.25L 38.4 92.25L 19.2 92.25L 19.2 100.25ZM 42.4 96.25L 42.4 86.625L 34.4 86.625L 34.4 96.25L 42.4 96.25ZM 38.4 90.625L 48 90.625L 48 82.625L 38.4 82.625L 38.4 90.625ZM 48 90.625C 51.6103 90.625 55.0706 89.187 57.6203 86.6306L 51.9561 80.9812C 50.9051 82.0349 49.4818 82.625 48 82.625L 48 90.625ZM 57.6203 86.6306C 60.1697 84.0747 61.6 80.6102 61.6 77L 53.6 77C 53.6 78.4952 53.0075 79.927 51.9561 80.9812L 57.6203 86.6306ZM 61.6 77L 61.6 48.125L 53.6 48.125L 53.6 77L 61.6 77ZM 61.6 48.125C 61.6 44.5148 60.1697 41.0503 57.6203 38.4944L 51.9561 44.1438C 53.0075 45.1979 53.6 46.6298 53.6 48.125L 61.6 48.125ZM 57.6203 38.4944C 55.0706 35.938 51.6103 34.5 48 34.5L 48 42.5C 49.4818 42.5 50.9051 43.0901 51.9561 44.1438L 57.6203 38.4944ZM 48 34.5L 19.2 34.5L 19.2 42.5L 48 42.5L 48 34.5ZM 23.2 38.5L 23.2 28.875L 15.2 28.875L 15.2 38.5L 23.2 38.5ZM 19.2 32.875L 57.6 32.875L 57.6 24.875L 19.2 24.875L 19.2 32.875ZM 61.6 28.875L 61.6 9.625L 53.6 9.625L 53.6 28.875L 61.6 28.875ZM 57.6 5.625L 38.4 5.625L 38.4 13.625L 57.6 13.625L 57.6 5.625ZM 42.4 9.625L 42.4 0L 34.4 0L 34.4 9.625L 42.4 9.625ZM 38.4 -4L 19.2 -4L 19.2 4L 38.4 4L 38.4 -4ZM 15.2 0L 15.2 9.625L 23.2 9.625L 23.2 0L 15.2 0ZM 19.2 5.625L 9.6 5.625L 9.6 13.625L 19.2 13.625L 19.2 5.625ZM 9.6 5.625C 5.98969 5.625 2.52936 7.06303 -0.0203275 9.61935L 5.64388 15.2688C 6.69489 14.2151 8.11815 13.625 9.6 13.625L 9.6 5.625ZM -0.0203275 9.61935C -2.56967 12.1753 -4 15.6398 -4 19.25L 4 19.25C 4 17.7548 4.59252 16.3229 5.64388 15.2688L -0.0203275 9.61935ZM -4 19.25L -4 48.125L 4 48.125L 4 19.25L -4 19.25ZM -4 48.125C -4 51.7352 -2.56967 55.1997 -0.0203282 57.7556L 5.64388 52.1062C 4.59252 51.0521 4 49.6202 4 48.125L -4 48.125ZM -0.0203282 57.7556C 2.52936 60.312 5.98969 61.75 9.6 61.75L 9.6 53.75C 8.11815 53.75 6.69489 53.1599 5.64388 52.1062L -0.0203282 57.7556ZM 9.6 61.75L 38.4 61.75L 38.4 53.75L 9.6 53.75L 9.6 61.75ZM 34.4 57.75L 34.4 67.375L 42.4 67.375L 42.4 57.75L 34.4 57.75ZM 38.4 63.375L 0 63.375L 0 71.375L 38.4 71.375L 38.4 63.375ZM -4 67.375L -4 86.625L 4 86.625L 4 67.375L -4 67.375ZM 0 90.625L 19.2 90.625L 19.2 82.625L 0 82.625L 0 90.625ZM 15.2 86.625L 15.2 96.25L 23.2 96.25L 23.2 86.625L 15.2 86.625Z"/>
</defs>
</svg>
