<svg width="269" height="258" viewBox="0 0 269 258" version="1.1" xmlns="http://www.w3.org/2000/svg" xmlns:xlink="http://www.w3.org/1999/xlink">
<title>Group 29.1</title>
<desc>Created using Figma</desc>
<g id="Canvas" transform="translate(17188 153)">
<g id="Group 29.1">
<g id="Group 11">
<g id="money-bag">
<g id="Vector">
<use xlink:href="#path0_fill" transform="translate(-17188 80.4281)" fill="#F6B545"/>
</g>
<g id="Vector">
<use xlink:href="#path1_fill" transform="translate(-17188 80.4298)" fill="#FFCB5B"/>
</g>
<g id="Group">
<g id="Vector">
<use xlink:href="#path2_fill" transform="translate(-17188 86.5718)" fill="#F19920"/>
</g>
<g id="Vector">
<use xlink:href="#path3_fill" transform="translate(-17175.8 86.5719)" fill="#F19920"/>
</g>
<g id="Vector">
<use xlink:href="#path4_fill" transform="translate(-17157.4 86.5719)" fill="#F19920"/>
</g>
<g id="Vector">
<use xlink:href="#path5_fill" transform="translate(-17139.1 86.5719)" fill="#F19920"/>
</g>
<g id="Vector">
<use xlink:href="#path6_fill" transform="translate(-17120.8 86.5719)" fill="#F19920"/>
</g>
<g id="Vector">
<use xlink:href="#path7_fill" transform="translate(-17102.4 86.5719)" fill="#F19920"/>
</g>
<g id="Vector">
<use xlink:href="#path8_fill" transform="translate(-17084.1 86.5719)" fill="#F19920"/>
</g>
</g>
<g id="Vector">
<use xlink:href="#path9_fill" transform="translate(-17175.8 55.8576)" fill="#F6B545"/>
</g>
<g id="Vector">
<use xlink:href="#path10_fill" transform="translate(-17175.8 55.8576)" fill="#FFCB5B"/>
</g>
<g id="Group">
<g id="Vector">
<use xlink:href="#path11_fill" transform="translate(-17175.8 62.0001)" fill="#F19920"/>
</g>
<g id="Vector">
<use xlink:href="#path12_fill" transform="translate(-17163.5 61.9998)" fill="#F19920"/>
</g>
<g id="Vector">
<use xlink:href="#path13_fill" transform="translate(-17145.2 61.9998)" fill="#F19920"/>
</g>
<g id="Vector">
<use xlink:href="#path14_fill" transform="translate(-17126.9 61.9998)" fill="#F19920"/>
</g>
<g id="Vector">
<use xlink:href="#path15_fill" transform="translate(-17108.5 61.9998)" fill="#F19920"/>
</g>
<g id="Vector">
<use xlink:href="#path16_fill" transform="translate(-17090.2 61.9998)" fill="#F19920"/>
</g>
<g id="Vector">
<use xlink:href="#path17_fill" transform="translate(-17071.8 61.9998)" fill="#F19920"/>
</g>
</g>
<g id="Vector">
<use xlink:href="#path18_fill" transform="translate(-17163.5 6.71413)" fill="#F6B545"/>
</g>
<g id="Vector">
<use xlink:href="#path19_fill" transform="translate(-17163.5 6.71413)" fill="#FFCB5B"/>
</g>
<g id="Group">
<g id="Vector">
<use xlink:href="#path20_fill" transform="translate(-17163.5 12.8568)" fill="#F19920"/>
</g>
<g id="Vector">
<use xlink:href="#path21_fill" transform="translate(-17151.3 12.8571)" fill="#F19920"/>
</g>
<g id="Vector">
<use xlink:href="#path22_fill" transform="translate(-17133 12.8571)" fill="#F19920"/>
</g>
<g id="Vector">
<use xlink:href="#path23_fill" transform="translate(-17114.6 12.8571)" fill="#F19920"/>
</g>
<g id="Vector">
<use xlink:href="#path24_fill" transform="translate(-17096.3 12.8571)" fill="#F19920"/>
</g>
<g id="Vector">
<use xlink:href="#path25_fill" transform="translate(-17078 12.8571)" fill="#F19920"/>
</g>
<g id="Vector">
<use xlink:href="#path26_fill" transform="translate(-17059.6 12.8571)" fill="#F19920"/>
</g>
</g>
<g id="Vector">
<use xlink:href="#path27_fill" transform="translate(-17175.8 -17.8572)" fill="#F6B545"/>
</g>
<g id="Vector">
<use xlink:href="#path28_fill" transform="translate(-17175.8 -17.8572)" fill="#FFCB5B"/>
</g>
<g id="Group">
<g id="Vector">
<use xlink:href="#path29_fill" transform="translate(-17175.8 -11.7151)" fill="#F19920"/>
</g>
<g id="Vector">
<use xlink:href="#path30_fill" transform="translate(-17163.5 -11.7151)" fill="#F19920"/>
</g>
<g id="Vector">
<use xlink:href="#path31_fill" transform="translate(-17145.2 -11.7151)" fill="#F19920"/>
</g>
<g id="Vector">
<use xlink:href="#path32_fill" transform="translate(-17126.9 -11.7151)" fill="#F19920"/>
</g>
<g id="Vector">
<use xlink:href="#path33_fill" transform="translate(-17108.5 -11.7151)" fill="#F19920"/>
</g>
<g id="Vector">
<use xlink:href="#path34_fill" transform="translate(-17090.2 -11.7151)" fill="#F19920"/>
</g>
<g id="Vector">
<use xlink:href="#path35_fill" transform="translate(-17071.8 -11.7151)" fill="#F19920"/>
</g>
</g>
<g id="Vector">
<use xlink:href="#path36_fill" transform="translate(-17188 31.2863)" fill="#F6B545"/>
</g>
<g id="Vector">
<use xlink:href="#path37_fill" transform="translate(-17188 31.2863)" fill="#FFCB5B"/>
</g>
<g id="Group">
<g id="Vector">
<use xlink:href="#path38_fill" transform="translate(-17188 37.4272)" fill="#F19920"/>
</g>
<g id="Vector">
<use xlink:href="#path39_fill" transform="translate(-17175.8 37.4268)" fill="#F19920"/>
</g>
<g id="Vector">
<use xlink:href="#path40_fill" transform="translate(-17157.4 37.4268)" fill="#F19920"/>
</g>
<g id="Vector">
<use xlink:href="#path41_fill" transform="translate(-17139.1 37.4268)" fill="#F19920"/>
</g>
<g id="Vector">
<use xlink:href="#path42_fill" transform="translate(-17120.8 37.4268)" fill="#F19920"/>
</g>
<g id="Vector">
<use xlink:href="#path43_fill" transform="translate(-17102.4 37.4268)" fill="#F19920"/>
</g>
<g id="Vector">
<use xlink:href="#path44_fill" transform="translate(-17084.1 37.4268)" fill="#F19920"/>
</g>
</g>
<g id="Vector">
<use xlink:href="#path45_fill" transform="translate(-17151.3 -153)" fill="#C97629"/>
</g>
<g id="Vector">
<use xlink:href="#path46_fill" transform="translate(-17150.7 -153)" fill="#B06328"/>
</g>
<g id="Vector">
<use xlink:href="#path47_fill" transform="translate(-17071.8 -103.858)" fill="#FFCB5B"/>
</g>
<g id="Vector">
<use xlink:href="#path48_fill" transform="translate(-17065.7 -103.856)" fill="#FFE278"/>
</g>
<g id="Vector">
<use xlink:href="#path49_fill" transform="translate(-17071.2 -103.856)" fill="#F6B545"/>
</g>
<g id="Vector">
<use xlink:href="#path50_fill" transform="translate(-17029 -91.5712)" fill="#F19920"/>
</g>
<g id="Vector">
<use xlink:href="#path51_fill" transform="translate(-17041.3 -85.4286)" fill="#F6B545"/>
</g>
<g id="Vector">
<use xlink:href="#path52_fill" transform="translate(-17041.3 -85.4286)" fill="#F19920"/>
</g>
<g id="Vector">
<use xlink:href="#path53_fill" transform="translate(-17084.1 -42.4277)" fill="#F6B545"/>
</g>
<g id="Vector">
<use xlink:href="#path54_fill" transform="translate(-17066.3 -24.6146)" fill="#B06328"/>
</g>
<g id="Vector">
<use xlink:href="#path55_fill" transform="translate(-17078 -36.2851)" fill="#FFCB5B"/>
</g>
<g id="Vector">
<use xlink:href="#path56_fill" transform="translate(-17035.2 6.71413)" fill="#F19920"/>
</g>
<g id="Vector">
<use xlink:href="#path57_fill" transform="translate(-17084.1 -42.4277)" fill="#FFE27A"/>
</g>
</g>
<g id="Vector">
<use xlink:href="#path55_fill" transform="translate(-17078 -36.2852)" fill="#FFCB5B"/>
</g>
</g>
<g id="Group 26.1">
<g id="Group 24.3 2.5">
<g id="Canvas">
<g id="Group 24.3">
<g id="Group 18">
<g id="Group 17.20">
<g id="Group 14">
<g id="Ellipse 3.2">
<mask id="mask0_alpha" mask-type="alpha">
<g id="mask0 alpha">
<g id="mask1 outline ins">
<g id="Vector">
<g id="Vector">
<use xlink:href="#path58_fill" transform="matrix(0.87141 -0.490556 0.481729 0.87632 -17019 0.0514536)" fill="#E78825"/>
</g>
</g>
</g>
</g>
</mask>
<g id="Group" mask="url(#mask0_alpha)">
<g id="Vector">
<g id="Vector">
<use xlink:href="#path59_fill" transform="matrix(0.87141 -0.490556 0.481729 0.87632 -17024.3 -1.45087)" fill="#E78825"/>
</g>
</g>
</g>
</g>
</g>
</g>
<g id="Rectangle 14.44">
<mask id="mask1_alpha" mask-type="alpha">
<g id="mask1 alpha">
<g id="mask2 outline ins">
<g id="Vector">
<g id="Vector">
<use xlink:href="#path60_fill" transform="matrix(0.87141 -0.490556 0.481729 0.87632 -17030 14.7746)" fill="#E78825"/>
</g>
</g>
</g>
</g>
</mask>
<g id="Group" mask="url(#mask1_alpha)">
<g id="Vector">
<g id="Vector">
<use xlink:href="#path61_fill" transform="matrix(0.87141 -0.490556 0.481729 0.87632 -17032.6 14.023)" fill="#E78825"/>
</g>
</g>
</g>
</g>
<g id="Group 17.21">
<g id="Group 14">
<g id="Ellipse 3.2">
<mask id="mask2_alpha" mask-type="alpha">
<g id="mask2 alpha">
<g id="mask4 outline ins">
<g id="Vector">
<g id="Vector">
<use xlink:href="#path58_fill" transform="matrix(-0.87141 -0.490556 -0.481729 0.87632 -17050 0.0514526)" fill="#E78825"/>
</g>
</g>
</g>
</g>
</mask>
<g id="Group" mask="url(#mask2_alpha)">
<g id="Vector">
<g id="Vector">
<use xlink:href="#path59_fill" transform="matrix(-0.87141 -0.490556 -0.481729 0.87632 -17044.7 -1.45087)" fill="#E78825"/>
</g>
</g>
</g>
</g>
</g>
</g>
<g id="Rectangle 14.45">
<mask id="mask3_alpha" mask-type="alpha">
<g id="mask3 alpha">
<g id="mask5 outline ins">
<g id="Vector">
<g id="Vector">
<use xlink:href="#path62_fill" transform="matrix(-0.87141 -0.490556 -0.481729 0.87632 -17040.2 18.608)" fill="#E78825"/>
</g>
</g>
</g>
</g>
</mask>
<g id="Group" mask="url(#mask3_alpha)">
<g id="Vector">
<g id="Vector">
<use xlink:href="#path63_fill" transform="matrix(-0.87141 -0.490556 -0.481729 0.87632 -17037.6 17.8568)" fill="#E78825"/>
</g>
</g>
</g>
</g>
<g id="Rectangle 14.46">
<mask id="mask4_alpha" mask-type="alpha">
<g id="mask4 alpha">
<g id="mask6 outline ins">
<g id="Vector">
<g id="Vector">
<use xlink:href="#path64_fill" transform="matrix(-0.87141 -0.490556 -0.481729 0.87632 -17036.7 11.6453)" fill="#E78825"/>
</g>
</g>
</g>
</g>
</mask>
<g id="Group" mask="url(#mask4_alpha)">
<g id="Vector">
<g id="Vector">
<use xlink:href="#path65_fill" transform="matrix(-0.87141 -0.490556 -0.481729 0.87632 -17034 10.8943)" fill="#E78825"/>
</g>
</g>
</g>
</g>
<g id="Group 16.23">
<g id="Ellipse 3.24">
<mask id="mask5_alpha" mask-type="alpha">
<g id="mask5 alpha">
<g id="mask7 outline ins">
<g id="Vector">
<g id="Vector">
<use xlink:href="#path58_fill" transform="matrix(0.87141 -0.490556 0.481729 0.87632 -17047 15.729)" fill="#E78825"/>
</g>
</g>
</g>
</g>
</mask>
<g id="Group" mask="url(#mask5_alpha)">
<g id="Vector">
<g id="Vector">
<use xlink:href="#path59_fill" transform="matrix(0.87141 -0.490556 0.481729 0.87632 -17052.3 14.2269)" fill="#E78825"/>
</g>
</g>
</g>
</g>
</g>
</g>
</g>
</g>
</g>
</g>
</g>
</g>
<defs>
<path id="path0_fill" d="M 140.613 24.5717L 6.11345 24.5717C 2.44569 24.5717 0 22.1143 0 18.4285L 0 6.14267C 0 2.45686 2.44569 -3.60871e-06 6.11345 -3.60871e-06L 140.613 -3.60871e-06C 144.282 -3.60871e-06 146.727 2.45739 146.727 6.14267L 146.727 18.4285C 146.727 22.1143 144.282 24.5717 140.613 24.5717Z"/>
<path id="path1_fill" d="M 116.159 6.14266L 0 6.14266C 0 2.45685 2.44569 1.28882e-07 6.11345 1.28882e-07L 116.159 1.28882e-07L 116.159 6.14266Z"/>
<path id="path2_fill" d="M 116.159 0.000520813L 116.159 6.1432C 116.159 9.82901 113.714 12.2859 110.046 12.2859L 0 12.2859C 0 15.9717 2.44569 18.4285 6.11345 18.4285L 110.045 18.4285L 140.613 18.4285C 144.282 18.4285 146.727 15.9711 146.727 12.2859L 146.727 5.28418e-06L 116.159 5.28418e-06L 116.159 0.000520813Z"/>
<path id="path3_fill" d="M 6.11345 12.2859L 6.11345 3.07134C 6.11345 1.22843 4.89086 5.28418e-06 3.05672 5.28418e-06C 1.22258 5.28418e-06 3.76791e-07 1.22843 3.76791e-07 3.07134L 3.76791e-07 12.2859"/>
<path id="path4_fill" d="M 6.11345 12.2859L 6.11345 3.07134C 6.11345 1.22843 4.89086 5.28418e-06 3.05672 5.28418e-06C 1.22258 5.28418e-06 -4.16875e-07 1.22843 -4.16875e-07 3.07134L -4.16875e-07 12.2859"/>
<path id="path5_fill" d="M 6.11345 12.2859L 6.11345 3.07134C 6.11345 1.22843 4.89086 5.28418e-06 3.05672 5.28418e-06C 1.22258 5.28418e-06 1.79577e-06 1.22843 1.79577e-06 3.07134L 1.79577e-06 12.2859"/>
<path id="path6_fill" d="M 6.11345 12.2859L 6.11345 3.07134C 6.11345 1.22843 4.89086 5.28418e-06 3.05672 5.28418e-06C 1.22258 5.28418e-06 7.46625e-15 1.22843 7.46625e-15 3.07134L 7.46625e-15 12.2859"/>
<path id="path7_fill" d="M 6.11345 12.2859L 6.11345 3.07134C 6.11345 1.22843 4.89087 5.28418e-06 3.05673 5.28418e-06C 1.22259 5.28418e-06 -1.79577e-06 1.22843 -1.79577e-06 3.07134L -1.79577e-06 12.2859"/>
<path id="path8_fill" d="M 6.11345 12.2859L 6.11345 3.07134C 6.11345 1.22843 4.89086 5.28418e-06 3.05672 5.28418e-06C 1.22258 5.28418e-06 1.28269e-07 1.22843 1.28269e-07 3.07134L 1.28269e-07 12.2859"/>
<path id="path9_fill" d="M 140.613 24.5712L 6.11345 24.5712C 2.44517 24.5712 3.76791e-07 22.1138 3.76791e-07 18.4285L 3.76791e-07 6.14267C 3.76791e-07 2.45685 2.44569 5.41306e-06 6.11345 5.41306e-06L 140.613 5.41306e-06C 144.282 5.41306e-06 146.727 2.45738 146.727 6.14267L 146.727 18.4285C 146.727 22.1143 144.282 24.5712 140.613 24.5712Z"/>
<path id="path10_fill" d="M 116.159 6.14267L 3.76791e-07 6.14267C 3.76791e-07 2.45685 2.44569 5.41306e-06 6.11345 5.41306e-06L 116.159 5.41306e-06L 116.159 6.14267Z"/>
<path id="path11_fill" d="M 116.159 0.000526098L 116.159 6.1432C 116.159 9.82901 113.714 12.2859 110.046 12.2859L 3.76791e-07 12.2859C 3.76791e-07 15.9717 2.44569 18.4285 6.11345 18.4285L 110.045 18.4285L 140.613 18.4285C 144.282 18.4285 146.727 15.9711 146.727 12.2859L 146.727 -5.54194e-06L 116.159 -5.54194e-06L 116.159 0.000526098Z"/>
<path id="path12_fill" d="M 6.11345 12.2859L 6.11345 3.07133C 6.11345 1.22842 4.89086 -1.80435e-06 3.05672 -1.80435e-06C 1.22258 -1.80435e-06 7.53582e-07 1.22842 7.53582e-07 3.07133L 7.53582e-07 12.2859"/>
<path id="path13_fill" d="M 6.11345 12.2859L 6.11345 3.07133C 6.11345 1.22842 4.89086 -1.80435e-06 3.05673 -1.80435e-06C 1.22259 -1.80435e-06 9.62019e-07 1.22842 9.62019e-07 3.07133L 9.62019e-07 12.2859"/>
<path id="path14_fill" d="M 6.11345 12.2859L 6.11345 3.07133C 6.11345 1.22842 4.89086 -1.80435e-06 3.05672 -1.80435e-06C 1.22258 -1.80435e-06 -8.3375e-07 1.22842 -8.3375e-07 3.07133L -8.3375e-07 12.2859"/>
<path id="path15_fill" d="M 6.11345 12.2859L 6.11345 3.07133C 6.11345 1.22842 4.89087 -1.80435e-06 3.05673 -1.80435e-06C 1.22259 -1.80435e-06 -2.62952e-06 1.22842 -2.62952e-06 3.07133L -2.62952e-06 12.2859"/>
<path id="path16_fill" d="M 6.11344 12.2859L 6.11344 3.07133C 6.11344 1.22842 4.89086 -1.80435e-06 3.05672 -1.80435e-06C 1.22258 -1.80435e-06 3.59154e-06 1.22842 3.59154e-06 3.07133L 3.59154e-06 12.2859"/>
<path id="path17_fill" d="M 6.11345 12.2859L 6.11345 3.07133C 6.11345 1.22842 4.89086 -1.80435e-06 3.05672 -1.80435e-06C 1.22258 -1.80435e-06 1.79577e-06 1.22842 1.79577e-06 3.07133L 1.79577e-06 12.2859"/>
<path id="path18_fill" d="M 140.614 24.5712L 6.11345 24.5712C 2.44517 24.5712 7.53582e-07 22.1138 7.53582e-07 18.4285L 7.53582e-07 6.14266C 7.53582e-07 2.45685 2.44569 3.60871e-06 6.11345 3.60871e-06L 140.614 3.60871e-06C 144.282 3.60871e-06 146.727 2.45738 146.727 6.14266L 146.727 18.4285C 146.727 22.1143 144.282 24.5712 140.614 24.5712Z"/>
<path id="path19_fill" d="M 116.159 6.14266L -9.62019e-07 6.14266C -9.62019e-07 2.45685 2.44569 3.60871e-06 6.11345 3.60871e-06L 116.159 3.60871e-06L 116.159 6.14266Z"/>
<path id="path20_fill" d="M 116.159 0.000524293L 116.159 6.1432C 116.159 9.82901 113.714 12.2859 110.046 12.2859L -9.62019e-07 12.2859C -9.62019e-07 15.9717 2.44569 18.4285 6.11345 18.4285L 110.046 18.4285L 140.614 18.4285C 144.282 18.4285 146.727 15.9711 146.727 12.2859L 146.727 -7.34629e-06L 116.159 -7.34629e-06L 116.159 0.000524293Z"/>
<path id="path21_fill" d="M 6.11345 12.2859L 6.11345 3.07133C 6.11345 1.22842 4.89086 -3.60871e-06 3.05672 -3.60871e-06C 1.22259 -3.60871e-06 1.28269e-07 1.22842 1.28269e-07 3.07133L 1.28269e-07 12.2859"/>
<path id="path22_fill" d="M 6.11345 12.2859L 6.11345 3.07133C 6.11345 1.22842 4.89086 -3.60871e-06 3.05672 -3.60871e-06C 1.22258 -3.60871e-06 -1.6675e-06 1.22842 -1.6675e-06 3.07133L -1.6675e-06 12.2859"/>
<path id="path23_fill" d="M 6.11345 12.2859L 6.11345 3.07133C 6.11345 1.22842 4.89086 -3.60871e-06 3.05673 -3.60871e-06C 1.22259 -3.60871e-06 -3.46327e-06 1.22842 -3.46327e-06 3.07133L -3.46327e-06 12.2859"/>
<path id="path24_fill" d="M 6.11345 12.2859L 6.11345 3.07133C 6.11345 1.22842 4.89086 -3.60871e-06 3.05672 -3.60871e-06C 1.22258 -3.60871e-06 2.75779e-06 1.22842 2.75779e-06 3.07133L 2.75779e-06 12.2859"/>
<path id="path25_fill" d="M 6.11345 12.2859L 6.11345 3.07133C 6.11345 1.22842 4.89086 -3.60871e-06 3.05672 -3.60871e-06C 1.22258 -3.60871e-06 9.62019e-07 1.22842 9.62019e-07 3.07133L 9.62019e-07 12.2859"/>
<path id="path26_fill" d="M 6.11345 12.2859L 6.11345 3.07133C 6.11345 1.22842 4.89087 -3.60871e-06 3.05673 -3.60871e-06C 1.22259 -3.60871e-06 -8.3375e-07 1.22842 -8.3375e-07 3.07133L -8.3375e-07 12.2859"/>
<path id="path27_fill" d="M 140.613 24.5712L 6.11345 24.5712C 2.44517 24.5712 3.76791e-07 22.1138 3.76791e-07 18.4285L 3.76791e-07 6.14267C 3.76791e-07 2.45686 2.44569 -3.47982e-06 6.11345 -3.47982e-06L 140.613 -3.47982e-06C 144.282 -3.47982e-06 146.727 2.45739 146.727 6.14267L 146.727 18.4285C 146.727 22.1138 144.282 24.5712 140.613 24.5712Z"/>
<path id="path28_fill" d="M 116.159 6.14267L 3.76791e-07 6.14267C 3.76791e-07 2.45686 2.44569 -3.47982e-06 6.11345 -3.47982e-06L 116.159 -3.47982e-06L 116.159 6.14267Z"/>
<path id="path29_fill" d="M 116.159 0.000533315L 116.159 6.14319C 116.159 9.82901 113.714 12.2859 110.046 12.2859L 3.76791e-07 12.2859C 3.76791e-07 15.9717 2.44569 18.4285 6.11345 18.4285L 110.045 18.4285L 140.613 18.4285C 144.282 18.4285 146.727 15.9712 146.727 12.2859L 146.727 1.67547e-06L 116.159 1.67547e-06L 116.159 0.000533315Z"/>
<path id="path30_fill" d="M 6.11345 12.2859L 6.11345 3.07133C 6.11345 1.22843 4.89086 1.67547e-06 3.05672 1.67547e-06C 1.22258 1.67547e-06 7.53582e-07 1.22843 7.53582e-07 3.07133L 7.53582e-07 12.2859"/>
<path id="path31_fill" d="M 6.11345 12.2859L 6.11345 3.07133C 6.11345 1.22843 4.89086 1.67547e-06 3.05673 1.67547e-06C 1.22259 1.67547e-06 9.62019e-07 1.22843 9.62019e-07 3.07133L 9.62019e-07 12.2859"/>
<path id="path32_fill" d="M 6.11345 12.2859L 6.11345 3.07133C 6.11345 1.22843 4.89086 1.67547e-06 3.05672 1.67547e-06C 1.22258 1.67547e-06 -8.3375e-07 1.22843 -8.3375e-07 3.07133L -8.3375e-07 12.2859"/>
<path id="path33_fill" d="M 6.11345 12.2859L 6.11345 3.07133C 6.11345 1.22843 4.89087 1.67547e-06 3.05673 1.67547e-06C 1.22259 1.67547e-06 -2.62952e-06 1.22843 -2.62952e-06 3.07133L -2.62952e-06 12.2859"/>
<path id="path34_fill" d="M 6.11344 12.2859L 6.11344 3.07133C 6.11344 1.22843 4.89086 1.67547e-06 3.05672 1.67547e-06C 1.22258 1.67547e-06 3.59154e-06 1.22843 3.59154e-06 3.07133L 3.59154e-06 12.2859"/>
<path id="path35_fill" d="M 6.11345 12.2859L 6.11345 3.07133C 6.11345 1.22843 4.89086 1.67547e-06 3.05672 1.67547e-06C 1.22258 1.67547e-06 1.79577e-06 1.22843 1.79577e-06 3.07133L 1.79577e-06 12.2859"/>
<path id="path36_fill" d="M 140.613 24.5717L 6.11345 24.5717C 2.44569 24.5717 0 22.1143 0 18.4285L 0 6.14267C 0 2.45686 2.44569 -5.41306e-06 6.11345 -5.41306e-06L 140.613 -5.41306e-06C 144.282 -5.41306e-06 146.727 2.45739 146.727 6.14267L 146.727 18.4285C 146.727 22.1143 144.282 24.5717 140.613 24.5717Z"/>
<path id="path37_fill" d="M 116.159 6.14268L 0 6.14268C 0 2.45686 2.44569 -1.67547e-06 6.11345 -1.67547e-06L 116.159 -1.67547e-06L 116.159 6.14268Z"/>
<path id="path38_fill" d="M 116.159 0.000535119L 116.159 6.1432C 116.159 9.82901 113.714 12.2859 110.046 12.2859L 0 12.2859C 0 15.9717 2.44569 18.4285 6.11345 18.4285L 110.045 18.4285L 140.613 18.4285C 144.282 18.4285 146.727 15.9711 146.727 12.2859L 146.727 3.47982e-06L 116.159 3.47982e-06L 116.159 0.000535119Z"/>
<path id="path39_fill" d="M 6.11345 12.2859L 6.11345 3.07133C 6.11345 1.22843 4.89086 3.47982e-06 3.05672 3.47982e-06C 1.22258 3.47982e-06 3.76791e-07 1.22843 3.76791e-07 3.07133L 3.76791e-07 12.2859"/>
<path id="path40_fill" d="M 6.11345 12.2859L 6.11345 3.07133C 6.11345 1.22843 4.89086 3.47982e-06 3.05672 3.47982e-06C 1.22258 3.47982e-06 -4.16875e-07 1.22843 -4.16875e-07 3.07133L -4.16875e-07 12.2859"/>
<path id="path41_fill" d="M 6.11345 12.2859L 6.11345 3.07133C 6.11345 1.22843 4.89086 3.47982e-06 3.05672 3.47982e-06C 1.22258 3.47982e-06 1.79577e-06 1.22843 1.79577e-06 3.07133L 1.79577e-06 12.2859"/>
<path id="path42_fill" d="M 6.11345 12.2859L 6.11345 3.07133C 6.11345 1.22843 4.89086 3.47982e-06 3.05672 3.47982e-06C 1.22258 3.47982e-06 7.46625e-15 1.22843 7.46625e-15 3.07133L 7.46625e-15 12.2859"/>
<path id="path43_fill" d="M 6.11345 12.2859L 6.11345 3.07133C 6.11345 1.22843 4.89087 3.47982e-06 3.05673 3.47982e-06C 1.22259 3.47982e-06 -1.79577e-06 1.22843 -1.79577e-06 3.07133L -1.79577e-06 12.2859"/>
<path id="path44_fill" d="M 6.11345 12.2859L 6.11345 3.07133C 6.11345 1.22843 4.89086 3.47982e-06 3.05672 3.47982e-06C 1.22258 3.47982e-06 1.28269e-07 1.22843 1.28269e-07 3.07133L 1.28269e-07 12.2859"/>
<path id="path45_fill" d="M 220.091 218.072C 212.144 212.543 207.864 203.329 207.864 193.5C 207.864 156.029 193.191 120.4 166.902 93.9861L 140.614 67.572L 140.614 49.1435L 162.012 22.1149C 163.846 19.6575 165.069 16.5862 165.069 13.5143C 165.069 6.14267 158.955 0 151.619 0L 128.387 0L 122.274 12.2859L 110.046 0L 80.7006 0C 73.364 0 67.2505 6.14267 67.2505 13.5143C 67.2505 16.5856 68.4731 19.657 70.3073 22.1143L 91.7049 49.1429L 91.7049 67.5715L 65.4164 93.9856C 39.128 120.4 24.4548 156.028 24.4548 193.5C 24.4548 203.328 20.1755 212.543 12.2274 218.071C 4.27931 223.599 0 232.814 0 242.642C 0 251.242 6.725 257.999 15.2841 257.999L 217.034 257.999C 225.593 257.999 232.318 251.242 232.318 242.642C 232.319 232.815 228.04 223.6 220.091 218.072Z"/>
<path id="path46_fill" d="M 219.479 218.072C 211.532 211.929 207.252 202.714 207.252 192.886C 207.864 154.186 190.134 117.943 163.234 90.3003L 140.002 67.5715L 140.002 49.1429L 161.4 22.1143C 165.068 17.8146 165.679 11.6714 162.622 6.14267C 160.176 1.84291 155.286 0 150.395 0C 146.115 0 143.67 4.91424 144.892 8.60005C 145.504 9.82848 146.115 11.6714 146.115 13.5143C 146.115 16.5856 144.892 19.657 143.058 22.1143L 121.661 49.1429L 121.661 67.5715L 91.0923 67.5715L 84.9788 73.7141L 127.775 73.7141L 150.395 96.443C 175.461 121.629 185.243 156.029 182.798 191.043C 182.186 201.486 186.466 211.314 194.414 217.457C 195.025 218.072 195.636 218.686 196.248 218.686C 205.418 228.514 197.47 245.1 183.409 245.1L 0 245.1C 1.22258 251.857 7.33655 257.386 14.6726 257.386L 191.968 257.386L 207.253 257.386L 216.423 257.386C 224.982 257.386 231.707 250.629 231.707 242.029L 231.707 240.8C 231.707 231.586 226.816 223.6 219.479 218.072Z"/>
<path id="path47_fill" d="M 64.1938 18.4291L 9.1707 18.4291C 4.27983 18.4291 -1.92404e-06 14.1293 -1.92404e-06 9.21453C -1.92404e-06 4.30029 4.27931 -1.0955e-06 9.1707 -1.0955e-06L 64.1933 -1.0955e-06C 69.0842 -1.0955e-06 73.364 4.29976 73.364 9.21453C 73.364 14.1293 69.0847 18.4291 64.1938 18.4291Z"/>
<path id="path48_fill" d="M 3.05672 -1.38549e-06L 33.625 -1.38549e-06C 35.4591 -1.38549e-06 36.6817 1.22843 36.6817 3.07133C 36.6817 4.91424 35.4591 6.14267 33.625 6.14267L 3.05672 6.14267C 1.22258 6.14267 2.62952e-06 4.91424 2.62952e-06 3.07133C 2.62952e-06 1.22895 1.22311 -1.38549e-06 3.05672 -1.38549e-06Z"/>
<path id="path49_fill" d="M 63.5818 -1.38549e-06L 60.525 -1.38549e-06L 60.525 6.14267C 60.525 9.82848 58.0793 12.2853 54.4116 12.2853L 2.56539e-06 12.2853C 1.22259 15.9711 4.89087 18.428 8.55915 18.428L 63.5818 18.428C 68.4726 18.428 72.7524 14.1282 72.7524 9.21347C 72.7524 4.29871 68.4726 -1.38549e-06 63.5818 -1.38549e-06Z"/>
<path id="path50_fill" d="M 3.05673 0L 21.3976 0C 23.2317 0 24.4543 1.22842 24.4543 3.07133C 24.4543 4.91424 23.2317 6.14267 21.3976 6.14267L 3.05673 6.14267C 1.22259 6.14267 -5.08984e-06 4.91424 -5.08984e-06 3.07133C -0.000530481 1.22842 1.22259 0 3.05673 0Z"/>
<path id="path51_fill" d="M 12.2274 0L 5.38731e-06 0L 5.38731e-06 49.1429L 12.2274 49.1429L 12.2274 0Z"/>
<path id="path52_fill" d="M 0 0L 0 6.14319L 6.11344 6.14319L 6.11344 49.1429L 12.2269 49.1429L 12.2269 6.14319L 12.2269 0L 0 0Z"/>
<path id="path53_fill" d="M 48.9092 98.2859C 75.9209 98.2859 97.8183 76.2838 97.8183 49.1429C 97.8183 22.002 75.9209 0 48.9092 0C 21.8974 0 0 22.002 0 49.1429C 0 76.2838 21.8974 98.2859 48.9092 98.2859Z"/>
<path id="path54_fill" d="M 68.4726 0C 75.8092 8.60005 80.0885 19.043 80.0885 31.3289C 80.0885 58.3575 58.0793 80.4718 31.1793 80.4718C 18.9519 80.4718 8.55862 76.1721 0 68.8004C 9.1707 79.8573 22.6207 86.6145 37.2933 86.6145C 64.1933 86.6145 86.2025 64.5001 86.2025 37.4715C 86.2019 22.1143 79.4769 8.60005 68.4726 0Z"/>
<path id="path55_fill" d="M 42.7957 86.0005C 66.4311 86.0005 85.5914 66.7487 85.5914 43.0003C 85.5914 19.2519 66.4311 2.64209e-06 42.7957 2.64209e-06C 19.1603 2.64209e-06 -2.75779e-06 19.2519 -2.75779e-06 43.0003C -2.75779e-06 66.7487 19.1603 86.0005 42.7957 86.0005Z"/>
<path id="path56_fill" d="M 42.7957 0C 42.7957 23.9572 23.8433 43.0003 0 43.0003L 0 49.1429C 26.9 49.1429 48.9092 27.0286 48.9092 0L 42.7957 0Z"/>
<path id="path57_fill" d="M 48.9092 6.14267L 48.9092 1.80435e-06C 22.0091 1.80435e-06 -3.59154e-06 22.1143 -3.59154e-06 49.1429L 6.11345 49.1429C 6.11397 25.1857 25.0659 6.14267 48.9092 6.14267Z"/>
<path id="path58_fill" d="M 18.4514 9.2837C 18.4514 14.4109 14.3209 18.5674 9.22568 18.5674C 4.13048 18.5674 0 14.4109 0 9.2837C 0 4.15646 4.13048 0 9.22568 0C 14.3209 0 18.4514 4.15646 18.4514 9.2837Z"/>
<path id="path59_fill" d="M 18.4514 13.1844C 18.4514 16.1574 16.0564 18.5674 13.102 18.5674L 13.102 26.3688C 20.338 26.3688 26.204 20.4659 26.204 13.1844L 18.4514 13.1844ZM 13.102 18.5674C 10.1477 18.5674 7.75267 16.1574 7.75267 13.1844L 0 13.1844C 0 20.4659 5.86597 26.3688 13.102 26.3688L 13.102 18.5674ZM 7.75267 13.1844C 7.75267 10.2115 10.1477 7.80143 13.102 7.80143L 13.102 0C 5.86597 0 0 5.90286 0 13.1844L 7.75267 13.1844ZM 13.102 7.80143C 16.0564 7.80143 18.4514 10.2115 18.4514 13.1844L 26.204 13.1844C 26.204 5.90286 20.338 0 13.102 0L 13.102 7.80143Z"/>
<path id="path60_fill" d="M 0 0L 18.9819 0L 18.9819 3.84632L 0 3.84632L 0 0Z"/>
<path id="path61_fill" d="M 1.93817 1.95036L 1.93817 0L 0 0L 0 1.95036L 1.93817 1.95036ZM 20.9201 1.95036L 22.8583 1.95036L 22.8583 0L 20.9201 0L 20.9201 1.95036ZM 20.9201 5.79668L 20.9201 7.74704L 22.8583 7.74704L 22.8583 5.79668L 20.9201 5.79668ZM 1.93817 5.79668L 0 5.79668L 0 7.74704L 1.93817 7.74704L 1.93817 5.79668ZM 1.93817 3.90071L 20.9201 3.90071L 20.9201 0L 1.93817 0L 1.93817 3.90071ZM 18.9819 1.95036L 18.9819 5.79668L 22.8583 5.79668L 22.8583 1.95036L 18.9819 1.95036ZM 20.9201 3.84632L 1.93817 3.84632L 1.93817 7.74704L 20.9201 7.74704L 20.9201 3.84632ZM 3.87634 5.79668L 3.87634 1.95036L 0 1.95036L 0 5.79668L 3.87634 5.79668Z"/>
<path id="path62_fill" d="M 0 0L 20.9341 0L 20.9341 3.84632L 0 3.84632L 0 0Z"/>
<path id="path63_fill" d="M 1.93817 1.95036L 1.93817 0L 0 0L 0 1.95036L 1.93817 1.95036ZM 22.8722 1.95036L 24.8104 1.95036L 24.8104 0L 22.8722 0L 22.8722 1.95036ZM 22.8722 5.79668L 22.8722 7.74704L 24.8104 7.74704L 24.8104 5.79668L 22.8722 5.79668ZM 1.93817 5.79668L 0 5.79668L 0 7.74704L 1.93817 7.74704L 1.93817 5.79668ZM 1.93817 3.90071L 22.8722 3.90071L 22.8722 0L 1.93817 0L 1.93817 3.90071ZM 20.9341 1.95036L 20.9341 5.79668L 24.8104 5.79668L 24.8104 1.95036L 20.9341 1.95036ZM 22.8722 3.84632L 1.93817 3.84632L 1.93817 7.74704L 22.8722 7.74704L 22.8722 3.84632ZM 3.87634 5.79668L 3.87634 1.95036L 0 1.95036L 0 5.79668L 3.87634 5.79668Z"/>
<path id="path64_fill" d="M 0 0L 20.7114 0L 20.7114 3.84632L 0 3.84632L 0 0Z"/>
<path id="path65_fill" d="M 1.93817 1.95036L 1.93817 0L 0 0L 0 1.95036L 1.93817 1.95036ZM 22.6496 1.95036L 24.5878 1.95036L 24.5878 0L 22.6496 0L 22.6496 1.95036ZM 22.6496 5.79668L 22.6496 7.74704L 24.5878 7.74704L 24.5878 5.79668L 22.6496 5.79668ZM 1.93817 5.79668L 0 5.79668L 0 7.74704L 1.93817 7.74704L 1.93817 5.79668ZM 1.93817 3.90071L 22.6496 3.90071L 22.6496 0L 1.93817 0L 1.93817 3.90071ZM 20.7114 1.95036L 20.7114 5.79668L 24.5878 5.79668L 24.5878 1.95036L 20.7114 1.95036ZM 22.6496 3.84632L 1.93817 3.84632L 1.93817 7.74704L 22.6496 7.74704L 22.6496 3.84632ZM 3.87634 5.79668L 3.87634 1.95036L 0 1.95036L 0 5.79668L 3.87634 5.79668Z"/>
</defs>
</svg>
