<svg width="17" height="30" viewBox="0 0 17 30" version="1.1" xmlns="http://www.w3.org/2000/svg" xmlns:xlink="http://www.w3.org/1999/xlink">
<title>currency-usd</title>
<desc>Created using Figma</desc>
<g id="Canvas" transform="translate(19271 -666)">
<g id="currency-usd">
<g id="Vector">
<use xlink:href="#path0_fill" transform="translate(-19271 666)" fill="#2F80ED"/>
</g>
</g>
</g>
<defs>
<path id="path0_fill" d="M 9.15128 13.1667C 5.36051 12.1833 4.14145 11.1667 4.14145 9.58333C 4.14145 7.76667 5.82809 6.5 8.65029 6.5C 10.7124 6.5 11.8743 7.18176 12.4261 8.29489C 12.8646 9.17946 13.6012 10 14.5885 10C 15.6399 10 16.5057 9.10833 16.1837 8.10744C 15.6485 6.44398 14.4749 5.0053 12.6389 4.16134C 11.8009 3.77614 11.1552 3.0009 11.1552 2.07862L 11.1552 2C 11.1552 0.89543 10.2598 0 9.15521 0L 8.13763 0C 7.03734 0 6.14538 0.891959 6.14538 1.99224C 6.14538 2.93039 5.48054 3.71943 4.60574 4.05829C 2.11855 5.0217 0.300589 6.92956 0.300589 9.61667C 0.300589 13.4667 3.49018 15.3833 8.14931 16.5C 12.3242 17.5 13.1591 18.9667 13.1591 20.5167C 13.1591 21.6667 12.3409 23.5 8.65029 23.5C 6.21158 23.5 4.82192 22.7294 4.14218 21.5801C 3.65817 20.7618 2.92087 20 1.9701 20C 0.899966 20 0.018004 20.9196 0.381156 21.9262C 1.08611 23.8803 2.67305 25.1937 4.59444 25.9281C 5.47565 26.2649 6.14538 27.0577 6.14538 28.0011C 6.14538 29.1051 7.04032 30 8.14428 30L 9.20433 30C 10.2818 30 11.1552 29.1266 11.1552 28.0491C 11.1552 27.1044 11.8421 26.3186 12.7343 26.0078C 15.2099 25.1453 17 23.3413 17 20.5C 17 15.7667 12.942 14.1667 9.15128 13.1667Z"/>
</defs>
</svg>
