<svg width="29" height="29" viewBox="0 0 29 29" version="1.1" xmlns="http://www.w3.org/2000/svg" xmlns:xlink="http://www.w3.org/1999/xlink">
<title>clock (1)</title>
<desc>Created using Figma</desc>
<g id="Canvas" transform="translate(56292 18898)">
<g id="clock (1)">
<g id="Vector">
<use xlink:href="#path0_fill" transform="translate(-56292 -18898)" fill="#F2994A"/>
</g>
</g>
</g>
<defs>
<path id="path0_fill" d="M 14.5 26.1C 17.5765 26.1 20.527 24.8779 22.7024 22.7024C 24.8779 20.527 26.1 17.5765 26.1 14.5C 26.1 11.4235 24.8779 8.47298 22.7024 6.29756C 20.527 4.12214 17.5765 2.9 14.5 2.9C 11.4235 2.9 8.47298 4.12214 6.29756 6.29756C 4.12214 8.47298 2.9 11.4235 2.9 14.5C 2.9 17.5765 4.12214 20.527 6.29756 22.7024C 8.47298 24.8779 11.4235 26.1 14.5 26.1ZM 14.5 0C 16.4042 6.43929e-16 18.2897 0.375054 20.0489 1.10375C 21.8081 1.83244 23.4066 2.9005 24.753 4.24695C 26.0995 5.5934 27.1676 7.19187 27.8963 8.95109C 28.6249 10.7103 29 12.5958 29 14.5C 29 18.3456 27.4723 22.0338 24.753 24.753C 22.0338 27.4723 18.3456 29 14.5 29C 6.4815 29 0 22.475 0 14.5C 6.43929e-16 10.6544 1.52767 6.96623 4.24695 4.24695C 6.96623 1.52767 10.6544 2.57572e-15 14.5 0ZM 15.225 7.25L 15.225 14.8625L 21.75 18.734L 20.6625 20.5175L 13.05 15.95L 13.05 7.25L 15.225 7.25Z"/>
</defs>
</svg>
