<svg width="53" height="53" viewBox="0 0 53 53" version="1.1" xmlns="http://www.w3.org/2000/svg" xmlns:xlink="http://www.w3.org/1999/xlink">
<title>desktop-classic (1)</title>
<desc>Created using Figma</desc>
<g id="Canvas" transform="translate(63190 17893)">
<g id="desktop-classic (1)">
<g id="Vector">
<use xlink:href="#path0_fill" transform="translate(-63189.4 -17892.7)" fill="#041429"/>
</g>
</g>
</g>
<defs>
<path id="path0_fill" d="M 10.4668 0C 7.56225 0 5.23339 2.32954 5.23339 5.23492L 5.23339 26.1746C 5.23339 29.08 7.56225 31.4095 10.4668 31.4095L 41.8671 31.4095C 44.7716 31.4095 47.1005 29.08 47.1005 26.1746L 47.1005 5.23492C 47.1005 2.32954 44.7716 0 41.8671 0L 10.4668 0ZM 10.4668 5.23492L 41.8671 5.23492L 41.8671 26.1746L 10.4668 26.1746L 10.4668 5.23492ZM 5.23339 34.027C 2.32886 34.027 0 36.3565 0 39.2619L 0 47.1143C 0 50.0197 2.32886 52.3492 5.23339 52.3492L 47.1005 52.3492C 50.005 52.3492 52.3339 50.0197 52.3339 47.1143L 52.3339 39.2619C 52.3339 36.3565 50.005 34.027 47.1005 34.027L 5.23339 34.027ZM 15.7002 39.2619L 47.1005 39.2619L 47.1005 47.1143L 15.7002 47.1143L 15.7002 39.2619ZM 18.3169 41.225L 18.3169 45.1512L 28.7836 45.1512L 28.7836 41.225L 18.3169 41.225ZM 34.017 41.225L 34.017 45.1512L 44.4838 45.1512L 44.4838 41.225L 34.017 41.225Z"/>
</defs>
</svg>
