<svg width="14" height="16" viewBox="0 0 14 16" version="1.1" xmlns="http://www.w3.org/2000/svg" xmlns:xlink="http://www.w3.org/1999/xlink">
<title>Discord-Logo-White</title>
<desc>Created using Figma</desc>
<g id="Canvas" transform="translate(18955 -1954)">
<g id="Discord-Logo-White">
<g id="Vector">
<use xlink:href="#path0_fill" transform="translate(-18950.3 1960.71)" fill="#E0E0E0"/>
</g>
<g id="Vector">
<use xlink:href="#path1_fill" transform="translate(-18955 1954)" fill="#E0E0E0"/>
</g>
</g>
</g>
<defs>
<path id="path0_fill" d="M 0.816 1.2207e-07C 0.36 1.2207e-07 -2.44141e-07 0.4 -2.44141e-07 0.888C -2.44141e-07 1.376 0.368 1.776 0.816 1.776C 1.272 1.776 1.632 1.376 1.632 0.888C 1.64 0.4 1.272 1.2207e-07 0.816 1.2207e-07ZM 3.736 1.2207e-07C 3.28 1.2207e-07 2.92 0.4 2.92 0.888C 2.92 1.376 3.288 1.776 3.736 1.776C 4.192 1.776 4.552 1.376 4.552 0.888C 4.552 0.4 4.192 1.2207e-07 3.736 1.2207e-07Z"/>
<path id="path1_fill" d="M 12.36 0L 1.64 0C 0.736 0 0 0.736 0 1.648L 0 12.464C 0 13.376 0.736 14.112 1.64 14.112L 10.712 14.112L 10.288 12.632L 11.312 13.584L 12.28 14.48L 14 16L 14 1.648C 14 0.736 13.264 0 12.36 0ZM 9.272 10.448C 9.272 10.448 8.984 10.104 8.744 9.8C 9.792 9.504 10.192 8.848 10.192 8.848C 9.864 9.064 9.552 9.216 9.272 9.32C 8.872 9.488 8.488 9.6 8.112 9.664C 7.344 9.808 6.64 9.768 6.04 9.656C 5.584 9.568 5.192 9.44 4.864 9.312C 4.68 9.24 4.48 9.152 4.28 9.04C 4.256 9.024 4.232 9.016 4.208 9C 4.192 8.992 4.184 8.984 4.176 8.976C 4.032 8.896 3.952 8.84 3.952 8.84C 3.952 8.84 4.336 9.48 5.352 9.784C 5.112 10.088 4.816 10.448 4.816 10.448C 3.048 10.392 2.376 9.232 2.376 9.232C 2.376 6.656 3.528 4.568 3.528 4.568C 4.68 3.704 5.776 3.728 5.776 3.728L 5.856 3.824C 4.416 4.24 3.752 4.872 3.752 4.872C 3.752 4.872 3.928 4.776 4.224 4.64C 5.08 4.264 5.76 4.16 6.04 4.136C 6.088 4.128 6.128 4.12 6.176 4.12C 6.664 4.056 7.216 4.04 7.792 4.104C 8.552 4.192 9.368 4.416 10.2 4.872C 10.2 4.872 9.568 4.272 8.208 3.856L 8.32 3.728C 8.32 3.728 9.416 3.704 10.568 4.568C 10.568 4.568 11.72 6.656 11.72 9.232C 11.72 9.232 11.04 10.392 9.272 10.448Z"/>
</defs>
</svg>
