<svg width="82" height="70" viewBox="0 0 82 70" version="1.1" xmlns="http://www.w3.org/2000/svg" xmlns:xlink="http://www.w3.org/1999/xlink">
<title>Group 27</title>
<desc>Created using Figma</desc>
<g id="Canvas" transform="translate(18327 -1471)">
<g id="Group 27">
<g id="Group">
<g id="subdirectory-arrow-left (1)">
<g id="Vector">
<use xlink:href="#path0_fill" transform="translate(-18327 1505.99)" fill="#2F80ED"/>
</g>
</g>
<g id="subdirectory-arrow-left (1)">
<g id="Vector">
<use xlink:href="#path0_fill" transform="matrix(-1 0 0 -1 -18245 1505.99)" fill="#2F80ED"/>
</g>
</g>
</g>
<g id="Group 26.1 2.8" filter="url(#filter0_i)">
<g id="Canvas">
<g id="Group 26.1">
<g id="Vector">
<g id="Vector">
<use xlink:href="#path1_fill" transform="matrix(-1 -1.22465e-16 1.22465e-16 -1 -18274 1500)" fill="#0575E6"/>
</g>
</g>
<g id="Group 24.3 2.5">
<g id="Canvas">
<g id="Group 24.3">
<g id="Group 18">
<g id="Group 17.20">
<g id="Group 14">
<g id="Ellipse 3.2">
<mask id="mask0_alpha" mask-type="alpha">
<g id="mask0 alpha">
<g id="mask1 outline ins">
<g id="Vector">
<g id="Vector">
<use xlink:href="#path2_fill" transform="matrix(0.873884 -0.486135 0.486135 0.873884 -18282.1 1486.26)" fill="#FFFFFF"/>
</g>
</g>
</g>
</g>
</mask>
<g id="Group" mask="url(#mask0_alpha)">
<g id="Vector">
<g id="Vector">
<use xlink:href="#path3_fill" transform="matrix(0.873884 -0.486135 0.486135 0.873884 -18283.5 1485.89)" fill="#FFFFFF"/>
</g>
</g>
</g>
</g>
</g>
</g>
<g id="Rectangle 14.44">
<mask id="mask1_alpha" mask-type="alpha">
<g id="mask1 alpha">
<g id="mask2 outline ins">
<g id="Vector">
<g id="Vector">
<use xlink:href="#path4_fill" transform="matrix(0.873884 -0.486135 0.486135 0.873884 -18284.9 1489.88)" fill="#FFFFFF"/>
</g>
</g>
</g>
</g>
</mask>
<g id="Group" mask="url(#mask1_alpha)">
<g id="Vector">
<g id="Vector">
<use xlink:href="#path5_fill" transform="matrix(0.873884 -0.486135 0.486135 0.873884 -18285.5 1489.7)" fill="#FFFFFF"/>
</g>
</g>
</g>
</g>
<g id="Group 17.21">
<g id="Group 14">
<g id="Ellipse 3.2">
<mask id="mask2_alpha" mask-type="alpha">
<g id="mask2 alpha">
<g id="mask4 outline ins">
<g id="Vector">
<g id="Vector">
<use xlink:href="#path2_fill" transform="matrix(-0.873884 -0.486135 -0.486135 0.873884 -18289.8 1486.26)" fill="#FFFFFF"/>
</g>
</g>
</g>
</g>
</mask>
<g id="Group" mask="url(#mask2_alpha)">
<g id="Vector">
<g id="Vector">
<use xlink:href="#path3_fill" transform="matrix(-0.873884 -0.486135 -0.486135 0.873884 -18288.5 1485.89)" fill="#FFFFFF"/>
</g>
</g>
</g>
</g>
</g>
</g>
<g id="Rectangle 14.45">
<mask id="mask3_alpha" mask-type="alpha">
<g id="mask3 alpha">
<g id="mask5 outline ins">
<g id="Vector">
<g id="Vector">
<use xlink:href="#path6_fill" transform="matrix(-0.873884 -0.486135 -0.486135 0.873884 -18287.4 1490.82)" fill="#FFFFFF"/>
</g>
</g>
</g>
</g>
</mask>
<g id="Group" mask="url(#mask3_alpha)">
<g id="Vector">
<g id="Vector">
<use xlink:href="#path7_fill" transform="matrix(-0.873884 -0.486135 -0.486135 0.873884 -18286.8 1490.64)" fill="#FFFFFF"/>
</g>
</g>
</g>
</g>
<g id="Rectangle 14.46">
<mask id="mask4_alpha" mask-type="alpha">
<g id="mask4 alpha">
<g id="mask6 outline ins">
<g id="Vector">
<g id="Vector">
<use xlink:href="#path8_fill" transform="matrix(-0.873884 -0.486135 -0.486135 0.873884 -18286.5 1489.11)" fill="#FFFFFF"/>
</g>
</g>
</g>
</g>
</mask>
<g id="Group" mask="url(#mask4_alpha)">
<g id="Vector">
<g id="Vector">
<use xlink:href="#path9_fill" transform="matrix(-0.873884 -0.486135 -0.486135 0.873884 -18285.9 1488.93)" fill="#FFFFFF"/>
</g>
</g>
</g>
</g>
<g id="Group 16.23">
<g id="Ellipse 3.24">
<mask id="mask5_alpha" mask-type="alpha">
<g id="mask5 alpha">
<g id="mask7 outline ins">
<g id="Vector">
<g id="Vector">
<use xlink:href="#path2_fill" transform="matrix(0.873884 -0.486135 0.486135 0.873884 -18289.1 1490.11)" fill="#FFFFFF"/>
</g>
</g>
</g>
</g>
</mask>
<g id="Group" mask="url(#mask5_alpha)">
<g id="Vector">
<g id="Vector">
<use xlink:href="#path3_fill" transform="matrix(0.873884 -0.486135 0.486135 0.873884 -18290.4 1489.75)" fill="#FFFFFF"/>
</g>
</g>
</g>
</g>
</g>
</g>
</g>
</g>
</g>
</g>
</g>
</g>
<g id="Bitcoin (1)" filter="url(#filter1_i)">
<g id="Group">
<g id="Vector">
<use xlink:href="#path10_fill" transform="translate(-18298 1511)" fill="#F7931A"/>
</g>
<g id="Vector">
<use xlink:href="#path11_fill" transform="translate(-18292.2 1515.18)" fill="#FFFFFF"/>
</g>
</g>
</g>
</g>
</g>
<defs>
<filter id="filter0_i" filterUnits="userSpaceOnUse" x="-18298" y="1476" width="24" height="28" color-interpolation-filters="sRGB">
<feFlood flood-opacity="0" result="BackgroundImageFix"/>
<feBlend mode="normal" in="SourceGraphic" in2="BackgroundImageFix" result="shape"/>
<feColorMatrix in="SourceAlpha" type="matrix" values="0 0 0 0 0 0 0 0 0 0 0 0 0 0 0 0 0 0 255 0" result="hardAlpha"/>
<feOffset dx="0" dy="4"/>
<feGaussianBlur stdDeviation="2"/>
<feComposite in2="hardAlpha" operator="arithmetic" k2="-1" k3="1"/>
<feColorMatrix type="matrix" values="0 0 0 0 0 0 0 0 0 0 0 0 0 0 0 0 0 0 0.25 0"/>
<feBlend mode="normal" in2="shape" result="effect1_innerShadow"/>
</filter>
<filter id="filter1_i" filterUnits="userSpaceOnUse" x="-18298" y="1511" width="24" height="29" color-interpolation-filters="sRGB">
<feFlood flood-opacity="0" result="BackgroundImageFix"/>
<feBlend mode="normal" in="SourceGraphic" in2="BackgroundImageFix" result="shape"/>
<feColorMatrix in="SourceAlpha" type="matrix" values="0 0 0 0 0 0 0 0 0 0 0 0 0 0 0 0 0 0 255 0" result="hardAlpha"/>
<feOffset dx="0" dy="4"/>
<feGaussianBlur stdDeviation="2"/>
<feComposite in2="hardAlpha" operator="arithmetic" k2="-1" k3="1"/>
<feColorMatrix type="matrix" values="0 0 0 0 0 0 0 0 0 0 0 0 0 0 0 0 0 0 0.25 0"/>
<feBlend mode="normal" in2="shape" result="effect1_innerShadow"/>
</filter>
<path id="path0_fill" d="M 17.119 0.14428C 17.1973 0.0649104 17.3254 0.0649104 17.4037 0.14428L 21.2077 3.9995C 21.2846 4.07746 21.2845 4.20279 21.2075 4.28065L 11.3556 14.2374C 11.2306 14.3637 11.3201 14.5781 11.4977 14.5781L 76.0375 14.5781C 76.148 14.5781 76.2375 14.4885 76.2375 14.3781L 76.2375 0.199999C 76.2375 0.0895425 76.3271 0 76.4375 0L 81.7913 0C 81.9017 0 81.9913 0.089543 81.9913 0.2L 81.9913 20.2093C 81.9913 20.3198 81.9017 20.4093 81.7913 20.4093L 11.4977 20.4093C 11.3201 20.4093 11.2306 20.6237 11.3556 20.75L 21.2075 30.7067C 21.2845 30.7846 21.2846 30.9099 21.2077 30.9879L 17.4037 34.8431C 17.3254 34.9225 17.1973 34.9225 17.119 34.8431L 0.138607 17.6342C 0.0617589 17.5563 0.0617585 17.4311 0.138607 17.3532L 17.119 0.14428Z"/>
<path id="path1_fill" d="M 24 12C 24 18.6274 18.6274 24 12 24C 5.37258 24 0 18.6274 0 12C 0 5.37258 5.37258 0 12 0C 18.6274 0 24 5.37258 24 12Z"/>
<path id="path2_fill" d="M 4.57692 2.28846C 4.57692 3.55234 3.55234 4.57692 2.28846 4.57692C 1.02458 4.57692 0 3.55234 0 2.28846C 0 1.02458 1.02458 0 2.28846 0C 3.55234 0 4.57692 1.02458 4.57692 2.28846Z"/>
<path id="path3_fill" d="M 4.57692 3.25C 4.57692 3.98285 3.98285 4.57692 3.25 4.57692L 3.25 6.5C 5.04492 6.5 6.5 5.04492 6.5 3.25L 4.57692 3.25ZM 3.25 4.57692C 2.51716 4.57692 1.92308 3.98285 1.92308 3.25L 0 3.25C 0 5.04492 1.45507 6.5 3.25 6.5L 3.25 4.57692ZM 1.92308 3.25C 1.92308 2.51716 2.51716 1.92308 3.25 1.92308L 3.25 0C 1.45507 0 0 1.45507 0 3.25L 1.92308 3.25ZM 3.25 1.92308C 3.98285 1.92308 4.57692 2.51716 4.57692 3.25L 6.5 3.25C 6.5 1.45507 5.04492 0 3.25 0L 3.25 1.92308Z"/>
<path id="path4_fill" d="M 0 0L 4.70854 0L 4.70854 0.948131L 0 0.948131L 0 0Z"/>
<path id="path5_fill" d="M 0.480769 0.480769L 0.480769 0L 0 0L 0 0.480769L 0.480769 0.480769ZM 5.18931 0.480769L 5.67008 0.480769L 5.67008 0L 5.18931 0L 5.18931 0.480769ZM 5.18931 1.4289L 5.18931 1.90967L 5.67008 1.90967L 5.67008 1.4289L 5.18931 1.4289ZM 0.480769 1.4289L 0 1.4289L 0 1.90967L 0.480769 1.90967L 0.480769 1.4289ZM 0.480769 0.961538L 5.18931 0.961538L 5.18931 0L 0.480769 0L 0.480769 0.961538ZM 4.70854 0.480769L 4.70854 1.4289L 5.67008 1.4289L 5.67008 0.480769L 4.70854 0.480769ZM 5.18931 0.948131L 0.480769 0.948131L 0.480769 1.90967L 5.18931 1.90967L 5.18931 0.948131ZM 0.961538 1.4289L 0.961538 0.480769L 0 0.480769L 0 1.4289L 0.961538 1.4289Z"/>
<path id="path6_fill" d="M 0 0L 5.19277 0L 5.19277 0.948131L 0 0.948131L 0 0Z"/>
<path id="path7_fill" d="M 0.480769 0.480769L 0.480769 0L 0 0L 0 0.480769L 0.480769 0.480769ZM 5.67354 0.480769L 6.15431 0.480769L 6.15431 0L 5.67354 0L 5.67354 0.480769ZM 5.67354 1.4289L 5.67354 1.90967L 6.15431 1.90967L 6.15431 1.4289L 5.67354 1.4289ZM 0.480769 1.4289L 0 1.4289L 0 1.90967L 0.480769 1.90967L 0.480769 1.4289ZM 0.480769 0.961538L 5.67354 0.961538L 5.67354 0L 0.480769 0L 0.480769 0.961538ZM 5.19277 0.480769L 5.19277 1.4289L 6.15431 1.4289L 6.15431 0.480769L 5.19277 0.480769ZM 5.67354 0.948131L 0.480769 0.948131L 0.480769 1.90967L 5.67354 1.90967L 5.67354 0.948131ZM 0.961538 1.4289L 0.961538 0.480769L 0 0.480769L 0 1.4289L 0.961538 1.4289Z"/>
<path id="path8_fill" d="M 0 0L 5.13754 0L 5.13754 0.948131L 0 0.948131L 0 0Z"/>
<path id="path9_fill" d="M 0.480769 0.480769L 0.480769 0L 0 0L 0 0.480769L 0.480769 0.480769ZM 5.61831 0.480769L 6.09908 0.480769L 6.09908 0L 5.61831 0L 5.61831 0.480769ZM 5.61831 1.4289L 5.61831 1.90967L 6.09908 1.90967L 6.09908 1.4289L 5.61831 1.4289ZM 0.480769 1.4289L 0 1.4289L 0 1.90967L 0.480769 1.90967L 0.480769 1.4289ZM 0.480769 0.961538L 5.61831 0.961538L 5.61831 0L 0.480769 0L 0.480769 0.961538ZM 5.13754 0.480769L 5.13754 1.4289L 6.09908 1.4289L 6.09908 0.480769L 5.13754 0.480769ZM 5.61831 0.948131L 0.480769 0.948131L 0.480769 1.90967L 5.61831 1.90967L 5.61831 0.948131ZM 0.961539 1.4289L 0.961539 0.480769L 0 0.480769L 0 1.4289L 0.961539 1.4289Z"/>
<path id="path10_fill" d="M 23.6381 14.9029C 22.0353 21.3315 15.5243 25.2438 9.09495 23.6407C 2.66827 22.038 -1.24406 15.5266 0.359419 9.09838C 1.9614 2.66907 8.47246 -1.24364 14.8999 0.359095C 21.3288 1.96183 25.2408 8.47401 23.6381 14.9029Z"/>
<path id="path11_fill" d="M 11.4501 6.10906C 11.689 4.51233 10.4733 3.65396 8.81091 3.08134L 9.35015 0.918366L 8.03354 0.590244L 7.50855 2.69622C 7.16243 2.60997 6.80693 2.5286 6.45368 2.44798L 6.98243 0.328122L 5.66657 -4.57759e-08L 5.12695 2.16223C 4.84045 2.09698 4.5592 2.03248 4.28621 1.96461L 4.28771 1.95786L 2.47197 1.50448L 2.12173 2.91072C 2.12173 2.91072 3.09859 3.13459 3.07797 3.14847C 3.61121 3.28159 3.70759 3.63446 3.69146 3.91421L 3.07722 6.37831C 3.11397 6.38769 3.16159 6.40118 3.21409 6.42218C 3.17022 6.41131 3.12334 6.39931 3.07497 6.38769L 2.21398 9.83952C 2.14873 10.0015 1.98336 10.2445 1.61061 10.1523C 1.62373 10.1714 0.653619 9.9134 0.653619 9.9134L 9.15518e-08 11.4205L 1.71336 11.8476C 2.0321 11.9275 2.34448 12.0111 2.65197 12.0899L 2.1071 14.2776L 3.42222 14.6057L 3.96184 12.4412C 4.32108 12.5387 4.66983 12.6287 5.01107 12.7135L 4.47333 14.8678L 5.78994 15.196L 6.33481 13.0124C 8.57991 13.4372 10.2681 13.2659 10.9788 11.2353C 11.5514 9.60028 10.9503 8.65716 9.76903 8.04217C 10.6293 7.84379 11.2773 7.27793 11.4501 6.10906L 11.4501 6.10906ZM 8.44192 10.3274C 8.03504 11.9624 5.2822 11.0785 4.38971 10.8569L 5.1127 7.95854C 6.00519 8.18129 8.86716 8.62229 8.44192 10.3274ZM 8.84916 6.08544C 8.47791 7.57267 6.18669 6.81706 5.44344 6.63181L 6.09894 4.00308C 6.84218 4.18833 9.23578 4.53408 8.84916 6.08544L 8.84916 6.08544Z"/>
</defs>
</svg>
