<svg width="22" height="18" viewBox="0 0 22 18" version="1.1" xmlns="http://www.w3.org/2000/svg" xmlns:xlink="http://www.w3.org/1999/xlink">
<title>sendreceive</title>
<desc>Created using Figma</desc>
<g id="Canvas" transform="translate(14385 1004)">
<g id="sendreceive">
<g id="subdirectory-arrow-left (1)">
<g id="Vector">
<use xlink:href="#path0_fill" transform="translate(-14385 -995)" fill="#828282"/>
</g>
</g>
<g id="subdirectory-arrow-left (1)">
<g id="Vector">
<use xlink:href="#path0_fill" transform="matrix(-1 0 0 -1 -14363.7 -995)" fill="#828282"/>
</g>
</g>
</g>
</g>
<defs>
<path id="path0_fill" d="M 4.33671 0.142442C 4.41489 0.0638841 4.54205 0.063884 4.62023 0.142442L 5.39777 0.923721C 5.4755 1.00182 5.47541 1.12809 5.39757 1.20608L 3.19935 3.40872C 3.07355 3.53477 3.16283 3.75 3.34091 3.75L 19.5799 3.75C 19.6904 3.75 19.7799 3.66046 19.7799 3.55L 19.7799 0.2C 19.7799 0.0895431 19.8694 0 19.9799 0L 21.0727 0C 21.1832 0 21.2727 0.0895431 21.2727 0.2L 21.2727 5.05C 21.2727 5.16046 21.1832 5.25 21.0727 5.25L 3.34091 5.25C 3.16283 5.25 3.07355 5.46523 3.19935 5.59128L 5.39757 7.79392C 5.47541 7.87191 5.4755 7.99817 5.39777 8.07628L 4.62023 8.85756C 4.54205 8.93612 4.41489 8.93612 4.33671 8.85756L 0.140407 4.64108C 0.0627538 4.56306 0.0627536 4.43694 0.140407 4.35892L 4.33671 0.142442Z"/>
</defs>
</svg>
