<svg width="115" height="115" viewBox="0 0 115 115" version="1.1" xmlns="http://www.w3.org/2000/svg" xmlns:xlink="http://www.w3.org/1999/xlink">
<title>gavel</title>
<desc>Created using Figma</desc>
<g id="Canvas" transform="translate(15767 540)">
<g id="gavel">
<g id="Vector">
<use xlink:href="#path0_fill" transform="translate(-15767 -540)" fill="#FFFFFF"/>
</g>
</g>
</g>
<defs>
<path id="path0_fill" d="M 1.67476 105.16L 56.6412 50.2419L 48.6252 42.1185L 44.5027 46.1802C 42.2697 48.4113 38.6626 48.4113 36.4296 46.1802L 32.3643 42.1185C 30.1313 39.8875 30.1313 36.2834 32.3643 34.0524L 64.7716 1.6733C 67.0046 -0.557766 70.6118 -0.557766 72.8448 1.6733L 76.91 5.73498C 79.143 7.96605 79.143 11.5701 76.91 13.8011L 72.8448 17.7484L 80.9752 25.929C 83.2082 23.6979 86.8154 23.6979 89.0484 25.929C 91.2814 28.1601 91.2814 31.8213 89.0484 34.0524L 97.1216 42.1185L 101.187 38.0568C 103.42 35.8258 107.084 35.8258 109.317 38.0568L 113.325 42.1185C 115.558 44.3496 115.558 48.0108 113.325 50.2419L 80.9752 82.5637C 78.7422 84.7948 75.0778 84.7948 72.8448 82.5637L 68.8368 78.5593C 66.5466 76.3282 66.5466 72.667 68.8368 70.4359L 72.8448 66.3742L 64.7716 58.308L 9.74795 113.284C 7.51494 115.515 3.90777 115.515 1.67476 113.284C -0.558253 111.053 -0.558253 107.391 1.67476 105.16ZM 103.019 97.838C 106.056 97.838 108.969 99.0434 111.116 101.189C 113.264 103.335 114.47 106.245 114.47 109.279L 114.47 115L 57.2137 115L 57.2137 109.279C 57.2137 106.245 58.4202 103.335 60.5677 101.189C 62.7153 99.0434 65.628 97.838 68.6651 97.838L 103.019 97.838Z"/>
</defs>
</svg>
