<svg width="31" height="31" viewBox="0 0 31 31" version="1.1" xmlns="http://www.w3.org/2000/svg" xmlns:xlink="http://www.w3.org/1999/xlink">
<title>Vector</title>
<desc>Created using Figma</desc>
<g id="Canvas" transform="translate(55401 19258)">
<g id="Vector">
<g id="Vector">
<g id="Vector">
<use xlink:href="#path0_fill" transform="translate(-55401 -19258)" fill="#2F80ED"/>
</g>
</g>
</g>
</g>
<defs>
<path id="path0_fill" d="M 24.4888 23.3803C 24.0884 22.165 22.9333 21.2687 21.5625 21.2687L 20.0224 21.2687L 20.0224 16.7111C 20.0224 16.3082 19.8601 15.9218 19.5712 15.6368C 19.2824 15.352 18.8906 15.1919 18.4821 15.1919L 9.24107 15.1919L 9.24107 12.1535L 12.3214 12.1535C 12.7299 12.1535 13.1216 11.9934 13.4105 11.7086C 13.6993 11.4237 13.8616 11.0372 13.8616 10.6343L 13.8616 7.59595L 16.9419 7.59595C 17.7589 7.59595 18.5424 7.27584 19.1201 6.70603C 19.6978 6.13623 20.0224 5.3634 20.0224 4.55757L 20.0224 3.9347C 24.535 5.72735 27.7232 10.0874 27.7232 15.1919C 27.7232 18.3518 26.4911 21.2231 24.4888 23.3803ZM 13.8616 27.2391C 7.77791 26.4947 3.08035 21.3902 3.08035 15.1919C 3.08035 14.25 3.20357 13.3385 3.40379 12.4726L 10.7813 19.7495L 10.7813 21.2687C 10.7813 22.0745 11.1058 22.8473 11.6835 23.4171C 12.2611 23.987 13.0446 24.3071 13.8616 24.3071L 13.8616 27.2391ZM 15.4018 4.26001e-31C 13.3792 -1.01199e-15 11.3764 0.39295 9.50778 1.15642C 7.63915 1.91988 5.94127 3.0389 4.51108 4.44961C 1.62268 7.29864 2.73591e-15 11.1627 1.17755e-30 15.1919C 3.41989e-15 19.2211 1.62268 23.0851 4.51108 25.9342C 5.94127 27.3449 7.63915 28.4639 9.50778 29.2274C 11.3764 29.9908 13.3792 30.3838 15.4018 30.3838C 19.4866 30.3838 23.4041 28.7833 26.2925 25.9342C 29.1809 23.0851 30.8035 19.2211 30.8035 15.1919C 30.8035 13.1969 30.4053 11.2214 29.6312 9.37821C 28.8571 7.53505 27.7227 5.86031 26.2925 4.44961C 24.8624 3.0389 23.1644 1.91988 21.2958 1.15642C 19.4271 0.39295 17.4244 2.02396e-15 15.4018 4.26001e-31Z"/>
</defs>
</svg>
