<svg width="33" height="33" viewBox="0 0 33 33" version="1.1" xmlns="http://www.w3.org/2000/svg" xmlns:xlink="http://www.w3.org/1999/xlink">
<title>emoticon-happy</title>
<desc>Created using Figma</desc>
<g id="Canvas" transform="translate(19279 -299)">
<g id="emoticon-happy">
<g id="Vector">
<use xlink:href="#path0_fill" transform="translate(-19279 299)" fill="#2F80ED"/>
</g>
</g>
</g>
<defs>
<path id="path0_fill" d="M 29.3719 16.2803C 29.3719 12.826 27.9966 9.51326 25.5484 7.07075C 23.1003 4.62824 19.7799 3.25605 16.3177 3.25605C 12.8555 3.25605 9.53516 4.62824 7.08703 7.07075C 4.63889 9.51326 3.26354 12.826 3.26354 16.2803C 3.26354 19.7345 4.63889 23.0472 7.08703 25.4898C 9.53516 27.9323 12.8555 29.3045 16.3177 29.3045C 19.7799 29.3045 23.1003 27.9323 25.5484 25.4898C 27.9966 23.0472 29.3719 19.7345 29.3719 16.2803ZM 32.6354 16.2803C 32.6354 20.598 30.9163 24.739 27.8561 27.7921C 24.7959 30.8453 20.6455 32.5605 16.3177 32.5605C 14.1748 32.5605 12.053 32.1394 10.0732 31.3212C 8.09344 30.5031 6.29459 29.3039 4.77935 27.7921C 1.71918 24.739 1.44931e-15 20.598 7.24653e-16 16.2803C 2.17396e-15 11.9625 1.71918 7.82152 4.77935 4.76838C 7.83952 1.71524 11.99 7.22989e-16 16.3177 -2.16897e-15C 18.4606 -3.61494e-15 20.5825 0.421101 22.5622 1.23926C 24.542 2.05742 26.3409 3.25661 27.8561 4.76838C 29.3713 6.28014 30.5733 8.07486 31.3933 10.0501C 32.2134 12.0253 32.6354 14.1423 32.6354 16.2803ZM 13.0542 12.2102C 13.0542 13.5126 11.9119 14.6522 10.6065 14.6522C 9.3011 14.6522 8.15886 13.5126 8.15886 12.2102C 8.15886 10.9078 9.3011 9.76815 10.6065 9.76815C 11.9119 9.76815 13.0542 10.9078 13.0542 12.2102ZM 24.4766 12.2102C 24.4766 13.5126 23.3343 14.6522 22.0289 14.6522C 20.7235 14.6522 19.5813 13.5126 19.5813 12.2102C 19.5813 10.9078 20.7235 9.76815 22.0289 9.76815C 23.3343 9.76815 24.4766 10.9078 24.4766 12.2102ZM 16.3177 24.7948C 13.4621 24.7948 10.9492 23.6064 9.4806 21.8481L 11.7977 19.5363C 12.532 20.7085 14.278 21.5388 16.3177 21.5388C 18.3574 21.5388 20.1034 20.7085 20.8377 19.5363L 23.1549 21.8481C 21.6863 23.6064 19.1733 24.7948 16.3177 24.7948Z"/>
</defs>
</svg>
