<svg width="26" height="26" viewBox="0 0 26 26" version="1.1" xmlns="http://www.w3.org/2000/svg" xmlns:xlink="http://www.w3.org/1999/xlink">
<title>Vector</title>
<desc>Created using Figma</desc>
<g id="Canvas" transform="translate(22810 23708)">
<g id="Vector">
<use xlink:href="#path0_fill" transform="translate(-22810 -23708)" fill="#56CCF2"/>
</g>
</g>
<defs>
<path id="path0_fill" d="M 11.7 9.1L 14.3 9.1L 14.3 6.5L 11.7 6.5L 11.7 9.1ZM 13 23.4C 7.267 23.4 2.6 18.733 2.6 13C 2.6 7.267 7.267 2.6 13 2.6C 18.733 2.6 23.4 7.267 23.4 13C 23.4 18.733 18.733 23.4 13 23.4ZM 13 1.15463e-15C 11.2928 2.88658e-16 9.60235 0.336255 8.02512 0.989566C 6.44788 1.64288 5.01477 2.60045 3.80761 3.80761C 1.36964 6.24558 5.19584e-15 9.55219 2.88658e-15 13C 5.77316e-15 16.4478 1.36964 19.7544 3.80761 22.1924C 5.01477 23.3995 6.44788 24.3571 8.02512 25.0104C 9.60235 25.6637 11.2928 26 13 26C 16.4478 26 19.7544 24.6304 22.1924 22.1924C 24.6304 19.7544 26 16.4478 26 13C 26 11.2928 25.6637 9.60235 25.0104 8.02512C 24.3571 6.44788 23.3995 5.01477 22.1924 3.80761C 20.9852 2.60045 19.5521 1.64288 17.9749 0.989566C 16.3977 0.336255 14.7072 2.88658e-15 13 1.15463e-15ZM 11.7 19.5L 14.3 19.5L 14.3 11.7L 11.7 11.7L 11.7 19.5Z"/>
</defs>
</svg>
