<svg width="60" height="39" viewBox="0 0 60 39" version="1.1" xmlns="http://www.w3.org/2000/svg" xmlns:xlink="http://www.w3.org/1999/xlink">
<title>laptop (1)</title>
<desc>Created using Figma</desc>
<g id="Canvas" transform="translate(63312 17882)">
<g id="laptop (1)">
<g id="Vector">
<use xlink:href="#path0_fill" transform="translate(-63311 -17881.9)" fill="#041429"/>
</g>
</g>
</g>
<defs>
<path id="path0_fill" d="M 9.74847 4.81151L 48.7423 4.81151L 48.7423 28.869L 9.74847 28.869L 9.74847 4.81151ZM 48.7423 33.6806C 50.0351 33.6806 51.2749 33.1736 52.189 32.2713C 53.103 31.369 53.6166 30.1451 53.6166 28.869L 53.6166 4.81151C 53.6166 2.14112 51.4232 0 48.7423 0L 9.74847 0C 7.04327 0 4.87423 2.14112 4.87423 4.81151L 4.87423 28.869C 4.87423 30.1451 5.38777 31.369 6.30186 32.2713C 7.21596 33.1736 8.45574 33.6806 9.74847 33.6806L 0 33.6806L 0 38.4921L 58.4908 38.4921L 58.4908 33.6806L 48.7423 33.6806Z"/>
</defs>
</svg>
