<svg width="23" height="30" viewBox="0 0 23 30" version="1.1" xmlns="http://www.w3.org/2000/svg" xmlns:xlink="http://www.w3.org/1999/xlink">
<title>lock-outline</title>
<desc>Created using Figma</desc>
<g id="Canvas" transform="translate(19274 -537)">
<g id="lock-outline">
<g id="Vector">
<use xlink:href="#path0_fill" transform="translate(-19274 537)" fill="#2F80ED"/>
</g>
</g>
</g>
<defs>
<path id="path0_fill" d="M 11.5 22.8571C 9.90438 22.8571 8.625 21.5714 8.625 20C 8.625 18.4143 9.90438 17.1429 11.5 17.1429C 12.2625 17.1429 12.9938 17.4439 13.5329 17.9797C 14.0721 18.5155 14.375 19.2422 14.375 20C 14.375 20.7578 14.0721 21.4845 13.5329 22.0203C 12.9938 22.5561 12.2625 22.8571 11.5 22.8571ZM 20.125 27.1429L 20.125 12.8571L 2.875 12.8571L 2.875 27.1429L 20.125 27.1429ZM 20.125 10C 20.8875 10 21.6188 10.301 22.1579 10.8368C 22.6971 11.3727 23 12.0994 23 12.8571L 23 27.1429C 23 27.9006 22.6971 28.6273 22.1579 29.1632C 21.6188 29.699 20.8875 30 20.125 30L 2.875 30C 1.27937 30 0 28.7143 0 27.1429L 0 12.8571C 0 11.2714 1.27937 10 2.875 10L 4.3125 10L 4.3125 7.14286C 4.3125 5.24845 5.06975 3.43164 6.41767 2.09209C 7.76559 0.752549 9.59376 3.17207e-16 11.5 -9.5162e-16C 12.4439 -1.58603e-15 13.3785 0.184756 14.2505 0.543718C 15.1226 0.90268 15.9149 1.42882 16.5823 2.09209C 17.2498 2.75537 17.7792 3.54279 18.1404 4.4094C 18.5016 5.27602 18.6875 6.20484 18.6875 7.14286L 18.6875 10L 20.125 10ZM 11.5 2.85714C 10.3563 2.85714 9.25935 3.30867 8.4506 4.1124C 7.64185 4.91613 7.1875 6.00622 7.1875 7.14286L 7.1875 10L 15.8125 10L 15.8125 7.14286C 15.8125 6.00622 15.3581 4.91613 14.5494 4.1124C 13.7406 3.30867 12.6437 2.85714 11.5 2.85714Z"/>
</defs>
</svg>
