<svg width="16" height="21" viewBox="0 0 16 21" version="1.1" xmlns="http://www.w3.org/2000/svg" xmlns:xlink="http://www.w3.org/1999/xlink">
<title>lock</title>
<desc>Created using Figma</desc>
<g id="Canvas" transform="translate(52340 22236)">
<g id="lock">
<g id="Vector">
<use xlink:href="#path0_fill" transform="translate(-52340 -22236)" fill="#2F80ED"/>
</g>
</g>
</g>
<defs>
<path id="path0_fill" d="M 8 16C 8.53043 16 9.03914 15.7893 9.41421 15.4142C 9.78929 15.0391 10 14.5304 10 14C 10 12.89 9.1 12 8 12C 7.46957 12 6.96086 12.2107 6.58579 12.5858C 6.21071 12.9609 6 13.4696 6 14C 6 14.5304 6.21071 15.0391 6.58579 15.4142C 6.96086 15.7893 7.46957 16 8 16ZM 14 7C 14.5304 7 15.0391 7.21071 15.4142 7.58579C 15.7893 7.96086 16 8.46957 16 9L 16 19C 16 19.5304 15.7893 20.0391 15.4142 20.4142C 15.0391 20.7893 14.5304 21 14 21L 2 21C 1.46957 21 0.960859 20.7893 0.585786 20.4142C 0.210714 20.0391 1.77636e-15 19.5304 4.44089e-16 19L 4.44089e-16 9C 4.44089e-16 7.89 0.9 7 2 7L 3 7L 3 5C 3 3.67392 3.52678 2.40215 4.46447 1.46447C 5.40215 0.526784 6.67392 2.22045e-16 8 -6.66134e-16C 8.65661 -1.11022e-15 9.30679 0.129329 9.91342 0.380602C 10.52 0.631876 11.0712 1.00017 11.5355 1.46447C 11.9998 1.92876 12.3681 2.47995 12.6194 3.08658C 12.8707 3.69321 13 4.34339 13 5L 13 7L 14 7ZM 8 2C 7.20435 2 6.44129 2.31607 5.87868 2.87868C 5.31607 3.44129 5 4.20435 5 5L 5 7L 11 7L 11 5C 11 4.20435 10.6839 3.44129 10.1213 2.87868C 9.55871 2.31607 8.79565 2 8 2Z"/>
</defs>
</svg>
