<svg width="200" height="258" viewBox="0 0 200 258" version="1.1" xmlns="http://www.w3.org/2000/svg" xmlns:xlink="http://www.w3.org/1999/xlink">
<title>shield</title>
<desc>Created using Figma</desc>
<g id="Canvas" transform="translate(17216 -707)">
<g id="shield">
<g id="Vector">
<use xlink:href="#path0_fill" transform="translate(-17216 707)" fill="#595A66"/>
</g>
<g id="Vector">
<use xlink:href="#path1_fill" transform="translate(-17192.6 730.454)" fill="#D3E2EB"/>
</g>
<g id="Vector">
<use xlink:href="#path2_fill" transform="translate(-17192.6 730.454)" fill="#B0C4D8"/>
</g>
<g id="Vector">
<use xlink:href="#path3_fill" transform="translate(-17189.7 743.354)" fill="#FFFFFF"/>
</g>
<g id="Group">
<g id="Vector">
<use xlink:href="#path4_fill" transform="translate(-17189.7 882.91)" fill="#D5E3EF"/>
</g>
<g id="Vector">
<use xlink:href="#path5_fill" transform="translate(-17047 743.354)" fill="#D5E3EF"/>
</g>
</g>
<g id="Vector">
<use xlink:href="#path6_fill" transform="translate(-17149.9 806.682)" fill="#FFFFFF"/>
</g>
<g id="Vector">
<use xlink:href="#path7_fill" transform="translate(-17116.6 728.393)" fill="#494A52"/>
</g>
<g id="Group">
<g id="Vector">
<use xlink:href="#path8_fill" transform="translate(-17210.2 742.182)" fill="#6F707E"/>
</g>
<g id="Vector">
<use xlink:href="#path9_fill" transform="translate(-17210.2 812.545)" fill="#6F707E"/>
</g>
<g id="Vector">
<use xlink:href="#path10_fill" transform="translate(-17210.2 800.818)" fill="#6F707E"/>
</g>
</g>
<g id="SVGCleanerId 0">
<use xlink:href="#path11_fill" transform="translate(-17140 771.501)" fill="#6F707E"/>
</g>
<g id="Group">
<g id="SVGCleanerId 0 1">
<use xlink:href="#path11_fill" transform="translate(-17140 771.501)" fill="#6F707E"/>
</g>
</g>
<g id="Group">
<g id="Vector">
<use xlink:href="#path12_fill" transform="translate(-17137.1 783.228)" fill="#595A66"/>
</g>
<g id="Vector">
<use xlink:href="#path13_fill" transform="translate(-17119.5 771.5)" fill="#595A66"/>
</g>
<g id="Vector">
<use xlink:href="#path14_fill" transform="translate(-17151.7 818.409)" fill="#595A66"/>
</g>
</g>
<g id="Vector">
<use xlink:href="#path15_fill" transform="translate(-17122.4 830.137)" fill="#35363E"/>
</g>
<g id="Vector">
<use xlink:href="#path16_fill" transform="translate(-17151.7 818.408)" fill="#494A52"/>
</g>
<g id="Group">
<g id="Vector">
<use xlink:href="#path17_fill" transform="translate(-17145.8 824.273)" fill="#6F707E"/>
</g>
<g id="Vector">
<use xlink:href="#path18_fill" transform="translate(-17145.8 847.727)" fill="#6F707E"/>
</g>
</g>
</g>
</g>
<defs>
<path id="path0_fill" d="M 187.719 203.468L 99.415 257.999L 11.1111 203.468C 4.09334 199.364 7.8218e-07 191.74 7.8218e-07 183.531L 7.8218e-07 26.3865C 7.8218e-07 21.1091 3.50886 16.4182 8.77215 15.2456L 29.2398 9.38171C 52.6314 2.93172 76.0235 0 100.585 0C 125.731 0 150.292 3.51827 174.269 10.5543L 191.228 15.2451C 196.491 16.4177 200 21.1086 200 26.386L 200 183.531C 198.831 191.74 194.737 198.777 187.719 203.468Z"/>
<path id="path1_fill" d="M 1.50301e-06 156.559L 1.50301e-06 16.4182C 1.50301e-06 13.4865 1.75443 11.7274 4.09333 10.5548L 11.6955 8.79566C 32.7482 2.93222 54.3858 -9.22678e-07 76.6079 -9.22678e-07C 99.415 -9.22678e-07 121.637 2.93172 143.859 9.38171L 147.953 10.5543C 150.292 11.1408 152.046 13.486 152.046 16.4177L 152.046 156.558C 152.046 158.317 150.876 160.663 149.122 161.836L 78.9468 205.226C 77.1924 206.399 74.8535 206.399 72.5141 205.226L 2.33891 161.836C 1.16945 160.664 1.50301e-06 158.904 1.50301e-06 156.559Z"/>
<path id="path2_fill" d="M 11.6955 27.5591C 11.6955 24.6274 13.45 22.8682 15.7889 21.6956L 23.3911 19.9365C 44.4442 14.0731 66.0819 11.1413 88.304 11.1413C 109.942 11.1413 131.579 14.0731 152.046 19.937L 152.046 16.4187C 152.046 14.0731 150.292 11.7279 147.953 10.5553L 143.86 9.38271C 121.637 2.93222 99.415 -9.22678e-07 76.6079 -9.22678e-07C 54.3858 -9.22678e-07 32.7482 2.93172 11.6955 8.79566L 4.09333 10.5548C 1.75393 11.7274 1.50301e-06 14.0731 1.50301e-06 16.4182L 1.50301e-06 156.559C 1.50301e-06 158.318 1.16945 160.663 2.92388 161.836L 11.696 167.114L 11.696 27.5591L 11.6955 27.5591Z"/>
<path id="path3_fill" d="M 149.123 3.51827C 149.123 2.34568 148.538 1.17259 147.953 -1.69158e-06L 1.90177e-06 148.35L 28.6549 165.941L 149.123 45.7364L 149.123 3.51827Z"/>
<path id="path4_fill" d="M 1.90177e-06 9.38171L 8.77215 14.6591L 8.77215 1.72233e-06L 1.90177e-06 9.38171Z"/>
<path id="path5_fill" d="M 5.84827 1.75913C 5.84827 1.17259 5.26329 0.586544 5.26329 -1.69158e-06L 6.9936e-06 5.2774C 2.33941 5.86394 4.09334 6.44999 6.43274 7.03653L 6.43274 3.51826C 6.43325 2.93222 6.43325 2.34568 5.84827 1.75913Z"/>
<path id="path6_fill" d="M 109.357 80.3315L 109.357 -3.44466e-06L 1.34964e-06 109.65L 30.4093 128.413C 32.1637 129.586 34.5026 129.586 36.842 128.413L 107.017 85.0224C 108.187 84.4364 109.357 82.6772 109.357 80.3315Z"/>
<path id="path7_fill" d="M 99.415 3.82124C 97.6606 -2.62875 87.719 -0.28307 87.719 6.16692L 87.719 156.276C 87.719 164.485 83.6257 172.107 76.6079 176.212L 11.1111 216.671C 4.09334 220.776 2.82198e-06 228.399 2.82198e-06 236.608L 88.304 182.076C 95.3217 177.972 99.415 170.349 99.415 162.14L 99.415 4.99433C 99.415 4.40778 99.415 4.40778 99.415 3.82124Z"/>
<path id="path8_fill" d="M 5.84777 2.93172L 5.84777 49.8408C 5.84777 51.5999 4.67831 52.7725 2.92388 52.7725C 1.16945 52.7725 -6.13474e-07 51.5999 -6.13474e-07 49.8408L -6.13474e-07 2.93172C -6.13474e-07 1.17259 1.16945 3.99827e-07 2.92388 3.99827e-07C 4.67831 3.99827e-07 5.84777 1.17259 5.84777 2.93172Z"/>
<path id="path9_fill" d="M 5.84777 2.93172L 5.84777 14.6591C 5.84777 16.4182 4.67831 17.5908 2.92388 17.5908C 1.16945 17.5908 -6.13474e-07 16.4182 -6.13474e-07 14.6591L -6.13474e-07 2.93172C -6.13474e-07 1.17258 1.16945 9.22678e-07 2.92388 9.22678e-07C 4.67831 9.22678e-07 5.84777 1.17258 5.84777 2.93172Z"/>
<path id="path10_fill" d="M -6.13474e-07 2.93172C -6.13474e-07 1.17259 1.16945 3.44466e-06 2.92388 3.44466e-06C 4.67831 3.44466e-06 5.84777 1.17259 5.84777 2.93172C 5.84777 4.69085 4.67831 5.86344 2.92388 5.86344C 1.16945 5.86344 -6.13474e-07 4.69085 -6.13474e-07 2.93172Z"/>
<path id="path11_fill" d="M 40.9354 58.6359C 37.4265 58.6359 35.0876 56.2902 35.0876 52.7725L 35.0876 23.4543C 35.0876 17.0043 29.8243 11.7269 23.3916 11.7269C 16.9588 11.7269 11.6955 17.0043 11.6955 23.4543L 11.6955 52.7725C 11.6955 56.2907 9.35612 58.6359 5.84777 58.6359C 2.33941 58.6359 1.84042e-07 56.2902 1.84042e-07 52.7725L 1.84042e-07 23.4543C 1.84042e-07 10.5543 10.5261 3.56769e-06 23.3916 3.56769e-06C 36.257 3.56769e-06 46.7831 10.5543 46.7831 23.4543L 46.7831 52.7725C 46.7836 56.2902 44.4442 58.6359 40.9354 58.6359Z"/>
<path id="path12_fill" d="M 14.6199 -2.52199e-06C 8.18717 -2.52199e-06 2.92388 5.2774 2.92388 11.7274L 2.92388 41.0456C 2.92388 43.3913 1.75443 45.1499 -3.25141e-06 45.7364C 0.584974 46.323 1.75443 46.909 2.92388 46.909C 6.43274 46.909 8.77165 44.5634 8.77165 41.0456L 8.77165 11.7274C 8.77165 6.44999 12.2805 1.75913 17.5438 0.586544C 16.3743 -1.80211e-06 15.7894 -2.52199e-06 14.6199 -2.52199e-06Z"/>
<path id="path13_fill" d="M 2.92388 0C 1.75443 0 1.16946 7.20842e-07 2.69929e-06 0.586546C 11.696 1.75913 20.4677 11.7274 20.4677 23.4548L 20.4677 52.773C 20.4677 55.1187 19.2982 56.8773 17.5438 57.4638C 18.1288 58.0504 19.2982 58.6364 20.4677 58.6364C 23.9765 58.6364 26.3155 56.2907 26.3155 52.773L 26.3155 23.4548C 26.316 10.5543 15.7894 0 2.92388 0Z"/>
<path id="path14_fill" d="M 10.5261 1.72233e-06L 64.3274 1.72233e-06C 67.8363 1.72233e-06 70.1752 2.34568 70.1752 5.86344L 70.1752 46.909C 70.1752 50.4273 67.8358 52.7725 64.3274 52.7725L 5.84776 52.7725C 2.3389 52.7725 -1.41099e-06 50.4268 -1.41099e-06 46.909L -1.41099e-06 5.86344C -1.41099e-06 2.34518 2.33941 1.72233e-06 5.84776 1.72233e-06L 10.5261 1.72233e-06Z"/>
<path id="path15_fill" d="M 5.84776 23.4543C 2.3389 23.4543 -1.53369e-06 21.1086 -1.53369e-06 17.5908L -1.53369e-06 5.86344C -1.53369e-06 2.34517 2.33941 -7.99654e-07 5.84776 -7.99654e-07C 9.35663 -7.99654e-07 11.6955 2.34568 11.6955 5.86344L 11.6955 17.5908C 11.696 21.1091 9.35663 23.4543 5.84776 23.4543Z"/>
<path id="path16_fill" d="M 64.3274 1.72233e-06L 64.3274 46.909L 2.69929e-06 46.909C 2.69929e-06 50.4273 2.33941 52.7725 5.84777 52.7725L 64.3274 52.7725C 67.8363 52.7725 70.1752 50.4268 70.1752 46.909L 70.1752 5.86344C 70.1757 2.34518 67.8363 1.72233e-06 64.3274 1.72233e-06Z"/>
<path id="path17_fill" d="M 5.84777 2.93172L 5.84777 14.6591C 5.84777 16.4182 4.67832 17.5908 2.92389 17.5908C 1.16946 17.5908 -6.13474e-07 16.4182 -6.13474e-07 14.6591L -6.13474e-07 2.93172C -6.13474e-07 1.17259 1.16946 2.52199e-06 2.92389 2.52199e-06C 4.67832 2.52199e-06 5.84777 1.17309 5.84777 2.93172Z"/>
<path id="path18_fill" d="M -6.13474e-07 2.93172C -6.13474e-07 1.17259 1.16946 5.167e-06 2.92389 5.167e-06C 4.67832 5.167e-06 5.84777 1.17259 5.84777 2.93172C 5.84777 4.69085 4.67832 5.86344 2.92389 5.86344C 1.16946 5.86344 -6.13474e-07 4.69085 -6.13474e-07 2.93172Z"/>
</defs>
</svg>
