<svg width="13" height="13" viewBox="0 0 13 13" version="1.1" xmlns="http://www.w3.org/2000/svg" xmlns:xlink="http://www.w3.org/1999/xlink">
<title>Canvas</title>
<desc>Created using Figma</desc>
<g id="Canvas" transform="translate(29730 25987)">
<g id="Canvas">
<g id="Group 26.1 2.2">
<g id="Canvas">
<g id="Group 26.1">
<g id="Vector">
<g id="Vector">
<mask id="mask0_alpha" mask-type="alpha">
<g id="mask0 outline ins">
<g id="Vector">
<use xlink:href="#path0_fill" transform="matrix(-1 -1.22465e-16 1.22465e-16 -1 -29717 -25974)" fill="#FFFFFF"/>
</g>
</g>
</mask>
<g id="Group" mask="url(#mask0_alpha)">
<g id="Vector">
<use xlink:href="#path1_fill" transform="matrix(-1 -1.22465e-16 1.22465e-16 -1 -29716.3 -25973.3)" fill="#FFFFFF"/>
</g>
</g>
</g>
</g>
<g id="Group 24.3 2.5">
<g id="Canvas">
<g id="Group 24.3">
<g id="Group 18">
<g id="Group 17.20">
<g id="Group 14">
<g id="Ellipse 3.2">
<mask id="mask1_alpha" mask-type="alpha">
<g id="mask1 alpha">
<g id="mask0 alpha">
<g id="mask1 outline ins">
<g id="Vector">
<g id="Vector">
<g id="Vector">
<use xlink:href="#path2_fill" transform="matrix(0.873884 -0.486135 0.486135 0.873884 -29721.4 -25981.4)" fill="#FFFFFF"/>
</g>
</g>
</g>
</g>
</g>
</g>
</mask>
<g id="Group" mask="url(#mask1_alpha)">
<g id="Vector">
<g id="Vector">
<g id="Vector">
<use xlink:href="#path3_fill" transform="matrix(0.873884 -0.486135 0.486135 0.873884 -29722.1 -25981.6)" fill="#FFFFFF"/>
</g>
</g>
</g>
</g>
</g>
</g>
</g>
<g id="Rectangle 14.44">
<mask id="mask2_alpha" mask-type="alpha">
<g id="mask2 alpha">
<g id="mask1 alpha">
<g id="mask2 outline ins">
<g id="Vector">
<g id="Vector">
<g id="Vector">
<use xlink:href="#path4_fill" transform="matrix(0.873884 -0.486135 0.486135 0.873884 -29722.9 -25979.5)" fill="#FFFFFF"/>
</g>
</g>
</g>
</g>
</g>
</g>
</mask>
<g id="Group" mask="url(#mask2_alpha)">
<g id="Vector">
<g id="Vector">
<g id="Vector">
<use xlink:href="#path5_fill" transform="matrix(0.873884 -0.486135 0.486135 0.873884 -29723.2 -25979.6)" fill="#FFFFFF"/>
</g>
</g>
</g>
</g>
</g>
<g id="Group 17.21">
<g id="Group 14">
<g id="Ellipse 3.2">
<mask id="mask3_alpha" mask-type="alpha">
<g id="mask3 alpha">
<g id="mask2 alpha">
<g id="mask4 outline ins">
<g id="Vector">
<g id="Vector">
<g id="Vector">
<use xlink:href="#path2_fill" transform="matrix(-0.873884 -0.486135 -0.486135 0.873884 -29725.6 -25981.4)" fill="#FFFFFF"/>
</g>
</g>
</g>
</g>
</g>
</g>
</mask>
<g id="Group" mask="url(#mask3_alpha)">
<g id="Vector">
<g id="Vector">
<g id="Vector">
<use xlink:href="#path3_fill" transform="matrix(-0.873884 -0.486135 -0.486135 0.873884 -29724.9 -25981.6)" fill="#FFFFFF"/>
</g>
</g>
</g>
</g>
</g>
</g>
</g>
<g id="Rectangle 14.45">
<mask id="mask4_alpha" mask-type="alpha">
<g id="mask4 alpha">
<g id="mask3 alpha">
<g id="mask5 outline ins">
<g id="Vector">
<g id="Vector">
<g id="Vector">
<use xlink:href="#path6_fill" transform="matrix(-0.873884 -0.486135 -0.486135 0.873884 -29724.3 -25979)" fill="#FFFFFF"/>
</g>
</g>
</g>
</g>
</g>
</g>
</mask>
<g id="Group" mask="url(#mask4_alpha)">
<g id="Vector">
<g id="Vector">
<g id="Vector">
<use xlink:href="#path7_fill" transform="matrix(-0.873884 -0.486135 -0.486135 0.873884 -29723.9 -25979.1)" fill="#FFFFFF"/>
</g>
</g>
</g>
</g>
</g>
<g id="Rectangle 14.46">
<mask id="mask5_alpha" mask-type="alpha">
<g id="mask5 alpha">
<g id="mask4 alpha">
<g id="mask6 outline ins">
<g id="Vector">
<g id="Vector">
<g id="Vector">
<use xlink:href="#path8_fill" transform="matrix(-0.873884 -0.486135 -0.486135 0.873884 -29723.8 -25979.9)" fill="#FFFFFF"/>
</g>
</g>
</g>
</g>
</g>
</g>
</mask>
<g id="Group" mask="url(#mask5_alpha)">
<g id="Vector">
<g id="Vector">
<g id="Vector">
<use xlink:href="#path9_fill" transform="matrix(-0.873884 -0.486135 -0.486135 0.873884 -29723.4 -25980)" fill="#FFFFFF"/>
</g>
</g>
</g>
</g>
</g>
<g id="Group 16.23">
<g id="Ellipse 3.24">
<mask id="mask6_alpha" mask-type="alpha">
<g id="mask6 alpha">
<g id="mask5 alpha">
<g id="mask7 outline ins">
<g id="Vector">
<g id="Vector">
<g id="Vector">
<use xlink:href="#path2_fill" transform="matrix(0.873884 -0.486135 0.486135 0.873884 -29725.2 -25979.4)" fill="#FFFFFF"/>
</g>
</g>
</g>
</g>
</g>
</g>
</mask>
<g id="Group" mask="url(#mask6_alpha)">
<g id="Vector">
<g id="Vector">
<g id="Vector">
<use xlink:href="#path3_fill" transform="matrix(0.873884 -0.486135 0.486135 0.873884 -29725.9 -25979.6)" fill="#FFFFFF"/>
</g>
</g>
</g>
</g>
</g>
</g>
</g>
</g>
</g>
</g>
</g>
</g>
</g>
</g>
</g>
<defs>
<path id="path0_fill" d="M 13 6.5C 13 10.0899 10.0899 13 6.5 13C 2.91015 13 0 10.0899 0 6.5C 0 2.91015 2.91015 0 6.5 0C 10.0899 0 13 2.91015 13 6.5Z"/>
<path id="path1_fill" d="M 13 7.15657C 13 10.3838 10.3838 13 7.15657 13L 7.15657 14.3131C 11.109 14.3131 14.3131 11.109 14.3131 7.15657L 13 7.15657ZM 7.15657 13C 3.92932 13 1.31313 10.3838 1.31313 7.15657L 0 7.15657C 0 11.109 3.20411 14.3131 7.15657 14.3131L 7.15657 13ZM 1.31313 7.15657C 1.31313 3.92932 3.92932 1.31313 7.15657 1.31313L 7.15657 0C 3.20411 0 0 3.20411 0 7.15657L 1.31313 7.15657ZM 7.15657 1.31313C 10.3838 1.31313 13 3.92932 13 7.15657L 14.3131 7.15657C 14.3131 3.20411 11.109 0 7.15657 0L 7.15657 1.31313Z"/>
<path id="path2_fill" d="M 2.47917 1.23958C 2.47917 1.92418 1.92418 2.47917 1.23958 2.47917C 0.554982 2.47917 0 1.92418 0 1.23958C 0 0.554982 0.554982 0 1.23958 0C 1.92418 0 2.47917 0.554982 2.47917 1.23958Z"/>
<path id="path3_fill" d="M 2.47917 1.76041C 2.47917 2.15737 2.15737 2.47917 1.76041 2.47917L 1.76041 3.52083C 2.73267 3.52083 3.52083 2.73267 3.52083 1.76041L 2.47917 1.76041ZM 1.76041 2.47917C 1.36346 2.47917 1.04167 2.15737 1.04167 1.76041L 0 1.76041C 0 2.73267 0.788165 3.52083 1.76041 3.52083L 1.76041 2.47917ZM 1.04167 1.76041C 1.04167 1.36346 1.36346 1.04167 1.76041 1.04167L 1.76041 0C 0.788165 0 0 0.788165 0 1.76041L 1.04167 1.76041ZM 1.76041 1.04167C 2.15737 1.04167 2.47917 1.36346 2.47917 1.76041L 3.52083 1.76041C 3.52083 0.788165 2.73267 0 1.76041 0L 1.76041 1.04167Z"/>
<path id="path4_fill" d="M 0 0L 2.55046 0L 2.55046 0.513571L 0 0.513571L 0 0Z"/>
<path id="path5_fill" d="M 0.260416 0.260416L 0.260416 0L 0 0L 0 0.260416L 0.260416 0.260416ZM 2.81088 0.260416L 3.0713 0.260416L 3.0713 0L 2.81088 0L 2.81088 0.260416ZM 2.81088 0.773987L 2.81088 1.0344L 3.0713 1.0344L 3.0713 0.773987L 2.81088 0.773987ZM 0.260416 0.773987L 0 0.773987L 0 1.0344L 0.260416 1.0344L 0.260416 0.773987ZM 0.260416 0.520834L 2.81088 0.520834L 2.81088 0L 0.260416 0L 0.260416 0.520834ZM 2.55046 0.260416L 2.55046 0.773987L 3.0713 0.773987L 3.0713 0.260416L 2.55046 0.260416ZM 2.81088 0.513571L 0.260416 0.513571L 0.260416 1.0344L 2.81088 1.0344L 2.81088 0.513571ZM 0.520834 0.773987L 0.520834 0.260416L 0 0.260416L 0 0.773987L 0.520834 0.773987Z"/>
<path id="path6_fill" d="M 0 0L 2.81275 0L 2.81275 0.513571L 0 0.513571L 0 0Z"/>
<path id="path7_fill" d="M 0.260416 0.260416L 0.260416 0L 0 0L 0 0.260416L 0.260416 0.260416ZM 3.07316 0.260416L 3.33358 0.260416L 3.33358 0L 3.07316 0L 3.07316 0.260416ZM 3.07316 0.773987L 3.07316 1.0344L 3.33358 1.0344L 3.33358 0.773987L 3.07316 0.773987ZM 0.260416 0.773987L 0 0.773987L 0 1.0344L 0.260416 1.0344L 0.260416 0.773987ZM 0.260416 0.520834L 3.07316 0.520834L 3.07316 0L 0.260416 0L 0.260416 0.520834ZM 2.81275 0.260416L 2.81275 0.773987L 3.33358 0.773987L 3.33358 0.260416L 2.81275 0.260416ZM 3.07316 0.513571L 0.260416 0.513571L 0.260416 1.0344L 3.07316 1.0344L 3.07316 0.513571ZM 0.520834 0.773987L 0.520834 0.260416L 0 0.260416L 0 0.773987L 0.520834 0.773987Z"/>
<path id="path8_fill" d="M 0 0L 2.78283 0L 2.78283 0.513571L 0 0.513571L 0 0Z"/>
<path id="path9_fill" d="M 0.260416 0.260416L 0.260416 0L 0 0L 0 0.260416L 0.260416 0.260416ZM 3.04325 0.260416L 3.30367 0.260416L 3.30367 0L 3.04325 0L 3.04325 0.260416ZM 3.04325 0.773987L 3.04325 1.0344L 3.30367 1.0344L 3.30367 0.773987L 3.04325 0.773987ZM 0.260416 0.773987L 0 0.773987L 0 1.0344L 0.260416 1.0344L 0.260416 0.773987ZM 0.260416 0.520834L 3.04325 0.520834L 3.04325 0L 0.260416 0L 0.260416 0.520834ZM 2.78283 0.260416L 2.78283 0.773987L 3.30367 0.773987L 3.30367 0.260416L 2.78283 0.260416ZM 3.04325 0.513571L 0.260416 0.513571L 0.260416 1.0344L 3.04325 1.0344L 3.04325 0.513571ZM 0.520834 0.773987L 0.520834 0.260416L 0 0.260416L 0 0.773987L 0.520834 0.773987Z"/>
</defs>
</svg>
