<svg width="32" height="17" viewBox="0 0 32 17" version="1.1" xmlns="http://www.w3.org/2000/svg" xmlns:xlink="http://www.w3.org/1999/xlink">
<title>Group 26.1 2.8</title>
<desc>Created using Figma</desc>
<g id="Canvas" transform="translate(12783 364)">
<g id="Group 26.1 2.8">
<g id="Canvas">
<g id="Group 26.1">
<g id="Group 24.3 2.5">
<g id="Canvas">
<g id="Group 24.3">
<g id="Group 18">
<g id="Group 17.20">
<g id="Group 14">
<g id="Ellipse 3.2">
<mask id="mask0_alpha" mask-type="alpha">
<g id="mask0 alpha">
<g id="mask1 outline ins">
<g id="Vector">
<g id="Vector">
<use xlink:href="#path0_fill" transform="matrix(0.873884 -0.486135 0.486135 0.873884 -12760.9 -359.753)" fill="#FFFFFF"/>
</g>
</g>
</g>
</g>
</mask>
<g id="Group" mask="url(#mask0_alpha)">
<g id="Vector">
<g id="Vector">
<use xlink:href="#path1_fill" transform="matrix(0.873884 -0.486135 0.486135 0.873884 -12763 -360.337)" fill="#FFFFFF"/>
</g>
</g>
</g>
</g>
</g>
</g>
<g id="Rectangle 14.44">
<mask id="mask1_alpha" mask-type="alpha">
<g id="mask1 alpha">
<g id="mask2 outline ins">
<g id="Vector">
<g id="Vector">
<use xlink:href="#path2_fill" transform="matrix(0.873884 -0.486135 0.486135 0.873884 -12765.2 -354.022)" fill="#FFFFFF"/>
</g>
</g>
</g>
</g>
</mask>
<g id="Group" mask="url(#mask1_alpha)">
<g id="Vector">
<g id="Vector">
<use xlink:href="#path3_fill" transform="matrix(0.873884 -0.486135 0.486135 0.873884 -12766.3 -354.315)" fill="#FFFFFF"/>
</g>
</g>
</g>
</g>
<g id="Group 17.21">
<g id="Group 14">
<g id="Ellipse 3.2">
<mask id="mask2_alpha" mask-type="alpha">
<g id="mask2 alpha">
<g id="mask4 outline ins">
<g id="Vector">
<g id="Vector">
<use xlink:href="#path0_fill" transform="matrix(-0.873884 -0.486135 -0.486135 0.873884 -12773.1 -359.752)" fill="#FFFFFF"/>
</g>
</g>
</g>
</g>
</mask>
<g id="Group" mask="url(#mask2_alpha)">
<g id="Vector">
<g id="Vector">
<use xlink:href="#path1_fill" transform="matrix(-0.873884 -0.486135 -0.486135 0.873884 -12771 -360.337)" fill="#FFFFFF"/>
</g>
</g>
</g>
</g>
</g>
</g>
<g id="Rectangle 14.45">
<mask id="mask3_alpha" mask-type="alpha">
<g id="mask3 alpha">
<g id="mask5 outline ins">
<g id="Vector">
<g id="Vector">
<use xlink:href="#path4_fill" transform="matrix(-0.873884 -0.486135 -0.486135 0.873884 -12769.3 -352.53)" fill="#FFFFFF"/>
</g>
</g>
</g>
</g>
</mask>
<g id="Group" mask="url(#mask3_alpha)">
<g id="Vector">
<g id="Vector">
<use xlink:href="#path5_fill" transform="matrix(-0.873884 -0.486135 -0.486135 0.873884 -12768.2 -352.823)" fill="#FFFFFF"/>
</g>
</g>
</g>
</g>
<g id="Rectangle 14.46">
<mask id="mask4_alpha" mask-type="alpha">
<g id="mask4 alpha">
<g id="mask6 outline ins">
<g id="Vector">
<g id="Vector">
<use xlink:href="#path6_fill" transform="matrix(-0.873884 -0.486135 -0.486135 0.873884 -12767.9 -355.24)" fill="#FFFFFF"/>
</g>
</g>
</g>
</g>
</mask>
<g id="Group" mask="url(#mask4_alpha)">
<g id="Vector">
<g id="Vector">
<use xlink:href="#path7_fill" transform="matrix(-0.873884 -0.486135 -0.486135 0.873884 -12766.8 -355.532)" fill="#FFFFFF"/>
</g>
</g>
</g>
</g>
<g id="Group 16.23">
<g id="Ellipse 3.24">
<mask id="mask5_alpha" mask-type="alpha">
<g id="mask5 alpha">
<g id="mask7 outline ins">
<g id="Vector">
<g id="Vector">
<use xlink:href="#path0_fill" transform="matrix(0.873884 -0.486135 0.486135 0.873884 -12771.9 -353.651)" fill="#FFFFFF"/>
</g>
</g>
</g>
</g>
</mask>
<g id="Group" mask="url(#mask5_alpha)">
<g id="Vector">
<g id="Vector">
<use xlink:href="#path1_fill" transform="matrix(0.873884 -0.486135 0.486135 0.873884 -12774 -354.235)" fill="#FFFFFF"/>
</g>
</g>
</g>
</g>
</g>
</g>
</g>
</g>
</g>
</g>
</g>
</g>
</g>
<defs>
<path id="path0_fill" d="M 7.24679 3.6234C 7.24679 5.62454 5.62454 7.24679 3.6234 7.24679C 1.62225 7.24679 0 5.62454 0 3.6234C 0 1.62225 1.62225 0 3.6234 0C 5.62454 0 7.24679 1.62225 7.24679 3.6234Z"/>
<path id="path1_fill" d="M 7.24679 5.14583C 7.24679 6.30617 6.30617 7.24679 5.14583 7.24679L 5.14583 10.2917C 7.98779 10.2917 10.2917 7.98779 10.2917 5.14583L 7.24679 5.14583ZM 5.14583 7.24679C 3.98551 7.24679 3.04487 6.30617 3.04487 5.14583L 0 5.14583C 0 7.98779 2.30387 10.2917 5.14583 10.2917L 5.14583 7.24679ZM 3.04487 5.14583C 3.04487 3.98551 3.98551 3.04487 5.14583 3.04487L 5.14583 0C 2.30387 0 0 2.30387 0 5.14583L 3.04487 5.14583ZM 5.14583 3.04487C 6.30617 3.04487 7.24679 3.98551 7.24679 5.14583L 10.2917 5.14583C 10.2917 2.30387 7.98779 0 5.14583 0L 5.14583 3.04487Z"/>
<path id="path2_fill" d="M 0 0L 7.45519 0L 7.45519 1.50121L 0 1.50121L 0 0Z"/>
<path id="path3_fill" d="M 0.761218 0.761218L 0.761218 0L 0 0L 0 0.761218L 0.761218 0.761218ZM 8.2164 0.761218L 8.97762 0.761218L 8.97762 0L 8.2164 0L 8.2164 0.761218ZM 8.2164 2.26242L 8.2164 3.02364L 8.97762 3.02364L 8.97762 2.26242L 8.2164 2.26242ZM 0.761218 2.26242L 0 2.26242L 0 3.02364L 0.761218 3.02364L 0.761218 2.26242ZM 0.761218 1.52244L 8.2164 1.52244L 8.2164 0L 0.761218 0L 0.761218 1.52244ZM 7.45519 0.761218L 7.45519 2.26242L 8.97762 2.26242L 8.97762 0.761218L 7.45519 0.761218ZM 8.2164 1.50121L 0.761218 1.50121L 0.761218 3.02364L 8.2164 3.02364L 8.2164 1.50121ZM 1.52244 2.26242L 1.52244 0.761218L 0 0.761218L 0 2.26242L 1.52244 2.26242Z"/>
<path id="path4_fill" d="M 0 0L 8.22188 0L 8.22188 1.50121L 0 1.50121L 0 0Z"/>
<path id="path5_fill" d="M 0.761218 0.761218L 0.761218 0L 0 0L 0 0.761218L 0.761218 0.761218ZM 8.9831 0.761218L 9.74432 0.761218L 9.74432 0L 8.9831 0L 8.9831 0.761218ZM 8.9831 2.26242L 8.9831 3.02364L 9.74432 3.02364L 9.74432 2.26242L 8.9831 2.26242ZM 0.761218 2.26242L 0 2.26242L 0 3.02364L 0.761218 3.02364L 0.761218 2.26242ZM 0.761218 1.52244L 8.9831 1.52244L 8.9831 0L 0.761218 0L 0.761218 1.52244ZM 8.22188 0.761218L 8.22188 2.26242L 9.74432 2.26242L 9.74432 0.761218L 8.22188 0.761218ZM 8.9831 1.50121L 0.761218 1.50121L 0.761218 3.02364L 8.9831 3.02364L 8.9831 1.50121ZM 1.52244 2.26242L 1.52244 0.761218L 0 0.761218L 0 2.26242L 1.52244 2.26242Z"/>
<path id="path6_fill" d="M 0 0L 8.13444 0L 8.13444 1.50121L 0 1.50121L 0 0Z"/>
<path id="path7_fill" d="M 0.761218 0.761218L 0.761218 0L 0 0L 0 0.761218L 0.761218 0.761218ZM 8.89565 0.761218L 9.65687 0.761218L 9.65687 0L 8.89565 0L 8.89565 0.761218ZM 8.89565 2.26242L 8.89565 3.02364L 9.65687 3.02364L 9.65687 2.26242L 8.89565 2.26242ZM 0.761218 2.26242L 0 2.26242L 0 3.02364L 0.761218 3.02364L 0.761218 2.26242ZM 0.761218 1.52244L 8.89565 1.52244L 8.89565 0L 0.761218 0L 0.761218 1.52244ZM 8.13444 0.761218L 8.13444 2.26242L 9.65687 2.26242L 9.65687 0.761218L 8.13444 0.761218ZM 8.89565 1.50121L 0.761218 1.50121L 0.761218 3.02364L 8.89565 3.02364L 8.89565 1.50121ZM 1.52244 2.26242L 1.52244 0.761218L 0 0.761218L 0 2.26242L 1.52244 2.26242Z"/>
</defs>
</svg>
