<svg width="19" height="18" viewBox="0 0 19 18" version="1.1" xmlns="http://www.w3.org/2000/svg" xmlns:xlink="http://www.w3.org/1999/xlink">
<title>logout</title>
<desc>Created using Figma</desc>
<g id="Canvas" transform="translate(14383 918)">
<g id="logout">
<g id="Vector">
<use xlink:href="#path0_fill" transform="translate(-14383 -918)" fill="#828282"/>
</g>
</g>
</g>
<defs>
<path id="path0_fill" d="M 13.5 13.725L 13.5 10.8L 7.2 10.8L 7.2 7.2L 13.5 7.2L 13.5 4.275L 18.225 9L 13.5 13.725ZM 9.9 0C 10.3774 3.9968e-16 10.8352 0.189642 11.1728 0.527208C 11.5104 0.864773 11.7 1.32261 11.7 1.8L 11.7 5.4L 9.9 5.4L 9.9 1.8L 1.8 1.8L 1.8 16.2L 9.9 16.2L 9.9 12.6L 11.7 12.6L 11.7 16.2C 11.7 16.6774 11.5104 17.1352 11.1728 17.4728C 10.8352 17.8104 10.3774 18 9.9 18L 1.8 18C 1.32261 18 0.864773 17.8104 0.527208 17.4728C 0.189642 17.1352 3.9968e-16 16.6774 0 16.2L 0 1.8C -1.9984e-16 1.32261 0.189642 0.864773 0.527208 0.527208C 0.864773 0.189642 1.32261 3.9968e-16 1.8 0L 9.9 0Z"/>
</defs>
</svg>
