<svg width="20" height="16" viewBox="0 0 20 16" version="1.1" xmlns="http://www.w3.org/2000/svg" xmlns:xlink="http://www.w3.org/1999/xlink">
<title>email (3)</title>
<desc>Created using Figma</desc>
<g id="Canvas" transform="translate(11799 31382)">
<g id="email (3)">
<g id="Vector">
<use xlink:href="#path0_fill" transform="translate(-11799 -31382)" fill="#FFFFFF"/>
</g>
</g>
</g>
<defs>
<path id="path0_fill" d="M 18 4L 10 9L 2 4L 2 2L 10 7L 18 2L 18 4ZM 18 0L 2 0C 0.89 0 0 0.89 0 2L 0 14C 4.44089e-16 14.5304 0.210714 15.0391 0.585786 15.4142C 0.960859 15.7893 1.46957 16 2 16L 18 16C 18.5304 16 19.0391 15.7893 19.4142 15.4142C 19.7893 15.0391 20 14.5304 20 14L 20 2C 20 0.89 19.1 0 18 0Z"/>
</defs>
</svg>
