<svg width="87" height="80" viewBox="0 0 87 80" version="1.1" xmlns="http://www.w3.org/2000/svg" xmlns:xlink="http://www.w3.org/1999/xlink">
<title>newspaper</title>
<desc>Created using Figma</desc>
<g id="Canvas" transform="translate(11713 29783)">
<g id="newspaper">
<g id="Vector">
<use xlink:href="#path0_fill" transform="translate(-11713 -29783)" fill="#FFFFFF"/>
</g>
</g>
</g>
<defs>
<path id="path0_fill" d="M 78.3 35.5556L 8.7 35.5556L 8.7 22.2222L 78.3 22.2222L 78.3 35.5556ZM 78.3 53.3333L 47.85 53.3333L 47.85 44.4444L 78.3 44.4444L 78.3 53.3333ZM 78.3 71.1111L 47.85 71.1111L 47.85 62.2222L 78.3 62.2222L 78.3 71.1111ZM 39.15 71.1111L 8.7 71.1111L 8.7 44.4444L 39.15 44.4444L 39.15 71.1111ZM 79.7355 7.42222L 72.5145 0L 65.25 7.42222L 57.9855 0L 50.7645 7.42222L 43.5 0L 36.2355 7.42222L 29.0145 0L 21.75 7.42222L 14.4855 0L 7.2645 7.42222L 0 0L 0 71.1111C 1.93179e-15 73.4686 0.916604 75.7295 2.54817 77.3965C 4.17974 79.0635 6.39262 80 8.7 80L 78.3 80C 80.6074 80 82.8203 79.0635 84.4518 77.3965C 86.0834 75.7295 87 73.4686 87 71.1111L 87 0L 79.7355 7.42222Z"/>
</defs>
</svg>
