<svg width="93" height="55" viewBox="0 0 93 55" version="1.1" xmlns="http://www.w3.org/2000/svg" xmlns:xlink="http://www.w3.org/1999/xlink">
<title>account-group (2)</title>
<desc>Created using Figma</desc>
<g id="Canvas" transform="translate(19220 -1008)">
<g id="account-group (2)">
<g id="Vector">
<use xlink:href="#path0_fill" transform="translate(-19220 1008)" fill="#0575E6"/>
</g>
</g>
</g>
<defs>
<path id="path0_fill" d="M 46.4005 0C 43.0442 0 39.8255 1.31742 37.4523 3.66244C 35.079 6.00747 33.7458 9.188 33.7458 12.5044C 33.7458 15.8207 35.079 19.0013 37.4523 21.3463C 39.8255 23.6913 43.0442 25.0087 46.4005 25.0087C 49.7567 25.0087 52.9754 23.6913 55.3487 21.3463C 57.7219 19.0013 59.0551 15.8207 59.0551 12.5044C 59.0551 9.188 57.7219 6.00747 55.3487 3.66244C 52.9754 1.31742 49.7567 0 46.4005 0ZM 21.0911 9.04482C 18.2943 9.04482 15.612 10.1427 13.6343 12.0969C 11.6566 14.051 10.5456 16.7015 10.5456 19.4651C 10.5456 20.8335 10.8183 22.1886 11.3483 23.4528C 11.8783 24.717 12.655 25.8658 13.6343 26.8334C 14.6135 27.801 15.7761 28.5686 17.0555 29.0922C 18.335 29.6159 19.7063 29.8854 21.0911 29.8854C 24.8032 29.8854 28.0512 27.9681 29.9072 25.1338C 27.081 21.5909 25.3093 17.2977 25.3093 12.5044C 25.3093 11.6707 25.3093 10.8371 25.4781 10.0035C 24.1282 9.37827 22.6519 9.04482 21.0911 9.04482ZM 71.7098 9.04482C 70.149 9.04482 68.6727 9.37827 67.3228 10.0035C 67.4916 10.8371 67.4916 11.6707 67.4916 12.5044C 67.4916 17.2977 65.7199 21.5909 62.8937 25.1338C 64.7497 27.9681 67.9978 29.8854 71.7098 29.8854C 73.0947 29.8854 74.466 29.6159 75.7454 29.0922C 77.0248 28.5686 78.1874 27.801 79.1666 26.8334C 80.1459 25.8658 80.9227 24.717 81.4526 23.4528C 81.9826 22.1886 82.2553 20.8335 82.2553 19.4651C 82.2553 18.0967 81.9826 16.7417 81.4526 15.4774C 80.9227 14.2132 80.1459 13.0645 79.1666 12.0969C 78.1874 11.1292 77.0248 10.3617 75.7454 9.83802C 74.466 9.31435 73.0947 9.04482 71.7098 9.04482ZM 46.4005 33.345C 37.964 33.345 21.0911 37.5131 21.0911 45.8493L 21.0911 54.1856L 71.7098 54.1856L 71.7098 45.8493C 71.7098 37.5131 54.8369 33.345 46.4005 33.345ZM 15.4809 37.388C 8.43645 38.5968 0 41.8479 0 47.2248L 0 54.1856L 12.6547 54.1856L 12.6547 45.8493C 12.6547 42.5982 13.878 39.7222 15.4809 37.388ZM 77.32 37.388C 78.923 39.7222 80.1462 42.5982 80.1462 45.8493L 80.1462 54.1856L 92.8009 54.1856L 92.8009 47.2248C 92.8009 41.8479 84.3645 38.5968 77.32 37.388Z"/>
</defs>
</svg>
