<svg width="38" height="25" viewBox="0 0 38 25" version="1.1" xmlns="http://www.w3.org/2000/svg" xmlns:xlink="http://www.w3.org/1999/xlink">
<title>account-multiple (1)</title>
<desc>Created using Figma</desc>
<g id="Canvas" transform="translate(55148 20844)">
<g id="account-multiple (1)">
<g id="Vector">
<use xlink:href="#path0_fill" transform="translate(-55148 -20844)" fill="#FFFFFF"/>
</g>
</g>
</g>
<defs>
<path id="path0_fill" d="M 25.9091 13.8182C 25.4082 13.8182 24.8382 13.8182 24.2336 13.9045C 26.2373 15.3555 27.6364 17.2727 27.6364 19.8636L 27.6364 24.1818L 38 24.1818L 38 19.8636C 38 15.8391 29.9336 13.8182 25.9091 13.8182ZM 12.0909 13.8182C 8.06636 13.8182 0 15.8391 0 19.8636L 0 24.1818L 24.1818 24.1818L 24.1818 19.8636C 24.1818 15.8391 16.1155 13.8182 12.0909 13.8182ZM 12.0909 10.3636C 13.4652 10.3636 14.7832 9.8177 15.755 8.84592C 16.7268 7.87414 17.2727 6.55612 17.2727 5.18182C 17.2727 3.80751 16.7268 2.4895 15.755 1.51772C 14.7832 0.54594 13.4652 0 12.0909 0C 10.7166 0 9.39859 0.54594 8.42681 1.51772C 7.45503 2.4895 6.90909 3.80751 6.90909 5.18182C 6.90909 6.55612 7.45503 7.87414 8.42681 8.84592C 9.39859 9.8177 10.7166 10.3636 12.0909 10.3636ZM 25.9091 10.3636C 27.2834 10.3636 28.6014 9.8177 29.5732 8.84592C 30.545 7.87414 31.0909 6.55612 31.0909 5.18182C 31.0909 3.80751 30.545 2.4895 29.5732 1.51772C 28.6014 0.54594 27.2834 0 25.9091 0C 24.5348 0 23.2168 0.54594 22.245 1.51772C 21.2732 2.4895 20.7273 3.80751 20.7273 5.18182C 20.7273 6.55612 21.2732 7.87414 22.245 8.84592C 23.2168 9.8177 24.5348 10.3636 25.9091 10.3636Z"/>
</defs>
</svg>
