<svg width="25" height="25" viewBox="0 0 25 25" version="1.1" xmlns="http://www.w3.org/2000/svg" xmlns:xlink="http://www.w3.org/1999/xlink">
<title>account (2)</title>
<desc>Created using Figma</desc>
<g id="Canvas" transform="translate(55211 19256)">
<g id="account (2)">
<g id="Vector">
<g id="Vector">
<g id="Vector">
<use xlink:href="#path0_fill" transform="translate(-55211 -19256)" fill="#FFFFFF"/>
</g>
</g>
</g>
</g>
</g>
<defs>
<path id="path0_fill" d="M 12.3214 0C 13.9554 1.34932e-15 15.5224 0.640228 16.6777 1.77985C 17.8331 2.91946 18.4821 4.4651 18.4821 6.07676C 18.4821 7.68843 17.8331 9.23407 16.6777 10.3737C 15.5224 11.5133 13.9554 12.1535 12.3214 12.1535C 10.6875 12.1535 9.12051 11.5133 7.96516 10.3737C 6.8098 9.23407 6.16072 7.68843 6.16072 6.07676C 6.16072 4.4651 6.8098 2.91946 7.96516 1.77985C 9.12051 0.640228 10.6875 1.34932e-15 12.3214 0ZM 12.3214 15.1919C 19.129 15.1919 24.6429 17.9113 24.6429 21.2687L 24.6429 24.3071L 0 24.3071L 0 21.2687C 0 17.9113 5.51385 15.1919 12.3214 15.1919Z"/>
</defs>
</svg>
