<svg width="85" height="63" viewBox="0 0 85 63" version="1.1" xmlns="http://www.w3.org/2000/svg" xmlns:xlink="http://www.w3.org/1999/xlink">
<title>account-plus (3)</title>
<desc>Created using Figma</desc>
<g id="Canvas" transform="translate(19141 -1466)">
<g id="account-plus (3)">
<g id="Vector">
<use xlink:href="#path0_fill" transform="translate(-19141 1466)" fill="#2F80ED"/>
</g>
</g>
</g>
<defs>
<path id="path0_fill" d="M 53.9601 38.8749C 43.6691 38.8749 23.1257 44.0452 23.1257 54.4248L 23.1257 62.1998L 84.7944 62.1998L 84.7944 54.4248C 84.7944 44.0452 64.251 38.8749 53.9601 38.8749ZM 19.2715 23.3249L 19.2715 11.6625L 11.5629 11.6625L 11.5629 23.3249L 0 23.3249L 0 31.0999L 11.5629 31.0999L 11.5629 42.7623L 19.2715 42.7623L 19.2715 31.0999L 30.8343 31.0999L 30.8343 23.3249L 19.2715 23.3249ZM 53.9601 31.0999C 58.049 31.0999 61.9704 29.4616 64.8616 26.5454C 67.7529 23.6292 69.3772 19.674 69.3772 15.5499C 69.3772 11.4258 67.7529 7.47065 64.8616 4.55447C 61.9704 1.63829 58.049 3.45278e-15 53.9601 0C 49.8712 3.45278e-15 45.9498 1.63829 43.0585 4.55447C 40.1672 7.47065 38.5429 11.4258 38.5429 15.5499C 38.5429 19.674 40.1672 23.6292 43.0585 26.5454C 45.9498 29.4616 49.8712 31.0999 53.9601 31.0999Z"/>
</defs>
</svg>
