<svg width="30" height="20" viewBox="0 0 30 20" version="1.1" xmlns="http://www.w3.org/2000/svg" xmlns:xlink="http://www.w3.org/1999/xlink">
<title>Vector</title>
<desc>Created using Figma</desc>
<g id="Canvas" transform="translate(44754 -1963)">
<g id="Vector">
<use xlink:href="#path0_fill" transform="translate(-44754 1963)" fill="#2F80ED"/>
</g>
</g>
<defs>
<path id="path0_fill" d="M 10.6329 0C 12.0429 0 13.3952 0.526784 14.3922 1.46447C 15.3892 2.40215 15.9494 3.67392 15.9494 5C 15.9494 6.32608 15.3892 7.59785 14.3922 8.53553C 13.3952 9.47322 12.0429 10 10.6329 10C 9.2229 10 7.87064 9.47322 6.87361 8.53553C 5.87658 7.59785 5.31646 6.32608 5.31646 5C 5.31646 3.67392 5.87658 2.40215 6.87361 1.46447C 7.87064 0.526784 9.2229 1.26883e-15 10.6329 0ZM 10.6329 12.5C 16.5114 12.5 21.2658 14.7429 21.2658 17.5L 21.2658 20L 0 20L 0 17.5C 0 14.7429 4.75443 12.5 10.6329 12.5ZM 22.7848 10.9429L 18.6076 6.65714L 20.3696 5L 22.7848 7.27143L 28.238 2.14286L 30 4.15714L 22.7848 10.9429Z"/>
</defs>
</svg>
