<svg width="28" height="20" viewBox="0 0 28 20" version="1.1" xmlns="http://www.w3.org/2000/svg" xmlns:xlink="http://www.w3.org/1999/xlink">
<title>Vector</title>
<desc>Created using Figma</desc>
<g id="Canvas" transform="translate(55228 22597)">
<g id="Vector">
<use xlink:href="#path0_fill" transform="translate(-55228 -22597)" fill="#4B4F56"/>
</g>
</g>
<defs>
<path id="path0_fill" d="M 17.8182 12.5C 14.42 12.5 7.63636 14.1625 7.63636 17.5L 7.63636 20L 28 20L 28 17.5C 28 14.1625 21.2164 12.5 17.8182 12.5ZM 6.36364 7.5L 6.36364 3.75L 3.81818 3.75L 3.81818 7.5L 0 7.5L 0 10L 3.81818 10L 3.81818 13.75L 6.36364 13.75L 6.36364 10L 10.1818 10L 10.1818 7.5L 6.36364 7.5ZM 17.8182 10C 19.1684 10 20.4633 9.47322 21.418 8.53553C 22.3727 7.59785 22.9091 6.32608 22.9091 5C 22.9091 3.67392 22.3727 2.40215 21.418 1.46447C 20.4633 0.526784 19.1684 1.11022e-15 17.8182 0C 16.468 1.11022e-15 15.1731 0.526784 14.2184 1.46447C 13.2636 2.40215 12.7273 3.67392 12.7273 5C 12.7273 6.32608 13.2636 7.59785 14.2184 8.53553C 15.1731 9.47322 16.468 10 17.8182 10Z"/>
</defs>
</svg>
