<svg width="91" height="68" viewBox="0 0 91 68" version="1.1" xmlns="http://www.w3.org/2000/svg" xmlns:xlink="http://www.w3.org/1999/xlink">
<title>account-star</title>
<desc>Created using Figma</desc>
<g id="Canvas" transform="translate(18458 -994)">
<g id="account-star">
<g id="Vector">
<use xlink:href="#path0_fill" transform="translate(-18460 994)" fill="#0575E6"/>
</g>
</g>
</g>
<defs>
<path id="path0_fill" d="M 59.0551 42.2165C 47.7925 42.2165 25.3093 47.8313 25.3093 59.1031L 25.3093 65.5464C 25.3093 66.651 26.2048 67.5464 27.3093 67.5464L 90.8009 67.5464C 91.9055 67.5464 92.8009 66.651 92.8009 65.5464L 92.8009 59.1031C 92.8009 47.8313 70.3178 42.2165 59.0551 42.2165ZM 59.0551 33.7732C 63.5301 33.7732 67.8218 31.9941 70.9861 28.8272C 74.1503 25.6604 75.928 21.3652 75.928 16.8866C 75.928 12.408 74.1503 8.11282 70.9861 4.94597C 67.8218 1.77912 63.5301 3.74958e-15 59.0551 0C 54.5802 3.74958e-15 50.2885 1.77912 47.1242 4.94597C 43.9599 8.11282 42.1822 12.408 42.1822 16.8866C 42.1822 21.3652 43.9599 25.6604 47.1242 28.8272C 50.2885 31.9941 54.5802 33.7732 59.0551 33.7732ZM 15.8379 39.7943C 16.4746 39.4145 17.2691 39.418 17.9023 39.8035L 23.1492 42.997C 24.6618 43.9177 26.5364 42.5635 26.1376 40.8382L 24.7389 34.7862C 24.571 34.0599 24.821 33.3004 25.3876 32.8159L 30.1199 28.7686C 31.4678 27.6158 30.7595 25.4091 28.9925 25.2561L 22.7586 24.7164C 22.0185 24.6523 21.375 24.1834 21.0872 23.4985L 18.7003 17.817C 18.0163 16.1888 15.712 16.1814 15.0176 17.8051L 12.5776 23.5103C 12.2874 24.1887 11.6474 24.6522 10.9124 24.7163L 4.71914 25.2562C 2.9571 25.4098 2.2471 27.6071 3.58608 28.7627L 8.27161 32.8067C 8.83902 33.2965 9.08498 34.0623 8.90883 34.7908L 7.44576 40.8417C 7.02933 42.5639 8.89257 43.937 10.4143 43.0294L 15.8379 39.7943Z"/>
</defs>
</svg>
