<svg width="24" height="38" viewBox="0 0 24 38" version="1.1" xmlns="http://www.w3.org/2000/svg" xmlns:xlink="http://www.w3.org/1999/xlink">
<title>Vector</title>
<desc>Created using Figma</desc>
<g id="Canvas" transform="translate(63532 17877)">
<g id="Vector">
<use xlink:href="#path0_fill" transform="translate(-63531.1 -17876.9)" fill="#041429"/>
</g>
</g>
<defs>
<path id="path0_fill" d="M 19.7901 30.2338L 3.29835 30.2338L 3.29835 6.71861L 19.7901 6.71861L 19.7901 30.2338ZM 19.7901 0L 3.29835 0C 1.46777 0 0 1.49489 0 3.35931L 0 33.5931C 1.46476e-15 34.484 0.347504 35.3385 0.966065 35.9685C 1.58463 36.5985 2.42358 36.9524 3.29835 36.9524L 19.7901 36.9524C 20.6649 36.9524 21.5039 36.5985 22.1224 35.9685C 22.741 35.3385 23.0885 34.484 23.0885 33.5931L 23.0885 3.35931C 23.0885 1.49489 21.6042 0 19.7901 0Z"/>
</defs>
</svg>
