<svg width="21" height="21" viewBox="0 0 21 21" version="1.1" xmlns="http://www.w3.org/2000/svg" xmlns:xlink="http://www.w3.org/1999/xlink">
<title>pickaxe</title>
<desc>Created using Figma</desc>
<g id="Canvas" transform="translate(14387 1042)">
<g id="pickaxe">
<g id="Group">
<g id="Vector">
<use xlink:href="#path0_fill" transform="matrix(0.707107 -0.707107 0.707107 0.707107 -14380.5 -1033.4)" fill="#828282"/>
</g>
<g id="Vector">
<use xlink:href="#path1_fill" transform="matrix(0.707107 -0.707107 0.707107 0.707107 -14387 -1029)" fill="#828282"/>
</g>
</g>
</g>
</g>
<defs>
<path id="path0_fill" d="M 1.23669 0.750185L 0.618347 0.750185L 0.618347 0L 0 0L 0 17.2542L 1.85504 17.2542L 1.85504 0L 1.23669 0L 1.23669 0.750185Z"/>
<path id="path1_fill" d="M 17.2098 3.10172C 17.0954 3.00219 14.4174 0.724835 10.2027 0.615323L 10.2027 0L 7.11099 0L 7.11099 0.615323C 2.89634 0.724835 0.218276 3.00219 0.103882 3.10172L 0 3.19187L 0 3.93274L 0.618347 3.93274L 0.687911 3.92518C 0.726248 3.9161 4.41376 3.09083 7.11099 3.02912L 7.11099 4.23526L 10.2027 4.23526L 10.2027 3.02912C 12.9 3.09083 16.5875 3.9161 16.6258 3.92488L 17.3137 3.93274L 17.3137 3.19187L 17.2098 3.10172Z"/>
</defs>
</svg>
