<svg width="20" height="20" viewBox="0 0 20 20" version="1.1" xmlns="http://www.w3.org/2000/svg" xmlns:xlink="http://www.w3.org/1999/xlink">
<title>account-circle</title>
<desc>Created using Figma</desc>
<g id="Canvas" transform="translate(33961 52276)">
<g id="account-circle">
<g id="Vector">
<use xlink:href="#path0_fill" transform="translate(-33961 -52276)" fill="#828282"/>
</g>
</g>
</g>
<defs>
<path id="path0_fill" d="M 10 17.2C 7.5 17.2 5.29 15.92 4 14C 4.03 12 8 10.9 10 10.9C 12 10.9 15.97 12 16 14C 14.71 15.92 12.5 17.2 10 17.2ZM 10 3C 10.7956 3 11.5587 3.31607 12.1213 3.87868C 12.6839 4.44129 13 5.20435 13 6C 13 6.79565 12.6839 7.55871 12.1213 8.12132C 11.5587 8.68393 10.7956 9 10 9C 9.20435 9 8.44129 8.68393 7.87868 8.12132C 7.31607 7.55871 7 6.79565 7 6C 7 5.20435 7.31607 4.44129 7.87868 3.87868C 8.44129 3.31607 9.20435 3 10 3ZM 10 0C 8.68678 -6.66134e-16 7.38642 0.258658 6.17317 0.761205C 4.95991 1.26375 3.85752 2.00035 2.92893 2.92893C 1.05357 4.8043 3.9968e-15 7.34784 2.22045e-15 10C 4.44089e-15 12.6522 1.05357 15.1957 2.92893 17.0711C 3.85752 17.9997 4.95991 18.7362 6.17317 19.2388C 7.38642 19.7413 8.68678 20 10 20C 12.6522 20 15.1957 18.9464 17.0711 17.0711C 18.9464 15.1957 20 12.6522 20 10C 20 4.47 15.5 0 10 0Z"/>
</defs>
</svg>
