<svg width="44" height="33" viewBox="0 0 44 33" version="1.1" xmlns="http://www.w3.org/2000/svg" xmlns:xlink="http://www.w3.org/1999/xlink">
<title>Vector</title>
<desc>Created using Figma</desc>
<g id="Canvas" transform="translate(63422 17754)">
<g id="Vector">
<use xlink:href="#path0_fill" transform="translate(-63421.9 -17753.8)" fill="#041429"/>
</g>
</g>
<defs>
<path id="path0_fill" d="M 16.1313 -3.98906e-08C 19.0999 0.543769 23.4451 1.81953 25.8114 2.57245C 31.727 4.55929 33.7491 7.02717 33.7491 12.5903C 33.7491 18.028 30.3073 20.0776 25.919 18.028L 25.919 7.90556C 25.919 6.75528 25.7038 5.64683 24.5422 5.33312C 23.6603 5.06123 23.144 5.85597 23.144 7.02717L 23.144 32.3333L 16.1313 30.1583L 16.1313 -3.98906e-08ZM 24.4562 27.9204L 35.7496 24.0095C 37.0403 23.5703 37.2339 22.9429 36.2014 22.6082C 35.1473 22.2736 33.2758 22.3782 31.9852 22.8174L 24.4562 25.3898L 24.4562 21.2906L 24.9079 21.1442C 24.9079 21.1442 27.0806 20.3495 30.1137 20.0776C 33.1898 19.743 36.9328 20.1194 39.8583 21.1861C 43.1711 22.2109 43.5583 23.7167 42.7193 24.7415C 41.8589 25.7872 39.7938 26.5192 39.7938 26.5192L 24.4562 31.8523L 24.4562 27.9204ZM 3.22448 27.5022C -0.152804 26.6238 -0.73361 24.6369 0.815207 23.4866C 2.25647 22.4409 4.68725 21.7089 4.68725 21.7089L 14.7546 18.2581L 14.7546 22.19L 7.52675 24.7206C 6.23607 25.1598 6.04247 25.7872 7.07501 26.1218C 8.10756 26.4564 10.0006 26.3728 11.2697 25.9127L 14.7546 24.6997L 14.7546 28.2342L 14.0662 28.3596C 10.5814 28.9034 6.88141 28.7152 3.22448 27.5022Z"/>
</defs>
</svg>
