<svg width="197" height="213" viewBox="0 0 197 213" version="1.1" xmlns="http://www.w3.org/2000/svg" xmlns:xlink="http://www.w3.org/1999/xlink">
<title>ripple</title>
<desc>Created using Figma</desc>
<g id="Canvas" transform="translate(22231 1265)">
<g id="ripple">
<g id="Vector">
<use xlink:href="#path0_fill" transform="translate(-22231 -1265)" fill="url(#paint0_linear)"/>
</g>
</g>
</g>
<defs>
<linearGradient id="paint0_linear" x1="0" y1="0" x2="1" y2="0" gradientUnits="userSpaceOnUse" gradientTransform="matrix(147.495 147.495 -147.495 147.495 129.082 -41.09)">
<stop offset="0" stop-color="#00AAE4"/>
<stop offset="1" stop-color="#006097"/>
</linearGradient>
<path id="path0_fill" d="M 173.985 129.87C 166.46 125.526 157.987 124.267 149.594 123.974C 142.552 123.728 132.046 119.215 132.046 106.405C 132.046 96.8613 139.783 89.1802 149.598 88.8375C 157.99 88.5444 166.462 87.2836 173.985 82.9406C 180.742 79.0395 186.353 73.4285 190.254 66.6715C 194.155 59.9145 196.209 52.2497 196.209 44.4475C 196.209 36.6452 194.155 28.9804 190.254 22.2234C 186.352 15.4665 180.741 9.85556 173.984 5.95452C 167.227 2.05349 159.562 -0.000155651 151.76 1.4146e-07C 143.958 0.000155934 136.293 2.05411 129.536 5.95541C 122.779 9.85672 117.168 15.4679 113.267 22.225C 109.367 28.9821 107.313 36.6469 107.313 44.4492C 107.313 53.0609 110.376 60.9858 114.284 68.336C 117.571 74.518 119.234 85.9919 107.961 92.5004C 99.5747 97.3422 89.1086 94.2764 83.8809 85.9099C 79.4651 78.8433 74.1345 72.2221 66.6714 67.9125C 59.9145 64.0114 52.2498 61.9576 44.4476 61.9576C 36.6454 61.9576 28.9807 64.0114 22.2238 67.9124C 15.4669 71.8135 9.85594 77.4245 5.95485 84.1814C 2.05376 90.9382 -3.75147e-07 98.603 -3.75147e-07 106.405C -3.75147e-07 114.207 2.05376 121.872 5.95485 128.629C 9.85594 135.386 15.4669 140.997 22.2238 144.898C 28.9807 148.799 36.6454 150.853 44.4476 150.853C 52.2498 150.853 59.9145 148.799 66.6714 144.898C 74.1324 140.59 79.4635 133.973 83.8765 126.911C 87.5003 121.111 96.5508 113.719 107.96 120.311C 116.334 125.149 118.922 135.749 114.28 144.48C 110.373 151.829 107.314 159.752 107.314 168.363C 107.314 176.165 109.368 183.829 113.269 190.586C 117.17 197.343 122.781 202.954 129.537 206.855C 136.294 210.756 143.959 212.81 151.761 212.81C 159.563 212.81 167.228 210.756 173.984 206.855C 180.741 202.954 186.352 197.343 190.253 190.586C 194.154 183.829 196.208 176.165 196.208 168.363C 196.208 160.561 194.154 152.896 190.253 146.139C 186.352 139.382 180.741 133.771 173.985 129.87Z"/>
</defs>
</svg>
