<svg width="23" height="23" viewBox="0 0 23 23" version="1.1" xmlns="http://www.w3.org/2000/svg" xmlns:xlink="http://www.w3.org/1999/xlink">
<title>message-processing</title>
<desc>Created using Figma</desc>
<g id="Canvas" transform="translate(29026 -197)">
<g id="message-processing">
<g id="Vector">
<mask id="mask0_outline_ins">
<use xlink:href="#path0_fill" fill="white" transform="translate(-29026 197)"/>
</mask>
<g mask="url(#mask0_outline_ins)">
<use xlink:href="#path1_stroke_2x" transform="translate(-29026 197)" fill="#333333"/>
</g>
</g>
</g>
</g>
<defs>
<path id="path0_fill" d="M 17.25 10.35L 14.95 10.35L 14.95 8.05L 17.25 8.05L 17.25 10.35ZM 12.65 10.35L 10.35 10.35L 10.35 8.05L 12.65 8.05L 12.65 10.35ZM 8.05 10.35L 5.75 10.35L 5.75 8.05L 8.05 8.05L 8.05 10.35ZM 20.7 0L 2.3 0C 1.69 5.10703e-16 1.10499 0.242321 0.673654 0.673654C 0.242321 1.10499 1.02141e-15 1.69 5.10703e-16 2.3L 5.10703e-16 23L 4.6 18.4L 20.7 18.4C 21.31 18.4 21.895 18.1577 22.3263 17.7263C 22.7577 17.295 23 16.71 23 16.1L 23 2.3C 23 1.0235 21.965 0 20.7 0Z"/>
<path id="path1_stroke_2x" d="M 17.25 10.35L 17.25 11.35L 18.25 11.35L 18.25 10.35L 17.25 10.35ZM 14.95 10.35L 13.95 10.35L 13.95 11.35L 14.95 11.35L 14.95 10.35ZM 14.95 8.05L 14.95 7.05L 13.95 7.05L 13.95 8.05L 14.95 8.05ZM 17.25 8.05L 18.25 8.05L 18.25 7.05L 17.25 7.05L 17.25 8.05ZM 12.65 10.35L 12.65 11.35L 13.65 11.35L 13.65 10.35L 12.65 10.35ZM 10.35 10.35L 9.35 10.35L 9.35 11.35L 10.35 11.35L 10.35 10.35ZM 10.35 8.05L 10.35 7.05L 9.35 7.05L 9.35 8.05L 10.35 8.05ZM 12.65 8.05L 13.65 8.05L 13.65 7.05L 12.65 7.05L 12.65 8.05ZM 8.05 10.35L 8.05 11.35L 9.05 11.35L 9.05 10.35L 8.05 10.35ZM 5.75 10.35L 4.75 10.35L 4.75 11.35L 5.75 11.35L 5.75 10.35ZM 5.75 8.05L 5.75 7.05L 4.75 7.05L 4.75 8.05L 5.75 8.05ZM 8.05 8.05L 9.05 8.05L 9.05 7.05L 8.05 7.05L 8.05 8.05ZM 2.3 0L 2.3 -1L 2.3 0ZM 5.10703e-16 2.3L -1 2.3L 5.10703e-16 2.3ZM 5.10703e-16 23L -1 23L -1 25.4142L 0.707107 23.7071L 5.10703e-16 23ZM 4.6 18.4L 4.6 17.4L 4.18579 17.4L 3.89289 17.6929L 4.6 18.4ZM 17.25 9.35L 14.95 9.35L 14.95 11.35L 17.25 11.35L 17.25 9.35ZM 15.95 10.35L 15.95 8.05L 13.95 8.05L 13.95 10.35L 15.95 10.35ZM 14.95 9.05L 17.25 9.05L 17.25 7.05L 14.95 7.05L 14.95 9.05ZM 16.25 8.05L 16.25 10.35L 18.25 10.35L 18.25 8.05L 16.25 8.05ZM 12.65 9.35L 10.35 9.35L 10.35 11.35L 12.65 11.35L 12.65 9.35ZM 11.35 10.35L 11.35 8.05L 9.35 8.05L 9.35 10.35L 11.35 10.35ZM 10.35 9.05L 12.65 9.05L 12.65 7.05L 10.35 7.05L 10.35 9.05ZM 11.65 8.05L 11.65 10.35L 13.65 10.35L 13.65 8.05L 11.65 8.05ZM 8.05 9.35L 5.75 9.35L 5.75 11.35L 8.05 11.35L 8.05 9.35ZM 6.75 10.35L 6.75 8.05L 4.75 8.05L 4.75 10.35L 6.75 10.35ZM 5.75 9.05L 8.05 9.05L 8.05 7.05L 5.75 7.05L 5.75 9.05ZM 7.05 8.05L 7.05 10.35L 9.05 10.35L 9.05 8.05L 7.05 8.05ZM 20.7 -1L 2.3 -1L 2.3 1L 20.7 1L 20.7 -1ZM 2.3 -1C 1.42479 -1 0.585418 -0.652323 -0.0334525 -0.0334525L 1.38076 1.38076C 1.62456 1.13696 1.95522 1 2.3 1L 2.3 -1ZM -0.0334525 -0.0334525C -0.652323 0.585418 -1 1.42479 -1 2.3L 1 2.3C 1 1.95522 1.13696 1.62456 1.38076 1.38076L -0.0334525 -0.0334525ZM -1 2.3L -1 23L 1 23L 1 2.3L -1 2.3ZM 0.707107 23.7071L 5.30711 19.1071L 3.89289 17.6929L -0.707107 22.2929L 0.707107 23.7071ZM 4.6 19.4L 20.7 19.4L 20.7 17.4L 4.6 17.4L 4.6 19.4ZM 20.7 19.4C 21.5752 19.4 22.4146 19.0523 23.0335 18.4335L 21.6192 17.0192C 21.3754 17.263 21.0448 17.4 20.7 17.4L 20.7 19.4ZM 23.0335 18.4335C 23.6523 17.8146 24 16.9752 24 16.1L 22 16.1C 22 16.4448 21.863 16.7754 21.6192 17.0192L 23.0335 18.4335ZM 24 16.1L 24 2.3L 22 2.3L 22 16.1L 24 16.1ZM 24 2.3C 24 0.467961 22.514 -1 20.7 -1L 20.7 1C 21.416 1 22 1.57904 22 2.3L 24 2.3Z"/>
</defs>
</svg>
