<svg width="35" height="27" viewBox="0 0 35 27" version="1.1" xmlns="http://www.w3.org/2000/svg" xmlns:xlink="http://www.w3.org/1999/xlink">
<title>Group</title>
<desc>Created using Figma</desc>
<g id="Canvas" transform="translate(63396 18535)">
<g id="Group">
<g id="Group">
<g id="Group">
<g id="Vector">
<use xlink:href="#path0_fill" transform="matrix(-0.25839 0.966041 -0.966041 -0.25839 -63373.2 -18519.6)" fill="#FFFFFF"/>
</g>
</g>
<g id="Group">
<g id="Vector">
<use xlink:href="#path1_fill" transform="translate(-63396 -18535)" fill="#FFFFFF"/>
</g>
</g>
</g>
</g>
</g>
<defs>
<path id="path0_fill" d="M 4.23665 5.48565C 5.03207 5.48565 5.67909 4.84123 5.67909 4.0486C 5.67909 3.25942 5.03323 2.61731 4.23858 2.61731L 0.609649 4.4529e-07L 3.41809e-07 0.632992L 2.79402 4.0918L 2.79749 4.13845C 2.84278 4.89422 3.47512 5.48565 4.23665 5.48565Z"/>
<path id="path1_fill" d="M 17.4991 2.41687e-08C 7.84955 2.41687e-08 0 7.80374 0 17.3961C 0 20.7439 0.960145 23.9955 2.77867 26.7981L 2.90969 27L 5.08624 27L 8.03648 24.4383L 6.76244 22.9844L 3.88461 25.4821L 3.79095 25.3248C 2.37362 22.9153 1.6257 20.1726 1.6257 17.3954C 1.6257 17.3147 1.63033 17.238 1.63931 17.1382L 1.65061 16.846L 5.1546 16.8419L 5.1546 14.9138L 1.83764 14.9138L 1.86776 14.7362C 2.32669 12.0458 3.48043 9.51553 5.20394 7.4187L 5.31082 7.28872L 7.781 9.74198L 9.15604 8.38192L 6.65487 5.8942L 6.77257 5.78726C 9.34857 3.43279 12.5303 2.01619 15.9756 1.69028L 16.1424 1.67502L 16.1447 5.6976L 18.0827 5.6976L 18.0827 1.64363L 18.2418 1.65141C 22.0623 1.82785 25.6861 3.36598 28.4465 5.98386L 28.5584 6.08965L 26.0015 8.63717L 27.3746 9.99953L 29.8665 7.51969L 29.9731 7.65427C 31.5978 9.70723 32.6912 12.1567 33.1319 14.7375L 33.1621 14.9144L 29.7169 14.917L 29.7169 16.8455L 33.3505 16.8455L 33.3639 17.1556C 33.3691 17.2362 33.3743 17.3152 33.3743 17.396C 33.3743 20.1622 32.6327 22.891 31.2302 25.2907L 31.1306 25.4613L 28.4188 22.7676L 27.0499 24.132L 29.9326 26.9998L 32.0906 26.9998L 32.2228 26.7969C 34.0399 23.992 35 20.7409 35 17.3953C 34.9998 7.80374 27.1495 2.41687e-08 17.4991 2.41687e-08Z"/>
</defs>
</svg>
