<svg width="45" height="45" viewBox="0 0 45 45" version="1.1" xmlns="http://www.w3.org/2000/svg" xmlns:xlink="http://www.w3.org/1999/xlink">
<title>xbox</title>
<desc>Created using Figma</desc>
<g id="Canvas" transform="translate(63542 17760)">
<g id="xbox">
<g id="Vector">
<use xlink:href="#path0_fill" transform="translate(-63541.9 -17760)" fill="#041429"/>
</g>
</g>
</g>
<defs>
<path id="path0_fill" d="M 9.88726 3.83997C 10.0435 3.70602 10.1997 3.57206 10.3113 3.48276C 13.7931 1.2279 17.8551 0 22.3189 0C 26.5148 0 30.4429 1.11627 33.7908 3.17021C 34.0363 3.34881 34.6835 3.77299 35.0406 4.19717C 31.8044 0.625111 22.3189 8.2604 22.3189 8.2604C 18.971 5.73763 16.0026 4.01857 13.7484 3.34881C 11.8513 2.87998 10.5568 3.34881 9.95421 3.79532L 9.88726 3.83997ZM 38.7009 7.16645C 38.5893 7.05483 38.4777 6.9432 38.3884 6.83157C 37.585 5.93856 36.5583 5.7153 35.7102 5.78228C 34.8397 6.05018 31.0232 7.41203 26.3363 11.8548C 26.3363 11.8548 31.6258 16.9896 34.8621 22.2361C 38.0983 27.4826 40.0177 31.6128 38.8348 37.3504C 42.4058 33.3765 44.6377 28.1077 44.6377 22.3254C 44.6377 16.4761 42.4058 11.1627 38.7009 7.16645ZM 30.6438 24.4686C 29.1931 22.8612 27.0728 20.5617 24.2383 17.7487C 23.6357 17.1459 22.9884 16.5208 22.3189 15.851C 22.3189 15.851 21.2699 16.878 19.9307 18.2398C 18.2122 19.9589 16.0026 22.2138 14.7528 23.531C 12.5655 25.8751 6.2716 33.2425 5.9145 37.3727C 5.9145 37.3727 4.46377 34.1132 7.58841 26.5449C 9.59711 21.611 15.6232 14.199 18.1899 11.7878C 18.1899 11.7878 15.891 9.24271 12.9896 7.47901L 12.878 7.41203C 11.4719 6.58599 9.95421 5.93856 8.48117 5.84925C 6.9858 5.96088 6.04841 7.05482 6.04841 7.05482C 2.29884 11.0511 0 16.4092 0 22.3254C 0 28.2465 2.35144 33.925 6.53704 38.1118C 8.60954 40.1849 11.07 41.8294 13.7778 42.9514C 16.4857 44.0733 19.3879 44.6508 22.3189 44.6508C 28.8583 44.6508 34.7505 41.8378 38.8348 37.3504C 38.8348 37.3504 38.3661 34.3811 35.3531 30.1393C 34.6612 29.1793 32.0722 26.0984 30.6438 24.4686Z"/>
</defs>
</svg>
