<svg width="199" height="28" viewBox="0 0 199 28" version="1.1" xmlns="http://www.w3.org/2000/svg" xmlns:xlink="http://www.w3.org/1999/xlink">
<title>Canvas</title>
<desc>Created using Figma</desc>
<g id="Canvas" transform="translate(11626 17271)">
<g id="Canvas">
<g id="Group 29">
<g id="Group 27">
<g id="OZONE">
<g id="Vector">
<use xlink:href="#path0_fill" transform="translate(-11547.6 -17270.2)" fill="#FFFFFF"/>
</g>
</g>
<g id="Group 26.1 2.10">
<g id="Canvas">
<g id="Group 26.1">
<g id="Group 24.3 2.5">
<g id="Canvas">
<g id="Group 24.3">
<g id="Group 18">
<g id="Group 17.20">
<g id="Group 14">
<g id="Ellipse 3.2">
<mask id="mask0_alpha" mask-type="alpha">
<g id="mask0 alpha">
<g id="mask0 alpha">
<g id="mask1 outline ins">
<g id="Vector">
<g id="Vector">
<g id="Vector">
<use xlink:href="#path1_fill" transform="matrix(0.881037 -0.473048 0.499358 0.866396 -11582.2 -17265.9)" fill="#FFFFFF"/>
</g>
</g>
</g>
</g>
</g>
</g>
</mask>
<g id="Group" mask="url(#mask0_alpha)">
<g id="Vector">
<g id="Vector">
<g id="Vector">
<use xlink:href="#path2_fill" transform="matrix(0.881037 -0.473048 0.499358 0.866396 -11586.5 -17267.1)" fill="#FFFFFF"/>
</g>
</g>
</g>
</g>
</g>
</g>
</g>
<g id="Rectangle 14.44">
<mask id="mask1_alpha" mask-type="alpha">
<g id="mask1 alpha">
<g id="mask1 alpha">
<g id="mask2 outline ins">
<g id="Vector">
<g id="Vector">
<g id="Vector">
<use xlink:href="#path3_fill" transform="matrix(0.881037 -0.473048 0.499358 0.866396 -11591.1 -17254.4)" fill="#FFFFFF"/>
</g>
</g>
</g>
</g>
</g>
</g>
</mask>
<g id="Group" mask="url(#mask1_alpha)">
<g id="Vector">
<g id="Vector">
<g id="Vector">
<use xlink:href="#path4_fill" transform="matrix(0.881037 -0.473048 0.499358 0.866396 -11593.3 -17255)" fill="#FFFFFF"/>
</g>
</g>
</g>
</g>
</g>
<g id="Group 17.21">
<g id="Group 14">
<g id="Ellipse 3.2">
<mask id="mask2_alpha" mask-type="alpha">
<g id="mask2 alpha">
<g id="mask2 alpha">
<g id="mask4 outline ins">
<g id="Vector">
<g id="Vector">
<g id="Vector">
<use xlink:href="#path1_fill" transform="matrix(-0.881037 -0.473048 -0.499358 0.866396 -11607.5 -17265.9)" fill="#FFFFFF"/>
</g>
</g>
</g>
</g>
</g>
</g>
</mask>
<g id="Group" mask="url(#mask2_alpha)">
<g id="Vector">
<g id="Vector">
<g id="Vector">
<use xlink:href="#path2_fill" transform="matrix(-0.881037 -0.473048 -0.499358 0.866396 -11603.2 -17267.1)" fill="#FFFFFF"/>
</g>
</g>
</g>
</g>
</g>
</g>
</g>
<g id="Rectangle 14.45">
<mask id="mask3_alpha" mask-type="alpha">
<g id="mask3 alpha">
<g id="mask3 alpha">
<g id="mask5 outline ins">
<g id="Vector">
<g id="Vector">
<g id="Vector">
<use xlink:href="#path5_fill" transform="matrix(-0.881037 -0.473048 -0.499358 0.866396 -11599.5 -17251.5)" fill="#FFFFFF"/>
</g>
</g>
</g>
</g>
</g>
</g>
</mask>
<g id="Group" mask="url(#mask3_alpha)">
<g id="Vector">
<g id="Vector">
<g id="Vector">
<use xlink:href="#path6_fill" transform="matrix(-0.881037 -0.473048 -0.499358 0.866396 -11597.4 -17252)" fill="#FFFFFF"/>
</g>
</g>
</g>
</g>
</g>
<g id="Rectangle 14.46">
<mask id="mask4_alpha" mask-type="alpha">
<g id="mask4 alpha">
<g id="mask4 alpha">
<g id="mask6 outline ins">
<g id="Vector">
<g id="Vector">
<g id="Vector">
<use xlink:href="#path7_fill" transform="matrix(-0.881037 -0.473048 -0.499358 0.866396 -11596.6 -17256.9)" fill="#FFFFFF"/>
</g>
</g>
</g>
</g>
</g>
</g>
</mask>
<g id="Group" mask="url(#mask4_alpha)">
<g id="Vector">
<g id="Vector">
<g id="Vector">
<use xlink:href="#path8_fill" transform="matrix(-0.881037 -0.473048 -0.499358 0.866396 -11594.5 -17257.5)" fill="#FFFFFF"/>
</g>
</g>
</g>
</g>
</g>
<g id="Group 16.23">
<g id="Ellipse 3.24">
<mask id="mask5_alpha" mask-type="alpha">
<g id="mask5 alpha">
<g id="mask5 alpha">
<g id="mask7 outline ins">
<g id="Vector">
<g id="Vector">
<g id="Vector">
<use xlink:href="#path1_fill" transform="matrix(0.881037 -0.473048 0.499358 0.866396 -11605.1 -17253.7)" fill="#FFFFFF"/>
</g>
</g>
</g>
</g>
</g>
</g>
</mask>
<g id="Group" mask="url(#mask5_alpha)">
<g id="Vector">
<g id="Vector">
<g id="Vector">
<use xlink:href="#path2_fill" transform="matrix(0.881037 -0.473048 0.499358 0.866396 -11609.4 -17254.9)" fill="#FFFFFF"/>
</g>
</g>
</g>
</g>
</g>
</g>
</g>
</g>
</g>
</g>
</g>
</g>
</g>
</g>
</g>
</g>
</g>
<defs>
<path id="path0_fill" d="M 21.9655 14.4175C 21.9655 17.0048 21.5152 19.2657 20.6148 21.2001C 19.7145 23.1224 18.4389 24.5915 16.7883 25.607C 15.1375 26.6225 13.2118 27.1304 11.0109 27.1304C 8.85996 27.1304 6.9529 26.6225 5.28971 25.607C 3.62652 24.5793 2.33222 23.1224 1.40684 21.2365C 0.493966 19.3382 0.0250184 17.1438 -5.4344e-09 14.6534L -5.4344e-09 12.7491C -5.4344e-09 10.2102 0.456447 7.96744 1.36932 6.02092C 2.2822 4.0744 3.57024 2.58731 5.23343 1.55965C 6.90914 0.519882 8.82244 3.58455e-07 10.9733 3.58455e-07C 13.1618 3.58455e-07 15.0876 0.513847 16.7508 1.54151C 18.4264 2.55708 19.7145 4.03813 20.6148 5.98465C 21.5152 7.91908 21.9655 10.1738 21.9655 12.7491L 21.9655 14.4175ZM 18.3827 12.7129C 18.3827 9.58143 17.7324 7.18158 16.4318 5.51313C 15.1313 3.8326 13.3118 2.99233 10.9733 2.99233C 8.69739 2.99233 6.90288 3.8326 5.58984 5.51313C 4.2893 7.18158 3.62026 9.50297 3.58274 12.477L 3.58274 14.4175C 3.58274 17.4522 4.23927 19.8399 5.55232 21.5809C 6.87788 23.3098 8.69739 24.1743 11.0109 24.1743C 13.3368 24.1743 15.1375 23.3583 16.4131 21.7261C 17.6887 20.0818 18.3452 17.7303 18.3827 14.6715L 18.3827 12.7129ZM 29.6186 23.9205L 45.2438 23.9205L 45.2438 26.7677L 25.3607 26.7677L 25.3607 24.1562L 40.3293 3.22808L 25.6044 3.22808L 25.6044 0.362713L 44.6436 0.362713L 44.6436 2.91978L 29.6186 23.9205ZM 70.4356 14.4175C 70.4356 17.0048 69.9855 19.2657 69.0852 21.2001C 68.1848 23.1224 66.9092 24.5915 65.2584 25.607C 63.6078 26.6225 61.6821 27.1304 59.4811 27.1304C 57.3302 27.1304 55.4231 26.6225 53.76 25.607C 52.0968 24.5793 50.8025 23.1224 49.8771 21.2365C 48.9643 19.3382 48.4953 17.1438 48.4703 14.6534L 48.4703 12.7491C 48.4703 10.2102 48.9267 7.96744 49.8395 6.02092C 50.7524 4.0744 52.0404 2.58731 53.7037 1.55965C 55.3794 0.519882 57.2927 3.58455e-07 59.4435 3.58455e-07C 61.632 3.58455e-07 63.5577 0.513847 65.221 1.54151C 66.8967 2.55708 68.1848 4.03813 69.0852 5.98465C 69.9855 7.91908 70.4356 10.1738 70.4356 12.7491L 70.4356 14.4175ZM 66.8529 12.7129C 66.8529 9.58143 66.2027 7.18158 64.9021 5.51313C 63.6016 3.8326 61.7821 2.99233 59.4435 2.99233C 57.1677 2.99233 55.3732 3.8326 54.06 5.51313C 52.7596 7.18158 52.0905 9.50297 52.0529 12.477L 52.0529 14.4175C 52.0529 17.4522 52.7095 19.8399 54.0226 21.5809C 55.3481 23.3098 57.1677 24.1743 59.4811 24.1743C 61.8071 24.1743 63.6078 23.3583 64.8834 21.7261C 66.1588 20.0818 66.8154 17.7303 66.8529 14.6715L 66.8529 12.7129ZM 96.8279 26.7677L 93.2077 26.7677L 79.4581 6.41989L 79.4581 26.7677L 75.8379 26.7677L 75.8379 0.362713L 79.4581 0.362713L 93.2452 20.8011L 93.2452 0.362713L 96.8279 0.362713L 96.8279 26.7677ZM 118.662 14.5627L 106.826 14.5627L 106.826 23.9205L 120.575 23.9205L 120.575 26.7677L 103.224 26.7677L 103.224 0.362713L 120.388 0.362713L 120.388 3.22808L 106.826 3.22808L 106.826 11.7153L 118.662 11.7153L 118.662 14.5627Z"/>
<path id="path1_fill" d="M 14.9357 7.32964C 14.9357 11.3777 11.5923 14.6593 7.46788 14.6593C 3.34348 14.6593 0 11.3777 0 7.32964C 0 3.28159 3.34348 0 7.46788 0C 11.5923 0 14.9357 3.28159 14.9357 7.32964Z"/>
<path id="path2_fill" d="M 14.9357 10.4093C 14.9357 12.7565 12.9971 14.6593 10.6056 14.6593L 10.6056 20.8187C 16.4629 20.8187 21.2113 16.1582 21.2113 10.4093L 14.9357 10.4093ZM 10.6056 14.6593C 8.21419 14.6593 6.27552 12.7565 6.27552 10.4093L 0 10.4093C 0 16.1582 4.74831 20.8187 10.6056 20.8187L 10.6056 14.6593ZM 6.27552 10.4093C 6.27552 8.06214 8.21419 6.15935 10.6056 6.15935L 10.6056 0C 4.74831 0 0 4.66041 0 10.4093L 6.27552 10.4093ZM 10.6056 6.15935C 12.9971 6.15935 14.9357 8.06214 14.9357 10.4093L 21.2113 10.4093C 21.2113 4.66041 16.4629 0 10.6056 0L 10.6056 6.15935Z"/>
<path id="path3_fill" d="M 0 0L 15.3652 0L 15.3652 3.03674L 0 3.03674L 0 0Z"/>
<path id="path4_fill" d="M 1.56888 1.53984L 1.56888 0L 0 0L 0 1.53984L 1.56888 1.53984ZM 16.9341 1.53984L 18.503 1.53984L 18.503 0L 16.9341 0L 16.9341 1.53984ZM 16.9341 4.57657L 16.9341 6.11641L 18.503 6.11641L 18.503 4.57657L 16.9341 4.57657ZM 1.56888 4.57657L 0 4.57657L 0 6.11641L 1.56888 6.11641L 1.56888 4.57657ZM 1.56888 3.07969L 16.9341 3.07969L 16.9341 0L 1.56888 0L 1.56888 3.07969ZM 15.3652 1.53984L 15.3652 4.57657L 18.503 4.57657L 18.503 1.53984L 15.3652 1.53984ZM 16.9341 3.03674L 1.56888 3.03674L 1.56888 6.11641L 16.9341 6.11641L 16.9341 3.03674ZM 3.13777 4.57657L 3.13777 1.53984L 0 1.53984L 0 4.57657L 3.13777 4.57657Z"/>
<path id="path5_fill" d="M 0 0L 16.9454 0L 16.9454 3.03674L 0 3.03674L 0 0Z"/>
<path id="path6_fill" d="M 1.56888 1.53984L 1.56888 0L 0 0L 0 1.53984L 1.56888 1.53984ZM 18.5143 1.53984L 20.0832 1.53984L 20.0832 0L 18.5143 0L 18.5143 1.53984ZM 18.5143 4.57657L 18.5143 6.11641L 20.0832 6.11641L 20.0832 4.57657L 18.5143 4.57657ZM 1.56888 4.57657L 0 4.57657L 0 6.11641L 1.56888 6.11641L 1.56888 4.57657ZM 1.56888 3.07969L 18.5143 3.07969L 18.5143 0L 1.56888 0L 1.56888 3.07969ZM 16.9454 1.53984L 16.9454 4.57657L 20.0832 4.57657L 20.0832 1.53984L 16.9454 1.53984ZM 18.5143 3.03674L 1.56888 3.03674L 1.56888 6.11641L 18.5143 6.11641L 18.5143 3.03674ZM 3.13777 4.57657L 3.13777 1.53984L 0 1.53984L 0 4.57657L 3.13777 4.57657Z"/>
<path id="path7_fill" d="M 0 0L 16.7652 0L 16.7652 3.03674L 0 3.03674L 0 0Z"/>
<path id="path8_fill" d="M 1.56888 1.53984L 1.56888 0L 0 0L 0 1.53984L 1.56888 1.53984ZM 18.3341 1.53984L 19.9029 1.53984L 19.9029 0L 18.3341 0L 18.3341 1.53984ZM 18.3341 4.57657L 18.3341 6.11641L 19.9029 6.11641L 19.9029 4.57657L 18.3341 4.57657ZM 1.56888 4.57657L 0 4.57657L 0 6.11641L 1.56888 6.11641L 1.56888 4.57657ZM 1.56888 3.07969L 18.3341 3.07969L 18.3341 0L 1.56888 0L 1.56888 3.07969ZM 16.7652 1.53984L 16.7652 4.57657L 19.9029 4.57657L 19.9029 1.53984L 16.7652 1.53984ZM 18.3341 3.03674L 1.56888 3.03674L 1.56888 6.11641L 18.3341 6.11641L 18.3341 3.03674ZM 3.13777 4.57657L 3.13777 1.53984L 0 1.53984L 0 4.57657L 3.13777 4.57657Z"/>
</defs>
</svg>
