<svg width="34" height="33" viewBox="0 0 34 33" version="1.1" xmlns="http://www.w3.org/2000/svg" xmlns:xlink="http://www.w3.org/1999/xlink">
<title>bitcoin</title>
<desc>Created using Figma</desc>
<g id="Canvas" transform="translate(-5332 -10725)">
<g id="bitcoin">
<g id="Vector">
<use xlink:href="#path0_fill" transform="translate(5332 10725)" fill="#000000" fill-opacity="0.3"/>
</g>
</g>
</g>
<defs>
<path id="path0_fill" fill-rule="evenodd" d="M 32.7605 20.4931C 30.5404 29.332 21.5146 34.7104 12.6052 32.5058C 3.69992 30.3177 -1.72556 21.3468 0.498682 12.5203C 2.71876 3.67312 11.7446 -1.70942 20.6499 0.493088C 29.5614 2.69972 34.9827 11.65 32.7626 20.4972L 32.7605 20.4931ZM 23.9613 14.1495C 24.2939 11.9552 22.6101 10.7735 20.3027 9.98369L 21.051 7.01401L 19.2259 6.56031L 18.4984 9.45781C 18.0203 9.3382 17.5214 9.22683 17.0225 9.11547L 17.7521 6.1891L 15.9228 5.7354L 15.1745 8.71126C 14.7795 8.61846 14.3908 8.52978 14.0104 8.43698L 11.4951 7.8183L 11.0108 9.75272C 11.0108 9.75272 12.362 10.0621 12.3349 10.0786C 13.0771 10.2642 13.208 10.7467 13.1872 11.1303L 11.1397 19.2763C 11.0357 19.5032 10.8071 19.8331 10.2874 19.7094C 10.3082 19.7362 8.95702 19.3794 8.95702 19.3794L 8.04238 21.4541L 10.4121 22.0398L 11.7009 22.3739L 10.9526 25.3848L 12.7819 25.8323L 13.5302 22.8564C 14.0291 22.9905 14.5072 23.1142 14.9853 23.2318L 14.2806 26.1932L 16.1099 26.6469L 16.8645 23.6422C 19.9763 24.2258 22.3149 23.9927 23.3002 21.1984C 24.0901 18.9505 23.2587 17.6512 21.6165 16.8057C 22.8013 16.5376 23.6952 15.7581 23.9446 14.1495L 23.9613 14.1495ZM 19.7893 19.9507C 19.228 22.1986 15.4115 20.9818 14.1767 20.6787L 15.1745 16.6923C 16.4134 17.0016 20.3796 17.6059 19.7893 19.9507ZM 20.3547 14.1144C 19.8412 16.1623 16.6649 15.1249 15.636 14.8692L 16.5423 11.2396C 17.5733 11.4871 20.891 11.9614 20.3547 14.1062L 20.3547 14.1144Z"/>
</defs>
</svg>
