<svg width="27" height="20" viewBox="0 0 27 20" version="1.1" xmlns="http://www.w3.org/2000/svg" xmlns:xlink="http://www.w3.org/1999/xlink">
<title>icons8-Discord</title>
<desc>Created using Figma</desc>
<g id="Canvas" transform="translate(-5390 -10731)">
<g id="icons8-Discord">
<g id="surface1">
<g id="Vector">
<use xlink:href="#path0_fill" transform="translate(5390.97 10731.8)" fill="#000000" fill-opacity="0.3"/>
</g>
</g>
</g>
</g>
<defs>
<path id="path0_fill" d="M 22.4417 2.38636C 22.4417 2.38636 19.7334 0.244695 16.536 0L 16.2476 0.582609C 19.1382 1.29805 20.4647 2.32111 21.8512 3.57955C 19.4612 2.34675 17.1035 1.19318 12.9926 1.19318C 8.88165 1.19318 6.52397 2.34675 4.134 3.57955C 5.52046 2.32111 7.0984 1.18386 9.73751 0.582609L 9.44915 0C 6.09489 0.319269 3.54343 2.38636 3.54343 2.38636C 3.54343 2.38636 0.519057 6.81652 0 15.5114C 3.04744 19.0629 7.67743 19.0909 7.67743 19.0909L 8.64634 17.7882C 7.0015 17.2103 5.14674 16.1802 3.54343 14.3182C 5.45587 15.7794 8.34183 17.3011 12.9926 17.3011C 17.6433 17.3011 20.5293 15.7794 22.4417 14.3182C 20.8384 16.1802 18.9837 17.2103 17.3388 17.7882L 18.3077 19.0909C 18.3077 19.0909 22.9377 19.0629 25.9852 15.5114C 25.4661 6.81652 22.4417 2.38636 22.4417 2.38636ZM 9.15386 13.125C 8.01194 13.125 7.08686 12.0577 7.08686 10.7386C 7.08686 9.41961 8.01194 8.35227 9.15386 8.35227C 10.2958 8.35227 11.2209 9.41961 11.2209 10.7386C 11.2209 12.0577 10.2958 13.125 9.15386 13.125ZM 16.8313 13.125C 15.6894 13.125 14.7643 12.0577 14.7643 10.7386C 14.7643 9.41961 15.6894 8.35227 16.8313 8.35227C 17.9732 8.35227 18.8983 9.41961 18.8983 10.7386C 18.8983 12.0577 17.9732 13.125 16.8313 13.125Z"/>
</defs>
</svg>
