<svg width="14" height="27" viewBox="0 0 14 27" version="1.1" xmlns="http://www.w3.org/2000/svg" xmlns:xlink="http://www.w3.org/1999/xlink">
<title>facebook, communication, fb, social svg icon</title>
<desc>Created using Figma</desc>
<g id="Canvas" transform="translate(-5441 -10728)">
<g id="facebook, communication, fb, social svg icon">
<g id="Group">
<g id="Vector">
<use xlink:href="#path0_fill" transform="translate(5441.62 10728.8)" fill="#000000" fill-opacity="0.3"/>
</g>
</g>
</g>
</g>
<defs>
<path id="path0_fill" d="M 8.74238 19.6625C 8.74238 21.7611 8.73722 23.8596 8.74753 25.9633C 8.74753 26.1924 8.69599 26.2549 8.46402 26.2497C 6.69596 26.2393 4.9279 26.2393 3.15468 26.2497C 2.91241 26.2497 2.85571 26.182 2.85571 25.9425C 2.86086 21.7715 2.86086 17.5953 2.86602 13.4243C 2.86602 13.1952 2.82478 13.1118 2.57735 13.117C 1.79384 13.1327 1.01548 13.117 0.231962 13.1275C 0.051547 13.1275 -1.46505e-15 13.0754 -1.46505e-15 12.8931C 0.0051547 11.5757 0.0103094 10.2531 -1.46505e-15 8.93563C -1.46505e-15 8.73254 0.0721655 8.69089 0.25258 8.69609C 1.0361 8.70651 1.81446 8.69089 2.59797 8.70651C 2.81962 8.71172 2.86602 8.63881 2.86602 8.42532C 2.85571 7.2641 2.85571 6.09768 2.86602 4.93646C 2.87633 3.93147 3.07736 2.97854 3.66499 2.13497C 4.28871 1.23932 5.1547 0.69777 6.17018 0.369714C 6.92792 0.124974 7.71144 0.020829 8.50011 0.0156217C 9.99497 -0.00520725 11.4898 0.0104145 12.9847 4.96601e-09C 13.196 4.96601e-09 13.2424 0.0676941 13.2424 0.270777C 13.2373 1.62466 13.2321 2.97854 13.2424 4.33243C 13.2424 4.55634 13.1754 4.6032 12.9641 4.6032C 12.0208 4.59279 11.0723 4.59799 10.129 4.59799C 9.29909 4.59799 8.75784 5.14996 8.75784 5.97791C 8.75784 6.80066 8.763 7.62861 8.75269 8.45135C 8.75269 8.64923 8.80939 8.7013 9.00011 8.7013C 10.3249 8.69609 11.6445 8.7013 12.9692 8.69089C 13.1703 8.69089 13.2424 8.73775 13.2167 8.95125C 13.0672 10.3051 12.9486 11.659 12.7115 13.0025C 12.6806 13.1691 12.5775 13.1275 12.4847 13.1275C 11.7012 13.1275 10.9228 13.1275 10.1393 13.1275C 9.76301 13.1275 9.38156 13.1379 9.00527 13.1222C 8.79393 13.1118 8.73207 13.1743 8.73722 13.393C 8.74238 15.4811 8.74238 17.5692 8.74238 19.6625Z"/>
</defs>
</svg>
