<svg width="27" height="27" viewBox="0 0 27 27" version="1.1" xmlns="http://www.w3.org/2000/svg" xmlns:xlink="http://www.w3.org/1999/xlink">
<title>github-logo</title>
<desc>Created using Figma</desc>
<g id="Canvas" transform="translate(-5477 -10639)">
<g id="github-logo">
<g id="Group">
<g id="Vector">
<use xlink:href="#path0_fill" transform="translate(5477 10639)" fill="#000000" fill-opacity="0.3"/>
</g>
</g>
</g>
</g>
<defs>
<path id="path0_fill" d="M 25.1034 6.70076C 23.9003 4.63939 22.2684 3.00739 20.2072 1.80441C 18.1457 0.601368 15.8952 -1.40437e-08 13.454 -1.40437e-08C 11.0131 -1.40437e-08 8.76183 0.601552 6.70076 1.80441C 4.63939 3.00733 3.00751 4.63939 1.80441 6.70076C 0.601491 8.76208 0 11.0131 0 13.4536C 0 16.3853 0.855328 19.0215 2.56641 21.363C 4.27731 23.7047 6.48754 25.325 9.19692 26.2242C 9.5123 26.2827 9.74577 26.2416 9.89757 26.1017C 10.0494 25.9617 10.1253 25.7864 10.1253 25.5764C 10.1253 25.5413 10.1223 25.2262 10.1164 24.6304C 10.1104 24.0347 10.1076 23.515 10.1076 23.0716L 9.70466 23.1413C 9.44775 23.1883 9.12366 23.2083 8.73238 23.2026C 8.34129 23.1972 7.93528 23.1562 7.51492 23.08C 7.09437 23.0045 6.70322 22.8293 6.34114 22.5548C 5.97926 22.2804 5.72235 21.9211 5.57049 21.4776L 5.39531 21.0745C 5.27855 20.8061 5.09472 20.508 4.84358 20.1812C 4.59245 19.8541 4.33849 19.6323 4.08158 19.5156L 3.95893 19.4278C 3.8772 19.3694 3.80136 19.2991 3.73123 19.2174C 3.66116 19.1357 3.6087 19.054 3.57366 18.9721C 3.53857 18.8902 3.56765 18.823 3.66122 18.7703C 3.75479 18.7176 3.92389 18.692 4.16926 18.692L 4.51949 18.7444C 4.75308 18.7912 5.04202 18.931 5.38666 19.1647C 5.73113 19.3983 6.01429 19.7019 6.23622 20.0754C 6.50497 20.5544 6.82876 20.9193 7.2085 21.1705C 7.58794 21.4216 7.9705 21.547 8.35583 21.547C 8.74116 21.547 9.07396 21.5178 9.35436 21.4596C 9.63446 21.4012 9.89726 21.3134 10.1426 21.1967C 10.2477 20.4139 10.5339 19.8126 11.0009 19.3922C 10.3353 19.3222 9.73687 19.2169 9.20533 19.0768C 8.67409 18.9366 8.12512 18.7089 7.55879 18.3933C 6.99215 18.0781 6.52209 17.6867 6.14848 17.2198C 5.77481 16.7526 5.46815 16.1392 5.22891 15.3803C 4.98956 14.6211 4.86985 13.7453 4.86985 12.7526C 4.86985 11.3392 5.33126 10.1365 6.25389 9.14372C 5.82169 8.08113 5.86249 6.88993 6.37643 5.57025C 6.71512 5.46502 7.2174 5.54398 7.883 5.80666C 8.54874 6.06945 9.03616 6.29457 9.34577 6.48122C 9.65539 6.66781 9.90346 6.82593 10.0904 6.95417C 11.1767 6.65063 12.2978 6.49883 13.4539 6.49883C 14.61 6.49883 15.7313 6.65063 16.8177 6.95417L 17.4834 6.53393C 17.9386 6.25353 18.4761 5.99656 19.0947 5.76297C 19.7137 5.5295 20.187 5.4652 20.5142 5.57043C 21.0395 6.89017 21.0863 8.08131 20.654 9.14391C 21.5766 10.1367 22.0382 11.3397 22.0382 12.7528C 22.0382 13.7454 21.918 14.624 21.6791 15.3891C 21.4398 16.1543 21.1305 16.767 20.751 17.2285C 20.3712 17.69 19.8981 18.0783 19.3318 18.3935C 18.7653 18.7089 18.2161 18.9365 17.6849 19.0768C 17.1534 19.217 16.555 19.3224 15.8894 19.3925C 16.4965 19.9178 16.8001 20.7471 16.8001 21.8799L 16.8001 25.5759C 16.8001 25.7859 16.8731 25.9612 17.0192 26.1012C 17.1652 26.2411 17.3957 26.2822 17.7111 26.2236C 20.4209 25.3246 22.6311 23.7042 24.3419 21.3625C 26.0526 19.021 26.9082 16.3848 26.9082 13.4531C 26.9076 11.0129 26.3058 8.76208 25.1034 6.70076Z"/>
</defs>
</svg>
