<svg width="47" height="46" viewBox="0 0 47 46" version="1.1" xmlns="http://www.w3.org/2000/svg" xmlns:xlink="http://www.w3.org/1999/xlink">
<title>XMLID 534</title>
<desc>Created using Figma</desc>
<g id="Canvas" transform="translate(-7213 -14393)">
<g id="XMLID 534">
<use xlink:href="#path0_fill" transform="translate(7213 14393)" fill="#2F80ED"/>
</g>
</g>
<defs>
<path id="path0_fill" d="M 0.0587475 23.0294C 0.0587475 16.6258 0.117496 10.2222 0.0587475 3.7599C 0.0587475 1.29247 1.87995 0 3.81865 0C 16.6845 0.0587484 29.4917 0 42.3576 0C 44.7075 0 46.0587 1.35122 46.0587 3.70115C 46.0587 16.5671 46.0587 29.4917 46.0587 42.3576C 46.0587 44.6488 44.7075 46 42.3576 46C 29.4329 46 16.567 46 3.6424 46C 1.8212 46 0.528734 45.06 0.117495 43.5326C -1.80304e-06 43.1801 1.68435e-15 42.7688 1.68435e-15 42.3576C 0.0587484 35.954 0.0587475 29.4917 0.0587475 23.0294ZM 24.7918 38.539C 24.7918 38.304 24.7918 38.069 24.7918 37.834C 24.7918 34.0153 24.7918 30.1967 24.7918 26.378C 24.7918 25.0856 25.4381 24.1456 26.4368 23.3819C 28.493 21.9132 31.1367 22.8531 31.7829 25.2618C 31.9591 26.0255 32.0766 26.9068 32.0766 27.6705C 32.0766 31.0779 32.0766 34.4853 32.0766 37.834C 32.0766 38.0102 32.0766 38.2452 32.0766 38.4802C 34.4266 38.4802 36.7178 38.4802 39.0089 38.4802C 39.0089 38.304 39.0089 38.1865 39.0089 38.069C 39.0089 34.1916 39.0089 30.3142 39.0089 26.378C 39.0089 25.4381 38.8914 24.4393 38.7152 23.4994C 38.1277 20.6794 36.6003 18.5645 33.7803 17.6245C 32.6641 17.272 31.4891 17.1545 30.3142 17.272C 28.3167 17.3895 26.6718 18.212 25.4381 19.7395C 25.2618 19.9745 25.0856 20.2095 24.9093 20.4444C 24.8506 20.4444 24.8506 20.4444 24.7918 20.4444C 24.7918 19.5632 24.7918 18.6232 24.7918 17.742C 22.4419 17.742 20.1507 17.742 17.8595 17.742C 17.8595 24.6743 17.8595 31.5479 17.8595 38.4802C 20.1507 38.539 22.4419 38.539 24.7918 38.539ZM 7.04981 17.8008C 7.04981 24.7331 7.04981 31.6066 7.04981 38.539C 9.341 38.539 11.6322 38.539 13.9234 38.539C 13.9234 31.6066 13.9234 24.7331 13.9234 17.8008C 11.6909 17.8008 9.39974 17.8008 7.04981 17.8008ZM 10.5747 7.75479C 8.87101 7.75479 7.46105 8.57727 6.93231 9.92848C 5.99234 12.2197 7.4023 14.5696 9.86973 14.8633C 11.9259 15.0983 13.5709 14.2759 14.2171 12.6897C 15.1571 10.2222 13.3946 7.75479 10.5747 7.75479Z"/>
</defs>
</svg>
