<svg width="20" height="20" viewBox="0 0 20 20" version="1.1" xmlns="http://www.w3.org/2000/svg" xmlns:xlink="http://www.w3.org/1999/xlink">
<title>qrcode</title>
<desc>Created using Figma</desc>
<g id="Canvas" transform="translate(-52157 -3110)">
<g id="qrcode">
<g id="Vector">
<use xlink:href="#path0_fill" transform="translate(52157 3110)" fill="#FFFFFF"/>
</g>
</g>
</g>
<defs>
<path id="path0_fill" d="M 0 8.88889L 2.22222 8.88889L 2.22222 11.1111L 0 11.1111L 0 8.88889ZM 8.88889 2.22222L 11.1111 2.22222L 11.1111 6.66667L 8.88889 6.66667L 8.88889 2.22222ZM 6.66667 8.88889L 11.1111 8.88889L 11.1111 13.3333L 8.88889 13.3333L 8.88889 11.1111L 6.66667 11.1111L 6.66667 8.88889ZM 13.3333 8.88889L 15.5556 8.88889L 15.5556 11.1111L 17.7778 11.1111L 17.7778 8.88889L 20 8.88889L 20 11.1111L 17.7778 11.1111L 17.7778 13.3333L 20 13.3333L 20 17.7778L 17.7778 17.7778L 17.7778 20L 15.5556 20L 15.5556 17.7778L 11.1111 17.7778L 11.1111 20L 8.88889 20L 8.88889 15.5556L 13.3333 15.5556L 13.3333 13.3333L 15.5556 13.3333L 15.5556 11.1111L 13.3333 11.1111L 13.3333 8.88889ZM 17.7778 17.7778L 17.7778 13.3333L 15.5556 13.3333L 15.5556 17.7778L 17.7778 17.7778ZM 13.3333 0L 20 0L 20 6.66667L 13.3333 6.66667L 13.3333 0ZM 15.5556 2.22222L 15.5556 4.44444L 17.7778 4.44444L 17.7778 2.22222L 15.5556 2.22222ZM 0 0L 6.66667 0L 6.66667 6.66667L 0 6.66667L 0 0ZM 2.22222 2.22222L 2.22222 4.44444L 4.44444 4.44444L 4.44444 2.22222L 2.22222 2.22222ZM 0 13.3333L 6.66667 13.3333L 6.66667 20L 0 20L 0 13.3333ZM 2.22222 15.5556L 2.22222 17.7778L 4.44444 17.7778L 4.44444 15.5556L 2.22222 15.5556Z"/>
</defs>
</svg>
