<svg width="32" height="27" viewBox="0 0 32 27" version="1.1" xmlns="http://www.w3.org/2000/svg" xmlns:xlink="http://www.w3.org/1999/xlink">
<title>reddit-alien-head-logo</title>
<desc>Created using Figma</desc>
<g id="Canvas" transform="translate(-5529 -10728)">
<g id="reddit-alien-head-logo">
<g id="Group">
<g id="reddit">
<use xlink:href="#path0_fill" transform="translate(5529.31 10728.8)" fill="#000000" fill-opacity="0.3"/>
</g>
</g>
</g>
</g>
<defs>
<path id="path0_fill" d="M 22.2938 14.2969C 22.3743 14.5047 22.4109 14.7194 22.4109 14.9326C 22.4109 15.3619 22.264 15.7789 22.0177 16.1193C 21.7741 16.4557 21.429 16.7168 21.0229 16.8317L 21.0237 16.8317C 21.0203 16.8331 21.0168 16.8331 21.0152 16.8344C 21.0135 16.8344 21.0108 16.8358 21.0095 16.8358C 20.8193 16.9014 20.6244 16.9321 20.4309 16.9321C 19.9776 16.9321 19.5323 16.7671 19.1763 16.4857C 18.8231 16.2055 18.5558 15.8029 18.4719 15.3253L 18.4712 15.3253C 18.4712 15.3239 18.4712 15.3222 18.4705 15.3203C 18.4705 15.3189 18.4705 15.3175 18.4691 15.3155L 18.4705 15.3155C 18.4441 15.1924 18.4306 15.0694 18.4306 14.9478C 18.4306 14.5342 18.57 14.1371 18.8001 13.8089C 19.0295 13.4828 19.3529 13.2238 19.7315 13.0904C 19.7329 13.0904 19.7343 13.0897 19.7343 13.0897C 19.7362 13.0897 19.7362 13.0877 19.738 13.0877C 19.9521 13.0078 20.1782 12.9677 20.4018 12.9677C 20.8091 12.9677 21.2104 13.0925 21.5487 13.3208C 21.883 13.5453 22.1544 13.8745 22.2904 14.2833C 22.2917 14.286 22.2917 14.2884 22.293 14.2908C 22.293 14.2935 22.2944 14.295 22.2957 14.297L 22.2938 14.297L 22.2938 14.2969ZM 21.0474 19.3711C 20.8877 19.2665 20.7029 19.2033 20.5074 19.2033C 20.3497 19.2033 20.186 19.2488 20.0402 19.3464C 18.6625 20.1771 17.0422 20.6323 15.4333 20.6323C 14.2263 20.6323 13.0266 20.3749 11.9397 19.8356L 11.9341 19.8329L 11.9286 19.8308C 11.7647 19.7632 11.578 19.6192 11.3743 19.4822C 11.2707 19.4145 11.1627 19.3472 11.0427 19.2976C 10.9243 19.2467 10.7928 19.2111 10.6522 19.2111C 10.5359 19.2111 10.4136 19.2374 10.2929 19.2928C 10.2866 19.2952 10.2807 19.2975 10.2746 19.2999L 10.2752 19.2999C 10.0856 19.3731 9.93742 19.5071 9.84216 19.6657C 9.74269 19.829 9.69383 20.0191 9.69383 20.2084C 9.69383 20.3793 9.73378 20.5502 9.81642 20.7054C 9.89508 20.8524 10.0161 20.9809 10.1744 21.067C 11.7279 22.1255 13.5572 22.6051 15.3935 22.6034C 17.0491 22.6034 18.7148 22.2162 20.1977 21.5114L 20.2055 21.5066L 20.2129 21.5025C 20.4085 21.3856 20.6684 21.2807 20.9133 21.1279C 21.0345 21.05 21.1528 20.9598 21.2543 20.8425C 21.3558 20.726 21.4374 20.5825 21.4834 20.4123L 21.4834 20.4116C 21.5027 20.3364 21.5118 20.2633 21.5118 20.1901C 21.5118 20.051 21.478 19.9191 21.4219 19.8005C 21.3397 19.622 21.205 19.4757 21.0474 19.3711ZM 10.1402 16.8254C 10.1429 16.8254 10.1464 16.8265 10.1495 16.8282C 10.3477 16.9013 10.5521 16.9375 10.7544 16.9375C 11.2592 16.9375 11.7498 16.7286 12.1212 16.3882C 12.492 16.0468 12.7459 15.5638 12.7459 15.0133C 12.7459 14.9989 12.7459 14.9846 12.7453 14.9675C 12.7467 14.9429 12.7473 14.9159 12.7473 14.8882C 12.7473 14.342 12.4968 13.857 12.1295 13.5142C 11.7609 13.171 11.2715 12.9612 10.7648 12.9612C 10.6295 12.9612 10.4916 12.9772 10.3568 13.009C 10.3548 13.009 10.3532 13.0097 10.3512 13.0097C 10.3512 13.0097 10.3498 13.0097 10.3492 13.0097C 9.67846 13.1515 9.08973 13.6543 8.87246 14.346L 8.87246 14.3468C 8.87246 14.3482 8.87181 14.3495 8.87181 14.3495C 8.80939 14.5389 8.78032 14.7343 8.78032 14.9277C 8.78032 15.3515 8.919 15.7645 9.15809 16.1042C 9.39508 16.4381 9.73037 16.7006 10.133 16.8232C 10.1359 16.8234 10.1373 16.8241 10.1402 16.8254ZM 31.1752 11.8825L 31.1752 11.8853C 31.18 11.9541 31.1813 12.0228 31.1813 12.0911C 31.1813 12.8562 30.9384 13.5919 30.5331 14.216C 30.1549 14.8002 29.6332 15.2888 29.0323 15.6204C 29.0708 15.925 29.0932 16.2319 29.0932 16.5378C 29.0924 18.1852 28.5302 19.8045 27.551 21.1024L 27.551 21.103L 27.549 21.103C 25.7389 23.5356 22.9591 24.9701 20.1523 25.6936L 20.1515 25.6936L 20.1496 25.6953C 18.6528 26.0624 17.1093 26.25 15.5662 26.25C 13.266 26.25 10.9676 25.831 8.82288 24.9622L 8.82222 24.9601L 8.82019 24.9601C 6.59662 24.0342 4.47795 22.5625 3.17869 20.4061C 2.4797 19.2556 2.09598 17.9059 2.09598 16.5497C 2.09598 16.2429 2.1165 15.9355 2.15709 15.6317C 1.57191 15.2988 1.0651 14.8268 0.688704 14.2631C 0.286936 13.6578 0.0321878 12.9486 3.44144e-12 12.1989L 3.44144e-12 12.196L 3.44144e-12 12.1932L 3.44144e-12 12.1872C 0.000652456 11.1373 0.452152 10.1427 1.15376 9.40933C 1.8553 8.67618 2.81361 8.19701 3.84152 8.19701C 3.85573 8.19701 3.86993 8.19701 3.88414 8.19701C 3.99194 8.18961 4.10069 8.18537 4.2095 8.18537C 4.72581 8.18537 5.24328 8.2698 5.73473 8.46014L 5.73741 8.46219L 5.74016 8.46307C 6.15969 8.64154 6.57654 8.85685 6.94808 9.15506C 7.06849 9.09127 7.19978 9.0195 7.34709 8.96282C 9.59908 7.61568 12.2167 7.09601 14.7675 6.9461C 14.7897 5.66956 14.945 4.33311 15.5613 3.16356C 16.0746 2.19182 16.9655 1.43531 18.0261 1.17314L 18.0306 1.17094L 18.0363 1.17028C 18.4403 1.09133 18.8476 1.05494 19.2523 1.05494C 20.3302 1.05494 21.3953 1.31279 22.3921 1.71529C 22.8333 1.04263 23.4633 0.517618 24.2023 0.223144L 24.2094 0.219043L 24.2165 0.216333C 24.6502 0.079825 25.1084 1.11746e-08 25.5682 1.11746e-08C 26.0534 1.11746e-08 26.5424 0.0895653 27.0004 0.296305L 27.0004 0.29462C 27.0011 0.296305 27.0018 0.296305 27.0018 0.296305C 27.0052 0.297477 27.0079 0.299527 27.0102 0.299527C 27.667 0.555041 28.2229 1.02725 28.617 1.61408C 29.0115 2.20346 29.2437 2.90944 29.2437 3.63526C 29.2437 3.76906 29.2362 3.90308 29.2207 4.03724L 29.2193 4.03995C 29.2193 4.042 29.2193 4.04493 29.2186 4.04698C 29.1415 4.98504 28.6712 5.80804 28.0053 6.39509C 27.3354 6.98447 26.4679 7.34047 25.5774 7.34047C 25.4346 7.34047 25.2905 7.33241 25.147 7.31308C 24.2639 7.24489 23.4404 6.81318 22.8355 6.17099C 22.2285 5.52983 21.8373 4.67314 21.8373 3.74841C 21.8373 3.70366 21.8414 3.65782 21.8427 3.61344C 21.0137 3.24053 20.1334 2.93119 19.2585 2.93192C 19.132 2.93192 19.0055 2.93895 18.8789 2.95192L 18.8775 2.95192C 18.2225 3.0157 17.6135 3.43277 17.3184 4.03263L 17.3184 4.03329L 17.3184 4.03534C 16.8705 4.91664 16.7812 5.94682 16.7676 6.96939C 19.2788 7.13482 21.8048 7.74355 24.0202 9.03005L 24.0237 9.03005L 24.0554 9.04902C 24.0974 9.07413 24.1752 9.1172 24.2456 9.15513C 24.3979 9.03034 24.5589 8.90203 24.7426 8.79145C 25.4142 8.3396 26.21 8.11491 27.0061 8.11491C 27.3593 8.11491 27.7129 8.16039 28.0559 8.24923L 28.0573 8.24923L 28.0715 8.25347C 28.0766 8.25421 28.0803 8.25589 28.0844 8.25589L 28.0844 8.25655C 28.8951 8.4649 29.6285 8.93521 30.1807 9.56942C 30.7326 10.2046 31.1037 11.0083 31.1761 11.8808L 31.1761 11.8826L 31.1752 11.8826L 31.1752 11.8825ZM 23.7785 3.58063C 23.7785 3.61498 23.7792 3.6502 23.7826 3.68609L 23.7826 3.68814L 23.7826 3.69224C 23.7988 4.13296 24.0048 4.54315 24.3178 4.84611C 24.6325 5.1493 25.05 5.33693 25.4736 5.33861L 25.4794 5.33861L 25.4851 5.33861C 25.5155 5.34103 25.5467 5.34103 25.5764 5.34103C 26.0041 5.34169 26.4284 5.1556 26.7471 4.85366C 27.0664 4.55018 27.2769 4.13743 27.2938 3.69297L 27.2945 3.69092L 27.2945 3.68821C 27.2972 3.65423 27.2986 3.62208 27.2986 3.58737C 27.2986 3.12987 27.0868 2.69377 26.7552 2.3708C 26.425 2.04814 25.9804 1.84821 25.542 1.84938C 25.4006 1.84938 25.2604 1.86886 25.1231 1.91192L 25.1184 1.91229L 25.1143 1.91397C 24.753 2.00881 24.4143 2.23386 24.171 2.53273C 23.9267 2.8302 23.7785 3.19798 23.7785 3.58063ZM 5.2422 10.38C 4.90654 10.2222 4.55944 10.1094 4.21639 10.1108C 4.15883 10.1108 4.10061 10.1143 4.04313 10.1206L 4.03515 10.1206L 4.02718 10.1216C 3.53457 10.1353 3.0374 10.3523 2.6642 10.7001C 2.2907 11.0466 2.04371 11.5146 2.02472 12.0305L 2.02472 12.0353L 2.02385 12.0395C 2.02051 12.0813 2.01913 12.1228 2.01913 12.1628C 2.01913 12.481 2.11577 12.7886 2.27961 13.0685C 2.40089 13.277 2.55995 13.467 2.73981 13.6325C 3.31549 12.3591 4.21494 11.2784 5.2422 10.38ZM 27.1179 16.6091C 27.1179 15.474 26.7125 14.3338 26.0561 13.4158C 24.7474 11.5762 22.7174 10.3765 20.6054 9.70753L 20.5906 9.70226C 20.1852 9.57667 19.7759 9.46542 19.363 9.37022C 18.1288 9.08636 16.8634 8.94502 15.5993 8.94502C 13.9019 8.94502 12.2046 9.19878 10.5794 9.70512C 8.46794 10.382 6.43112 11.5733 5.12533 13.4188L 5.12533 13.4202C 4.46352 14.342 4.07597 15.486 4.07597 16.6251C 4.07597 17.0446 4.12787 17.4639 4.23763 17.872L 4.23901 17.8727C 4.47665 18.7887 4.94141 19.6062 5.54312 20.3182C 6.14447 21.0319 6.88225 21.6407 7.65824 22.1373C 7.83013 22.2449 8.00266 22.3474 8.17926 22.4475C 10.4334 23.7186 13.029 24.2758 15.606 24.2758C 16.0419 24.2758 16.4803 24.2601 16.9133 24.2286C 19.5084 24.0119 22.1143 23.2381 24.2208 21.657L 24.2216 21.6553C 24.8921 21.1546 25.5133 20.5486 26.0046 19.8592C 26.4979 19.1695 26.8592 18.3984 27.0197 17.561L 27.0197 17.5586L 27.0203 17.5579C 27.0861 17.2451 27.1179 16.9277 27.1179 16.6091ZM 29.1662 12.0917C 29.1655 11.8162 29.1032 11.5419 28.9666 11.2861L 28.9632 11.2829L 28.9618 11.2788C 28.779 10.8987 28.4921 10.6116 28.1464 10.4159C 27.8006 10.2189 27.3959 10.1189 26.9899 10.1189C 26.6229 10.1189 26.2577 10.2018 25.9337 10.3663C 26.9643 11.2703 27.8684 12.3568 28.4526 13.6352C 28.6407 13.4698 28.8012 13.2677 28.9212 13.0432C 29.0776 12.7486 29.1662 12.4179 29.1662 12.0917Z"/>
</defs>
</svg>
