<svg width="25" height="25" viewBox="0 0 25 25" version="1.1" xmlns="http://www.w3.org/2000/svg" xmlns:xlink="http://www.w3.org/1999/xlink">
<title>icons8-Slack</title>
<desc>Created using Figma</desc>
<g id="Canvas" transform="translate(-5480 -10729)">
<g id="icons8-Slack">
<g id="surface1">
<g id="Vector">
<use xlink:href="#path0_fill" transform="translate(5492.14 10729.5)" fill="#000000" fill-opacity="0.3"/>
</g>
<g id="Vector">
<use xlink:href="#path1_fill" transform="translate(5483.88 10732.5)" fill="#000000" fill-opacity="0.3"/>
</g>
<g id="Vector">
<use xlink:href="#path2_fill" transform="translate(5480.93 10732.5)" fill="#000000" fill-opacity="0.3"/>
</g>
<g id="Vector">
<use xlink:href="#path3_fill" transform="translate(5483.29 10740.8)" fill="#000000" fill-opacity="0.3"/>
</g>
<g id="Vector">
<use xlink:href="#path4_fill" transform="translate(5493.08 10733.4)" fill="#000000" fill-opacity="0.3"/>
</g>
<g id="Vector">
<use xlink:href="#path5_fill" transform="translate(5484.81 10736.4)" fill="#000000" fill-opacity="0.3"/>
</g>
<g id="Vector">
<use xlink:href="#path6_fill" transform="translate(5495.8 10741.6)" fill="#000000" fill-opacity="0.3"/>
</g>
<g id="Vector">
<use xlink:href="#path7_fill" transform="translate(5487.47 10744.5)" fill="#000000" fill-opacity="0.3"/>
</g>
</g>
</g>
</g>
<defs>
<path id="path0_fill" d="M 4.83278 3.92889L 0.936393 5.29919L 0.108208 2.73571C -0.244751 1.66138 0.285841 0.468198 1.407 0.109311C 2.47049 -0.247245 3.65164 0.288754 4.0069 1.42135L 4.83278 3.92889ZM 3.65164 13.4743L 7.55033 12.1017L 6.19156 7.86499L 2.29286 9.23762L 3.65164 13.4743ZM 5.66097 19.5591C 5.95625 20.3934 6.78213 20.99 7.60801 20.99C 7.84562 20.99 8.08093 20.9317 8.25856 20.8711C 9.32205 20.5123 9.91262 19.3191 9.55736 18.2471L 8.84913 16.0984L 4.95044 17.471L 5.66097 19.5591Z"/>
<path id="path1_fill" d="M 4.83278 3.8683L 0.936393 5.24092L 0.108208 2.73571C -0.244751 1.66138 0.285841 0.468197 1.40701 0.109311C 2.4705 -0.247245 3.65164 0.288755 4.0069 1.42135L 4.83278 3.8683ZM 5.66097 19.5591C 5.95625 20.3934 6.78213 20.99 7.60801 20.99C 7.84562 20.99 8.08093 20.9317 8.25856 20.8711C 9.32205 20.5123 9.91262 19.3191 9.55736 18.2471L 8.84913 16.0378L 4.95044 17.4104L 5.66097 19.5591ZM 6.13158 7.86499L 2.23519 9.23762L 3.59397 13.4743L 7.49036 12.1017L 6.13158 7.86499Z"/>
<path id="path2_fill" d="M 17.3466 4.88295L 16.0478 0.944516L 18.4701 0.110221C 19.5336 -0.248665 20.7147 0.289665 21.0677 1.42226C 21.4229 2.49658 20.89 3.68977 19.7689 4.04632L 17.3466 4.88295ZM 13.4502 6.25557L 12.1514 2.31714L 7.77979 3.86921L 9.07859 7.80531L 13.4502 6.25557ZM 1.40116 6.07613C 0.339975 6.43269 -0.250597 7.62587 0.102362 8.7002C 0.397648 9.59508 1.22583 10.1334 2.05171 10.1334C 2.28702 10.1334 2.52463 10.0728 2.70226 10.0122L 5.12222 9.17794L 3.82342 5.2395L 1.40116 6.07613Z"/>
<path id="path3_fill" d="M 4.18454 5.11494L 5.48333 9.05338L 2.70811 10.0065C 2.4705 10.0671 2.23519 10.1254 2.05756 10.1254C 1.1717 10.1254 0.403494 9.58937 0.108208 8.69449C -0.244751 7.62016 0.285841 6.42698 1.40701 6.07042L 4.18454 5.11494ZM 21.0735 1.41655C 20.7205 0.342216 19.5394 -0.254375 18.4759 0.104512L 16.4089 0.819955L 17.7077 4.81665L 19.8347 4.1012C 20.8959 3.68406 21.4864 2.49088 21.0735 1.41655ZM 8.08093 3.74232L 9.37972 7.68075L 13.7513 6.12868L 12.4525 2.19258L 8.08093 3.74232Z"/>
<path id="path4_fill" d="M 5.19519 3.99669L 3.89639 2.70658e-07L -2.95286e-07 1.37029L 1.2988 5.36932L 5.19519 3.99669Z"/>
<path id="path5_fill" d="M 3.89639 0L 2.67927e-07 1.37263L 1.2988 5.36932L 5.19519 3.99669L 3.89639 0Z"/>
<path id="path6_fill" d="M -1.47643e-07 1.37263L 1.2988 5.36932L 5.19749 3.99669L 3.8987 1.49148e-07L -1.47643e-07 1.37263Z"/>
<path id="path7_fill" d="M 2.67927e-07 1.37262L 1.2988 5.36932L 5.19519 3.99669L 3.89639 -1.49148e-07L 2.67927e-07 1.37262Z"/>
</defs>
</svg>
