<svg width="498" height="340" viewBox="0 0 498 340" version="1.1" xmlns="http://www.w3.org/2000/svg" xmlns:xlink="http://www.w3.org/1999/xlink">
<title>Group</title>
<desc>Created using Figma</desc>
<g id="Canvas" transform="translate(-6291 -10416)">
<g id="Group">
<g id="Viewer">
<use xlink:href="#path0_fill" transform="translate(6682.14 10565.3)"/>
</g>
<g id="Creator">
<use xlink:href="#path1_fill" transform="translate(6289 10565.3)"/>
</g>
<g id="$$$">
<use xlink:href="#path2_fill" transform="translate(6514.8 10413)" fill="#6FCF97"/>
</g>
<g id="DEK">
<use xlink:href="#path3_fill" transform="translate(6510.77 10565.3)"/>
</g>
<g id="Arrow 6">
<use xlink:href="#path4_stroke" transform="translate(6411.98 10634.4)"/>
</g>
<g id="Arrow 6">
<use xlink:href="#path4_stroke" transform="matrix(-1 0 0 -1 6677.6 10538.7)"/>
</g>
<g id="Vector 5">
<use xlink:href="#path5_fill" transform="translate(6517 10728.4)" fill="#FFFFFF" fill-opacity="0.8"/>
<use xlink:href="#path6_stroke" transform="translate(6517 10728.4)"/>
</g>
<g id="Vector 5">
<use xlink:href="#path5_fill" transform="translate(6517 10724.6)" fill="#FFFFFF" fill-opacity="0.8"/>
<use xlink:href="#path6_stroke" transform="translate(6517 10724.6)"/>
</g>
<g id="Vector 5">
<use xlink:href="#path5_fill" transform="translate(6517 10720.8)" fill="#FFFFFF" fill-opacity="0.8"/>
<use xlink:href="#path6_stroke" transform="translate(6517 10720.8)"/>
</g>
<g id="Vector 5">
<use xlink:href="#path5_fill" transform="translate(6517 10717)" fill="#FFFFFF" fill-opacity="0.8"/>
<use xlink:href="#path6_stroke" transform="translate(6517 10717)"/>
</g>
</g>
</g>
<defs>
<path id="path0_fill" d="M 10.9512 29.8359L 11.0918 30.3809L 11.25 29.8359L 19.3008 7.40625L 21.6738 7.40625L 12.1465 33L 10.0723 33L 0.544922 7.40625L 2.90039 7.40625L 10.9512 29.8359ZM 27.3164 33L 25.207 33L 25.207 13.9805L 27.3164 13.9805L 27.3164 33ZM 24.8379 8.47852C 24.8379 8.08008 24.9668 7.74609 25.2246 7.47656C 25.4824 7.19531 25.834 7.05469 26.2793 7.05469C 26.7246 7.05469 27.0762 7.19531 27.334 7.47656C 27.6035 7.74609 27.7383 8.08008 27.7383 8.47852C 27.7383 8.87695 27.6035 9.21094 27.334 9.48047C 27.0762 9.75 26.7246 9.88477 26.2793 9.88477C 25.834 9.88477 25.4824 9.75 25.2246 9.48047C 24.9668 9.21094 24.8379 8.87695 24.8379 8.47852ZM 40.4121 33.3516C 38.7949 33.3516 37.3301 32.9531 36.0176 32.1562C 34.7168 31.3594 33.7031 30.252 32.9766 28.834C 32.25 27.4043 31.8867 25.8047 31.8867 24.0352L 31.8867 23.2793C 31.8867 21.4512 32.2383 19.8047 32.9414 18.3398C 33.6563 16.875 34.6465 15.7266 35.9121 14.8945C 37.1777 14.0508 38.5488 13.6289 40.0254 13.6289C 42.334 13.6289 44.1621 14.4199 45.5098 16.002C 46.8691 17.5723 47.5488 19.7227 47.5488 22.4531L 47.5488 23.6309L 33.9785 23.6309L 33.9785 24.0352C 33.9785 26.1914 34.5938 27.9902 35.8242 29.4316C 37.0664 30.8613 38.625 31.5762 40.5 31.5762C 41.625 31.5762 42.6152 31.3711 43.4707 30.9609C 44.3379 30.5508 45.123 29.8945 45.8262 28.9922L 47.1445 29.9941C 45.5977 32.2324 43.3535 33.3516 40.4121 33.3516ZM 40.0254 15.4219C 38.4434 15.4219 37.1074 16.002 36.0176 17.1621C 34.9395 18.3223 34.2832 19.8809 34.0488 21.8379L 45.457 21.8379L 45.457 21.6094C 45.3984 19.7812 44.877 18.293 43.8926 17.1445C 42.9082 15.9961 41.6191 15.4219 40.0254 15.4219ZM 56.1973 28.623L 56.5137 30.2578L 56.9355 28.5352L 61.5059 13.9805L 63.2988 13.9805L 67.8164 28.4121L 68.3086 30.416L 68.7129 28.5703L 72.6152 13.9805L 74.7949 13.9805L 69.2578 33L 67.4648 33L 62.5781 17.918L 62.3496 16.8809L 62.1211 17.9355L 57.3223 33L 55.5293 33L 50.0098 13.9805L 52.1719 13.9805L 56.1973 28.623ZM 86.1504 33.3516C 84.5332 33.3516 83.0684 32.9531 81.7559 32.1562C 80.4551 31.3594 79.4414 30.252 78.7148 28.834C 77.9883 27.4043 77.625 25.8047 77.625 24.0352L 77.625 23.2793C 77.625 21.4512 77.9766 19.8047 78.6797 18.3398C 79.3945 16.875 80.3848 15.7266 81.6504 14.8945C 82.916 14.0508 84.2871 13.6289 85.7637 13.6289C 88.0723 13.6289 89.9004 14.4199 91.248 16.002C 92.6074 17.5723 93.2871 19.7227 93.2871 22.4531L 93.2871 23.6309L 79.7168 23.6309L 79.7168 24.0352C 79.7168 26.1914 80.332 27.9902 81.5625 29.4316C 82.8047 30.8613 84.3633 31.5762 86.2383 31.5762C 87.3633 31.5762 88.3535 31.3711 89.209 30.9609C 90.0762 30.5508 90.8613 29.8945 91.5645 28.9922L 92.8828 29.9941C 91.3359 32.2324 89.0918 33.3516 86.1504 33.3516ZM 85.7637 15.4219C 84.1816 15.4219 82.8457 16.002 81.7559 17.1621C 80.6777 18.3223 80.0215 19.8809 79.7871 21.8379L 91.1953 21.8379L 91.1953 21.6094C 91.1367 19.7812 90.6152 18.293 89.6309 17.1445C 88.6465 15.9961 87.3574 15.4219 85.7637 15.4219ZM 106.172 15.7734C 105.727 15.6914 105.252 15.6504 104.748 15.6504C 103.436 15.6504 102.322 16.0195 101.408 16.7578C 100.506 17.4844 99.8613 18.5449 99.4746 19.9395L 99.4746 33L 97.3828 33L 97.3828 13.9805L 99.4395 13.9805L 99.4746 17.0039C 100.588 14.7539 102.375 13.6289 104.836 13.6289C 105.422 13.6289 105.885 13.7051 106.225 13.8574L 106.172 15.7734Z"/>
<path id="path1_fill" d="M 21.3574 25.0195C 21.0645 27.7148 20.0977 29.7773 18.457 31.207C 16.8281 32.6367 14.6543 33.3516 11.9355 33.3516C 10.0371 33.3516 8.35547 32.877 6.89062 31.9277C 5.4375 30.9785 4.3125 29.6367 3.51562 27.9023C 2.71875 26.1562 2.31445 24.1641 2.30273 21.9258L 2.30273 18.6035C 2.30273 16.3301 2.70117 14.3145 3.49805 12.5566C 4.29492 10.7988 5.4375 9.44531 6.92578 8.49609C 8.42578 7.53516 10.1484 7.05469 12.0938 7.05469C 14.8359 7.05469 16.998 7.79883 18.5801 9.28711C 20.1738 10.7637 21.0996 12.8086 21.3574 15.4219L 19.1777 15.4219C 18.6387 11.0742 16.2773 8.90039 12.0938 8.90039C 9.77344 8.90039 7.92187 9.76758 6.53906 11.502C 5.16797 13.2363 4.48242 15.6328 4.48242 18.6914L 4.48242 21.8203C 4.48242 24.7734 5.15039 27.1289 6.48633 28.8867C 7.83398 30.6445 9.65039 31.5234 11.9355 31.5234C 14.1973 31.5234 15.9023 30.9844 17.0508 29.9062C 18.1992 28.8164 18.9082 27.1875 19.1777 25.0195L 21.3574 25.0195ZM 34.9102 15.7734C 34.4648 15.6914 33.9902 15.6504 33.4863 15.6504C 32.1738 15.6504 31.0605 16.0195 30.1465 16.7578C 29.2441 17.4844 28.5996 18.5449 28.2129 19.9395L 28.2129 33L 26.1211 33L 26.1211 13.9805L 28.1777 13.9805L 28.2129 17.0039C 29.3262 14.7539 31.1133 13.6289 33.5742 13.6289C 34.1602 13.6289 34.623 13.7051 34.9629 13.8574L 34.9102 15.7734ZM 45.2637 33.3516C 43.6465 33.3516 42.1816 32.9531 40.8691 32.1562C 39.5684 31.3594 38.5547 30.252 37.8281 28.834C 37.1016 27.4043 36.7383 25.8047 36.7383 24.0352L 36.7383 23.2793C 36.7383 21.4512 37.0898 19.8047 37.793 18.3398C 38.5078 16.875 39.498 15.7266 40.7637 14.8945C 42.0293 14.0508 43.4004 13.6289 44.877 13.6289C 47.1855 13.6289 49.0137 14.4199 50.3613 16.002C 51.7207 17.5723 52.4004 19.7227 52.4004 22.4531L 52.4004 23.6309L 38.8301 23.6309L 38.8301 24.0352C 38.8301 26.1914 39.4453 27.9902 40.6758 29.4316C 41.918 30.8613 43.4766 31.5762 45.3516 31.5762C 46.4766 31.5762 47.4668 31.3711 48.3223 30.9609C 49.1895 30.5508 49.9746 29.8945 50.6777 28.9922L 51.9961 29.9941C 50.4492 32.2324 48.2051 33.3516 45.2637 33.3516ZM 44.877 15.4219C 43.2949 15.4219 41.959 16.002 40.8691 17.1621C 39.791 18.3223 39.1348 19.8809 38.9004 21.8379L 50.3086 21.8379L 50.3086 21.6094C 50.25 19.7812 49.7285 18.293 48.7441 17.1445C 47.7598 15.9961 46.4707 15.4219 44.877 15.4219ZM 68.502 33C 68.291 32.4023 68.1562 31.5176 68.0977 30.3457C 67.3594 31.3066 66.416 32.0508 65.2676 32.5781C 64.1309 33.0938 62.9238 33.3516 61.6465 33.3516C 59.8184 33.3516 58.3359 32.8418 57.1992 31.8223C 56.0742 30.8027 55.5117 29.5137 55.5117 27.9551C 55.5117 26.1035 56.2793 24.6387 57.8145 23.5605C 59.3613 22.4824 61.5117 21.9434 64.2656 21.9434L 68.0801 21.9434L 68.0801 19.7812C 68.0801 18.4219 67.6582 17.3555 66.8145 16.582C 65.9824 15.7969 64.7637 15.4043 63.1582 15.4043C 61.6934 15.4043 60.4805 15.7793 59.5195 16.5293C 58.5586 17.2793 58.0781 18.1816 58.0781 19.2363L 55.9688 19.2188C 55.9688 17.707 56.6719 16.4004 58.0781 15.2988C 59.4844 14.1855 61.2129 13.6289 63.2637 13.6289C 65.3848 13.6289 67.0547 14.1621 68.2734 15.2285C 69.5039 16.2832 70.1367 17.7598 70.1719 19.6582L 70.1719 28.6582C 70.1719 30.498 70.3652 31.875 70.752 32.7891L 70.752 33L 68.502 33ZM 61.8926 31.4883C 63.2988 31.4883 64.5527 31.1484 65.6543 30.4688C 66.7676 29.7891 67.5762 28.8809 68.0801 27.7441L 68.0801 23.5605L 64.3184 23.5605C 62.2207 23.584 60.5801 23.9707 59.3965 24.7207C 58.2129 25.459 57.6211 26.4785 57.6211 27.7793C 57.6211 28.8457 58.0137 29.7305 58.7988 30.4336C 59.5957 31.1367 60.627 31.4883 61.8926 31.4883ZM 79.0664 9.11133L 79.0664 13.9805L 83.0039 13.9805L 83.0039 15.7031L 79.0664 15.7031L 79.0664 28.377C 79.0664 29.4316 79.2539 30.2168 79.6289 30.7324C 80.0156 31.248 80.6543 31.5059 81.5449 31.5059C 81.8965 31.5059 82.4648 31.4473 83.25 31.3301L 83.3379 33.0527C 82.7871 33.252 82.0371 33.3516 81.0879 33.3516C 79.6465 33.3516 78.5977 32.9355 77.9414 32.1035C 77.2852 31.2598 76.957 30.0234 76.957 28.3945L 76.957 15.7031L 73.459 15.7031L 73.459 13.9805L 76.957 13.9805L 76.957 9.11133L 79.0664 9.11133ZM 85.8516 23.209C 85.8516 21.3809 86.2031 19.7344 86.9062 18.2695C 87.6211 16.8047 88.623 15.668 89.9121 14.8594C 91.2129 14.0391 92.6836 13.6289 94.3242 13.6289C 96.8555 13.6289 98.9063 14.5195 100.477 16.3008C 102.047 18.0703 102.832 20.4199 102.832 23.3496L 102.832 23.7891C 102.832 25.6289 102.475 27.2871 101.76 28.7637C 101.057 30.2285 100.061 31.3594 98.7715 32.1562C 97.4824 32.9531 96.0117 33.3516 94.3594 33.3516C 91.8398 33.3516 89.7891 32.4668 88.207 30.6973C 86.6367 28.916 85.8516 26.5605 85.8516 23.6309L 85.8516 23.209ZM 87.9609 23.7891C 87.9609 26.0625 88.5469 27.9316 89.7188 29.3965C 90.9023 30.8496 92.4492 31.5762 94.3594 31.5762C 96.2578 31.5762 97.793 30.8496 98.9648 29.3965C 100.148 27.9316 100.74 26.0039 100.74 23.6133L 100.74 23.209C 100.74 21.7559 100.471 20.4258 99.9316 19.2188C 99.3926 18.0117 98.6367 17.0801 97.6641 16.4238C 96.6914 15.7559 95.5781 15.4219 94.3242 15.4219C 92.4492 15.4219 90.9199 16.1602 89.7363 17.6367C 88.5527 19.1016 87.9609 21.0234 87.9609 23.4023L 87.9609 23.7891ZM 115.98 15.7734C 115.535 15.6914 115.061 15.6504 114.557 15.6504C 113.244 15.6504 112.131 16.0195 111.217 16.7578C 110.314 17.4844 109.67 18.5449 109.283 19.9395L 109.283 33L 107.191 33L 107.191 13.9805L 109.248 13.9805L 109.283 17.0039C 110.396 14.7539 112.184 13.6289 114.645 13.6289C 115.23 13.6289 115.693 13.7051 116.033 13.8574L 115.98 15.7734Z"/>
<path id="path2_fill" d="M 15.8379 26.6895C 15.8379 25.3887 15.416 24.3281 14.5723 23.5078C 13.7285 22.6758 12.2402 21.8906 10.1074 21.1523C 7.45898 20.3203 5.60156 19.3359 4.53516 18.1992C 3.46875 17.0508 2.93555 15.5684 2.93555 13.752C 2.93555 11.8418 3.52148 10.2949 4.69336 9.11133C 5.86523 7.91602 7.45898 7.23633 9.47461 7.07227L 9.47461 3.52148L 11.2676 3.52148L 11.2676 7.07227C 13.3301 7.25976 14.9238 8.0332 16.0488 9.39258C 17.1855 10.752 17.7539 12.5977 17.7539 14.9297L 15.6621 14.9297C 15.6621 13.0898 15.1816 11.6309 14.2207 10.5527C 13.2715 9.46289 11.9707 8.91797 10.3184 8.91797C 8.6543 8.91797 7.35352 9.35742 6.41602 10.2363C 5.49023 11.1035 5.02734 12.2637 5.02734 13.7168C 5.02734 15.123 5.45508 16.2246 6.31055 17.0215C 7.16602 17.8066 8.61914 18.5508 10.6699 19.2539C 12.7324 19.9453 14.2266 20.6133 15.1523 21.2578C 16.0898 21.8906 16.7871 22.6465 17.2441 23.5254C 17.7129 24.3926 17.9473 25.4355 17.9473 26.6543C 17.9473 28.5762 17.3438 30.1289 16.1367 31.3125C 14.9414 32.4844 13.2949 33.1523 11.1973 33.3164L 11.1973 36.6562L 9.42188 36.6562L 9.42188 33.334C 7.06641 33.1816 5.24414 32.4434 3.95508 31.1191C 2.66602 29.7832 2.02148 27.9609 2.02148 25.6523L 4.13086 25.6523C 4.13086 27.4805 4.66406 28.916 5.73047 29.959C 6.79687 30.9902 8.28516 31.5059 10.1953 31.5059C 11.8594 31.5059 13.2129 31.0605 14.2559 30.1699C 15.3105 29.2793 15.8379 28.1191 15.8379 26.6895ZM 35.8066 26.6895C 35.8066 25.3887 35.3848 24.3281 34.541 23.5078C 33.6973 22.6758 32.209 21.8906 30.0762 21.1523C 27.4277 20.3203 25.5703 19.3359 24.5039 18.1992C 23.4375 17.0508 22.9043 15.5684 22.9043 13.752C 22.9043 11.8418 23.4902 10.2949 24.6621 9.11133C 25.834 7.91602 27.4277 7.23633 29.4434 7.07227L 29.4434 3.52148L 31.2363 3.52148L 31.2363 7.07227C 33.2988 7.25976 34.8926 8.0332 36.0176 9.39258C 37.1543 10.752 37.7227 12.5977 37.7227 14.9297L 35.6309 14.9297C 35.6309 13.0898 35.1504 11.6309 34.1895 10.5527C 33.2402 9.46289 31.9395 8.91797 30.2871 8.91797C 28.623 8.91797 27.3223 9.35742 26.3848 10.2363C 25.459 11.1035 24.9961 12.2637 24.9961 13.7168C 24.9961 15.123 25.4238 16.2246 26.2793 17.0215C 27.1348 17.8066 28.5879 18.5508 30.6387 19.2539C 32.7012 19.9453 34.1953 20.6133 35.1211 21.2578C 36.0586 21.8906 36.7559 22.6465 37.2129 23.5254C 37.6816 24.3926 37.916 25.4355 37.916 26.6543C 37.916 28.5762 37.3125 30.1289 36.1055 31.3125C 34.9102 32.4844 33.2637 33.1523 31.166 33.3164L 31.166 36.6562L 29.3906 36.6562L 29.3906 33.334C 27.0352 33.1816 25.2129 32.4434 23.9238 31.1191C 22.6348 29.7832 21.9902 27.9609 21.9902 25.6523L 24.0996 25.6523C 24.0996 27.4805 24.6328 28.916 25.6992 29.959C 26.7656 30.9902 28.2539 31.5059 30.1641 31.5059C 31.8281 31.5059 33.1816 31.0605 34.2246 30.1699C 35.2793 29.2793 35.8066 28.1191 35.8066 26.6895ZM 55.7754 26.6895C 55.7754 25.3887 55.3535 24.3281 54.5098 23.5078C 53.666 22.6758 52.1777 21.8906 50.0449 21.1523C 47.3965 20.3203 45.5391 19.3359 44.4727 18.1992C 43.4062 17.0508 42.873 15.5684 42.873 13.752C 42.873 11.8418 43.459 10.2949 44.6309 9.11133C 45.8027 7.91602 47.3965 7.23633 49.4121 7.07227L 49.4121 3.52148L 51.2051 3.52148L 51.2051 7.07227C 53.2676 7.25976 54.8613 8.0332 55.9863 9.39258C 57.123 10.752 57.6914 12.5977 57.6914 14.9297L 55.5996 14.9297C 55.5996 13.0898 55.1191 11.6309 54.1582 10.5527C 53.209 9.46289 51.9082 8.91797 50.2559 8.91797C 48.5918 8.91797 47.291 9.35742 46.3535 10.2363C 45.4277 11.1035 44.9648 12.2637 44.9648 13.7168C 44.9648 15.123 45.3926 16.2246 46.248 17.0215C 47.1035 17.8066 48.5566 18.5508 50.6074 19.2539C 52.6699 19.9453 54.1641 20.6133 55.0898 21.2578C 56.0273 21.8906 56.7246 22.6465 57.1816 23.5254C 57.6504 24.3926 57.8848 25.4355 57.8848 26.6543C 57.8848 28.5762 57.2813 30.1289 56.0742 31.3125C 54.8789 32.4844 53.2324 33.1523 51.1348 33.3164L 51.1348 36.6562L 49.3594 36.6562L 49.3594 33.334C 47.0039 33.1816 45.1816 32.4434 43.8926 31.1191C 42.6035 29.7832 41.959 27.9609 41.959 25.6523L 44.0684 25.6523C 44.0684 27.4805 44.6016 28.916 45.668 29.959C 46.7344 30.9902 48.2227 31.5059 50.1328 31.5059C 51.7969 31.5059 53.1504 31.0605 54.1934 30.1699C 55.248 29.2793 55.7754 28.1191 55.7754 26.6895Z"/>
<path id="path3_fill" d="M 3.23438 33L 3.23438 7.40625L 10.3887 7.40625C 12.4863 7.40625 14.3672 7.88672 16.0312 8.84766C 17.6953 9.79688 18.9902 11.1621 19.916 12.9434C 20.8535 14.7246 21.3223 16.752 21.3223 19.0254L 21.3223 21.3809C 21.3223 23.666 20.8594 25.6934 19.9336 27.4629C 19.0078 29.2324 17.7012 30.5977 16.0137 31.5586C 14.3379 32.5195 12.4102 33 10.2305 33L 3.23438 33ZM 5.39648 9.25195L 5.39648 31.1719L 10.248 31.1719C 12.9434 31.1719 15.1055 30.2812 16.7344 28.5C 18.3633 26.707 19.1777 24.2871 19.1777 21.2402L 19.1777 18.9902C 19.1777 16.0488 18.375 13.6934 16.7695 11.9238C 15.1641 10.1543 13.0488 9.26367 10.4238 9.25195L 5.39648 9.25195ZM 40.957 20.7305L 28.9863 20.7305L 28.9863 31.1719L 42.75 31.1719L 42.75 33L 26.8242 33L 26.8242 7.40625L 42.6621 7.40625L 42.6621 9.25195L 28.9863 9.25195L 28.9863 18.9023L 40.957 18.9023L 40.957 20.7305ZM 53.0859 20.291L 49.4824 23.8418L 49.4824 33L 47.3203 33L 47.3203 7.40625L 49.4824 7.40625L 49.4824 21.2051L 62.5957 7.40625L 65.3203 7.40625L 54.5977 18.7969L 66.1465 33L 63.5098 33L 53.0859 20.291Z"/>
<path id="path4_stroke" d="M 266.616 0.0985262C 266.67 -0.451071 266.269 -0.94072 265.719 -0.995134L 256.763 -1.88187C 256.213 -1.93628 255.724 -1.53486 255.669 -0.985262C 255.615 -0.435665 256.016 0.0539839 256.566 0.108398L 264.527 0.896608L 263.739 8.85768C 263.684 9.40728 264.086 9.89693 264.635 9.95134C 265.185 10.0058 265.675 9.60433 265.729 9.05474L 266.616 0.0985262ZM -0.605288 0.796006C 49.2013 38.6693 92.8467 57.644 135.646 57.6075C 178.456 57.5711 220.217 38.5158 266.255 0.773335L 264.987 -0.773335C 219.136 36.8163 177.812 55.5716 135.645 55.6075C 93.4682 55.6434 50.2473 36.9521 0.605288 -0.796006L -0.605288 0.796006Z"/>
<path id="path5_fill" d="M 16.1015 25.897L 2.7615 15.4605C 1.5416 14.5061 1.82283 12.5869 3.26528 12.0227L 32.9376 0.415599C 33.5961 0.158013 34.3416 0.267269 34.8985 0.702959L 48.2385 11.1395C 49.4584 12.0939 49.1772 14.013 47.7347 14.5773L 18.0624 26.1844C 17.4039 26.442 16.6584 26.3327 16.1015 25.897Z"/>
<path id="path6_stroke" d="M 2.7615 15.4605L 2.53044 15.7558L 2.53044 15.7558L 2.7615 15.4605ZM 16.1015 25.897L 16.3325 25.6017L 16.3325 25.6017L 16.1015 25.897ZM 18.0624 26.1844L 17.9258 25.8352L 17.9258 25.8352L 18.0624 26.1844ZM 47.7347 14.5773L 47.5981 14.228L 47.5981 14.228L 47.7347 14.5773ZM 34.8985 0.702959L 35.1296 0.407608L 35.1296 0.407608L 34.8985 0.702959ZM 48.2385 11.1395L 48.0074 11.4349L 48.0074 11.4349L 48.2385 11.1395ZM 3.26528 12.0227L 3.12867 11.6734L 3.12867 11.6734L 3.26528 12.0227ZM 32.9376 0.415599L 32.801 0.0663677L 32.801 0.0663678L 32.9376 0.415599ZM 2.53044 15.7558L 15.8704 26.1924L 16.3325 25.6017L 2.99257 15.1651L 2.53044 15.7558ZM 18.199 26.5336L 47.8713 14.9265L 47.5981 14.228L 17.9258 25.8352L 18.199 26.5336ZM 34.6675 0.998311L 48.0074 11.4349L 48.4696 10.8442L 35.1296 0.407608L 34.6675 0.998311ZM 3.40189 12.3719L 33.0742 0.76483L 32.801 0.0663678L 3.12867 11.6734L 3.40189 12.3719ZM 2.99257 15.1651C 2.0014 14.3896 2.2299 12.8304 3.40189 12.3719L 3.12867 11.6734C 1.41576 12.3435 1.08179 14.6225 2.53044 15.7558L 2.99257 15.1651ZM 15.8704 26.1924C 16.5317 26.7098 17.4171 26.8395 18.199 26.5336L 17.9258 25.8352C 17.3908 26.0444 16.785 25.9557 16.3325 25.6017L 15.8704 26.1924ZM 47.8713 14.9265C 49.5842 14.2565 49.9182 11.9775 48.4696 10.8442L 48.0074 11.4349C 48.9986 12.2103 48.7701 13.7696 47.5981 14.228L 47.8713 14.9265ZM 35.1296 0.407608C 34.4683 -0.109775 33.5829 -0.239516 32.801 0.0663677L 33.0742 0.76483C 33.6092 0.555541 34.215 0.644312 34.6675 0.998311L 35.1296 0.407608Z"/>
</defs>
</svg>
