<svg width="32" height="27" viewBox="0 0 32 27" version="1.1" xmlns="http://www.w3.org/2000/svg" xmlns:xlink="http://www.w3.org/1999/xlink">
<title>twitter-logo-silhouette</title>
<desc>Created using Figma</desc>
<g id="Canvas" transform="translate(-5586 -10728)">
<g id="twitter-logo-silhouette">
<g id="Group">
<g id="Group">
<g id="Vector">
<use xlink:href="#path0_fill" transform="translate(5586.01 10728.8)" fill="#000000" fill-opacity="0.3"/>
</g>
</g>
</g>
</g>
</g>
<defs>
<path id="path0_fill" d="M 31.9901 3.10579C 30.8127 3.63283 29.5493 3.99026 28.222 4.14983C 29.5773 3.32994 30.6148 2.02948 31.1065 0.484638C 29.8352 1.24391 28.4318 1.79524 26.9365 2.09411C 25.7392 0.803733 24.036 9.99104e-08 22.1469 9.99104e-08C 18.5227 9.99104e-08 15.5842 2.9685 15.5842 6.62762C 15.5842 7.14658 15.6421 7.65345 15.7541 8.13814C 10.3008 7.86145 5.46525 5.22213 2.22886 1.21159C 1.66312 2.189 1.34129 3.32788 1.34129 4.5436C 1.34129 6.8437 2.50072 8.87318 4.25987 10.0605C 3.18438 10.0242 2.17287 9.72533 1.28734 9.22855L 1.28734 9.31135C 1.28734 12.5222 3.55023 15.2019 6.55072 15.8118C 6.00098 15.9612 5.42129 16.044 4.82158 16.044C 4.39781 16.044 3.988 16.0016 3.58619 15.9208C 4.42175 18.5561 6.84459 20.4725 9.71518 20.525C 7.47028 22.3021 4.63967 23.3582 1.56522 23.3582C 1.0355 23.3582 0.513724 23.3259 2.48307e-12 23.2674C 2.90457 25.1515 6.35287 26.25 10.059 26.25C 22.131 26.25 28.7298 16.149 28.7298 7.38895L 28.7078 6.53073C 29.9971 5.60174 31.1125 4.43455 31.9901 3.10579Z"/>
</defs>
</svg>
