<svg width="463" height="118" viewBox="0 0 463 118" fill="none" xmlns="http://www.w3.org/2000/svg">
<rect x="0.25" y="0.25" width="462.5" height="117.5" rx="3.75" fill="white" stroke="#949090" stroke-width="0.5"/>
<path opacity="0.3" d="M77 59.0001V55.0001H59L61.68 44.3201L53 53.0001V73.0001H71L77 59.0001Z" fill="#00E676"/>
<path d="M53 77H71C72.66 77 74.08 76 74.68 74.56L80.72 60.46C80.9 60 81 59.52 81 59V55C81 52.8 79.2 51 77 51H64.38L66.28 41.86L66.34 41.22C66.34 40.4 66 39.64 65.46 39.1L63.34 37L50.16 50.18C49.44 50.9 49 51.9 49 53V73C49 75.2 50.8 77 53 77ZM53 53L61.68 44.32L59 55H77V59L71 73H53V53ZM37 53H45V77H37V53Z" fill="#2CA01C"/>
<path d="M113.37 49.1816L117.281 42.2031H118.529L113.906 50.1836V55H112.825V50.1836L108.211 42.2031H109.494L113.37 49.1816ZM118.986 50.1045C118.986 49.1904 119.162 48.3672 119.514 47.6348C119.871 46.9023 120.372 46.334 121.017 45.9297C121.667 45.5195 122.402 45.3145 123.223 45.3145C124.488 45.3145 125.514 45.7598 126.299 46.6504C127.084 47.5352 127.477 48.71 127.477 50.1748V50.3945C127.477 51.3145 127.298 52.1436 126.94 52.8818C126.589 53.6143 126.091 54.1797 125.446 54.5781C124.802 54.9766 124.066 55.1758 123.24 55.1758C121.98 55.1758 120.955 54.7334 120.164 53.8486C119.379 52.958 118.986 51.7803 118.986 50.3154V50.1045ZM120.041 50.3945C120.041 51.5312 120.334 52.4658 120.92 53.1982C121.512 53.9248 122.285 54.2881 123.24 54.2881C124.189 54.2881 124.957 53.9248 125.543 53.1982C126.135 52.4658 126.431 51.502 126.431 50.3066V50.1045C126.431 49.3779 126.296 48.7129 126.026 48.1094C125.757 47.5059 125.379 47.04 124.893 46.7119C124.406 46.3779 123.85 46.2109 123.223 46.2109C122.285 46.2109 121.521 46.5801 120.929 47.3184C120.337 48.0508 120.041 49.0117 120.041 50.2012V50.3945ZM135.773 53.7959C135.141 54.7158 134.13 55.1758 132.741 55.1758C131.728 55.1758 130.957 54.8828 130.43 54.2969C129.902 53.7051 129.633 52.832 129.621 51.6777V45.4902H130.667V51.5459C130.667 53.3564 131.399 54.2617 132.864 54.2617C134.388 54.2617 135.352 53.6318 135.756 52.3721V45.4902H136.811V55H135.791L135.773 53.7959ZM149.625 52.583C149.625 52.0615 149.414 51.6426 148.992 51.3262C148.576 51.0098 147.946 50.7637 147.103 50.5879C146.259 50.4062 145.603 50.2012 145.134 49.9727C144.671 49.7383 144.325 49.4541 144.097 49.1201C143.874 48.7861 143.763 48.3818 143.763 47.9072C143.763 47.1572 144.076 46.5391 144.703 46.0527C145.33 45.5605 146.133 45.3145 147.111 45.3145C148.172 45.3145 149.021 45.5781 149.66 46.1055C150.305 46.627 150.627 47.3096 150.627 48.1533H149.572C149.572 47.5967 149.338 47.1338 148.869 46.7646C148.406 46.3955 147.82 46.2109 147.111 46.2109C146.42 46.2109 145.863 46.3662 145.441 46.6768C145.025 46.9814 144.817 47.3799 144.817 47.8721C144.817 48.3467 144.99 48.7158 145.336 48.9795C145.688 49.2373 146.323 49.4746 147.243 49.6914C148.169 49.9082 148.86 50.1396 149.317 50.3857C149.78 50.6318 150.123 50.9277 150.346 51.2734C150.568 51.6191 150.68 52.0381 150.68 52.5303C150.68 53.333 150.354 53.9746 149.704 54.4551C149.06 54.9355 148.216 55.1758 147.173 55.1758C146.065 55.1758 145.166 54.9092 144.475 54.376C143.789 53.8369 143.446 53.1572 143.446 52.3369H144.501C144.542 52.9521 144.8 53.4326 145.274 53.7783C145.755 54.1182 146.388 54.2881 147.173 54.2881C147.905 54.2881 148.497 54.127 148.948 53.8047C149.399 53.4824 149.625 53.0752 149.625 52.583ZM160.699 50.3418C160.699 51.8242 160.371 53.002 159.715 53.875C159.059 54.7422 158.18 55.1758 157.078 55.1758C155.777 55.1758 154.781 54.7188 154.09 53.8047V58.6562H153.044V45.4902H154.02L154.072 46.835C154.758 45.8213 155.751 45.3145 157.052 45.3145C158.188 45.3145 159.079 45.7451 159.724 46.6064C160.374 47.4678 160.699 48.6631 160.699 50.1924V50.3418ZM159.645 50.1572C159.645 48.9443 159.396 47.9863 158.897 47.2832C158.399 46.5801 157.705 46.2285 156.814 46.2285C156.17 46.2285 155.616 46.3838 155.153 46.6943C154.69 47.0049 154.336 47.4561 154.09 48.0479V52.6094C154.342 53.1543 154.702 53.5703 155.171 53.8574C155.64 54.1445 156.193 54.2881 156.832 54.2881C157.717 54.2881 158.405 53.9365 158.897 53.2334C159.396 52.5244 159.645 51.499 159.645 50.1572ZM166.72 55.1758C165.911 55.1758 165.179 54.9766 164.522 54.5781C163.872 54.1797 163.365 53.626 163.002 52.917C162.639 52.2021 162.457 51.4023 162.457 50.5176V50.1396C162.457 49.2256 162.633 48.4023 162.984 47.6699C163.342 46.9375 163.837 46.3633 164.47 45.9473C165.103 45.5254 165.788 45.3145 166.526 45.3145C167.681 45.3145 168.595 45.71 169.269 46.501C169.948 47.2861 170.288 48.3613 170.288 49.7266V50.3154H163.503V50.5176C163.503 51.5957 163.811 52.4951 164.426 53.2158C165.047 53.9307 165.826 54.2881 166.764 54.2881C167.326 54.2881 167.821 54.1855 168.249 53.9805C168.683 53.7754 169.075 53.4473 169.427 52.9961L170.086 53.4971C169.312 54.6162 168.19 55.1758 166.72 55.1758ZM166.526 46.2109C165.735 46.2109 165.067 46.501 164.522 47.0811C163.983 47.6611 163.655 48.4404 163.538 49.4189H169.242V49.3047C169.213 48.3906 168.952 47.6465 168.46 47.0723C167.968 46.498 167.323 46.2109 166.526 46.2109ZM173.338 45.4902L173.373 47.1162C173.73 46.5303 174.176 46.085 174.709 45.7803C175.242 45.4697 175.831 45.3145 176.476 45.3145C177.495 45.3145 178.254 45.6016 178.752 46.1758C179.25 46.75 179.502 47.6113 179.508 48.7598V55H178.462V48.751C178.456 47.9014 178.274 47.2686 177.917 46.8525C177.565 46.4365 177 46.2285 176.221 46.2285C175.57 46.2285 174.993 46.4336 174.489 46.8438C173.991 47.248 173.622 47.7959 173.382 48.4873V55H172.336V45.4902H173.338ZM183.867 43.0557V45.4902H185.836V46.3516H183.867V52.6885C183.867 53.2158 183.961 53.6084 184.148 53.8662C184.342 54.124 184.661 54.2529 185.106 54.2529C185.282 54.2529 185.566 54.2236 185.959 54.165L186.003 55.0264C185.728 55.126 185.353 55.1758 184.878 55.1758C184.157 55.1758 183.633 54.9678 183.305 54.5518C182.977 54.1299 182.812 53.5117 182.812 52.6973V46.3516H181.063V45.4902H182.812V43.0557H183.867ZM200.663 55H191.892V53.2598L196.031 48.8477C196.6 48.2266 197.019 47.6846 197.288 47.2217C197.563 46.7588 197.701 46.3193 197.701 45.9033C197.701 45.335 197.558 44.8896 197.271 44.5674C196.983 44.2393 196.573 44.0752 196.04 44.0752C195.466 44.0752 195.012 44.2744 194.678 44.6729C194.35 45.0654 194.186 45.584 194.186 46.2285H191.637C191.637 45.4492 191.821 44.7373 192.19 44.0928C192.565 43.4482 193.093 42.9443 193.772 42.5811C194.452 42.2119 195.223 42.0273 196.084 42.0273C197.402 42.0273 198.425 42.3438 199.151 42.9766C199.884 43.6094 200.25 44.5029 200.25 45.6572C200.25 46.29 200.086 46.9346 199.758 47.5908C199.43 48.2471 198.867 49.0117 198.07 49.8848L195.161 52.9521H200.663V55ZM209.742 50.1836H211.192V52.2314H209.742V55H207.202V52.2314H201.955L201.841 50.6318L207.176 42.2031H209.742V50.1836ZM204.372 50.1836H207.202V45.666L207.035 45.9561L204.372 50.1836ZM212.528 44.6641C212.528 43.8789 212.783 43.2432 213.293 42.7568C213.803 42.2646 214.471 42.0186 215.297 42.0186C216.135 42.0186 216.809 42.2617 217.318 42.748C217.828 43.2285 218.083 43.8818 218.083 44.708V45.3408C218.083 46.1318 217.828 46.7676 217.318 47.248C216.809 47.7285 216.141 47.9688 215.314 47.9688C214.482 47.9688 213.809 47.7285 213.293 47.248C212.783 46.7617 212.528 46.1084 212.528 45.2881V44.6641ZM214.216 45.3408C214.216 45.6924 214.315 45.9766 214.515 46.1934C214.72 46.4043 214.986 46.5098 215.314 46.5098C215.643 46.5098 215.903 46.4014 216.097 46.1846C216.29 45.9678 216.387 45.6777 216.387 45.3145V44.6641C216.387 44.3125 216.29 44.0283 216.097 43.8115C215.903 43.5947 215.637 43.4863 215.297 43.4863C214.975 43.4863 214.714 43.5947 214.515 43.8115C214.315 44.0225 214.216 44.3184 214.216 44.6992V45.3408ZM218.646 51.8623C218.646 51.0713 218.903 50.4355 219.419 49.9551C219.935 49.4688 220.603 49.2256 221.423 49.2256C222.255 49.2256 222.926 49.4658 223.436 49.9463C223.951 50.4209 224.209 51.0771 224.209 51.915V52.5479C224.209 53.333 223.957 53.9688 223.453 54.4551C222.949 54.9355 222.278 55.1758 221.44 55.1758C220.597 55.1758 219.92 54.9326 219.41 54.4463C218.9 53.96 218.646 53.3154 218.646 52.5127V51.8623ZM220.333 52.5479C220.333 52.8701 220.438 53.1455 220.649 53.374C220.86 53.6025 221.124 53.7168 221.44 53.7168C222.155 53.7168 222.513 53.3213 222.513 52.5303V51.8623C222.513 51.5107 222.413 51.2295 222.214 51.0186C222.015 50.8018 221.751 50.6934 221.423 50.6934C221.095 50.6934 220.831 50.8018 220.632 51.0186C220.433 51.2295 220.333 51.5195 220.333 51.8887V52.5479ZM215.815 54.042L214.576 53.374L220.825 43.3721L222.064 44.04L215.815 54.042ZM231.908 55H230.854V41.5H231.908V55ZM238.456 55.1758C237.647 55.1758 236.915 54.9766 236.259 54.5781C235.608 54.1797 235.102 53.626 234.738 52.917C234.375 52.2021 234.193 51.4023 234.193 50.5176V50.1396C234.193 49.2256 234.369 48.4023 234.721 47.6699C235.078 46.9375 235.573 46.3633 236.206 45.9473C236.839 45.5254 237.524 45.3145 238.263 45.3145C239.417 45.3145 240.331 45.71 241.005 46.501C241.685 47.2861 242.024 48.3613 242.024 49.7266V50.3154H235.239V50.5176C235.239 51.5957 235.547 52.4951 236.162 53.2158C236.783 53.9307 237.562 54.2881 238.5 54.2881C239.062 54.2881 239.558 54.1855 239.985 53.9805C240.419 53.7754 240.812 53.4473 241.163 52.9961L241.822 53.4971C241.049 54.6162 239.927 55.1758 238.456 55.1758ZM238.263 46.2109C237.472 46.2109 236.804 46.501 236.259 47.0811C235.72 47.6611 235.392 48.4404 235.274 49.4189H240.979V49.3047C240.949 48.3906 240.688 47.6465 240.196 47.0723C239.704 46.498 239.06 46.2109 238.263 46.2109ZM249.768 52.583C249.768 52.0615 249.557 51.6426 249.135 51.3262C248.719 51.0098 248.089 50.7637 247.245 50.5879C246.401 50.4062 245.745 50.2012 245.276 49.9727C244.813 49.7383 244.468 49.4541 244.239 49.1201C244.017 48.7861 243.905 48.3818 243.905 47.9072C243.905 47.1572 244.219 46.5391 244.846 46.0527C245.473 45.5605 246.275 45.3145 247.254 45.3145C248.314 45.3145 249.164 45.5781 249.803 46.1055C250.447 46.627 250.77 47.3096 250.77 48.1533H249.715C249.715 47.5967 249.48 47.1338 249.012 46.7646C248.549 46.3955 247.963 46.2109 247.254 46.2109C246.562 46.2109 246.006 46.3662 245.584 46.6768C245.168 46.9814 244.96 47.3799 244.96 47.8721C244.96 48.3467 245.133 48.7158 245.479 48.9795C245.83 49.2373 246.466 49.4746 247.386 49.6914C248.312 49.9082 249.003 50.1396 249.46 50.3857C249.923 50.6318 250.266 50.9277 250.488 51.2734C250.711 51.6191 250.822 52.0381 250.822 52.5303C250.822 53.333 250.497 53.9746 249.847 54.4551C249.202 54.9355 248.358 55.1758 247.315 55.1758C246.208 55.1758 245.309 54.9092 244.617 54.376C243.932 53.8369 243.589 53.1572 243.589 52.3369H244.644C244.685 52.9521 244.942 53.4326 245.417 53.7783C245.897 54.1182 246.53 54.2881 247.315 54.2881C248.048 54.2881 248.64 54.127 249.091 53.8047C249.542 53.4824 249.768 53.0752 249.768 52.583ZM258.891 52.583C258.891 52.0615 258.68 51.6426 258.258 51.3262C257.842 51.0098 257.212 50.7637 256.368 50.5879C255.524 50.4062 254.868 50.2012 254.399 49.9727C253.937 49.7383 253.591 49.4541 253.362 49.1201C253.14 48.7861 253.028 48.3818 253.028 47.9072C253.028 47.1572 253.342 46.5391 253.969 46.0527C254.596 45.5605 255.398 45.3145 256.377 45.3145C257.438 45.3145 258.287 45.5781 258.926 46.1055C259.57 46.627 259.893 47.3096 259.893 48.1533H258.838C258.838 47.5967 258.604 47.1338 258.135 46.7646C257.672 46.3955 257.086 46.2109 256.377 46.2109C255.686 46.2109 255.129 46.3662 254.707 46.6768C254.291 46.9814 254.083 47.3799 254.083 47.8721C254.083 48.3467 254.256 48.7158 254.602 48.9795C254.953 49.2373 255.589 49.4746 256.509 49.6914C257.435 49.9082 258.126 50.1396 258.583 50.3857C259.046 50.6318 259.389 50.9277 259.611 51.2734C259.834 51.6191 259.945 52.0381 259.945 52.5303C259.945 53.333 259.62 53.9746 258.97 54.4551C258.325 54.9355 257.481 55.1758 256.438 55.1758C255.331 55.1758 254.432 54.9092 253.74 54.376C253.055 53.8369 252.712 53.1572 252.712 52.3369H253.767C253.808 52.9521 254.065 53.4326 254.54 53.7783C255.021 54.1182 255.653 54.2881 256.438 54.2881C257.171 54.2881 257.763 54.127 258.214 53.8047C258.665 53.4824 258.891 53.0752 258.891 52.583ZM266.115 50.1045C266.115 49.1904 266.291 48.3672 266.643 47.6348C267 46.9023 267.501 46.334 268.146 45.9297C268.796 45.5195 269.531 45.3145 270.352 45.3145C271.617 45.3145 272.643 45.7598 273.428 46.6504C274.213 47.5352 274.605 48.71 274.605 50.1748V50.3945C274.605 51.3145 274.427 52.1436 274.069 52.8818C273.718 53.6143 273.22 54.1797 272.575 54.5781C271.931 54.9766 271.195 55.1758 270.369 55.1758C269.109 55.1758 268.084 54.7334 267.293 53.8486C266.508 52.958 266.115 51.7803 266.115 50.3154V50.1045ZM267.17 50.3945C267.17 51.5312 267.463 52.4658 268.049 53.1982C268.641 53.9248 269.414 54.2881 270.369 54.2881C271.318 54.2881 272.086 53.9248 272.672 53.1982C273.264 52.4658 273.56 51.502 273.56 50.3066V50.1045C273.56 49.3779 273.425 48.7129 273.155 48.1094C272.886 47.5059 272.508 47.04 272.021 46.7119C271.535 46.3779 270.979 46.2109 270.352 46.2109C269.414 46.2109 268.649 46.5801 268.058 47.3184C267.466 48.0508 267.17 49.0117 267.17 50.2012V50.3945ZM277.787 45.4902L277.822 47.1162C278.18 46.5303 278.625 46.085 279.158 45.7803C279.691 45.4697 280.28 45.3145 280.925 45.3145C281.944 45.3145 282.703 45.6016 283.201 46.1758C283.699 46.75 283.951 47.6113 283.957 48.7598V55H282.911V48.751C282.905 47.9014 282.724 47.2686 282.366 46.8525C282.015 46.4365 281.449 46.2285 280.67 46.2285C280.02 46.2285 279.442 46.4336 278.938 46.8438C278.44 47.248 278.071 47.7959 277.831 48.4873V55H276.785V45.4902H277.787ZM296.007 47.8721C295.661 47.8252 295.356 47.8018 295.093 47.8018C294.132 47.8018 293.502 48.127 293.203 48.7773V55H290.663V45.4902H293.062L293.133 46.624C293.643 45.751 294.349 45.3145 295.251 45.3145C295.532 45.3145 295.796 45.3525 296.042 45.4287L296.007 47.8721ZM301.438 55.1758C300.044 55.1758 298.907 54.748 298.028 53.8926C297.155 53.0371 296.719 51.8975 296.719 50.4736V50.2275C296.719 49.2725 296.903 48.4199 297.272 47.6699C297.642 46.9141 298.163 46.334 298.837 45.9297C299.517 45.5195 300.29 45.3145 301.157 45.3145C302.458 45.3145 303.48 45.7246 304.225 46.5449C304.975 47.3652 305.35 48.5283 305.35 50.0342V51.0713H299.294C299.376 51.6924 299.622 52.1904 300.032 52.5654C300.448 52.9404 300.973 53.1279 301.605 53.1279C302.584 53.1279 303.349 52.7734 303.899 52.0645L305.147 53.4619C304.767 54.001 304.251 54.4229 303.601 54.7275C302.95 55.0264 302.229 55.1758 301.438 55.1758ZM301.148 47.3711C300.645 47.3711 300.234 47.541 299.918 47.8809C299.607 48.2207 299.408 48.707 299.32 49.3398H302.854V49.1377C302.842 48.5752 302.689 48.1416 302.396 47.8369C302.104 47.5264 301.688 47.3711 301.148 47.3711ZM309.138 45.4902L309.217 46.5889C309.896 45.7393 310.808 45.3145 311.95 45.3145C312.958 45.3145 313.708 45.6104 314.2 46.2021C314.692 46.7939 314.944 47.6787 314.956 48.8564V55H312.416V48.918C312.416 48.3789 312.299 47.9893 312.064 47.749C311.83 47.5029 311.44 47.3799 310.896 47.3799C310.181 47.3799 309.645 47.6846 309.287 48.2939V55H306.747V45.4902H309.138ZM319.931 43.1523V45.4902H321.557V47.3535H319.931V52.0996C319.931 52.4512 319.998 52.7031 320.133 52.8555C320.268 53.0078 320.525 53.084 320.906 53.084C321.188 53.084 321.437 53.0635 321.653 53.0225V54.9473C321.155 55.0996 320.643 55.1758 320.115 55.1758C318.334 55.1758 317.426 54.2764 317.391 52.4775V47.3535H316.002V45.4902H317.391V43.1523H319.931ZM331.26 54.2881C331.992 54.2881 332.604 54.083 333.097 53.6729C333.595 53.2568 333.864 52.7207 333.905 52.0645H334.916C334.887 52.6445 334.705 53.1748 334.371 53.6553C334.037 54.1299 333.592 54.502 333.035 54.7715C332.484 55.041 331.893 55.1758 331.26 55.1758C330.012 55.1758 329.021 54.7422 328.289 53.875C327.562 53.0078 327.199 51.8418 327.199 50.377V50.0605C327.199 49.123 327.363 48.2939 327.691 47.5732C328.02 46.8525 328.488 46.2959 329.098 45.9033C329.713 45.5107 330.431 45.3145 331.251 45.3145C332.294 45.3145 333.152 45.625 333.826 46.2461C334.506 46.8672 334.869 47.6846 334.916 48.6982H333.905C333.858 47.9541 333.589 47.3535 333.097 46.8965C332.61 46.4395 331.995 46.2109 331.251 46.2109C330.302 46.2109 329.563 46.5537 329.036 47.2393C328.515 47.9248 328.254 48.8857 328.254 50.1221V50.4297C328.254 51.6426 328.515 52.5889 329.036 53.2686C329.563 53.9482 330.305 54.2881 331.26 54.2881ZM336.445 50.1045C336.445 49.1904 336.621 48.3672 336.973 47.6348C337.33 46.9023 337.831 46.334 338.476 45.9297C339.126 45.5195 339.861 45.3145 340.682 45.3145C341.947 45.3145 342.973 45.7598 343.758 46.6504C344.543 47.5352 344.936 48.71 344.936 50.1748V50.3945C344.936 51.3145 344.757 52.1436 344.399 52.8818C344.048 53.6143 343.55 54.1797 342.905 54.5781C342.261 54.9766 341.525 55.1758 340.699 55.1758C339.439 55.1758 338.414 54.7334 337.623 53.8486C336.838 52.958 336.445 51.7803 336.445 50.3154V50.1045ZM337.5 50.3945C337.5 51.5312 337.793 52.4658 338.379 53.1982C338.971 53.9248 339.744 54.2881 340.699 54.2881C341.648 54.2881 342.416 53.9248 343.002 53.1982C343.594 52.4658 343.89 51.502 343.89 50.3066V50.1045C343.89 49.3779 343.755 48.7129 343.485 48.1094C343.216 47.5059 342.838 47.04 342.352 46.7119C341.865 46.3779 341.309 46.2109 340.682 46.2109C339.744 46.2109 338.979 46.5801 338.388 47.3184C337.796 48.0508 337.5 49.0117 337.5 50.2012V50.3945ZM348.073 45.4902L348.108 47.0371C348.46 46.4629 348.899 46.0322 349.427 45.7451C349.954 45.458 350.54 45.3145 351.185 45.3145C352.685 45.3145 353.637 45.9297 354.041 47.1602C354.381 46.5684 354.835 46.1143 355.403 45.7979C355.972 45.4756 356.599 45.3145 357.284 45.3145C359.323 45.3145 360.363 46.4277 360.404 48.6543V55H359.35V48.7334C359.344 47.8838 359.159 47.2539 358.796 46.8438C358.438 46.4336 357.853 46.2285 357.038 46.2285C356.282 46.2402 355.644 46.4863 355.122 46.9668C354.601 47.4414 354.311 48.0215 354.252 48.707V55H353.197V48.6543C353.191 47.8398 352.998 47.2334 352.617 46.835C352.242 46.4307 351.662 46.2285 350.877 46.2285C350.215 46.2285 349.646 46.4189 349.172 46.7998C348.697 47.1748 348.346 47.7344 348.117 48.4785V55H347.062V45.4902H348.073ZM370.723 50.3418C370.723 51.8242 370.395 53.002 369.738 53.875C369.082 54.7422 368.203 55.1758 367.102 55.1758C365.801 55.1758 364.805 54.7188 364.113 53.8047V58.6562H363.067V45.4902H364.043L364.096 46.835C364.781 45.8213 365.774 45.3145 367.075 45.3145C368.212 45.3145 369.103 45.7451 369.747 46.6064C370.397 47.4678 370.723 48.6631 370.723 50.1924V50.3418ZM369.668 50.1572C369.668 48.9443 369.419 47.9863 368.921 47.2832C368.423 46.5801 367.729 46.2285 366.838 46.2285C366.193 46.2285 365.64 46.3838 365.177 46.6943C364.714 47.0049 364.359 47.4561 364.113 48.0479V52.6094C364.365 53.1543 364.726 53.5703 365.194 53.8574C365.663 54.1445 366.217 54.2881 366.855 54.2881C367.74 54.2881 368.429 53.9365 368.921 53.2334C369.419 52.5244 369.668 51.499 369.668 50.1572ZM379.063 55C378.958 54.7012 378.891 54.2588 378.861 53.6729C378.492 54.1533 378.021 54.5254 377.446 54.7891C376.878 55.0469 376.274 55.1758 375.636 55.1758C374.722 55.1758 373.98 54.9209 373.412 54.4111C372.85 53.9014 372.568 53.2568 372.568 52.4775C372.568 51.5518 372.952 50.8193 373.72 50.2803C374.493 49.7412 375.568 49.4717 376.945 49.4717H378.853V48.3906C378.853 47.7109 378.642 47.1777 378.22 46.791C377.804 46.3984 377.194 46.2021 376.392 46.2021C375.659 46.2021 375.053 46.3896 374.572 46.7646C374.092 47.1396 373.852 47.5908 373.852 48.1182L372.797 48.1094C372.797 47.3535 373.148 46.7002 373.852 46.1494C374.555 45.5928 375.419 45.3145 376.444 45.3145C377.505 45.3145 378.34 45.5811 378.949 46.1143C379.564 46.6416 379.881 47.3799 379.898 48.3291V52.8291C379.898 53.749 379.995 54.4375 380.188 54.8945V55H379.063ZM375.759 54.2441C376.462 54.2441 377.089 54.0742 377.64 53.7344C378.196 53.3945 378.601 52.9404 378.853 52.3721V50.2803H376.972C375.923 50.292 375.103 50.4854 374.511 50.8604C373.919 51.2295 373.623 51.7393 373.623 52.3896C373.623 52.9229 373.819 53.3652 374.212 53.7168C374.61 54.0684 375.126 54.2441 375.759 54.2441ZM387.105 46.3867C386.883 46.3457 386.646 46.3252 386.394 46.3252C385.737 46.3252 385.181 46.5098 384.724 46.8789C384.272 47.2422 383.95 47.7725 383.757 48.4697V55H382.711V45.4902H383.739L383.757 47.002C384.313 45.877 385.207 45.3145 386.438 45.3145C386.73 45.3145 386.962 45.3525 387.132 45.4287L387.105 46.3867ZM392.282 55.1758C391.474 55.1758 390.741 54.9766 390.085 54.5781C389.435 54.1797 388.928 53.626 388.564 52.917C388.201 52.2021 388.02 51.4023 388.02 50.5176V50.1396C388.02 49.2256 388.195 48.4023 388.547 47.6699C388.904 46.9375 389.399 46.3633 390.032 45.9473C390.665 45.5254 391.351 45.3145 392.089 45.3145C393.243 45.3145 394.157 45.71 394.831 46.501C395.511 47.2861 395.851 48.3613 395.851 49.7266V50.3154H389.065V50.5176C389.065 51.5957 389.373 52.4951 389.988 53.2158C390.609 53.9307 391.389 54.2881 392.326 54.2881C392.889 54.2881 393.384 54.1855 393.812 53.9805C394.245 53.7754 394.638 53.4473 394.989 52.9961L395.648 53.4971C394.875 54.6162 393.753 55.1758 392.282 55.1758ZM392.089 46.2109C391.298 46.2109 390.63 46.501 390.085 47.0811C389.546 47.6611 389.218 48.4404 389.101 49.4189H394.805V49.3047C394.775 48.3906 394.515 47.6465 394.022 47.0723C393.53 46.498 392.886 46.2109 392.089 46.2109ZM397.477 50.1572C397.477 48.6807 397.805 47.5059 398.461 46.6328C399.123 45.7539 400.02 45.3145 401.15 45.3145C402.434 45.3145 403.412 45.8213 404.086 46.835V41.5H405.132V55H404.147L404.104 53.7344C403.43 54.6953 402.439 55.1758 401.133 55.1758C400.037 55.1758 399.152 54.7363 398.479 53.8574C397.811 52.9727 397.477 51.7803 397.477 50.2803V50.1572ZM398.54 50.3418C398.54 51.5547 398.783 52.5127 399.27 53.2158C399.756 53.9131 400.441 54.2617 401.326 54.2617C402.621 54.2617 403.541 53.6904 404.086 52.5479V48.083C403.541 46.8467 402.627 46.2285 401.344 46.2285C400.459 46.2285 399.771 46.5771 399.278 47.2744C398.786 47.9658 398.54 48.9883 398.54 50.3418ZM413.912 43.0557V45.4902H415.881V46.3516H413.912V52.6885C413.912 53.2158 414.006 53.6084 414.193 53.8662C414.387 54.124 414.706 54.2529 415.151 54.2529C415.327 54.2529 415.611 54.2236 416.004 54.165L416.048 55.0264C415.772 55.126 415.397 55.1758 414.923 55.1758C414.202 55.1758 413.678 54.9678 413.35 54.5518C413.021 54.1299 412.857 53.5117 412.857 52.6973V46.3516H411.108V45.4902H412.857V43.0557H413.912ZM417.305 50.1045C417.305 49.1904 417.48 48.3672 417.832 47.6348C418.189 46.9023 418.69 46.334 419.335 45.9297C419.985 45.5195 420.721 45.3145 421.541 45.3145C422.807 45.3145 423.832 45.7598 424.617 46.6504C425.402 47.5352 425.795 48.71 425.795 50.1748V50.3945C425.795 51.3145 425.616 52.1436 425.259 52.8818C424.907 53.6143 424.409 54.1797 423.765 54.5781C423.12 54.9766 422.385 55.1758 421.559 55.1758C420.299 55.1758 419.273 54.7334 418.482 53.8486C417.697 52.958 417.305 51.7803 417.305 50.3154V50.1045ZM418.359 50.3945C418.359 51.5312 418.652 52.4658 419.238 53.1982C419.83 53.9248 420.604 54.2881 421.559 54.2881C422.508 54.2881 423.275 53.9248 423.861 53.1982C424.453 52.4658 424.749 51.502 424.749 50.3066V50.1045C424.749 49.3779 424.614 48.7129 424.345 48.1094C424.075 47.5059 423.697 47.04 423.211 46.7119C422.725 46.3779 422.168 46.2109 421.541 46.2109C420.604 46.2109 419.839 46.5801 419.247 47.3184C418.655 48.0508 418.359 49.0117 418.359 50.2012V50.3945ZM115.066 73.583C115.066 73.0615 114.855 72.6426 114.434 72.3262C114.018 72.0098 113.388 71.7637 112.544 71.5879C111.7 71.4062 111.044 71.2012 110.575 70.9727C110.112 70.7383 109.767 70.4541 109.538 70.1201C109.315 69.7861 109.204 69.3818 109.204 68.9072C109.204 68.1572 109.518 67.5391 110.145 67.0527C110.771 66.5605 111.574 66.3145 112.553 66.3145C113.613 66.3145 114.463 66.5781 115.102 67.1055C115.746 67.627 116.068 68.3096 116.068 69.1533H115.014C115.014 68.5967 114.779 68.1338 114.311 67.7646C113.848 67.3955 113.262 67.2109 112.553 67.2109C111.861 67.2109 111.305 67.3662 110.883 67.6768C110.467 67.9814 110.259 68.3799 110.259 68.8721C110.259 69.3467 110.432 69.7158 110.777 69.9795C111.129 70.2373 111.765 70.4746 112.685 70.6914C113.61 70.9082 114.302 71.1396 114.759 71.3857C115.222 71.6318 115.564 71.9277 115.787 72.2734C116.01 72.6191 116.121 73.0381 116.121 73.5303C116.121 74.333 115.796 74.9746 115.146 75.4551C114.501 75.9355 113.657 76.1758 112.614 76.1758C111.507 76.1758 110.607 75.9092 109.916 75.376C109.23 74.8369 108.888 74.1572 108.888 73.3369H109.942C109.983 73.9521 110.241 74.4326 110.716 74.7783C111.196 75.1182 111.829 75.2881 112.614 75.2881C113.347 75.2881 113.938 75.127 114.39 74.8047C114.841 74.4824 115.066 74.0752 115.066 73.583ZM119.672 76H118.617V66.4902H119.672V76ZM118.433 63.7393C118.433 63.54 118.497 63.373 118.626 63.2383C118.755 63.0977 118.931 63.0273 119.153 63.0273C119.376 63.0273 119.552 63.0977 119.681 63.2383C119.815 63.373 119.883 63.54 119.883 63.7393C119.883 63.9385 119.815 64.1055 119.681 64.2402C119.552 64.375 119.376 64.4424 119.153 64.4424C118.931 64.4424 118.755 64.375 118.626 64.2402C118.497 64.1055 118.433 63.9385 118.433 63.7393ZM123.495 66.4902L123.53 68.0371C123.882 67.4629 124.321 67.0322 124.849 66.7451C125.376 66.458 125.962 66.3145 126.606 66.3145C128.106 66.3145 129.059 66.9297 129.463 68.1602C129.803 67.5684 130.257 67.1143 130.825 66.7979C131.394 66.4756 132.021 66.3145 132.706 66.3145C134.745 66.3145 135.785 67.4277 135.826 69.6543V76H134.771V69.7334C134.766 68.8838 134.581 68.2539 134.218 67.8438C133.86 67.4336 133.274 67.2285 132.46 67.2285C131.704 67.2402 131.065 67.4863 130.544 67.9668C130.022 68.4414 129.732 69.0215 129.674 69.707V76H128.619V69.6543C128.613 68.8398 128.42 68.2334 128.039 67.835C127.664 67.4307 127.084 67.2285 126.299 67.2285C125.637 67.2285 125.068 67.4189 124.594 67.7998C124.119 68.1748 123.768 68.7344 123.539 69.4785V76H122.484V66.4902H123.495ZM139.676 76H138.621V66.4902H139.676V76ZM138.437 63.7393C138.437 63.54 138.501 63.373 138.63 63.2383C138.759 63.0977 138.935 63.0273 139.157 63.0273C139.38 63.0273 139.556 63.0977 139.685 63.2383C139.819 63.373 139.887 63.54 139.887 63.7393C139.887 63.9385 139.819 64.1055 139.685 64.2402C139.556 64.375 139.38 64.4424 139.157 64.4424C138.935 64.4424 138.759 64.375 138.63 64.2402C138.501 64.1055 138.437 63.9385 138.437 63.7393ZM143.719 76H142.664V62.5H143.719V76ZM152.587 76C152.481 75.7012 152.414 75.2588 152.385 74.6729C152.016 75.1533 151.544 75.5254 150.97 75.7891C150.401 76.0469 149.798 76.1758 149.159 76.1758C148.245 76.1758 147.504 75.9209 146.936 75.4111C146.373 74.9014 146.092 74.2568 146.092 73.4775C146.092 72.5518 146.476 71.8193 147.243 71.2803C148.017 70.7412 149.092 70.4717 150.469 70.4717H152.376V69.3906C152.376 68.7109 152.165 68.1777 151.743 67.791C151.327 67.3984 150.718 67.2021 149.915 67.2021C149.183 67.2021 148.576 67.3896 148.096 67.7646C147.615 68.1396 147.375 68.5908 147.375 69.1182L146.32 69.1094C146.32 68.3535 146.672 67.7002 147.375 67.1494C148.078 66.5928 148.942 66.3145 149.968 66.3145C151.028 66.3145 151.863 66.5811 152.473 67.1143C153.088 67.6416 153.404 68.3799 153.422 69.3291V73.8291C153.422 74.749 153.519 75.4375 153.712 75.8945V76H152.587ZM149.282 75.2441C149.985 75.2441 150.612 75.0742 151.163 74.7344C151.72 74.3945 152.124 73.9404 152.376 73.3721V71.2803H150.495C149.446 71.292 148.626 71.4854 148.034 71.8604C147.442 72.2295 147.146 72.7393 147.146 73.3896C147.146 73.9229 147.343 74.3652 147.735 74.7168C148.134 75.0684 148.649 75.2441 149.282 75.2441ZM160.629 67.3867C160.406 67.3457 160.169 67.3252 159.917 67.3252C159.261 67.3252 158.704 67.5098 158.247 67.8789C157.796 68.2422 157.474 68.7725 157.28 69.4697V76H156.234V66.4902H157.263L157.28 68.002C157.837 66.877 158.73 66.3145 159.961 66.3145C160.254 66.3145 160.485 66.3525 160.655 66.4287L160.629 67.3867ZM170.191 75.2881C170.924 75.2881 171.536 75.083 172.028 74.6729C172.526 74.2568 172.796 73.7207 172.837 73.0645H173.848C173.818 73.6445 173.637 74.1748 173.303 74.6553C172.969 75.1299 172.523 75.502 171.967 75.7715C171.416 76.041 170.824 76.1758 170.191 76.1758C168.943 76.1758 167.953 75.7422 167.221 74.875C166.494 74.0078 166.131 72.8418 166.131 71.377V71.0605C166.131 70.123 166.295 69.2939 166.623 68.5732C166.951 67.8525 167.42 67.2959 168.029 66.9033C168.645 66.5107 169.362 66.3145 170.183 66.3145C171.226 66.3145 172.084 66.625 172.758 67.2461C173.438 67.8672 173.801 68.6846 173.848 69.6982H172.837C172.79 68.9541 172.521 68.3535 172.028 67.8965C171.542 67.4395 170.927 67.2109 170.183 67.2109C169.233 67.2109 168.495 67.5537 167.968 68.2393C167.446 68.9248 167.186 69.8857 167.186 71.1221V71.4297C167.186 72.6426 167.446 73.5889 167.968 74.2686C168.495 74.9482 169.236 75.2881 170.191 75.2881ZM175.377 71.1045C175.377 70.1904 175.553 69.3672 175.904 68.6348C176.262 67.9023 176.763 67.334 177.407 66.9297C178.058 66.5195 178.793 66.3145 179.613 66.3145C180.879 66.3145 181.904 66.7598 182.689 67.6504C183.475 68.5352 183.867 69.71 183.867 71.1748V71.3945C183.867 72.3145 183.688 73.1436 183.331 73.8818C182.979 74.6143 182.481 75.1797 181.837 75.5781C181.192 75.9766 180.457 76.1758 179.631 76.1758C178.371 76.1758 177.346 75.7334 176.555 74.8486C175.77 73.958 175.377 72.7803 175.377 71.3154V71.1045ZM176.432 71.3945C176.432 72.5312 176.725 73.4658 177.311 74.1982C177.902 74.9248 178.676 75.2881 179.631 75.2881C180.58 75.2881 181.348 74.9248 181.934 74.1982C182.525 73.4658 182.821 72.502 182.821 71.3066V71.1045C182.821 70.3779 182.687 69.7129 182.417 69.1094C182.147 68.5059 181.77 68.04 181.283 67.7119C180.797 67.3779 180.24 67.2109 179.613 67.2109C178.676 67.2109 177.911 67.5801 177.319 68.3184C176.728 69.0508 176.432 70.0117 176.432 71.2012V71.3945ZM187.005 66.4902L187.04 68.0371C187.392 67.4629 187.831 67.0322 188.358 66.7451C188.886 66.458 189.472 66.3145 190.116 66.3145C191.616 66.3145 192.568 66.9297 192.973 68.1602C193.312 67.5684 193.767 67.1143 194.335 66.7979C194.903 66.4756 195.53 66.3145 196.216 66.3145C198.255 66.3145 199.295 67.4277 199.336 69.6543V76H198.281V69.7334C198.275 68.8838 198.091 68.2539 197.728 67.8438C197.37 67.4336 196.784 67.2285 195.97 67.2285C195.214 67.2402 194.575 67.4863 194.054 67.9668C193.532 68.4414 193.242 69.0215 193.184 69.707V76H192.129V69.6543C192.123 68.8398 191.93 68.2334 191.549 67.835C191.174 67.4307 190.594 67.2285 189.809 67.2285C189.146 67.2285 188.578 67.4189 188.104 67.7998C187.629 68.1748 187.277 68.7344 187.049 69.4785V76H185.994V66.4902H187.005ZM209.654 71.3418C209.654 72.8242 209.326 74.002 208.67 74.875C208.014 75.7422 207.135 76.1758 206.033 76.1758C204.732 76.1758 203.736 75.7188 203.045 74.8047V79.6562H201.999V66.4902H202.975L203.027 67.835C203.713 66.8213 204.706 66.3145 206.007 66.3145C207.144 66.3145 208.034 66.7451 208.679 67.6064C209.329 68.4678 209.654 69.6631 209.654 71.1924V71.3418ZM208.6 71.1572C208.6 69.9443 208.351 68.9863 207.853 68.2832C207.354 67.5801 206.66 67.2285 205.77 67.2285C205.125 67.2285 204.571 67.3838 204.108 67.6943C203.646 68.0049 203.291 68.4561 203.045 69.0479V73.6094C203.297 74.1543 203.657 74.5703 204.126 74.8574C204.595 75.1445 205.148 75.2881 205.787 75.2881C206.672 75.2881 207.36 74.9365 207.853 74.2334C208.351 73.5244 208.6 72.499 208.6 71.1572ZM217.995 76C217.89 75.7012 217.822 75.2588 217.793 74.6729C217.424 75.1533 216.952 75.5254 216.378 75.7891C215.81 76.0469 215.206 76.1758 214.567 76.1758C213.653 76.1758 212.912 75.9209 212.344 75.4111C211.781 74.9014 211.5 74.2568 211.5 73.4775C211.5 72.5518 211.884 71.8193 212.651 71.2803C213.425 70.7412 214.5 70.4717 215.877 70.4717H217.784V69.3906C217.784 68.7109 217.573 68.1777 217.151 67.791C216.735 67.3984 216.126 67.2021 215.323 67.2021C214.591 67.2021 213.984 67.3896 213.504 67.7646C213.023 68.1396 212.783 68.5908 212.783 69.1182L211.729 69.1094C211.729 68.3535 212.08 67.7002 212.783 67.1494C213.486 66.5928 214.351 66.3145 215.376 66.3145C216.437 66.3145 217.271 66.5811 217.881 67.1143C218.496 67.6416 218.812 68.3799 218.83 69.3291V73.8291C218.83 74.749 218.927 75.4375 219.12 75.8945V76H217.995ZM214.69 75.2441C215.394 75.2441 216.021 75.0742 216.571 74.7344C217.128 74.3945 217.532 73.9404 217.784 73.3721V71.2803H215.903C214.854 71.292 214.034 71.4854 213.442 71.8604C212.851 72.2295 212.555 72.7393 212.555 73.3896C212.555 73.9229 212.751 74.3652 213.144 74.7168C213.542 75.0684 214.058 75.2441 214.69 75.2441ZM222.645 66.4902L222.68 68.1162C223.037 67.5303 223.482 67.085 224.016 66.7803C224.549 66.4697 225.138 66.3145 225.782 66.3145C226.802 66.3145 227.561 66.6016 228.059 67.1758C228.557 67.75 228.809 68.6113 228.814 69.7598V76H227.769V69.751C227.763 68.9014 227.581 68.2686 227.224 67.8525C226.872 67.4365 226.307 67.2285 225.527 67.2285C224.877 67.2285 224.3 67.4336 223.796 67.8438C223.298 68.248 222.929 68.7959 222.688 69.4873V76H221.643V66.4902H222.645ZM232.717 76H231.662V66.4902H232.717V76ZM231.478 63.7393C231.478 63.54 231.542 63.373 231.671 63.2383C231.8 63.0977 231.976 63.0273 232.198 63.0273C232.421 63.0273 232.597 63.0977 232.726 63.2383C232.86 63.373 232.928 63.54 232.928 63.7393C232.928 63.9385 232.86 64.1055 232.726 64.2402C232.597 64.375 232.421 64.4424 232.198 64.4424C231.976 64.4424 231.8 64.375 231.671 64.2402C231.542 64.1055 231.478 63.9385 231.478 63.7393ZM239.265 76.1758C238.456 76.1758 237.724 75.9766 237.067 75.5781C236.417 75.1797 235.91 74.626 235.547 73.917C235.184 73.2021 235.002 72.4023 235.002 71.5176V71.1396C235.002 70.2256 235.178 69.4023 235.529 68.6699C235.887 67.9375 236.382 67.3633 237.015 66.9473C237.647 66.5254 238.333 66.3145 239.071 66.3145C240.226 66.3145 241.14 66.71 241.813 67.501C242.493 68.2861 242.833 69.3613 242.833 70.7266V71.3154H236.048V71.5176C236.048 72.5957 236.355 73.4951 236.971 74.2158C237.592 74.9307 238.371 75.2881 239.309 75.2881C239.871 75.2881 240.366 75.1855 240.794 74.9805C241.228 74.7754 241.62 74.4473 241.972 73.9961L242.631 74.4971C241.857 75.6162 240.735 76.1758 239.265 76.1758ZM239.071 67.2109C238.28 67.2109 237.612 67.501 237.067 68.0811C236.528 68.6611 236.2 69.4404 236.083 70.4189H241.787V70.3047C241.758 69.3906 241.497 68.6465 241.005 68.0723C240.513 67.498 239.868 67.2109 239.071 67.2109ZM250.576 73.583C250.576 73.0615 250.365 72.6426 249.943 72.3262C249.527 72.0098 248.897 71.7637 248.054 71.5879C247.21 71.4062 246.554 71.2012 246.085 70.9727C245.622 70.7383 245.276 70.4541 245.048 70.1201C244.825 69.7861 244.714 69.3818 244.714 68.9072C244.714 68.1572 245.027 67.5391 245.654 67.0527C246.281 66.5605 247.084 66.3145 248.062 66.3145C249.123 66.3145 249.973 66.5781 250.611 67.1055C251.256 67.627 251.578 68.3096 251.578 69.1533H250.523C250.523 68.5967 250.289 68.1338 249.82 67.7646C249.357 67.3955 248.771 67.2109 248.062 67.2109C247.371 67.2109 246.814 67.3662 246.393 67.6768C245.977 67.9814 245.769 68.3799 245.769 68.8721C245.769 69.3467 245.941 69.7158 246.287 69.9795C246.639 70.2373 247.274 70.4746 248.194 70.6914C249.12 70.9082 249.812 71.1396 250.269 71.3857C250.731 71.6318 251.074 71.9277 251.297 72.2734C251.52 72.6191 251.631 73.0381 251.631 73.5303C251.631 74.333 251.306 74.9746 250.655 75.4551C250.011 75.9355 249.167 76.1758 248.124 76.1758C247.017 76.1758 246.117 75.9092 245.426 75.376C244.74 74.8369 244.397 74.1572 244.397 73.3369H245.452C245.493 73.9521 245.751 74.4326 246.226 74.7783C246.706 75.1182 247.339 75.2881 248.124 75.2881C248.856 75.2881 249.448 75.127 249.899 74.8047C250.351 74.4824 250.576 74.0752 250.576 73.583ZM253.907 75.3672C253.907 75.1621 253.972 74.9893 254.101 74.8486C254.235 74.7021 254.42 74.6289 254.654 74.6289C254.889 74.6289 255.073 74.7021 255.208 74.8486C255.343 74.9893 255.41 75.1621 255.41 75.3672C255.41 75.5723 255.343 75.7422 255.208 75.877C255.073 76.0059 254.889 76.0703 254.654 76.0703C254.42 76.0703 254.235 76.0059 254.101 75.877C253.972 75.7422 253.907 75.5723 253.907 75.3672ZM272.171 74.4795C271.796 75.0127 271.207 75.4287 270.404 75.7275C269.607 76.0264 268.714 76.1758 267.724 76.1758C266.722 76.1758 265.831 75.9355 265.052 75.4551C264.272 74.9746 263.669 74.2949 263.241 73.416C262.813 72.5371 262.597 71.5293 262.591 70.3926V68.7754C262.591 67 263.039 65.5996 263.936 64.5742C264.832 63.543 266.036 63.0273 267.548 63.0273C268.866 63.0273 269.927 63.3643 270.729 64.0381C271.532 64.7061 272.01 65.6289 272.162 66.8066H271.081C270.923 65.8691 270.539 65.1602 269.93 64.6797C269.326 64.1934 268.535 63.9502 267.557 63.9502C266.361 63.9502 265.415 64.375 264.718 65.2246C264.021 66.0742 263.672 67.2725 263.672 68.8193V70.3311C263.672 71.3037 263.836 72.165 264.164 72.915C264.498 73.6592 264.973 74.2363 265.588 74.6465C266.209 75.0566 266.921 75.2617 267.724 75.2617C268.655 75.2617 269.455 75.1152 270.123 74.8223C270.557 74.6289 270.879 74.4033 271.09 74.1455V70.8408H267.653V69.9268H272.171V74.4795ZM279.387 67.3867C279.164 67.3457 278.927 67.3252 278.675 67.3252C278.019 67.3252 277.462 67.5098 277.005 67.8789C276.554 68.2422 276.231 68.7725 276.038 69.4697V76H274.992V66.4902H276.021L276.038 68.002C276.595 66.877 277.488 66.3145 278.719 66.3145C279.012 66.3145 279.243 66.3525 279.413 66.4287L279.387 67.3867ZM284.563 76.1758C283.755 76.1758 283.022 75.9766 282.366 75.5781C281.716 75.1797 281.209 74.626 280.846 73.917C280.482 73.2021 280.301 72.4023 280.301 71.5176V71.1396C280.301 70.2256 280.477 69.4023 280.828 68.6699C281.186 67.9375 281.681 67.3633 282.313 66.9473C282.946 66.5254 283.632 66.3145 284.37 66.3145C285.524 66.3145 286.438 66.71 287.112 67.501C287.792 68.2861 288.132 69.3613 288.132 70.7266V71.3154H281.347V71.5176C281.347 72.5957 281.654 73.4951 282.27 74.2158C282.891 74.9307 283.67 75.2881 284.607 75.2881C285.17 75.2881 285.665 75.1855 286.093 74.9805C286.526 74.7754 286.919 74.4473 287.271 73.9961L287.93 74.4971C287.156 75.6162 286.034 76.1758 284.563 76.1758ZM284.37 67.2109C283.579 67.2109 282.911 67.501 282.366 68.0811C281.827 68.6611 281.499 69.4404 281.382 70.4189H287.086V70.3047C287.057 69.3906 286.796 68.6465 286.304 68.0723C285.812 67.498 285.167 67.2109 284.37 67.2109ZM296.183 76C296.077 75.7012 296.01 75.2588 295.98 74.6729C295.611 75.1533 295.14 75.5254 294.565 75.7891C293.997 76.0469 293.394 76.1758 292.755 76.1758C291.841 76.1758 291.1 75.9209 290.531 75.4111C289.969 74.9014 289.688 74.2568 289.688 73.4775C289.688 72.5518 290.071 71.8193 290.839 71.2803C291.612 70.7412 292.688 70.4717 294.064 70.4717H295.972V69.3906C295.972 68.7109 295.761 68.1777 295.339 67.791C294.923 67.3984 294.313 67.2021 293.511 67.2021C292.778 67.2021 292.172 67.3896 291.691 67.7646C291.211 68.1396 290.971 68.5908 290.971 69.1182L289.916 69.1094C289.916 68.3535 290.268 67.7002 290.971 67.1494C291.674 66.5928 292.538 66.3145 293.563 66.3145C294.624 66.3145 295.459 66.5811 296.068 67.1143C296.684 67.6416 297 68.3799 297.018 69.3291V73.8291C297.018 74.749 297.114 75.4375 297.308 75.8945V76H296.183ZM292.878 75.2441C293.581 75.2441 294.208 75.0742 294.759 74.7344C295.315 74.3945 295.72 73.9404 295.972 73.3721V71.2803H294.091C293.042 71.292 292.222 71.4854 291.63 71.8604C291.038 72.2295 290.742 72.7393 290.742 73.3896C290.742 73.9229 290.938 74.3652 291.331 74.7168C291.729 75.0684 292.245 75.2441 292.878 75.2441ZM301.465 64.0557V66.4902H303.434V67.3516H301.465V73.6885C301.465 74.2158 301.559 74.6084 301.746 74.8662C301.939 75.124 302.259 75.2529 302.704 75.2529C302.88 75.2529 303.164 75.2236 303.557 75.165L303.601 76.0264C303.325 76.126 302.95 76.1758 302.476 76.1758C301.755 76.1758 301.23 75.9678 300.902 75.5518C300.574 75.1299 300.41 74.5117 300.41 73.6973V67.3516H298.661V66.4902H300.41V64.0557H301.465ZM311.124 66.4902V77.1338C311.124 78.0127 310.913 78.6836 310.491 79.1465C310.069 79.6094 309.448 79.8408 308.628 79.8408C308.312 79.8408 308.004 79.7852 307.705 79.6738L307.723 78.8037C307.98 78.8799 308.244 78.918 308.514 78.918C309.557 78.918 310.078 78.3174 310.078 77.1162V66.4902H311.124ZM310.605 63.0273C310.834 63.0273 311.013 63.0977 311.142 63.2383C311.271 63.373 311.335 63.54 311.335 63.7393C311.335 63.9385 311.271 64.1055 311.142 64.2402C311.013 64.375 310.834 64.4424 310.605 64.4424C310.383 64.4424 310.207 64.375 310.078 64.2402C309.955 64.1055 309.894 63.9385 309.894 63.7393C309.894 63.54 309.955 63.373 310.078 63.2383C310.207 63.0977 310.383 63.0273 310.605 63.0273ZM313.523 71.1045C313.523 70.1904 313.699 69.3672 314.051 68.6348C314.408 67.9023 314.909 67.334 315.554 66.9297C316.204 66.5195 316.939 66.3145 317.76 66.3145C319.025 66.3145 320.051 66.7598 320.836 67.6504C321.621 68.5352 322.014 69.71 322.014 71.1748V71.3945C322.014 72.3145 321.835 73.1436 321.478 73.8818C321.126 74.6143 320.628 75.1797 319.983 75.5781C319.339 75.9766 318.604 76.1758 317.777 76.1758C316.518 76.1758 315.492 75.7334 314.701 74.8486C313.916 73.958 313.523 72.7803 313.523 71.3154V71.1045ZM314.578 71.3945C314.578 72.5312 314.871 73.4658 315.457 74.1982C316.049 74.9248 316.822 75.2881 317.777 75.2881C318.727 75.2881 319.494 74.9248 320.08 74.1982C320.672 73.4658 320.968 72.502 320.968 71.3066V71.1045C320.968 70.3779 320.833 69.7129 320.563 69.1094C320.294 68.5059 319.916 68.04 319.43 67.7119C318.943 67.3779 318.387 67.2109 317.76 67.2109C316.822 67.2109 316.058 67.5801 315.466 68.3184C314.874 69.0508 314.578 70.0117 314.578 71.2012V71.3945ZM331.849 71.3418C331.849 72.8242 331.521 74.002 330.864 74.875C330.208 75.7422 329.326 76.1758 328.219 76.1758C326.895 76.1758 325.893 75.6836 325.213 74.6992L325.169 76H324.185V62.5H325.23V67.8701C325.898 66.833 326.889 66.3145 328.201 66.3145C329.326 66.3145 330.214 66.7451 330.864 67.6064C331.521 68.4619 331.849 69.6543 331.849 71.1836V71.3418ZM330.794 71.1572C330.794 69.9033 330.551 68.9365 330.064 68.2568C329.578 67.5713 328.893 67.2285 328.008 67.2285C327.334 67.2285 326.763 67.3955 326.294 67.7295C325.825 68.0576 325.471 68.541 325.23 69.1797V73.4688C325.758 74.6641 326.689 75.2617 328.025 75.2617C328.893 75.2617 329.569 74.9189 330.056 74.2334C330.548 73.5479 330.794 72.5225 330.794 71.1572ZM335.303 72.4404H334.327L334.274 63.2031H335.364L335.303 72.4404ZM334.151 75.3848C334.151 75.1855 334.216 75.0186 334.345 74.8838C334.474 74.7432 334.649 74.6729 334.872 74.6729C335.095 74.6729 335.271 74.7432 335.399 74.8838C335.534 75.0186 335.602 75.1855 335.602 75.3848C335.602 75.5781 335.534 75.7422 335.399 75.877C335.271 76.0059 335.095 76.0703 334.872 76.0703C334.649 76.0703 334.474 76.0059 334.345 75.877C334.216 75.7422 334.151 75.5781 334.151 75.3848Z" fill="#212121"/>
</svg>
