<svg width="319" height="319" viewBox="0 0 319 319" fill="none" xmlns="http://www.w3.org/2000/svg">
<circle cx="159.5" cy="159.5" r="159.5" fill="#E91E63"/>
<rect x="51.25" y="26.25" width="217.5" height="269.5" rx="19.75" fill="white" stroke="#949090" stroke-width="0.5"/>
<path d="M91.1094 84.9219H86.4375V88.4219H91.8984V90H84.4609V78.625H91.8438V80.2188H86.4375V83.3594H91.1094V84.9219ZM92.8125 85.7109C92.8125 84.4089 93.1146 83.3646 93.7188 82.5781C94.3229 81.7865 95.1328 81.3906 96.1484 81.3906C97.0443 81.3906 97.7682 81.7031 98.3203 82.3281V78H100.219V90H98.5L98.4062 89.125C97.8385 89.8125 97.0807 90.1562 96.1328 90.1562C95.1432 90.1562 94.3411 89.7578 93.7266 88.9609C93.1172 88.1641 92.8125 87.0807 92.8125 85.7109ZM94.7109 85.875C94.7109 86.7344 94.875 87.4062 95.2031 87.8906C95.5365 88.3698 96.0078 88.6094 96.6172 88.6094C97.3932 88.6094 97.9609 88.263 98.3203 87.5703V83.9609C97.9714 83.2839 97.4089 82.9453 96.6328 82.9453C96.0182 82.9453 95.5443 83.1901 95.2109 83.6797C94.8776 84.1641 94.7109 84.8958 94.7109 85.875ZM107.32 89.1719C106.763 89.8281 105.971 90.1562 104.945 90.1562C104.029 90.1562 103.333 89.888 102.859 89.3516C102.391 88.8151 102.156 88.0391 102.156 87.0234V81.5469H104.055V87C104.055 88.0729 104.5 88.6094 105.391 88.6094C106.312 88.6094 106.935 88.2786 107.258 87.6172V81.5469H109.156V90H107.367L107.32 89.1719ZM114.562 88.6406C115.036 88.6406 115.43 88.5026 115.742 88.2266C116.055 87.9505 116.221 87.6094 116.242 87.2031H118.031C118.01 87.7292 117.846 88.2214 117.539 88.6797C117.232 89.1328 116.815 89.4922 116.289 89.7578C115.763 90.0234 115.195 90.1562 114.586 90.1562C113.404 90.1562 112.466 89.7734 111.773 89.0078C111.081 88.2422 110.734 87.1849 110.734 85.8359V85.6406C110.734 84.3542 111.078 83.3255 111.766 82.5547C112.453 81.7786 113.391 81.3906 114.578 81.3906C115.583 81.3906 116.401 81.6849 117.031 82.2734C117.667 82.8568 118 83.625 118.031 84.5781H116.242C116.221 84.0938 116.055 83.6953 115.742 83.3828C115.435 83.0703 115.042 82.9141 114.562 82.9141C113.948 82.9141 113.474 83.138 113.141 83.5859C112.807 84.0286 112.638 84.7031 112.633 85.6094V85.9141C112.633 86.8307 112.797 87.5156 113.125 87.9688C113.458 88.4167 113.938 88.6406 114.562 88.6406ZM124.516 90C124.432 89.8385 124.359 89.5755 124.297 89.2109C123.693 89.8411 122.953 90.1562 122.078 90.1562C121.229 90.1562 120.536 89.9141 120 89.4297C119.464 88.9453 119.195 88.3464 119.195 87.6328C119.195 86.7318 119.529 86.0417 120.195 85.5625C120.867 85.0781 121.826 84.8359 123.07 84.8359H124.234V84.2812C124.234 83.8438 124.112 83.4948 123.867 83.2344C123.622 82.9688 123.25 82.8359 122.75 82.8359C122.318 82.8359 121.964 82.9453 121.688 83.1641C121.411 83.3776 121.273 83.651 121.273 83.9844H119.375C119.375 83.5208 119.529 83.0885 119.836 82.6875C120.143 82.2812 120.56 81.9635 121.086 81.7344C121.617 81.5052 122.208 81.3906 122.859 81.3906C123.849 81.3906 124.638 81.6406 125.227 82.1406C125.815 82.6354 126.117 83.3333 126.133 84.2344V88.0469C126.133 88.8073 126.24 89.4141 126.453 89.8672V90H124.516ZM122.43 88.6328C122.805 88.6328 123.156 88.5417 123.484 88.3594C123.818 88.1771 124.068 87.9323 124.234 87.625V86.0312H123.211C122.508 86.0312 121.979 86.1536 121.625 86.3984C121.271 86.6432 121.094 86.9896 121.094 87.4375C121.094 87.8021 121.214 88.0938 121.453 88.3125C121.698 88.526 122.023 88.6328 122.43 88.6328ZM130.5 79.4922V81.5469H131.992V82.9531H130.5V87.6719C130.5 87.9948 130.562 88.2292 130.688 88.375C130.818 88.5156 131.047 88.5859 131.375 88.5859C131.594 88.5859 131.815 88.5599 132.039 88.5078V89.9766C131.607 90.0964 131.19 90.1562 130.789 90.1562C129.331 90.1562 128.602 89.3516 128.602 87.7422V82.9531H127.211V81.5469H128.602V79.4922H130.5ZM135.469 90H133.57V81.5469H135.469V90ZM133.453 79.3516C133.453 79.0599 133.544 78.8177 133.727 78.625C133.914 78.4323 134.18 78.3359 134.523 78.3359C134.867 78.3359 135.133 78.4323 135.32 78.625C135.508 78.8177 135.602 79.0599 135.602 79.3516C135.602 79.638 135.508 79.8776 135.32 80.0703C135.133 80.2578 134.867 80.3516 134.523 80.3516C134.18 80.3516 133.914 80.2578 133.727 80.0703C133.544 79.8776 133.453 79.638 133.453 79.3516ZM137.188 85.6953C137.188 84.8672 137.352 84.1224 137.68 83.4609C138.008 82.7943 138.469 82.2839 139.062 81.9297C139.656 81.5703 140.339 81.3906 141.109 81.3906C142.25 81.3906 143.174 81.7578 143.883 82.4922C144.596 83.2266 144.982 84.2005 145.039 85.4141L145.047 85.8594C145.047 86.6927 144.885 87.4375 144.562 88.0938C144.245 88.75 143.786 89.2578 143.188 89.6172C142.594 89.9766 141.906 90.1562 141.125 90.1562C139.932 90.1562 138.977 89.7604 138.258 88.9688C137.544 88.1719 137.188 87.112 137.188 85.7891V85.6953ZM139.086 85.8594C139.086 86.7292 139.266 87.4115 139.625 87.9062C139.984 88.3958 140.484 88.6406 141.125 88.6406C141.766 88.6406 142.263 88.3906 142.617 87.8906C142.977 87.3906 143.156 86.6589 143.156 85.6953C143.156 84.8411 142.971 84.1641 142.602 83.6641C142.237 83.1641 141.74 82.9141 141.109 82.9141C140.49 82.9141 139.997 83.1615 139.633 83.6562C139.268 84.1458 139.086 84.8802 139.086 85.8594ZM148.414 81.5469L148.469 82.5234C149.094 81.7682 149.914 81.3906 150.93 81.3906C152.69 81.3906 153.586 82.3984 153.617 84.4141V90H151.719V84.5234C151.719 83.987 151.602 83.5911 151.367 83.3359C151.138 83.0755 150.76 82.9453 150.234 82.9453C149.469 82.9453 148.898 83.2917 148.523 83.9844V90H146.625V81.5469H148.414ZM160.609 90C160.526 89.8385 160.453 89.5755 160.391 89.2109C159.786 89.8411 159.047 90.1562 158.172 90.1562C157.323 90.1562 156.63 89.9141 156.094 89.4297C155.557 88.9453 155.289 88.3464 155.289 87.6328C155.289 86.7318 155.622 86.0417 156.289 85.5625C156.961 85.0781 157.919 84.8359 159.164 84.8359H160.328V84.2812C160.328 83.8438 160.206 83.4948 159.961 83.2344C159.716 82.9688 159.344 82.8359 158.844 82.8359C158.411 82.8359 158.057 82.9453 157.781 83.1641C157.505 83.3776 157.367 83.651 157.367 83.9844H155.469C155.469 83.5208 155.622 83.0885 155.93 82.6875C156.237 82.2812 156.654 81.9635 157.18 81.7344C157.711 81.5052 158.302 81.3906 158.953 81.3906C159.943 81.3906 160.732 81.6406 161.32 82.1406C161.909 82.6354 162.211 83.3333 162.227 84.2344V88.0469C162.227 88.8073 162.333 89.4141 162.547 89.8672V90H160.609ZM158.523 88.6328C158.898 88.6328 159.25 88.5417 159.578 88.3594C159.911 88.1771 160.161 87.9323 160.328 87.625V86.0312H159.305C158.602 86.0312 158.073 86.1536 157.719 86.3984C157.365 86.6432 157.188 86.9896 157.188 87.4375C157.188 87.8021 157.307 88.0938 157.547 88.3125C157.792 88.526 158.117 88.6328 158.523 88.6328ZM166.234 90H164.336V78H166.234V90ZM178.422 87.0703C178.422 86.5703 178.245 86.1849 177.891 85.9141C177.542 85.6432 176.909 85.3698 175.992 85.0938C175.076 84.8177 174.346 84.5104 173.805 84.1719C172.768 83.5208 172.25 82.6719 172.25 81.625C172.25 80.7083 172.622 79.9531 173.367 79.3594C174.117 78.7656 175.089 78.4688 176.281 78.4688C177.073 78.4688 177.779 78.6146 178.398 78.9062C179.018 79.1979 179.505 79.6146 179.859 80.1562C180.214 80.6927 180.391 81.2891 180.391 81.9453H178.422C178.422 81.3516 178.234 80.888 177.859 80.5547C177.49 80.2161 176.958 80.0469 176.266 80.0469C175.62 80.0469 175.117 80.1849 174.758 80.4609C174.404 80.737 174.227 81.1224 174.227 81.6172C174.227 82.0339 174.419 82.3828 174.805 82.6641C175.19 82.9401 175.826 83.2109 176.711 83.4766C177.596 83.737 178.307 84.0365 178.844 84.375C179.38 84.7083 179.773 85.0938 180.023 85.5312C180.273 85.9635 180.398 86.4714 180.398 87.0547C180.398 88.0026 180.034 88.7578 179.305 89.3203C178.581 89.8776 177.596 90.1562 176.352 90.1562C175.529 90.1562 174.771 90.0052 174.078 89.7031C173.391 89.3958 172.854 88.974 172.469 88.4375C172.089 87.901 171.898 87.276 171.898 86.5625H173.875C173.875 87.2083 174.089 87.7083 174.516 88.0625C174.943 88.4167 175.555 88.5938 176.352 88.5938C177.039 88.5938 177.555 88.4557 177.898 88.1797C178.247 87.8984 178.422 87.5286 178.422 87.0703ZM181.594 85.6953C181.594 84.8672 181.758 84.1224 182.086 83.4609C182.414 82.7943 182.875 82.2839 183.469 81.9297C184.062 81.5703 184.745 81.3906 185.516 81.3906C186.656 81.3906 187.581 81.7578 188.289 82.4922C189.003 83.2266 189.388 84.2005 189.445 85.4141L189.453 85.8594C189.453 86.6927 189.292 87.4375 188.969 88.0938C188.651 88.75 188.193 89.2578 187.594 89.6172C187 89.9766 186.312 90.1562 185.531 90.1562C184.339 90.1562 183.383 89.7604 182.664 88.9688C181.951 88.1719 181.594 87.112 181.594 85.7891V85.6953ZM183.492 85.8594C183.492 86.7292 183.672 87.4115 184.031 87.9062C184.391 88.3958 184.891 88.6406 185.531 88.6406C186.172 88.6406 186.669 88.3906 187.023 87.8906C187.383 87.3906 187.562 86.6589 187.562 85.6953C187.562 84.8411 187.378 84.1641 187.008 83.6641C186.643 83.1641 186.146 82.9141 185.516 82.9141C184.896 82.9141 184.404 83.1615 184.039 83.6562C183.674 84.1458 183.492 84.8802 183.492 85.8594ZM191.727 90V82.9531H190.438V81.5469H191.727V80.7734C191.727 79.8359 191.987 79.112 192.508 78.6016C193.029 78.0911 193.758 77.8359 194.695 77.8359C195.029 77.8359 195.383 77.8828 195.758 77.9766L195.711 79.4609C195.503 79.4193 195.26 79.3984 194.984 79.3984C194.078 79.3984 193.625 79.8646 193.625 80.7969V81.5469H195.344V82.9531H193.625V90H191.727ZM199.109 79.4922V81.5469H200.602V82.9531H199.109V87.6719C199.109 87.9948 199.172 88.2292 199.297 88.375C199.427 88.5156 199.656 88.5859 199.984 88.5859C200.203 88.5859 200.424 88.5599 200.648 88.5078V89.9766C200.216 90.0964 199.799 90.1562 199.398 90.1562C197.94 90.1562 197.211 89.3516 197.211 87.7422V82.9531H195.82V81.5469H197.211V79.4922H199.109ZM209.484 87.3828L210.828 81.5469H212.68L210.375 90H208.812L207 84.1953L205.219 90H203.656L201.344 81.5469H203.195L204.562 87.3203L206.297 81.5469H207.727L209.484 87.3828ZM219 90C218.917 89.8385 218.844 89.5755 218.781 89.2109C218.177 89.8411 217.438 90.1562 216.562 90.1562C215.714 90.1562 215.021 89.9141 214.484 89.4297C213.948 88.9453 213.68 88.3464 213.68 87.6328C213.68 86.7318 214.013 86.0417 214.68 85.5625C215.352 85.0781 216.31 84.8359 217.555 84.8359H218.719V84.2812C218.719 83.8438 218.596 83.4948 218.352 83.2344C218.107 82.9688 217.734 82.8359 217.234 82.8359C216.802 82.8359 216.448 82.9453 216.172 83.1641C215.896 83.3776 215.758 83.651 215.758 83.9844H213.859C213.859 83.5208 214.013 83.0885 214.32 82.6875C214.628 82.2812 215.044 81.9635 215.57 81.7344C216.102 81.5052 216.693 81.3906 217.344 81.3906C218.333 81.3906 219.122 81.6406 219.711 82.1406C220.299 82.6354 220.602 83.3333 220.617 84.2344V88.0469C220.617 88.8073 220.724 89.4141 220.938 89.8672V90H219ZM216.914 88.6328C217.289 88.6328 217.641 88.5417 217.969 88.3594C218.302 88.1771 218.552 87.9323 218.719 87.625V86.0312H217.695C216.992 86.0312 216.464 86.1536 216.109 86.3984C215.755 86.6432 215.578 86.9896 215.578 87.4375C215.578 87.8021 215.698 88.0938 215.938 88.3125C216.182 88.526 216.508 88.6328 216.914 88.6328ZM227.031 83.2812C226.781 83.2396 226.523 83.2188 226.258 83.2188C225.388 83.2188 224.802 83.5521 224.5 84.2188V90H222.602V81.5469H224.414L224.461 82.4922C224.919 81.7578 225.555 81.3906 226.367 81.3906C226.638 81.3906 226.862 81.4271 227.039 81.5L227.031 83.2812ZM231.797 90.1562C230.594 90.1562 229.617 89.7786 228.867 89.0234C228.122 88.263 227.75 87.2526 227.75 85.9922V85.7578C227.75 84.9141 227.911 84.1615 228.234 83.5C228.562 82.8333 229.021 82.3151 229.609 81.9453C230.198 81.5755 230.854 81.3906 231.578 81.3906C232.729 81.3906 233.617 81.7578 234.242 82.4922C234.872 83.2266 235.188 84.2656 235.188 85.6094V86.375H229.664C229.721 87.0729 229.953 87.625 230.359 88.0312C230.771 88.4375 231.286 88.6406 231.906 88.6406C232.776 88.6406 233.484 88.2891 234.031 87.5859L235.055 88.5625C234.716 89.0677 234.263 89.4609 233.695 89.7422C233.133 90.0182 232.5 90.1562 231.797 90.1562ZM231.57 82.9141C231.049 82.9141 230.628 83.0964 230.305 83.4609C229.987 83.8255 229.784 84.3333 229.695 84.9844H233.312V84.8438C233.271 84.2083 233.102 83.7292 232.805 83.4062C232.508 83.0781 232.096 82.9141 231.57 82.9141Z" fill="#212121"/>
<path d="M85.3086 75H84.3711V67.8906H85.3086V75ZM87.7402 69.7168L87.7695 70.3809C88.1732 69.873 88.7005 69.6191 89.3516 69.6191C90.4681 69.6191 91.0312 70.249 91.041 71.5088V75H90.1377V71.5039C90.1344 71.123 90.0465 70.8415 89.874 70.6592C89.7048 70.4769 89.4395 70.3857 89.0781 70.3857C88.7852 70.3857 88.528 70.4639 88.3066 70.6201C88.0853 70.7764 87.9128 70.9814 87.7891 71.2354V75H86.8857V69.7168H87.7402ZM92.1836 72.3145C92.1836 71.5039 92.3757 70.8529 92.7598 70.3613C93.1439 69.8665 93.6468 69.6191 94.2686 69.6191C94.887 69.6191 95.377 69.8307 95.7383 70.2539V67.5H96.6416V75H95.8115L95.7676 74.4336C95.4062 74.8763 94.9033 75.0977 94.2588 75.0977C93.6468 75.0977 93.1471 74.847 92.7598 74.3457C92.3757 73.8444 92.1836 73.1901 92.1836 72.3828V72.3145ZM93.0869 72.417C93.0869 73.016 93.2106 73.4847 93.458 73.8232C93.7054 74.1618 94.0472 74.3311 94.4834 74.3311C95.0563 74.3311 95.4746 74.0739 95.7383 73.5596V71.1328C95.4681 70.6348 95.0531 70.3857 94.4932 70.3857C94.0505 70.3857 93.7054 70.5566 93.458 70.8984C93.2106 71.2402 93.0869 71.7464 93.0869 72.417ZM101.31 74.4775C100.958 74.891 100.442 75.0977 99.7617 75.0977C99.1986 75.0977 98.7689 74.9349 98.4727 74.6094C98.1797 74.2806 98.0316 73.7956 98.0283 73.1543V69.7168H98.9316V73.1299C98.9316 73.9307 99.2572 74.3311 99.9082 74.3311C100.598 74.3311 101.057 74.0739 101.285 73.5596V69.7168H102.188V75H101.329L101.31 74.4775ZM106.642 73.5986C106.642 73.3545 106.549 73.1657 106.363 73.0322C106.181 72.8955 105.86 72.7783 105.401 72.6807C104.946 72.583 104.583 72.4658 104.312 72.3291C104.046 72.1924 103.847 72.0296 103.717 71.8408C103.59 71.652 103.526 71.4274 103.526 71.167C103.526 70.734 103.709 70.3678 104.073 70.0684C104.441 69.7689 104.91 69.6191 105.479 69.6191C106.078 69.6191 106.563 69.7738 106.935 70.083C107.309 70.3923 107.496 70.7878 107.496 71.2695H106.588C106.588 71.0221 106.482 70.8089 106.271 70.6299C106.062 70.4508 105.799 70.3613 105.479 70.3613C105.151 70.3613 104.894 70.4329 104.708 70.5762C104.522 70.7194 104.43 70.9066 104.43 71.1377C104.43 71.3558 104.516 71.5202 104.688 71.6309C104.861 71.7415 105.172 71.8473 105.621 71.9482C106.074 72.0492 106.44 72.1696 106.72 72.3096C107 72.4495 107.206 72.6188 107.34 72.8174C107.477 73.0127 107.545 73.252 107.545 73.5352C107.545 74.0072 107.356 74.3864 106.979 74.6729C106.601 74.9561 106.111 75.0977 105.509 75.0977C105.086 75.0977 104.711 75.0228 104.386 74.873C104.06 74.7233 103.805 74.515 103.619 74.248C103.437 73.9779 103.346 73.6865 103.346 73.374H104.249C104.265 73.6768 104.386 73.9176 104.61 74.0967C104.838 74.2725 105.138 74.3604 105.509 74.3604C105.851 74.3604 106.124 74.292 106.329 74.1553C106.537 74.0153 106.642 73.8298 106.642 73.5986ZM109.947 68.4375V69.7168H110.934V70.415H109.947V73.6914C109.947 73.903 109.991 74.0625 110.079 74.1699C110.167 74.2741 110.317 74.3262 110.528 74.3262C110.632 74.3262 110.776 74.3066 110.958 74.2676V75C110.72 75.0651 110.489 75.0977 110.265 75.0977C109.861 75.0977 109.557 74.9756 109.352 74.7314C109.146 74.4873 109.044 74.1406 109.044 73.6914V70.415H108.082V69.7168H109.044V68.4375H109.947ZM114.547 70.5273C114.41 70.5046 114.262 70.4932 114.103 70.4932C113.51 70.4932 113.108 70.7454 112.896 71.25V75H111.993V69.7168H112.872L112.887 70.3271C113.183 69.8551 113.603 69.6191 114.146 69.6191C114.322 69.6191 114.456 69.6419 114.547 69.6875V70.5273ZM117.198 73.6768L118.429 69.7168H119.396L117.271 75.8154C116.943 76.6943 116.42 77.1338 115.704 77.1338L115.533 77.1191L115.196 77.0557V76.3232L115.44 76.3428C115.746 76.3428 115.984 76.2809 116.153 76.1572C116.326 76.0335 116.467 75.8073 116.578 75.4785L116.778 74.9414L114.894 69.7168H115.88L117.198 73.6768Z" fill="#2E2E2E"/>
<path d="M89.7031 144.031C89.7031 143.589 89.5625 143.224 89.2812 142.938C89 142.646 88.5312 142.385 87.875 142.156C87.2188 141.922 86.7083 141.706 86.3438 141.508C85.1302 140.857 84.5234 139.893 84.5234 138.617C84.5234 137.753 84.7865 137.042 85.3125 136.484C85.8385 135.927 86.5521 135.596 87.4531 135.492V133.789H88.7031V135.508C89.6094 135.638 90.3099 136.023 90.8047 136.664C91.2995 137.299 91.5469 138.128 91.5469 139.148H89.6562C89.6562 138.492 89.5078 137.977 89.2109 137.602C88.9193 137.221 88.5208 137.031 88.0156 137.031C87.5156 137.031 87.125 137.167 86.8438 137.438C86.5625 137.708 86.4219 138.096 86.4219 138.602C86.4219 139.055 86.5599 139.419 86.8359 139.695C87.1172 139.966 87.5911 140.224 88.2578 140.469C88.9245 140.714 89.4479 140.94 89.8281 141.148C90.2083 141.357 90.5286 141.596 90.7891 141.867C91.0495 142.133 91.25 142.44 91.3906 142.789C91.5312 143.138 91.6016 143.547 91.6016 144.016C91.6016 144.896 91.3307 145.609 90.7891 146.156C90.2526 146.703 89.5026 147.026 88.5391 147.125V148.648H87.2969V147.133C86.2656 147.018 85.4714 146.648 84.9141 146.023C84.362 145.398 84.0859 144.57 84.0859 143.539H85.9844C85.9844 144.195 86.1484 144.703 86.4766 145.062C86.8099 145.422 87.2786 145.602 87.8828 145.602C88.4766 145.602 88.9271 145.458 89.2344 145.172C89.5469 144.885 89.7031 144.505 89.7031 144.031ZM98.3906 147H96.5V137.867L93.7109 138.82V137.219L98.1484 135.586H98.3906V147ZM103.648 145C104.003 145 104.276 145.102 104.469 145.305C104.661 145.503 104.758 145.753 104.758 146.055C104.758 146.352 104.661 146.599 104.469 146.797C104.276 146.99 104.003 147.086 103.648 147.086C103.31 147.086 103.042 146.99 102.844 146.797C102.646 146.604 102.547 146.357 102.547 146.055C102.547 145.753 102.643 145.503 102.836 145.305C103.029 145.102 103.299 145 103.648 145ZM114.461 147H106.812V145.695L110.602 141.562C111.148 140.953 111.536 140.445 111.766 140.039C112 139.628 112.117 139.216 112.117 138.805C112.117 138.263 111.964 137.826 111.656 137.492C111.354 137.159 110.945 136.992 110.43 136.992C109.815 136.992 109.339 137.18 109 137.555C108.661 137.93 108.492 138.443 108.492 139.094H106.594C106.594 138.401 106.75 137.779 107.062 137.227C107.38 136.669 107.831 136.237 108.414 135.93C109.003 135.622 109.68 135.469 110.445 135.469C111.549 135.469 112.419 135.747 113.055 136.305C113.695 136.857 114.016 137.622 114.016 138.602C114.016 139.169 113.854 139.766 113.531 140.391C113.214 141.01 112.69 141.716 111.961 142.508L109.18 145.484H114.461V147ZM122.758 135.625L126.039 144.344L129.312 135.625H131.867V147H129.898V143.25L130.094 138.234L126.734 147H125.32L121.969 138.242L122.164 143.25V147H120.195V135.625H122.758ZM136.047 147H134.148V138.547H136.047V147ZM134.031 136.352C134.031 136.06 134.122 135.818 134.305 135.625C134.492 135.432 134.758 135.336 135.102 135.336C135.445 135.336 135.711 135.432 135.898 135.625C136.086 135.818 136.18 136.06 136.18 136.352C136.18 136.638 136.086 136.878 135.898 137.07C135.711 137.258 135.445 137.352 135.102 137.352C134.758 137.352 134.492 137.258 134.305 137.07C134.122 136.878 134.031 136.638 134.031 136.352ZM140.141 147H138.242V135H140.141V147ZM144.234 147H142.336V135H144.234V147ZM148.328 147H146.43V138.547H148.328V147ZM146.312 136.352C146.312 136.06 146.404 135.818 146.586 135.625C146.773 135.432 147.039 135.336 147.383 135.336C147.727 135.336 147.992 135.432 148.18 135.625C148.367 135.818 148.461 136.06 148.461 136.352C148.461 136.638 148.367 136.878 148.18 137.07C147.992 137.258 147.727 137.352 147.383 137.352C147.039 137.352 146.773 137.258 146.586 137.07C146.404 136.878 146.312 136.638 146.312 136.352ZM150.047 142.695C150.047 141.867 150.211 141.122 150.539 140.461C150.867 139.794 151.328 139.284 151.922 138.93C152.516 138.57 153.198 138.391 153.969 138.391C155.109 138.391 156.034 138.758 156.742 139.492C157.456 140.227 157.841 141.201 157.898 142.414L157.906 142.859C157.906 143.693 157.745 144.438 157.422 145.094C157.104 145.75 156.646 146.258 156.047 146.617C155.453 146.977 154.766 147.156 153.984 147.156C152.792 147.156 151.836 146.76 151.117 145.969C150.404 145.172 150.047 144.112 150.047 142.789V142.695ZM151.945 142.859C151.945 143.729 152.125 144.411 152.484 144.906C152.844 145.396 153.344 145.641 153.984 145.641C154.625 145.641 155.122 145.391 155.477 144.891C155.836 144.391 156.016 143.659 156.016 142.695C156.016 141.841 155.831 141.164 155.461 140.664C155.096 140.164 154.599 139.914 153.969 139.914C153.349 139.914 152.857 140.161 152.492 140.656C152.128 141.146 151.945 141.88 151.945 142.859ZM161.273 138.547L161.328 139.523C161.953 138.768 162.773 138.391 163.789 138.391C165.549 138.391 166.445 139.398 166.477 141.414V147H164.578V141.523C164.578 140.987 164.461 140.591 164.227 140.336C163.997 140.076 163.62 139.945 163.094 139.945C162.328 139.945 161.758 140.292 161.383 140.984V147H159.484V138.547H161.273ZM176.766 142.617H174.562V147H172.586V135.625H176.586C177.898 135.625 178.911 135.919 179.625 136.508C180.339 137.096 180.695 137.948 180.695 139.062C180.695 139.823 180.51 140.461 180.141 140.977C179.776 141.487 179.266 141.88 178.609 142.156L181.164 146.898V147H179.047L176.766 142.617ZM174.562 141.031H176.594C177.26 141.031 177.781 140.865 178.156 140.531C178.531 140.193 178.719 139.732 178.719 139.148C178.719 138.539 178.544 138.068 178.195 137.734C177.852 137.401 177.336 137.229 176.648 137.219H174.562V141.031ZM186.109 147.156C184.906 147.156 183.93 146.779 183.18 146.023C182.435 145.263 182.062 144.253 182.062 142.992V142.758C182.062 141.914 182.224 141.161 182.547 140.5C182.875 139.833 183.333 139.315 183.922 138.945C184.51 138.576 185.167 138.391 185.891 138.391C187.042 138.391 187.93 138.758 188.555 139.492C189.185 140.227 189.5 141.266 189.5 142.609V143.375H183.977C184.034 144.073 184.266 144.625 184.672 145.031C185.083 145.438 185.599 145.641 186.219 145.641C187.089 145.641 187.797 145.289 188.344 144.586L189.367 145.562C189.029 146.068 188.576 146.461 188.008 146.742C187.445 147.018 186.812 147.156 186.109 147.156ZM185.883 139.914C185.362 139.914 184.94 140.096 184.617 140.461C184.299 140.826 184.096 141.333 184.008 141.984H187.625V141.844C187.583 141.208 187.414 140.729 187.117 140.406C186.82 140.078 186.409 139.914 185.883 139.914ZM193.852 144.594L195.641 138.547H197.602L194.672 147H193.023L190.07 138.547H192.039L193.852 144.594ZM202.406 147.156C201.203 147.156 200.227 146.779 199.477 146.023C198.732 145.263 198.359 144.253 198.359 142.992V142.758C198.359 141.914 198.521 141.161 198.844 140.5C199.172 139.833 199.63 139.315 200.219 138.945C200.807 138.576 201.464 138.391 202.188 138.391C203.339 138.391 204.227 138.758 204.852 139.492C205.482 140.227 205.797 141.266 205.797 142.609V143.375H200.273C200.331 144.073 200.562 144.625 200.969 145.031C201.38 145.438 201.896 145.641 202.516 145.641C203.385 145.641 204.094 145.289 204.641 144.586L205.664 145.562C205.326 146.068 204.872 146.461 204.305 146.742C203.742 147.018 203.109 147.156 202.406 147.156ZM202.18 139.914C201.659 139.914 201.237 140.096 200.914 140.461C200.596 140.826 200.393 141.333 200.305 141.984H203.922V141.844C203.88 141.208 203.711 140.729 203.414 140.406C203.117 140.078 202.706 139.914 202.18 139.914ZM209.039 138.547L209.094 139.523C209.719 138.768 210.539 138.391 211.555 138.391C213.315 138.391 214.211 139.398 214.242 141.414V147H212.344V141.523C212.344 140.987 212.227 140.591 211.992 140.336C211.763 140.076 211.385 139.945 210.859 139.945C210.094 139.945 209.523 140.292 209.148 140.984V147H207.25V138.547H209.039ZM221.305 146.172C220.747 146.828 219.956 147.156 218.93 147.156C218.013 147.156 217.318 146.888 216.844 146.352C216.375 145.815 216.141 145.039 216.141 144.023V138.547H218.039V144C218.039 145.073 218.484 145.609 219.375 145.609C220.297 145.609 220.919 145.279 221.242 144.617V138.547H223.141V147H221.352L221.305 146.172ZM228.797 147.156C227.594 147.156 226.617 146.779 225.867 146.023C225.122 145.263 224.75 144.253 224.75 142.992V142.758C224.75 141.914 224.911 141.161 225.234 140.5C225.562 139.833 226.021 139.315 226.609 138.945C227.198 138.576 227.854 138.391 228.578 138.391C229.729 138.391 230.617 138.758 231.242 139.492C231.872 140.227 232.188 141.266 232.188 142.609V143.375H226.664C226.721 144.073 226.953 144.625 227.359 145.031C227.771 145.438 228.286 145.641 228.906 145.641C229.776 145.641 230.484 145.289 231.031 144.586L232.055 145.562C231.716 146.068 231.263 146.461 230.695 146.742C230.133 147.018 229.5 147.156 228.797 147.156ZM228.57 139.914C228.049 139.914 227.628 140.096 227.305 140.461C226.987 140.826 226.784 141.333 226.695 141.984H230.312V141.844C230.271 141.208 230.102 140.729 229.805 140.406C229.508 140.078 229.096 139.914 228.57 139.914Z" fill="#212121"/>
<path d="M86.5264 126.124H84.8564V129H83.9141V121.891H86.2676C87.0684 121.891 87.6836 122.073 88.1133 122.438C88.5462 122.802 88.7627 123.333 88.7627 124.029C88.7627 124.472 88.6423 124.858 88.4014 125.187C88.1637 125.515 87.8317 125.761 87.4053 125.924L89.0752 128.941V129H88.0693L86.5264 126.124ZM84.8564 125.357H86.2969C86.7624 125.357 87.1318 125.237 87.4053 124.996C87.682 124.755 87.8203 124.433 87.8203 124.029C87.8203 123.59 87.6885 123.253 87.4248 123.019C87.1644 122.784 86.7868 122.665 86.292 122.662H84.8564V125.357ZM92.1318 129.098C91.4157 129.098 90.833 128.863 90.3838 128.395C89.9346 127.923 89.71 127.293 89.71 126.505V126.339C89.71 125.815 89.8092 125.348 90.0078 124.938C90.2096 124.524 90.4896 124.202 90.8477 123.971C91.209 123.736 91.5996 123.619 92.0195 123.619C92.7064 123.619 93.2402 123.845 93.6211 124.298C94.002 124.75 94.1924 125.398 94.1924 126.241V126.617H90.6133C90.6263 127.138 90.7777 127.56 91.0674 127.882C91.3604 128.201 91.7314 128.36 92.1807 128.36C92.4997 128.36 92.7699 128.295 92.9912 128.165C93.2126 128.035 93.4062 127.862 93.5723 127.647L94.124 128.077C93.6813 128.757 93.0173 129.098 92.1318 129.098ZM92.0195 124.361C91.6549 124.361 91.349 124.495 91.1016 124.762C90.8542 125.025 90.7012 125.396 90.6426 125.875H93.2891V125.807C93.263 125.348 93.1393 124.993 92.918 124.742C92.6966 124.488 92.3971 124.361 92.0195 124.361ZM96.917 127.774L98.2256 123.717H99.1484L97.2539 129H96.5654L94.6514 123.717H95.5742L96.917 127.774ZM102.142 129.098C101.425 129.098 100.843 128.863 100.394 128.395C99.9443 127.923 99.7197 127.293 99.7197 126.505V126.339C99.7197 125.815 99.819 125.348 100.018 124.938C100.219 124.524 100.499 124.202 100.857 123.971C101.219 123.736 101.609 123.619 102.029 123.619C102.716 123.619 103.25 123.845 103.631 124.298C104.012 124.75 104.202 125.398 104.202 126.241V126.617H100.623C100.636 127.138 100.787 127.56 101.077 127.882C101.37 128.201 101.741 128.36 102.19 128.36C102.509 128.36 102.78 128.295 103.001 128.165C103.222 128.035 103.416 127.862 103.582 127.647L104.134 128.077C103.691 128.757 103.027 129.098 102.142 129.098ZM102.029 124.361C101.665 124.361 101.359 124.495 101.111 124.762C100.864 125.025 100.711 125.396 100.652 125.875H103.299V125.807C103.273 125.348 103.149 124.993 102.928 124.742C102.706 124.488 102.407 124.361 102.029 124.361ZM106.106 123.717L106.136 124.381C106.539 123.873 107.067 123.619 107.718 123.619C108.834 123.619 109.397 124.249 109.407 125.509V129H108.504V125.504C108.501 125.123 108.413 124.841 108.24 124.659C108.071 124.477 107.806 124.386 107.444 124.386C107.151 124.386 106.894 124.464 106.673 124.62C106.451 124.776 106.279 124.981 106.155 125.235V129H105.252V123.717H106.106ZM114.031 128.478C113.68 128.891 113.164 129.098 112.483 129.098C111.92 129.098 111.491 128.935 111.194 128.609C110.901 128.281 110.753 127.796 110.75 127.154V123.717H111.653V127.13C111.653 127.931 111.979 128.331 112.63 128.331C113.32 128.331 113.779 128.074 114.007 127.56V123.717H114.91V129H114.051L114.031 128.478ZM118.479 129.098C117.763 129.098 117.181 128.863 116.731 128.395C116.282 127.923 116.058 127.293 116.058 126.505V126.339C116.058 125.815 116.157 125.348 116.355 124.938C116.557 124.524 116.837 124.202 117.195 123.971C117.557 123.736 117.947 123.619 118.367 123.619C119.054 123.619 119.588 123.845 119.969 124.298C120.35 124.75 120.54 125.398 120.54 126.241V126.617H116.961C116.974 127.138 117.125 127.56 117.415 127.882C117.708 128.201 118.079 128.36 118.528 128.36C118.847 128.36 119.118 128.295 119.339 128.165C119.56 128.035 119.754 127.862 119.92 127.647L120.472 128.077C120.029 128.757 119.365 129.098 118.479 129.098ZM118.367 124.361C118.003 124.361 117.697 124.495 117.449 124.762C117.202 125.025 117.049 125.396 116.99 125.875H119.637V125.807C119.611 125.348 119.487 124.993 119.266 124.742C119.044 124.488 118.745 124.361 118.367 124.361Z" fill="#2E2E2E"/>
<path d="M89.3047 200H87.4141V190.867L84.625 191.82V190.219L89.0625 188.586H89.3047V200ZM93.7656 194.359L94.3828 188.625H100.492V190.266H95.9609L95.6484 192.984C96.1745 192.682 96.7682 192.531 97.4297 192.531C98.513 192.531 99.3542 192.878 99.9531 193.57C100.557 194.263 100.859 195.195 100.859 196.367C100.859 197.523 100.526 198.445 99.8594 199.133C99.1927 199.815 98.2786 200.156 97.1172 200.156C96.0755 200.156 95.2109 199.862 94.5234 199.273C93.8411 198.68 93.4714 197.898 93.4141 196.93H95.25C95.3229 197.482 95.5208 197.906 95.8438 198.203C96.1667 198.495 96.5885 198.641 97.1094 198.641C97.6927 198.641 98.1458 198.432 98.4688 198.016C98.7969 197.599 98.9609 197.031 98.9609 196.312C98.9609 195.62 98.7812 195.073 98.4219 194.672C98.0625 194.266 97.5677 194.062 96.9375 194.062C96.5938 194.062 96.3021 194.109 96.0625 194.203C95.8229 194.292 95.5625 194.469 95.2812 194.734L93.7656 194.359ZM113.289 194.922H108.617V198.422H114.078V200H106.641V188.625H114.023V190.219H108.617V193.359H113.289V194.922ZM117.289 191.547L117.344 192.43C117.938 191.737 118.75 191.391 119.781 191.391C120.911 191.391 121.685 191.823 122.102 192.688C122.716 191.823 123.581 191.391 124.695 191.391C125.628 191.391 126.32 191.648 126.773 192.164C127.232 192.68 127.466 193.44 127.477 194.445V200H125.578V194.5C125.578 193.964 125.461 193.57 125.227 193.32C124.992 193.07 124.604 192.945 124.062 192.945C123.63 192.945 123.276 193.062 123 193.297C122.729 193.526 122.539 193.828 122.43 194.203L122.438 200H120.539V194.438C120.513 193.443 120.005 192.945 119.016 192.945C118.255 192.945 117.716 193.255 117.398 193.875V200H115.5V191.547H117.289ZM136.828 195.859C136.828 197.167 136.531 198.211 135.938 198.992C135.344 199.768 134.547 200.156 133.547 200.156C132.62 200.156 131.878 199.852 131.32 199.242V203.25H129.422V191.547H131.172L131.25 192.406C131.807 191.729 132.565 191.391 133.523 191.391C134.555 191.391 135.362 191.776 135.945 192.547C136.534 193.312 136.828 194.378 136.828 195.742V195.859ZM134.938 195.695C134.938 194.852 134.768 194.182 134.43 193.688C134.096 193.193 133.617 192.945 132.992 192.945C132.216 192.945 131.659 193.266 131.32 193.906V197.656C131.664 198.312 132.227 198.641 133.008 198.641C133.612 198.641 134.083 198.398 134.422 197.914C134.766 197.424 134.938 196.685 134.938 195.695ZM140.461 200H138.562V188H140.461V200ZM142.18 195.695C142.18 194.867 142.344 194.122 142.672 193.461C143 192.794 143.461 192.284 144.055 191.93C144.648 191.57 145.331 191.391 146.102 191.391C147.242 191.391 148.167 191.758 148.875 192.492C149.589 193.227 149.974 194.201 150.031 195.414L150.039 195.859C150.039 196.693 149.878 197.438 149.555 198.094C149.237 198.75 148.779 199.258 148.18 199.617C147.586 199.977 146.898 200.156 146.117 200.156C144.924 200.156 143.969 199.76 143.25 198.969C142.536 198.172 142.18 197.112 142.18 195.789V195.695ZM144.078 195.859C144.078 196.729 144.258 197.411 144.617 197.906C144.977 198.396 145.477 198.641 146.117 198.641C146.758 198.641 147.255 198.391 147.609 197.891C147.969 197.391 148.148 196.659 148.148 195.695C148.148 194.841 147.964 194.164 147.594 193.664C147.229 193.164 146.732 192.914 146.102 192.914C145.482 192.914 144.99 193.161 144.625 193.656C144.26 194.146 144.078 194.88 144.078 195.859ZM154.477 197.281L156.195 191.547H158.219L154.859 201.281C154.344 202.703 153.469 203.414 152.234 203.414C151.958 203.414 151.654 203.367 151.32 203.273V201.805L151.68 201.828C152.159 201.828 152.518 201.74 152.758 201.562C153.003 201.391 153.195 201.099 153.336 200.688L153.609 199.961L150.641 191.547H152.688L154.477 197.281ZM162.93 200.156C161.727 200.156 160.75 199.779 160 199.023C159.255 198.263 158.883 197.253 158.883 195.992V195.758C158.883 194.914 159.044 194.161 159.367 193.5C159.695 192.833 160.154 192.315 160.742 191.945C161.331 191.576 161.987 191.391 162.711 191.391C163.862 191.391 164.75 191.758 165.375 192.492C166.005 193.227 166.32 194.266 166.32 195.609V196.375H160.797C160.854 197.073 161.086 197.625 161.492 198.031C161.904 198.438 162.419 198.641 163.039 198.641C163.909 198.641 164.617 198.289 165.164 197.586L166.188 198.562C165.849 199.068 165.396 199.461 164.828 199.742C164.266 200.018 163.633 200.156 162.93 200.156ZM162.703 192.914C162.182 192.914 161.76 193.096 161.438 193.461C161.12 193.826 160.917 194.333 160.828 194.984H164.445V194.844C164.404 194.208 164.234 193.729 163.938 193.406C163.641 193.078 163.229 192.914 162.703 192.914ZM171.523 200.156C170.32 200.156 169.344 199.779 168.594 199.023C167.849 198.263 167.477 197.253 167.477 195.992V195.758C167.477 194.914 167.638 194.161 167.961 193.5C168.289 192.833 168.747 192.315 169.336 191.945C169.924 191.576 170.581 191.391 171.305 191.391C172.456 191.391 173.344 191.758 173.969 192.492C174.599 193.227 174.914 194.266 174.914 195.609V196.375H169.391C169.448 197.073 169.68 197.625 170.086 198.031C170.497 198.438 171.013 198.641 171.633 198.641C172.503 198.641 173.211 198.289 173.758 197.586L174.781 198.562C174.443 199.068 173.99 199.461 173.422 199.742C172.859 200.018 172.227 200.156 171.523 200.156ZM171.297 192.914C170.776 192.914 170.354 193.096 170.031 193.461C169.714 193.826 169.51 194.333 169.422 194.984H173.039V194.844C172.997 194.208 172.828 193.729 172.531 193.406C172.234 193.078 171.823 192.914 171.297 192.914ZM181.133 197.703C181.133 197.365 180.992 197.107 180.711 196.93C180.435 196.753 179.974 196.596 179.328 196.461C178.682 196.326 178.143 196.154 177.711 195.945C176.763 195.487 176.289 194.823 176.289 193.953C176.289 193.224 176.596 192.615 177.211 192.125C177.826 191.635 178.607 191.391 179.555 191.391C180.565 191.391 181.38 191.641 182 192.141C182.625 192.641 182.938 193.289 182.938 194.086H181.039C181.039 193.721 180.904 193.419 180.633 193.18C180.362 192.935 180.003 192.812 179.555 192.812C179.138 192.812 178.797 192.909 178.531 193.102C178.271 193.294 178.141 193.552 178.141 193.875C178.141 194.167 178.263 194.393 178.508 194.555C178.753 194.716 179.247 194.88 179.992 195.047C180.737 195.208 181.32 195.404 181.742 195.633C182.169 195.857 182.484 196.128 182.688 196.445C182.896 196.763 183 197.148 183 197.602C183 198.362 182.685 198.979 182.055 199.453C181.424 199.922 180.599 200.156 179.578 200.156C178.885 200.156 178.268 200.031 177.727 199.781C177.185 199.531 176.763 199.188 176.461 198.75C176.159 198.312 176.008 197.841 176.008 197.336H177.852C177.878 197.784 178.047 198.13 178.359 198.375C178.672 198.615 179.086 198.734 179.602 198.734C180.102 198.734 180.482 198.641 180.742 198.453C181.003 198.26 181.133 198.01 181.133 197.703Z" fill="#212121"/>
<path d="M86.1426 181.831C85.3385 181.6 84.7526 181.317 84.3848 180.981C84.0202 180.643 83.8379 180.226 83.8379 179.731C83.8379 179.172 84.0609 178.709 84.5068 178.345C84.9561 177.977 85.5387 177.793 86.2549 177.793C86.7432 177.793 87.1777 177.887 87.5586 178.076C87.9427 178.265 88.2389 178.525 88.4473 178.857C88.6589 179.189 88.7646 179.552 88.7646 179.946H87.8223C87.8223 179.517 87.6855 179.18 87.4121 178.936C87.1387 178.688 86.7529 178.564 86.2549 178.564C85.7926 178.564 85.4313 178.667 85.1709 178.872C84.9137 179.074 84.7852 179.355 84.7852 179.717C84.7852 180.007 84.9072 180.252 85.1514 180.454C85.3988 180.653 85.8171 180.835 86.4062 181.001C86.9987 181.167 87.4609 181.351 87.793 181.553C88.1283 181.751 88.3757 181.984 88.5352 182.251C88.6979 182.518 88.7793 182.832 88.7793 183.193C88.7793 183.77 88.5547 184.232 88.1055 184.58C87.6562 184.925 87.0557 185.098 86.3037 185.098C85.8154 185.098 85.3597 185.005 84.9365 184.819C84.5133 184.631 84.1862 184.373 83.9551 184.048C83.7272 183.722 83.6133 183.353 83.6133 182.939H84.5557C84.5557 183.369 84.7135 183.709 85.0293 183.96C85.3483 184.207 85.7731 184.331 86.3037 184.331C86.7985 184.331 87.1777 184.23 87.4414 184.028C87.7051 183.826 87.8369 183.551 87.8369 183.203C87.8369 182.855 87.7148 182.586 87.4707 182.397C87.2266 182.205 86.7839 182.017 86.1426 181.831ZM90.8252 185H89.9219V179.717H90.8252V185ZM89.8486 178.315C89.8486 178.169 89.8926 178.045 89.9805 177.944C90.0716 177.843 90.2051 177.793 90.3809 177.793C90.5566 177.793 90.6901 177.843 90.7812 177.944C90.8724 178.045 90.918 178.169 90.918 178.315C90.918 178.462 90.8724 178.584 90.7812 178.682C90.6901 178.779 90.5566 178.828 90.3809 178.828C90.2051 178.828 90.0716 178.779 89.9805 178.682C89.8926 178.584 89.8486 178.462 89.8486 178.315ZM93.125 184.263H96.2158V185H92.0215V184.336L94.9365 180.464H92.0654V179.717H96.0693V180.356L93.125 184.263ZM99.3506 185.098C98.6344 185.098 98.0518 184.863 97.6025 184.395C97.1533 183.923 96.9287 183.293 96.9287 182.505V182.339C96.9287 181.815 97.028 181.348 97.2266 180.938C97.4284 180.524 97.7083 180.202 98.0664 179.971C98.4277 179.736 98.8184 179.619 99.2383 179.619C99.9251 179.619 100.459 179.845 100.84 180.298C101.221 180.75 101.411 181.398 101.411 182.241V182.617H97.832C97.8451 183.138 97.9964 183.56 98.2861 183.882C98.5791 184.201 98.9502 184.36 99.3994 184.36C99.7184 184.36 99.9886 184.295 100.21 184.165C100.431 184.035 100.625 183.862 100.791 183.647L101.343 184.077C100.9 184.757 100.236 185.098 99.3506 185.098ZM99.2383 180.361C98.8737 180.361 98.5677 180.495 98.3203 180.762C98.0729 181.025 97.9199 181.396 97.8613 181.875H100.508V181.807C100.482 181.348 100.358 180.993 100.137 180.742C99.9154 180.488 99.6159 180.361 99.2383 180.361Z" fill="#2E2E2E"/>
<path d="M93.5078 253H91.5391V247.945H86.4531V253H84.4766V241.625H86.4531V246.359H91.5391V241.625H93.5078V253ZM95.3125 248.695C95.3125 247.867 95.4766 247.122 95.8047 246.461C96.1328 245.794 96.5938 245.284 97.1875 244.93C97.7812 244.57 98.4635 244.391 99.2344 244.391C100.375 244.391 101.299 244.758 102.008 245.492C102.721 246.227 103.107 247.201 103.164 248.414L103.172 248.859C103.172 249.693 103.01 250.438 102.688 251.094C102.37 251.75 101.911 252.258 101.312 252.617C100.719 252.977 100.031 253.156 99.25 253.156C98.0573 253.156 97.1016 252.76 96.3828 251.969C95.6693 251.172 95.3125 250.112 95.3125 248.789V248.695ZM97.2109 248.859C97.2109 249.729 97.3906 250.411 97.75 250.906C98.1094 251.396 98.6094 251.641 99.25 251.641C99.8906 251.641 100.388 251.391 100.742 250.891C101.102 250.391 101.281 249.659 101.281 248.695C101.281 247.841 101.096 247.164 100.727 246.664C100.362 246.164 99.8646 245.914 99.2344 245.914C98.6146 245.914 98.1224 246.161 97.7578 246.656C97.3932 247.146 97.2109 247.88 97.2109 248.859ZM109.898 252.172C109.341 252.828 108.549 253.156 107.523 253.156C106.607 253.156 105.911 252.888 105.438 252.352C104.969 251.815 104.734 251.039 104.734 250.023V244.547H106.633V250C106.633 251.073 107.078 251.609 107.969 251.609C108.891 251.609 109.513 251.279 109.836 250.617V244.547H111.734V253H109.945L109.898 252.172ZM118.406 250.703C118.406 250.365 118.266 250.107 117.984 249.93C117.708 249.753 117.247 249.596 116.602 249.461C115.956 249.326 115.417 249.154 114.984 248.945C114.036 248.487 113.562 247.823 113.562 246.953C113.562 246.224 113.87 245.615 114.484 245.125C115.099 244.635 115.88 244.391 116.828 244.391C117.839 244.391 118.654 244.641 119.273 245.141C119.898 245.641 120.211 246.289 120.211 247.086H118.312C118.312 246.721 118.177 246.419 117.906 246.18C117.635 245.935 117.276 245.812 116.828 245.812C116.411 245.812 116.07 245.909 115.805 246.102C115.544 246.294 115.414 246.552 115.414 246.875C115.414 247.167 115.536 247.393 115.781 247.555C116.026 247.716 116.521 247.88 117.266 248.047C118.01 248.208 118.594 248.404 119.016 248.633C119.443 248.857 119.758 249.128 119.961 249.445C120.169 249.763 120.273 250.148 120.273 250.602C120.273 251.362 119.958 251.979 119.328 252.453C118.698 252.922 117.872 253.156 116.852 253.156C116.159 253.156 115.542 253.031 115 252.781C114.458 252.531 114.036 252.188 113.734 251.75C113.432 251.312 113.281 250.841 113.281 250.336H115.125C115.151 250.784 115.32 251.13 115.633 251.375C115.945 251.615 116.359 251.734 116.875 251.734C117.375 251.734 117.755 251.641 118.016 251.453C118.276 251.26 118.406 251.01 118.406 250.703ZM124.312 242.492V244.547H125.805V245.953H124.312V250.672C124.312 250.995 124.375 251.229 124.5 251.375C124.63 251.516 124.859 251.586 125.188 251.586C125.406 251.586 125.628 251.56 125.852 251.508V252.977C125.419 253.096 125.003 253.156 124.602 253.156C123.143 253.156 122.414 252.352 122.414 250.742V245.953H121.023V244.547H122.414V242.492H124.312ZM126.672 248.695C126.672 247.867 126.836 247.122 127.164 246.461C127.492 245.794 127.953 245.284 128.547 244.93C129.141 244.57 129.823 244.391 130.594 244.391C131.734 244.391 132.659 244.758 133.367 245.492C134.081 246.227 134.466 247.201 134.523 248.414L134.531 248.859C134.531 249.693 134.37 250.438 134.047 251.094C133.729 251.75 133.271 252.258 132.672 252.617C132.078 252.977 131.391 253.156 130.609 253.156C129.417 253.156 128.461 252.76 127.742 251.969C127.029 251.172 126.672 250.112 126.672 248.789V248.695ZM128.57 248.859C128.57 249.729 128.75 250.411 129.109 250.906C129.469 251.396 129.969 251.641 130.609 251.641C131.25 251.641 131.747 251.391 132.102 250.891C132.461 250.391 132.641 249.659 132.641 248.695C132.641 247.841 132.456 247.164 132.086 246.664C131.721 246.164 131.224 245.914 130.594 245.914C129.974 245.914 129.482 246.161 129.117 246.656C128.753 247.146 128.57 247.88 128.57 248.859ZM137.898 244.547L137.953 245.523C138.578 244.768 139.398 244.391 140.414 244.391C142.174 244.391 143.07 245.398 143.102 247.414V253H141.203V247.523C141.203 246.987 141.086 246.591 140.852 246.336C140.622 246.076 140.245 245.945 139.719 245.945C138.953 245.945 138.383 246.292 138.008 246.984V253H136.109V244.547H137.898ZM145.312 255.562L144.289 254.953C144.591 254.479 144.797 254.065 144.906 253.711C145.021 253.362 145.081 253.005 145.086 252.641V251.164H146.797L146.789 252.531C146.784 253.083 146.643 253.635 146.367 254.188C146.096 254.745 145.745 255.203 145.312 255.562ZM160.477 243.219H156.93V253H154.969V243.219H151.453V241.625H160.477V243.219ZM164.812 253.156C163.609 253.156 162.633 252.779 161.883 252.023C161.138 251.263 160.766 250.253 160.766 248.992V248.758C160.766 247.914 160.927 247.161 161.25 246.5C161.578 245.833 162.036 245.315 162.625 244.945C163.214 244.576 163.87 244.391 164.594 244.391C165.745 244.391 166.633 244.758 167.258 245.492C167.888 246.227 168.203 247.266 168.203 248.609V249.375H162.68C162.737 250.073 162.969 250.625 163.375 251.031C163.786 251.438 164.302 251.641 164.922 251.641C165.792 251.641 166.5 251.289 167.047 250.586L168.07 251.562C167.732 252.068 167.279 252.461 166.711 252.742C166.148 253.018 165.516 253.156 164.812 253.156ZM164.586 245.914C164.065 245.914 163.643 246.096 163.32 246.461C163.003 246.826 162.799 247.333 162.711 247.984H166.328V247.844C166.286 247.208 166.117 246.729 165.82 246.406C165.523 246.078 165.112 245.914 164.586 245.914ZM172.719 247.328L174.328 244.547H176.438L173.852 248.711L176.523 253H174.43L172.742 250.109L171.062 253H168.953L171.625 248.711L169.047 244.547H171.141L172.719 247.328ZM182.781 253C182.698 252.839 182.625 252.576 182.562 252.211C181.958 252.841 181.219 253.156 180.344 253.156C179.495 253.156 178.802 252.914 178.266 252.43C177.729 251.945 177.461 251.346 177.461 250.633C177.461 249.732 177.794 249.042 178.461 248.562C179.133 248.078 180.091 247.836 181.336 247.836H182.5V247.281C182.5 246.844 182.378 246.495 182.133 246.234C181.888 245.969 181.516 245.836 181.016 245.836C180.583 245.836 180.229 245.945 179.953 246.164C179.677 246.378 179.539 246.651 179.539 246.984H177.641C177.641 246.521 177.794 246.089 178.102 245.688C178.409 245.281 178.826 244.964 179.352 244.734C179.883 244.505 180.474 244.391 181.125 244.391C182.115 244.391 182.904 244.641 183.492 245.141C184.081 245.635 184.383 246.333 184.398 247.234V251.047C184.398 251.807 184.505 252.414 184.719 252.867V253H182.781ZM180.695 251.633C181.07 251.633 181.422 251.542 181.75 251.359C182.083 251.177 182.333 250.932 182.5 250.625V249.031H181.477C180.773 249.031 180.245 249.154 179.891 249.398C179.536 249.643 179.359 249.99 179.359 250.438C179.359 250.802 179.479 251.094 179.719 251.312C179.964 251.526 180.289 251.633 180.695 251.633ZM191.125 250.703C191.125 250.365 190.984 250.107 190.703 249.93C190.427 249.753 189.966 249.596 189.32 249.461C188.674 249.326 188.135 249.154 187.703 248.945C186.755 248.487 186.281 247.823 186.281 246.953C186.281 246.224 186.589 245.615 187.203 245.125C187.818 244.635 188.599 244.391 189.547 244.391C190.557 244.391 191.372 244.641 191.992 245.141C192.617 245.641 192.93 246.289 192.93 247.086H191.031C191.031 246.721 190.896 246.419 190.625 246.18C190.354 245.935 189.995 245.812 189.547 245.812C189.13 245.812 188.789 245.909 188.523 246.102C188.263 246.294 188.133 246.552 188.133 246.875C188.133 247.167 188.255 247.393 188.5 247.555C188.745 247.716 189.24 247.88 189.984 248.047C190.729 248.208 191.312 248.404 191.734 248.633C192.161 248.857 192.477 249.128 192.68 249.445C192.888 249.763 192.992 250.148 192.992 250.602C192.992 251.362 192.677 251.979 192.047 252.453C191.417 252.922 190.591 253.156 189.57 253.156C188.878 253.156 188.26 253.031 187.719 252.781C187.177 252.531 186.755 252.188 186.453 251.75C186.151 251.312 186 250.841 186 250.336H187.844C187.87 250.784 188.039 251.13 188.352 251.375C188.664 251.615 189.078 251.734 189.594 251.734C190.094 251.734 190.474 251.641 190.734 251.453C190.995 251.26 191.125 251.01 191.125 250.703Z" fill="#212121"/>
<path d="M84.9268 238.233H88.2959V239H83.9844V231.891H84.9268V238.233ZM88.9844 236.31C88.9844 235.792 89.0853 235.326 89.2871 234.913C89.4922 234.5 89.7754 234.181 90.1367 233.956C90.5013 233.731 90.9163 233.619 91.3818 233.619C92.1012 233.619 92.6823 233.868 93.125 234.366C93.571 234.864 93.7939 235.527 93.7939 236.354V236.417C93.7939 236.931 93.6947 237.394 93.4961 237.804C93.3008 238.211 93.0192 238.528 92.6514 238.756C92.2868 238.984 91.8669 239.098 91.3916 239.098C90.6755 239.098 90.0944 238.849 89.6484 238.351C89.2057 237.853 88.9844 237.193 88.9844 236.373V236.31ZM89.8926 236.417C89.8926 237.003 90.0277 237.473 90.2979 237.828C90.5713 238.183 90.9359 238.36 91.3916 238.36C91.8506 238.36 92.2152 238.181 92.4854 237.823C92.7555 237.462 92.8906 236.957 92.8906 236.31C92.8906 235.73 92.7523 235.261 92.4756 234.903C92.2021 234.542 91.8376 234.361 91.3818 234.361C90.9359 234.361 90.5762 234.539 90.3027 234.894C90.0293 235.248 89.8926 235.756 89.8926 236.417ZM97.0459 238.36C97.3682 238.36 97.6497 238.263 97.8906 238.067C98.1315 237.872 98.265 237.628 98.291 237.335H99.1455C99.1292 237.638 99.0251 237.926 98.833 238.199C98.641 238.473 98.3838 238.691 98.0615 238.854C97.7425 239.016 97.404 239.098 97.0459 239.098C96.3265 239.098 95.7536 238.858 95.3271 238.38C94.904 237.898 94.6924 237.241 94.6924 236.407V236.256C94.6924 235.742 94.7868 235.284 94.9756 234.884C95.1644 234.483 95.4346 234.173 95.7861 233.951C96.141 233.73 96.5592 233.619 97.041 233.619C97.6335 233.619 98.125 233.797 98.5156 234.151C98.9095 234.506 99.1195 234.967 99.1455 235.533H98.291C98.265 235.191 98.1348 234.911 97.9004 234.693C97.6693 234.472 97.3828 234.361 97.041 234.361C96.582 234.361 96.2256 234.527 95.9717 234.859C95.721 235.188 95.5957 235.665 95.5957 236.29V236.461C95.5957 237.07 95.721 237.538 95.9717 237.867C96.2223 238.196 96.5804 238.36 97.0459 238.36ZM103.423 239C103.371 238.896 103.328 238.71 103.296 238.443C102.876 238.88 102.375 239.098 101.792 239.098C101.271 239.098 100.843 238.951 100.508 238.658C100.176 238.362 100.01 237.988 100.01 237.535C100.01 236.985 100.218 236.559 100.635 236.256C101.055 235.95 101.644 235.797 102.402 235.797H103.281V235.382C103.281 235.066 103.187 234.815 102.998 234.63C102.809 234.441 102.531 234.347 102.163 234.347C101.841 234.347 101.571 234.428 101.353 234.591C101.134 234.754 101.025 234.951 101.025 235.182H100.117C100.117 234.918 100.21 234.664 100.396 234.42C100.584 234.173 100.838 233.977 101.157 233.834C101.479 233.691 101.833 233.619 102.217 233.619C102.826 233.619 103.302 233.772 103.647 234.078C103.993 234.381 104.172 234.799 104.185 235.333V237.765C104.185 238.25 104.246 238.635 104.37 238.922V239H103.423ZM101.924 238.312C102.207 238.312 102.476 238.238 102.729 238.092C102.983 237.945 103.167 237.755 103.281 237.521V236.437H102.573C101.466 236.437 100.913 236.76 100.913 237.408C100.913 237.691 101.007 237.913 101.196 238.072C101.385 238.232 101.628 238.312 101.924 238.312ZM106.826 232.438V233.717H107.812V234.415H106.826V237.691C106.826 237.903 106.87 238.062 106.958 238.17C107.046 238.274 107.196 238.326 107.407 238.326C107.511 238.326 107.655 238.307 107.837 238.268V239C107.599 239.065 107.368 239.098 107.144 239.098C106.74 239.098 106.436 238.976 106.23 238.731C106.025 238.487 105.923 238.141 105.923 237.691V234.415H104.961V233.717H105.923V232.438H106.826ZM109.854 239H108.95V233.717H109.854V239ZM108.877 232.315C108.877 232.169 108.921 232.045 109.009 231.944C109.1 231.843 109.233 231.793 109.409 231.793C109.585 231.793 109.718 231.843 109.81 231.944C109.901 232.045 109.946 232.169 109.946 232.315C109.946 232.462 109.901 232.584 109.81 232.682C109.718 232.779 109.585 232.828 109.409 232.828C109.233 232.828 109.1 232.779 109.009 232.682C108.921 232.584 108.877 232.462 108.877 232.315ZM111.064 236.31C111.064 235.792 111.165 235.326 111.367 234.913C111.572 234.5 111.855 234.181 112.217 233.956C112.581 233.731 112.996 233.619 113.462 233.619C114.181 233.619 114.762 233.868 115.205 234.366C115.651 234.864 115.874 235.527 115.874 236.354V236.417C115.874 236.931 115.775 237.394 115.576 237.804C115.381 238.211 115.099 238.528 114.731 238.756C114.367 238.984 113.947 239.098 113.472 239.098C112.756 239.098 112.174 238.849 111.729 238.351C111.286 237.853 111.064 237.193 111.064 236.373V236.31ZM111.973 236.417C111.973 237.003 112.108 237.473 112.378 237.828C112.651 238.183 113.016 238.36 113.472 238.36C113.931 238.36 114.295 238.181 114.565 237.823C114.836 237.462 114.971 236.957 114.971 236.31C114.971 235.73 114.832 235.261 114.556 234.903C114.282 234.542 113.918 234.361 113.462 234.361C113.016 234.361 112.656 234.539 112.383 234.894C112.109 235.248 111.973 235.756 111.973 236.417ZM117.861 233.717L117.891 234.381C118.294 233.873 118.822 233.619 119.473 233.619C120.589 233.619 121.152 234.249 121.162 235.509V239H120.259V235.504C120.256 235.123 120.168 234.841 119.995 234.659C119.826 234.477 119.561 234.386 119.199 234.386C118.906 234.386 118.649 234.464 118.428 234.62C118.206 234.776 118.034 234.981 117.91 235.235V239H117.007V233.717H117.861Z" fill="#2E2E2E"/>
</svg>
