<svg width="870" height="344" viewBox="0 0 870 344" fill="none" xmlns="http://www.w3.org/2000/svg">
<path d="M3 340.996C22.4952 340.914 41.9861 340.745 61.4727 340.24C80.1079 339.752 98.8079 338.958 117.322 336.63C136.925 334.16 156.179 330.058 174.632 322.596C193.021 315.156 209.275 303.881 224.293 290.689C238.892 277.873 251.667 262.133 262.903 246.108C274.468 229.626 285.186 212.526 295.134 194.921C305.386 176.785 315.204 158.398 324.937 139.955C334.479 121.875 344.035 103.82 353.957 85.9692C363.655 68.5152 374.135 51.1864 386.405 35.5589C392.762 27.4624 399.767 20.2467 407.607 13.7349C415.235 7.40018 424.444 3.83337 434.082 3.0777C443.857 2.31338 453.132 7.3095 461.015 12.7245C469.079 18.2647 475.795 26.0503 482.022 33.6417C494.871 49.2691 505.208 67.0815 515.317 84.691C525.114 101.761 534.168 119.297 543.36 136.721C553.041 155.073 562.717 173.434 572.925 191.484C582.822 208.998 593.194 226.279 604.707 242.688C616.51 259.521 629.444 275.351 644.289 289.363C658.888 303.13 675.557 313.86 693.63 321.866C711.021 329.574 730.106 333.78 748.81 336.138C768.037 338.569 787.325 339.605 806.678 340.188C825.805 340.771 844.951 340.896 864.087 340.987C865.068 340.987 866.028 340.996 867 341" fill="url(#paint0_linear)"/>
<path d="M3 340.996C22.4952 340.914 41.9861 340.745 61.4727 340.24C80.1079 339.752 98.8079 338.958 117.322 336.63C136.925 334.16 156.179 330.058 174.632 322.596C193.021 315.156 209.275 303.881 224.293 290.689C238.892 277.873 251.667 262.133 262.903 246.108C274.468 229.626 285.186 212.526 295.134 194.921C305.386 176.785 315.204 158.398 324.937 139.955C334.479 121.875 344.035 103.82 353.957 85.9692C363.655 68.5152 374.135 51.1864 386.405 35.5589C392.762 27.4624 399.767 20.2467 407.607 13.7349C415.235 7.40018 424.444 3.83337 434.082 3.0777C443.857 2.31338 453.132 7.3095 461.015 12.7245C469.079 18.2647 475.795 26.0503 482.022 33.6417C494.871 49.2691 505.208 67.0815 515.317 84.691C525.114 101.761 534.168 119.297 543.36 136.721C553.041 155.073 562.717 173.434 572.925 191.484C582.822 208.998 593.194 226.279 604.707 242.688C616.51 259.521 629.444 275.351 644.289 289.363C658.888 303.13 675.557 313.86 693.63 321.866C711.021 329.574 730.106 333.78 748.81 336.138C768.037 338.569 787.325 339.605 806.678 340.188C825.805 340.771 844.951 340.896 864.087 340.987C865.068 340.987 866.028 340.996 867 341" stroke="#3D5AFE" stroke-width="5" stroke-miterlimit="10" stroke-linecap="round" stroke-linejoin="round"/>
<line x1="514.5" y1="3" x2="514.5" y2="341" stroke="#E91E63" stroke-width="5" stroke-dasharray="10 5"/>
<defs>
<linearGradient id="paint0_linear" x1="3" y1="341" x2="694" y2="341" gradientUnits="userSpaceOnUse">
<stop offset="0.2701" stop-color="#00E676" stop-opacity="0.4"/>
<stop offset="0.463317" stop-color="#3D5AFE" stop-opacity="0.2"/>
<stop offset="0.795628" stop-color="#3D5AFE" stop-opacity="0.2"/>
<stop offset="0.960227" stop-color="#FF0000" stop-opacity="0.4"/>
</linearGradient>
</defs>
</svg>
