<svg width="1550" height="336" viewBox="0 0 1550 336" fill="none" xmlns="http://www.w3.org/2000/svg">
<path fill-rule="evenodd" clip-rule="evenodd" d="M1549.7 314.824C1549.7 326.006 1540.46 335 1529.52 335H21.1761C9.99418 335 1 325.763 1 314.824V21.1761C1 9.99418 9.99418 1 21.1761 1H1529.52C1540.71 1 1549.7 10.2373 1549.7 21.1761V314.824Z" fill="url(#paint0_linear)"/>
<path d="M1549.7 314.824C1549.7 326.006 1540.46 335 1529.52 335H21.1761C9.99418 335 1 325.763 1 314.824V21.1761C1 9.99418 9.99418 1 21.1761 1H1529.52C1540.71 1 1549.7 10.2373 1549.7 21.1761V314.824Z" stroke="#D2D4D5" stroke-width="0.0416642"/>
<path d="M624.989 145.394C623.53 143.449 621.342 141.748 618.425 140.289C615.508 138.831 612.834 138.345 609.917 138.345C608.216 138.345 606.514 138.588 604.812 139.074C603.111 139.56 601.652 140.046 600.194 141.019C598.735 141.991 597.763 142.963 596.791 144.422C595.818 145.88 595.575 147.582 595.575 149.527C595.575 151.471 596.061 152.93 596.791 154.145C597.52 155.361 598.492 156.576 599.951 157.548C601.166 158.521 602.868 159.25 604.812 159.979C606.757 160.709 608.945 161.438 611.133 162.167C613.807 162.896 616.481 163.869 619.155 165.084C621.828 166.056 624.502 167.515 626.933 169.217C629.364 170.918 631.066 173.106 632.767 175.78C634.226 178.454 634.955 181.857 634.955 185.746C634.955 190.122 634.226 194.011 632.524 197.171C630.823 200.332 628.878 203.006 626.204 205.193C623.53 207.381 620.37 208.84 616.724 210.055C613.077 211.027 609.431 211.757 605.299 211.757C599.951 211.757 594.846 210.784 589.741 208.84C584.636 206.895 580.504 203.978 577.344 200.088L587.796 190.365C589.741 193.039 592.415 195.227 595.818 196.928C599.221 198.63 602.382 199.359 605.542 199.359C607.243 199.359 608.945 199.116 610.647 198.63C612.348 198.144 614.05 197.415 615.508 196.442C616.967 195.47 618.182 194.254 618.911 192.796C619.884 191.337 620.127 189.393 620.127 187.205C620.127 185.017 619.641 183.316 618.668 181.857C617.696 180.399 616.237 179.183 614.536 178.211C612.834 177.238 610.89 176.266 608.459 175.537C606.271 174.808 603.84 174.078 601.166 173.106C598.735 172.377 596.304 171.404 593.874 170.432C591.443 169.46 589.255 168.001 587.31 166.3C585.366 164.598 583.664 162.41 582.449 159.736C581.233 157.062 580.504 153.902 580.504 150.256C580.504 146.123 581.476 142.477 583.178 139.56C584.879 136.643 587.067 134.212 589.984 132.268C592.658 130.323 596.061 128.864 599.465 127.892C603.111 126.92 606.757 126.433 610.403 126.433C614.536 126.433 618.668 127.163 623.044 128.621C627.176 130.08 631.066 132.268 634.226 135.185L624.746 145.637L624.989 145.394Z" fill="#4B66AE"/>
<path d="M646.808 154.634H660.664V209.815H646.808V154.634ZM644.863 135.916C644.863 133.729 645.593 131.784 647.294 130.082C648.996 128.381 650.94 127.651 653.614 127.651C656.045 127.651 658.233 128.381 659.935 130.082C661.636 131.541 662.609 133.729 662.609 135.916C662.609 138.347 661.636 140.292 659.935 141.75C658.233 143.209 656.045 144.181 653.614 144.181C651.184 144.181 648.996 143.452 647.294 141.75C645.593 140.049 644.863 138.104 644.863 135.916Z" fill="#4B66AE"/>
<path d="M701.078 164.357C698.647 164.357 696.217 164.843 694.272 165.816C692.327 166.788 690.626 168.003 689.41 169.462C688.195 170.92 686.979 172.865 686.25 175.053C685.521 177.241 685.278 179.428 685.278 181.859C685.278 184.047 685.764 186.235 686.25 188.179C686.979 190.124 687.952 192.069 689.41 193.77C690.869 195.472 692.327 196.687 694.272 197.66C696.217 198.632 698.404 199.118 700.835 199.118C703.266 199.118 705.697 198.632 707.642 197.66C709.586 196.687 711.288 195.472 712.746 193.77C714.205 192.069 715.177 190.367 715.907 188.179C716.636 185.992 717.122 183.804 717.122 181.616C717.122 179.185 716.636 176.998 715.907 174.81C715.177 172.622 713.962 170.92 712.746 169.219C711.288 167.517 709.586 166.302 707.642 165.329C705.697 164.357 703.509 163.871 700.835 163.871L701.078 164.357ZM730.492 154.634V204.709C730.492 209.571 729.762 214.19 728.547 218.322C727.332 222.455 725.387 225.858 722.956 228.532C720.282 231.206 717.122 233.393 713.233 235.095C709.343 236.554 704.725 237.283 699.377 237.283C697.189 237.283 694.758 237.04 692.327 236.797C689.896 236.31 687.466 235.824 685.035 235.095C682.604 234.366 680.416 233.393 677.985 232.178C675.797 230.963 673.853 229.747 671.908 228.289L679.93 217.593C682.604 220.024 685.521 221.968 688.924 223.427C692.327 224.885 695.73 225.372 699.134 225.372C702.537 225.372 705.211 224.885 707.399 223.913C709.586 222.941 711.531 221.725 712.746 220.024C714.205 218.322 714.934 216.377 715.664 213.947C716.15 211.759 716.636 209.085 716.636 206.411V202.278H716.393C714.448 204.952 711.774 207.14 708.857 208.599C705.697 210.057 702.294 210.786 698.404 210.786C694.272 210.786 690.626 210.057 687.222 208.599C683.819 207.14 680.902 204.952 678.714 202.278C676.284 199.604 674.582 196.687 673.367 193.041C672.151 189.638 671.422 185.749 671.422 181.859C671.422 177.97 672.151 174.08 673.367 170.677C674.582 167.274 676.527 164.114 678.714 161.44C681.145 158.766 683.819 156.821 687.222 155.12C690.626 153.661 694.272 152.932 698.404 152.932C702.294 152.932 705.94 153.661 709.343 155.363C712.746 157.064 715.42 159.495 717.365 162.899H717.608V154.634H730.735H730.492Z" fill="#4B66AE"/>
<path d="M743.555 154.634H756.681V163.385H756.924C758.14 160.711 760.328 158.28 763.245 156.092C766.162 153.904 769.808 152.932 773.94 152.932C777.587 152.932 780.504 153.661 783.178 154.877C785.852 156.092 787.796 157.794 789.498 159.981C791.2 162.169 792.415 164.357 793.144 167.031C793.873 169.705 794.36 172.379 794.36 175.296V209.814H780.504V179.185C780.504 177.484 780.261 175.782 780.261 174.08C780.018 172.379 779.531 170.677 778.802 169.219C778.073 167.76 777.101 166.545 775.642 165.816C774.184 164.843 772.482 164.357 770.294 164.357C768.106 164.357 766.162 164.843 764.46 165.572C762.758 166.545 761.543 167.517 760.571 168.976C759.598 170.434 758.869 171.893 758.14 173.837C757.654 175.539 757.411 177.484 757.411 179.185V209.571H743.555V154.391V154.634Z" fill="#4B66AE"/>
<path d="M833.843 154.634H847.699V209.815H833.843V154.634ZM831.898 135.916C831.898 133.729 832.628 131.784 834.329 130.082C836.031 128.381 837.976 127.651 840.65 127.651C843.08 127.651 845.268 128.381 846.97 130.082C848.671 131.541 849.644 133.729 849.644 135.916C849.644 138.347 848.671 140.292 846.97 141.75C845.268 143.209 843.08 144.181 840.65 144.181C838.219 144.181 836.031 143.452 834.329 141.75C832.628 140.049 831.898 138.104 831.898 135.916Z" fill="#4B66AE"/>
<path d="M861.254 154.634H874.381V163.385H874.624C875.839 160.711 878.027 158.28 880.944 156.092C883.861 153.904 887.507 152.932 891.64 152.932C895.286 152.932 898.203 153.661 900.877 154.877C903.551 156.092 905.496 157.794 907.197 159.981C908.899 162.169 910.114 164.357 910.843 167.031C911.573 169.705 912.059 172.379 912.059 175.296V209.814H898.203V179.185C898.203 177.484 898.203 175.782 897.96 174.08C897.717 172.379 897.231 170.677 896.501 169.219C895.772 167.76 894.8 166.545 893.341 165.816C891.883 164.843 890.181 164.357 887.993 164.357C885.806 164.357 883.861 164.843 882.159 165.572C880.458 166.545 879.242 167.517 878.27 168.976C877.298 170.434 876.568 171.893 875.839 173.837C875.353 175.539 875.11 177.484 875.11 179.185V209.571H861.254V154.391V154.634Z" fill="#4B66AE"/>
<path d="M942.984 154.624H958.056L969.481 194.004H969.724L981.392 154.624H996.22L1008.13 194.004H1008.37L1020.04 154.624H1034.38L1015.42 209.805H1001.32L988.928 171.154H988.685L976.287 209.805H962.188L942.984 154.624Z" fill="#4B66AE"/>
<path d="M1040.82 154.634H1054.68V209.815H1040.82V154.634ZM1038.88 135.916C1038.88 133.729 1039.61 131.784 1041.31 130.082C1043.01 128.381 1044.96 127.651 1047.63 127.651C1050.06 127.651 1052.25 128.381 1053.95 130.082C1055.65 131.541 1056.62 133.729 1056.62 135.916C1056.62 138.347 1055.65 140.292 1053.95 141.75C1052.25 143.209 1050.06 144.181 1047.63 144.181C1045.2 144.181 1043.01 143.452 1041.31 141.75C1039.61 140.049 1038.88 138.104 1038.88 135.916Z" fill="#4B66AE"/>
<path d="M1060.73 165.569V154.63H1070.46V138.586H1084.07V154.63H1097.93V165.569H1084.07V191.093C1084.07 193.524 1084.56 195.468 1085.29 197.17C1086.26 198.872 1088.2 199.601 1091.12 199.601C1092.09 199.601 1093.06 199.601 1094.04 199.358C1095.01 199.115 1095.98 198.872 1096.95 198.385L1097.44 209.081C1096.22 209.567 1094.77 209.81 1093.06 210.297C1091.36 210.54 1089.66 210.783 1088.2 210.783C1084.56 210.783 1081.64 210.297 1079.21 209.324C1077.02 208.352 1075.08 206.893 1073.86 205.192C1072.4 203.49 1071.67 201.302 1071.19 198.872C1070.7 196.441 1070.46 194.01 1070.46 191.336V165.569H1060.73Z" fill="#4B66AE"/>
<path d="M1135.07 152.936C1138.71 152.936 1141.63 153.665 1144.3 154.881C1146.98 156.096 1148.92 157.798 1150.62 159.985C1152.33 162.173 1153.54 164.361 1154.27 167.035C1155 169.709 1155.49 172.383 1155.49 175.3V209.818H1141.63V179.432C1141.63 177.731 1141.63 176.272 1141.39 174.327C1141.14 172.626 1140.66 170.924 1139.93 169.709C1139.2 168.25 1138.23 167.035 1136.77 166.306C1135.31 165.333 1133.61 164.847 1131.42 164.847C1129.23 164.847 1127.29 165.333 1125.59 166.063C1123.88 166.792 1122.67 168.007 1121.45 169.466C1120.48 170.924 1119.51 172.383 1119.02 174.327C1118.54 176.029 1118.29 177.974 1118.29 179.675V209.818H1104.44V123.036H1118.29V162.416H1118.54C1119.02 161.201 1119.75 160.228 1120.97 159.013C1121.94 157.798 1123.16 156.825 1124.61 156.096C1126.07 155.124 1127.53 154.394 1129.23 153.908C1130.93 153.422 1132.88 153.179 1135.07 153.179V152.936Z" fill="#4B66AE"/>
<path d="M1195.63 209.811H1209.97V128.377H1195.63V209.811Z" fill="#4B66AE"/>
<path d="M1223.96 154.634H1237.08V163.385H1237.33C1238.54 160.711 1240.73 158.28 1243.65 156.092C1246.56 153.904 1250.21 152.932 1254.34 152.932C1257.99 152.932 1260.91 153.661 1263.58 154.877C1266.25 156.092 1268.2 157.794 1269.9 159.981C1271.6 162.169 1272.82 164.357 1273.55 167.031C1274.28 169.705 1274.76 172.379 1274.76 175.296V209.814H1260.91V179.185C1260.91 177.484 1260.91 175.782 1260.66 174.08C1260.42 172.379 1259.93 170.677 1259.2 169.219C1258.48 167.76 1257.5 166.545 1256.04 165.816C1254.59 164.843 1252.88 164.357 1250.7 164.357C1248.51 164.357 1246.56 164.843 1244.86 165.572C1243.16 166.545 1241.95 167.517 1240.97 168.976C1240 170.434 1239.27 171.893 1238.54 173.837C1238.06 175.539 1237.81 177.484 1237.81 179.185V209.571H1223.96V154.391V154.634Z" fill="#4B66AE"/>
<path d="M1280.06 165.569V154.63H1289.78V138.586H1303.39V154.63H1317.25V165.569H1303.39V191.093C1303.39 193.524 1303.88 195.468 1304.61 197.17C1305.58 198.872 1307.53 199.601 1310.44 199.601C1311.42 199.601 1312.39 199.601 1313.36 199.358C1314.33 199.115 1315.31 198.872 1316.28 198.385L1316.76 209.081C1315.55 209.567 1314.09 209.81 1312.39 210.297C1310.69 210.54 1308.99 210.783 1307.53 210.783C1303.88 210.783 1300.96 210.297 1298.53 209.324C1296.35 208.352 1294.4 206.893 1293.19 205.192C1291.73 203.49 1291 201.302 1290.51 198.872C1290.03 196.441 1289.78 194.01 1289.78 191.336V165.569H1280.06Z" fill="#4B66AE"/>
<path d="M1374.57 209.805H1361.44V201.053H1361.2C1359.99 203.727 1357.8 206.158 1354.88 208.346C1351.96 210.534 1348.32 211.506 1344.18 211.506C1340.54 211.506 1337.62 210.777 1334.95 209.561C1332.27 208.346 1330.33 206.644 1328.63 204.457C1326.93 202.269 1325.71 200.081 1324.98 197.407C1324.25 194.733 1323.77 192.059 1323.77 189.142V154.624H1337.62V185.253C1337.62 186.954 1337.62 188.656 1337.86 190.358C1338.11 192.059 1338.59 193.761 1339.32 195.219C1340.05 196.678 1341.02 197.893 1342.48 198.623C1343.7 199.595 1345.64 200.081 1347.83 200.081C1350.02 200.081 1351.96 199.595 1353.42 198.866C1355.12 197.893 1356.34 196.921 1357.55 195.462C1358.53 194.004 1359.26 192.545 1359.99 190.601C1360.47 188.899 1360.71 186.954 1360.71 185.253V154.867H1374.57V210.048V209.805Z" fill="#4B66AE"/>
<path d="M1388.34 154.634H1402.19V209.815H1388.34V154.634ZM1386.39 135.916C1386.39 133.729 1387.12 131.784 1388.82 130.082C1390.52 128.381 1392.47 127.651 1395.14 127.651C1397.57 127.651 1399.76 128.381 1401.46 130.082C1403.16 131.541 1404.14 133.729 1404.14 135.916C1404.14 138.347 1403.16 140.292 1401.46 141.75C1399.76 143.209 1397.57 144.181 1395.14 144.181C1392.71 144.181 1390.52 143.452 1388.82 141.75C1387.12 140.049 1386.39 138.104 1386.39 135.916Z" fill="#4B66AE"/>
<path d="M1408.29 165.569V154.63H1418.02V138.586H1431.63V154.63H1445.49V165.569H1431.63V191.093C1431.63 193.524 1432.12 195.468 1432.84 197.17C1433.82 198.872 1435.76 199.601 1438.68 199.601C1439.65 199.601 1440.62 199.601 1441.6 199.358C1442.57 199.115 1443.54 198.872 1444.51 198.385L1445 209.081C1443.78 209.567 1442.32 209.81 1440.62 210.297C1438.92 210.54 1437.22 210.783 1435.76 210.783C1432.12 210.783 1429.2 210.297 1426.77 209.324C1424.58 208.352 1422.64 206.893 1421.42 205.192C1419.96 203.49 1419.23 201.302 1418.75 198.872C1418.26 196.441 1418.02 194.01 1418.02 191.336V165.569H1408.29Z" fill="#4B66AE"/>
<path d="M361.471 210.294H351.262C349.074 210.294 347.615 209.079 347.372 207.134L347.129 203.002C339.837 208.836 330.842 212.239 321.605 212.239C303.617 212.239 296.324 200.814 296.324 183.555V135.91C296.324 133.236 298.026 132.264 300.457 132.264H311.639C314.313 132.264 315.771 132.993 315.771 135.91V180.152C315.771 188.903 317.959 194.98 327.682 194.98C333.759 194.98 341.538 191.577 346.4 187.201V135.91C346.4 133.236 347.858 132.264 350.532 132.264H361.957C364.631 132.264 366.09 132.993 366.09 135.91V205.919C366.09 209.322 365.118 210.294 361.957 210.294H361.471Z" fill="#4B66AE"/>
<path d="M99.8281 135.424C99.8281 133.479 100.8 132.264 102.745 132.264H116.358C118.303 132.264 119.518 133.479 119.518 135.424V206.405C119.518 209.322 118.303 210.537 115.386 210.537H103.961C101.044 210.537 99.8281 209.322 99.8281 206.405V135.424Z" fill="#4B66AE"/>
<path d="M385.555 135.424C385.555 133.479 386.527 132.264 388.472 132.264H402.085C404.029 132.264 405.245 133.479 405.245 135.424V206.405C405.245 209.322 404.029 210.537 401.112 210.537H389.687C386.77 210.537 385.555 209.322 385.555 206.405V135.424Z" fill="#4B66AE"/>
<path d="M205.744 210.291H194.076C191.159 210.291 190.187 208.832 190.187 206.158V162.403C190.187 153.652 187.756 147.332 178.033 147.332C171.712 147.332 163.934 150.735 159.072 155.11V206.401C159.072 209.075 157.856 210.534 155.182 210.534H143.514C141.084 210.534 139.625 209.318 139.625 206.645V136.393C139.625 133.719 140.84 132.26 143.757 132.26H154.21C156.398 132.26 157.856 132.99 158.1 135.42L158.343 139.796C165.635 133.962 175.116 130.559 184.353 130.559C202.341 130.559 209.634 141.741 209.634 159.243V206.401C209.634 209.075 208.661 210.534 205.744 210.534V210.291Z" fill="#4B66AE"/>
<path d="M262.872 110.391C262.872 103.827 257.524 98.4795 251.204 98.4795C244.641 98.4795 239.293 103.827 239.293 110.391C239.293 116.954 244.641 122.059 251.204 122.059C257.767 122.059 262.872 116.711 262.872 110.391Z" fill="#4B66AE"/>
<path d="M279.39 132.264C281.335 132.264 282.55 132.993 282.55 134.938V146.363C282.55 148.307 281.335 149.523 279.39 149.523H260.672V206.405C260.672 209.322 259.457 210.537 256.54 210.537H245.358C242.441 210.537 241.225 209.322 241.225 206.405V149.523H222.508C220.563 149.523 219.348 148.307 219.348 146.363V134.938C219.348 132.75 220.563 132.264 222.508 132.264H279.633H279.39Z" fill="#4B66AE"/>
<path d="M462.302 110.391C462.302 103.827 456.954 98.4795 450.634 98.4795C444.071 98.4795 438.723 103.827 438.723 110.391C438.723 116.954 444.071 122.059 450.634 122.059C457.197 122.059 462.302 116.711 462.302 110.391Z" fill="#4B66AE"/>
<path d="M478.87 132.264C480.815 132.264 482.03 132.993 482.03 134.938V146.363C482.03 148.307 480.815 149.523 478.87 149.523H460.153V206.405C460.153 209.322 458.937 210.537 456.02 210.537H444.838C441.921 210.537 440.706 209.322 440.706 206.405V149.523H421.988C420.044 149.523 418.828 148.307 418.828 146.363V134.938C418.828 132.75 420.044 132.264 421.988 132.264H479.113H478.87Z" fill="#4B66AE"/>
<defs>
<linearGradient id="paint0_linear" x1="775.27" y1="335.073" x2="775.27" y2="0.828706" gradientUnits="userSpaceOnUse">
<stop stop-color="#F1F3F4"/>
<stop offset="0.980392" stop-color="#FEFEFE"/>
<stop offset="1" stop-color="#FEFEFE"/>
</linearGradient>
</defs>
</svg>
