<svg width="573" height="124" viewBox="0 0 573 124" fill="none" xmlns="http://www.w3.org/2000/svg">
<path d="M572.064 115.921C572.064 120.052 568.652 123.374 564.611 123.374H7.45272C3.3223 123.374 0 119.962 0 115.921V7.45272C0 3.3223 3.3223 0 7.45272 0H564.611C568.741 0 572.064 3.41209 572.064 7.45272V115.921Z" fill="#365EBE"/>
<path d="M230.564 51.0871C230.025 50.3688 229.217 49.7403 228.14 49.2015C227.062 48.6628 226.074 48.4832 224.997 48.4832C224.368 48.4832 223.74 48.573 223.111 48.7525C222.483 48.9321 221.944 49.1117 221.405 49.4709C220.867 49.8301 220.507 50.1892 220.148 50.728C219.789 51.2667 219.699 51.8953 219.699 52.6136C219.699 53.3319 219.879 53.8707 220.148 54.3196C220.418 54.7686 220.777 55.2176 221.315 55.5767C221.764 55.9359 222.393 56.2053 223.111 56.4746C223.83 56.744 224.638 57.0134 225.446 57.2828C226.434 57.5521 227.421 57.9113 228.409 58.3603C229.397 58.7194 230.384 59.2582 231.282 59.8867C232.18 60.5153 232.809 61.3234 233.437 62.3111C233.976 63.2988 234.246 64.5559 234.246 65.9926C234.246 67.6088 233.976 69.0455 233.348 70.2128C232.719 71.3801 232.001 72.3678 231.013 73.1759C230.025 73.984 228.858 74.5228 227.511 74.9718C226.164 75.3309 224.817 75.6003 223.291 75.6003C221.315 75.6003 219.43 75.2411 217.544 74.5228C215.659 73.8045 214.132 72.727 212.965 71.2903L216.826 67.6986C217.544 68.6863 218.532 69.4945 219.789 70.123C221.046 70.7515 222.213 71.0209 223.381 71.0209C224.009 71.0209 224.638 70.9311 225.266 70.7515C225.895 70.572 226.523 70.3026 227.062 69.9434C227.601 69.5843 228.05 69.1353 228.319 68.5965C228.678 68.0578 228.768 67.3395 228.768 66.5313C228.768 65.7232 228.589 65.0947 228.229 64.5559C227.87 64.0172 227.332 63.5682 226.703 63.209C226.074 62.8499 225.356 62.4907 224.458 62.2213C223.65 61.9519 222.752 61.6826 221.764 61.3234C220.867 61.054 219.969 60.6949 219.071 60.3357C218.173 59.9765 217.365 59.4378 216.646 58.8092C215.928 58.1807 215.299 57.3726 214.85 56.3849C214.402 55.3971 214.132 54.2298 214.132 52.883C214.132 51.3565 214.491 50.0096 215.12 48.9321C215.748 47.8546 216.557 46.9567 217.634 46.2384C218.622 45.52 219.879 44.9813 221.136 44.6221C222.483 44.263 223.83 44.0834 225.177 44.0834C226.703 44.0834 228.229 44.3527 229.846 44.8915C231.372 45.4303 232.809 46.2384 233.976 47.3159L230.474 51.0871H230.564Z" fill="#FEFEFE"/>
<path d="M238.55 54.5145H243.668V74.8972H238.55V54.5145ZM237.832 47.6005C237.832 46.7924 238.101 46.0741 238.73 45.4455C239.358 44.817 240.077 44.5476 241.065 44.5476C241.962 44.5476 242.771 44.817 243.399 45.4455C244.028 45.9843 244.387 46.7924 244.387 47.6005C244.387 48.4984 244.028 49.2168 243.399 49.7555C242.771 50.2943 241.962 50.6534 241.065 50.6534C240.167 50.6534 239.358 50.3841 238.73 49.7555C238.101 49.127 237.832 48.4086 237.832 47.6005Z" fill="#FEFEFE"/>
<path d="M258.638 58.106C257.74 58.106 256.842 58.2855 256.124 58.6447C255.406 59.0039 254.777 59.4528 254.328 59.9916C253.879 60.5303 253.43 61.2487 253.161 62.0568C252.892 62.8649 252.802 63.673 252.802 64.571C252.802 65.3791 252.981 66.1872 253.161 66.9056C253.43 67.6239 253.789 68.3422 254.328 68.9708C254.867 69.5993 255.406 70.0483 256.124 70.4074C256.842 70.7666 257.65 70.9462 258.548 70.9462C259.446 70.9462 260.344 70.7666 261.063 70.4074C261.781 70.0483 262.409 69.5993 262.948 68.9708C263.487 68.3422 263.846 67.7137 264.115 66.9056C264.385 66.0974 264.564 65.2893 264.564 64.4812C264.564 63.5833 264.385 62.7751 264.115 61.967C263.846 61.1589 263.397 60.5303 262.948 59.9018C262.409 59.2733 261.781 58.8243 261.063 58.4651C260.344 58.106 259.536 57.9264 258.548 57.9264L258.638 58.106ZM269.503 54.5143V73.0114C269.503 74.8072 269.234 76.5133 268.785 78.0397C268.336 79.5662 267.617 80.8233 266.719 81.811C265.732 82.7987 264.564 83.6068 263.128 84.2354C261.691 84.7741 259.985 85.0435 258.01 85.0435C257.202 85.0435 256.304 84.9537 255.406 84.8639C254.508 84.6843 253.61 84.5048 252.712 84.2354C251.814 83.966 251.006 83.6068 250.108 83.1579C249.3 82.7089 248.582 82.26 247.863 81.7212L250.826 77.7704C251.814 78.6683 252.892 79.3866 254.149 79.9254C255.406 80.3743 256.663 80.6437 257.92 80.6437C259.177 80.6437 260.165 80.4641 260.973 80.105C261.781 79.7458 262.499 79.2968 262.948 78.6683C263.487 78.0397 263.756 77.3214 264.026 76.4235C264.205 75.6154 264.385 74.6277 264.385 73.6399V72.1135H264.295C263.577 73.1012 262.589 73.9093 261.512 74.4481C260.344 74.9868 259.087 75.2562 257.65 75.2562C256.124 75.2562 254.777 74.9868 253.52 74.4481C252.263 73.9093 251.185 73.1012 250.377 72.1135C249.479 71.1258 248.851 70.0483 248.402 68.7014C247.953 67.4443 247.684 66.0076 247.684 64.571C247.684 63.1343 247.953 61.6976 248.402 60.4405C248.851 59.1835 249.569 58.0162 250.377 57.0285C251.275 56.0407 252.263 55.3224 253.52 54.6939C254.777 54.1551 256.124 53.8857 257.65 53.8857C259.087 53.8857 260.434 54.1551 261.691 54.7837C262.948 55.4122 263.936 56.3101 264.654 57.5672H264.744V54.5143H269.593H269.503Z" fill="#FEFEFE"/>
<path d="M274.246 54.5143H279.095V57.7468H279.185C279.634 56.7591 280.442 55.8612 281.519 55.053C282.597 54.2449 283.944 53.8857 285.47 53.8857C286.817 53.8857 287.894 54.1551 288.882 54.6041C289.87 55.053 290.588 55.6816 291.217 56.4897C291.845 57.2978 292.294 58.106 292.564 59.0937C292.833 60.0814 293.013 61.0691 293.013 62.1466V74.897H287.894V63.5833C287.894 62.9547 287.805 62.3262 287.805 61.6976C287.715 61.0691 287.535 60.4405 287.266 59.9018C286.997 59.363 286.637 58.9141 286.099 58.6447C285.56 58.2855 284.931 58.106 284.123 58.106C283.315 58.106 282.597 58.2855 281.968 58.5549C281.34 58.9141 280.891 59.2733 280.532 59.812C280.172 60.3508 279.903 60.8895 279.634 61.6078C279.454 62.2364 279.364 62.9547 279.364 63.5833V74.8072H274.246V54.4245V54.5143Z" fill="#FEFEFE"/>
<path d="M307.679 54.5145H312.797V74.8972H307.679V54.5145ZM306.961 47.6005C306.961 46.7924 307.23 46.0741 307.859 45.4455C308.487 44.817 309.206 44.5476 310.193 44.5476C311.091 44.5476 311.899 44.817 312.528 45.4455C313.157 45.9843 313.516 46.7924 313.516 47.6005C313.516 48.4984 313.157 49.2168 312.528 49.7555C311.899 50.2943 311.091 50.6534 310.193 50.6534C309.296 50.6534 308.487 50.3841 307.859 49.7555C307.23 49.127 306.961 48.4086 306.961 47.6005Z" fill="#FEFEFE"/>
<path d="M317.809 54.5143H322.657V57.7468H322.747C323.196 56.7591 324.004 55.8612 325.082 55.053C326.159 54.2449 327.506 53.8857 329.033 53.8857C330.379 53.8857 331.457 54.1551 332.445 54.6041C333.432 55.053 334.151 55.6816 334.779 56.4897C335.408 57.2978 335.857 58.106 336.126 59.0937C336.395 60.0814 336.575 61.0691 336.575 62.1466V74.897H331.457V63.5833C331.457 62.9547 331.457 62.3262 331.367 61.6976C331.277 61.0691 331.098 60.4405 330.828 59.9018C330.559 59.363 330.2 58.9141 329.661 58.6447C329.122 58.2855 328.494 58.106 327.686 58.106C326.878 58.106 326.159 58.2855 325.531 58.5549C324.902 58.9141 324.453 59.2733 324.094 59.812C323.735 60.3508 323.465 60.8895 323.196 61.6078C323.017 62.2364 322.927 62.9547 322.927 63.5833V74.8072H317.809V54.4245V54.5143Z" fill="#FEFEFE"/>
<path d="M347.953 54.5017H353.52L357.74 69.048H357.83L362.14 54.5017H367.618L372.017 69.048H372.107L376.417 54.5017H381.715L374.711 74.8844H369.503L364.924 60.6075H364.834L360.255 74.8844H355.047L347.953 54.5017Z" fill="#FEFEFE"/>
<path d="M384.093 54.5145H389.211V74.8972H384.093V54.5145ZM383.375 47.6005C383.375 46.7924 383.644 46.0741 384.273 45.4455C384.901 44.817 385.62 44.5476 386.608 44.5476C387.505 44.5476 388.314 44.817 388.942 45.4455C389.571 45.9843 389.93 46.7924 389.93 47.6005C389.93 48.4984 389.571 49.2168 388.942 49.7555C388.314 50.2943 387.505 50.6534 386.608 50.6534C385.71 50.6534 384.901 50.3841 384.273 49.7555C383.644 49.127 383.375 48.4086 383.375 47.6005Z" fill="#FEFEFE"/>
<path d="M391.52 58.5495V54.5089H395.111V48.5826H400.14V54.5089H405.258V58.5495H400.14V67.9777C400.14 68.8756 400.319 69.5939 400.589 70.2225C400.948 70.851 401.666 71.1204 402.744 71.1204C403.103 71.1204 403.462 71.1204 403.821 71.0306C404.18 70.9408 404.539 70.851 404.899 70.6714L405.078 74.6223C404.629 74.8019 404.09 74.8916 403.462 74.9814C402.833 75.0712 402.205 75.161 401.666 75.161C400.319 75.161 399.242 74.9814 398.344 74.6223C397.536 74.2631 396.817 73.7244 396.368 73.0958C395.83 72.4673 395.56 71.6591 395.381 70.7612C395.201 69.8633 395.111 68.9654 395.111 67.9777V58.4597H391.52V58.5495Z" fill="#FEFEFE"/>
<path d="M418.833 53.8778C420.18 53.8778 421.258 54.1471 422.245 54.5961C423.233 55.0451 423.951 55.6736 424.58 56.4817C425.209 57.2899 425.657 58.098 425.927 59.0857C426.196 60.0734 426.376 61.0611 426.376 62.1386V74.8891H421.258V63.6651C421.258 63.0365 421.258 62.4978 421.168 61.7794C421.078 61.1509 420.899 60.5224 420.629 60.0734C420.36 59.5347 420.001 59.0857 419.462 58.8163C418.923 58.4572 418.295 58.2776 417.486 58.2776C416.678 58.2776 415.96 58.4572 415.331 58.7265C414.703 58.9959 414.254 59.4449 413.805 59.9836C413.446 60.5224 413.087 61.0611 412.907 61.7794C412.727 62.408 412.638 63.1263 412.638 63.7549V74.8891H407.52V42.8334H412.638V57.3796H412.727C412.907 56.9307 413.176 56.5715 413.625 56.1226C413.985 55.6736 414.434 55.3144 414.972 55.0451C415.511 54.6859 416.05 54.4165 416.678 54.2369C417.307 54.0574 418.025 53.9676 418.833 53.9676V53.8778Z" fill="#FEFEFE"/>
<path d="M441.23 74.8869H446.528V44.8066H441.23V74.8869Z" fill="#FEFEFE"/>
<path d="M451.785 54.5143H456.634V57.7468H456.724C457.173 56.7591 457.981 55.8612 459.058 55.053C460.136 54.2449 461.483 53.8857 463.009 53.8857C464.356 53.8857 465.434 54.1551 466.421 54.6041C467.409 55.053 468.127 55.6816 468.756 56.4897C469.384 57.2978 469.833 58.106 470.103 59.0937C470.372 60.0814 470.552 61.0691 470.552 62.1466V74.897H465.434V63.5833C465.434 62.9547 465.434 62.3262 465.344 61.6976C465.254 61.0691 465.074 60.4405 464.805 59.9018C464.536 59.363 464.176 58.9141 463.638 58.6447C463.099 58.2855 462.47 58.106 461.662 58.106C460.854 58.106 460.136 58.2855 459.507 58.5549C458.879 58.9141 458.43 59.2733 458.071 59.812C457.711 60.3508 457.442 60.8895 457.173 61.6078C456.993 62.2364 456.903 62.9547 456.903 63.5833V74.8072H451.785V54.4245V54.5143Z" fill="#FEFEFE"/>
<path d="M472.508 58.5495V54.5089H476.099V48.5826H481.128V54.5089H486.246V58.5495H481.128V67.9777C481.128 68.8756 481.307 69.5939 481.577 70.2225C481.936 70.851 482.654 71.1204 483.732 71.1204C484.091 71.1204 484.45 71.1204 484.809 71.0306C485.168 70.9408 485.528 70.851 485.887 70.6714L486.066 74.6223C485.617 74.8019 485.079 74.8916 484.45 74.9814C483.822 75.0712 483.193 75.161 482.654 75.161C481.307 75.161 480.23 74.9814 479.332 74.6223C478.524 74.2631 477.806 73.7244 477.357 73.0958C476.818 72.4673 476.548 71.6591 476.369 70.7612C476.189 69.8633 476.099 68.9654 476.099 67.9777V58.4597H472.508V58.5495Z" fill="#FEFEFE"/>
<path d="M507.419 74.8844H502.57V71.6519H502.48C502.031 72.6396 501.223 73.5375 500.146 74.3457C499.068 75.1538 497.721 75.513 496.195 75.513C494.848 75.513 493.77 75.2436 492.783 74.7946C491.795 74.3457 491.077 73.7171 490.448 72.909C489.82 72.1009 489.371 71.2927 489.101 70.305C488.832 69.3173 488.652 68.3296 488.652 67.2521V54.5017H493.77V65.8154C493.77 66.444 493.77 67.0725 493.86 67.7011C493.95 68.3296 494.13 68.9582 494.399 69.4969C494.668 70.0357 495.028 70.4846 495.566 70.754C496.015 71.1132 496.734 71.2927 497.542 71.2927C498.35 71.2927 499.068 71.1132 499.607 70.8438C500.235 70.4846 500.684 70.1255 501.133 69.5867C501.493 69.048 501.762 68.5092 502.031 67.7909C502.211 67.1623 502.301 66.444 502.301 65.8154V54.5915H507.419V74.9742V74.8844Z" fill="#FEFEFE"/>
<path d="M512.503 54.5145H517.622V74.8972H512.503V54.5145ZM511.785 47.6005C511.785 46.7924 512.055 46.0741 512.683 45.4455C513.312 44.817 514.03 44.5476 515.018 44.5476C515.916 44.5476 516.724 44.817 517.352 45.4455C517.981 45.9843 518.34 46.7924 518.34 47.6005C518.34 48.4984 517.981 49.2168 517.352 49.7555C516.724 50.2943 515.916 50.6534 515.018 50.6534C514.12 50.6534 513.312 50.3841 512.683 49.7555C512.055 49.127 511.785 48.4086 511.785 47.6005Z" fill="#FEFEFE"/>
<path d="M519.785 58.5495V54.5089H523.377V48.5826H528.405V54.5089H533.523V58.5495H528.405V67.9777C528.405 68.8756 528.585 69.5939 528.854 70.2225C529.213 70.851 529.932 71.1204 531.009 71.1204C531.368 71.1204 531.727 71.1204 532.087 71.0306C532.446 70.9408 532.805 70.851 533.164 70.6714L533.344 74.6223C532.895 74.8019 532.356 74.8916 531.727 74.9814C531.099 75.0712 530.47 75.161 529.932 75.161C528.585 75.161 527.507 74.9814 526.609 74.6223C525.801 74.2631 525.083 73.7244 524.634 73.0958C524.095 72.4673 523.826 71.6591 523.646 70.7612C523.467 69.8633 523.377 68.9654 523.377 67.9777V58.4597H519.785V58.5495Z" fill="#FEFEFE"/>
<path d="M135.9 76.6829H132.129C131.321 76.6829 130.782 76.234 130.692 75.5156L130.602 73.9892C127.909 76.234 124.586 77.4012 121.174 77.4012C114.53 77.4012 111.836 73.181 111.836 66.8058V49.2066C111.836 48.2189 112.464 47.8597 113.362 47.8597H117.493C118.481 47.8597 119.019 48.1291 119.019 49.2066V65.5487C119.019 68.7812 119.827 71.1158 123.419 71.1158C125.664 71.1158 128.537 69.8587 130.333 68.2425V49.2964C130.333 48.3087 130.872 47.9495 131.86 47.9495H136.08C137.067 47.9495 137.606 48.2189 137.606 49.2964V75.1565C137.606 76.4135 137.247 76.7727 136.08 76.7727L135.9 76.6829Z" fill="#FEFEFE"/>
<path d="M39.5664 49.027C39.5664 48.3087 39.9256 47.8597 40.6439 47.8597H45.6723C46.3906 47.8597 46.8395 48.3087 46.8395 49.027V75.1565C46.8395 76.234 46.3906 76.6829 45.3131 76.6829H41.0929C40.0154 76.6829 39.5664 76.234 39.5664 75.1565V49.027Z" fill="#FEFEFE"/>
<path d="M145.273 49.027C145.273 48.3087 145.633 47.8597 146.351 47.8597H151.379C152.098 47.8597 152.547 48.3087 152.547 49.027V75.1565C152.547 76.234 152.098 76.6829 151.02 76.6829H146.8C145.722 76.6829 145.273 76.234 145.273 75.1565V49.027Z" fill="#FEFEFE"/>
<path d="M78.4234 76.6955H74.1134C73.0359 76.6955 72.6767 76.1567 72.6767 75.169V59.0065C72.6767 55.774 71.7788 53.4394 68.1871 53.4394C65.8525 53.4394 62.9792 54.6965 61.1833 56.3127V75.2588C61.1833 76.2465 60.7344 76.7853 59.7467 76.7853H55.4367C54.5388 76.7853 54 76.3363 54 75.3486V49.3988C54 48.4111 54.449 47.8723 55.5265 47.8723H59.3875C60.1956 47.8723 60.7344 48.1417 60.8242 49.0396L60.914 50.6559C63.6077 48.5009 67.1096 47.2438 70.5217 47.2438C77.1663 47.2438 79.86 51.3742 79.86 57.8392V75.2588C79.86 76.2465 79.5009 76.7853 78.4234 76.7853V76.6955Z" fill="#FEFEFE"/>
<path d="M99.8426 39.6985C99.8426 37.2741 97.8672 35.2987 95.5326 35.2987C93.1082 35.2987 91.1328 37.2741 91.1328 39.6985C91.1328 42.1229 93.1082 44.0085 95.5326 44.0085C97.957 44.0085 99.8426 42.0331 99.8426 39.6985Z" fill="#FEFEFE"/>
<path d="M106.034 47.8597C106.752 47.8597 107.201 48.1291 107.201 48.8475V53.0677C107.201 53.786 106.752 54.235 106.034 54.235H99.1201V75.2462C99.1201 76.3237 98.6711 76.7727 97.5936 76.7727H93.4632C92.3857 76.7727 91.9367 76.3237 91.9367 75.2462V54.235H85.0228C84.3044 54.235 83.8555 53.786 83.8555 53.0677V48.8475C83.8555 48.0393 84.3044 47.8597 85.0228 47.8597H106.124H106.034Z" fill="#FEFEFE"/>
<path d="M173.261 39.6985C173.261 37.2741 171.285 35.2987 168.951 35.2987C166.526 35.2987 164.551 37.2741 164.551 39.6985C164.551 42.1229 166.526 44.0085 168.951 44.0085C171.375 44.0085 173.261 42.0331 173.261 39.6985Z" fill="#FEFEFE"/>
<path d="M179.722 47.8597C180.44 47.8597 180.889 48.1291 180.889 48.8475V53.0677C180.889 53.786 180.44 54.235 179.722 54.235H172.808V75.2462C172.808 76.3237 172.359 76.7727 171.281 76.7727H167.151C166.073 76.7727 165.624 76.3237 165.624 75.2462V54.235H158.71C157.992 54.235 157.543 53.786 157.543 53.0677V48.8475C157.543 48.0393 157.992 47.8597 158.71 47.8597H179.811H179.722Z" fill="#FEFEFE"/>
</svg>
