<svg width="210" height="35" viewBox="0 0 210 35" fill="none" xmlns="http://www.w3.org/2000/svg">
<path d="M50.6943 8.25391V12.1504H53.4043V15.2559H50.6943V23.166C50.6943 23.752 50.8066 24.1719 51.0312 24.4258C51.2559 24.6797 51.6855 24.8066 52.3203 24.8066C52.7891 24.8066 53.2041 24.7725 53.5654 24.7041V27.9121C52.7354 28.166 51.8809 28.293 51.002 28.293C48.0332 28.293 46.5195 26.7939 46.4609 23.7959V15.2559H44.1465V12.1504H46.4609V8.25391H50.6943ZM64.6689 16.1201C64.0928 16.042 63.585 16.0029 63.1455 16.0029C61.5439 16.0029 60.4941 16.5449 59.9961 17.6289V28H55.7627V12.1504H59.7617L59.8789 14.04C60.7285 12.585 61.9053 11.8574 63.4092 11.8574C63.8779 11.8574 64.3174 11.9209 64.7275 12.0479L64.6689 16.1201ZM76.2119 26.3887C75.167 27.6582 73.7217 28.293 71.876 28.293C70.1768 28.293 68.8779 27.8047 67.9795 26.8281C67.0908 25.8516 66.6367 24.4209 66.6172 22.5361V12.1504H70.8506V22.3896C70.8506 24.04 71.6025 24.8652 73.1064 24.8652C74.542 24.8652 75.5283 24.3672 76.0654 23.3711V12.1504H80.3135V28H76.3291L76.2119 26.3887ZM90.8018 28.293C88.4775 28.293 86.583 27.5801 85.1182 26.1543C83.6631 24.7285 82.9355 22.8291 82.9355 20.4561V20.0459C82.9355 18.4541 83.2432 17.0332 83.8584 15.7832C84.4736 14.5234 85.3428 13.5566 86.4658 12.8828C87.5986 12.1992 88.8877 11.8574 90.333 11.8574C92.501 11.8574 94.2051 12.541 95.4453 13.9082C96.6953 15.2754 97.3203 17.2139 97.3203 19.7236V21.4521H87.2275C87.3643 22.4873 87.7744 23.3174 88.458 23.9424C89.1514 24.5674 90.0254 24.8799 91.0801 24.8799C92.7109 24.8799 93.9854 24.2891 94.9033 23.1074L96.9834 25.4365C96.3486 26.335 95.4893 27.0381 94.4053 27.5459C93.3213 28.0439 92.1201 28.293 90.8018 28.293ZM90.3184 15.2852C89.4785 15.2852 88.7949 15.5684 88.2676 16.1348C87.75 16.7012 87.418 17.5117 87.2715 18.5664H93.1602V18.2295C93.1406 17.292 92.8867 16.5693 92.3984 16.0615C91.9102 15.5439 91.2168 15.2852 90.3184 15.2852ZM103.634 12.1504L103.766 13.9814C104.898 12.5654 106.417 11.8574 108.321 11.8574C110.001 11.8574 111.251 12.3506 112.071 13.3369C112.892 14.3232 113.312 15.7979 113.331 17.7607V28H109.098V17.8633C109.098 16.9648 108.902 16.3154 108.512 15.915C108.121 15.5049 107.472 15.2998 106.563 15.2998C105.372 15.2998 104.479 15.8076 103.883 16.8232V28H99.6494V12.1504H103.634ZM115.895 19.9287C115.895 18.3564 116.197 16.9551 116.803 15.7246C117.408 14.4941 118.277 13.542 119.41 12.8682C120.553 12.1943 121.876 11.8574 123.38 11.8574C125.519 11.8574 127.262 12.5117 128.609 13.8203C129.967 15.1289 130.724 16.9062 130.88 19.1523L130.909 20.2363C130.909 22.668 130.23 24.6211 128.873 26.0957C127.516 27.5605 125.694 28.293 123.409 28.293C121.124 28.293 119.298 27.5605 117.931 26.0957C116.573 24.6309 115.895 22.6387 115.895 20.1191V19.9287ZM120.128 20.2363C120.128 21.7402 120.411 22.8926 120.978 23.6934C121.544 24.4844 122.354 24.8799 123.409 24.8799C124.435 24.8799 125.235 24.4893 125.812 23.708C126.388 22.917 126.676 21.6572 126.676 19.9287C126.676 18.4541 126.388 17.3115 125.812 16.501C125.235 15.6904 124.425 15.2852 123.38 15.2852C122.345 15.2852 121.544 15.6904 120.978 16.501C120.411 17.3018 120.128 18.5469 120.128 20.2363ZM142.423 16.1201C141.847 16.042 141.339 16.0029 140.899 16.0029C139.298 16.0029 138.248 16.5449 137.75 17.6289V28H133.517V12.1504H137.516L137.633 14.04C138.482 12.585 139.659 11.8574 141.163 11.8574C141.632 11.8574 142.071 11.9209 142.481 12.0479L142.423 16.1201ZM148.443 12.1504L148.575 13.9229C149.698 12.5459 151.217 11.8574 153.131 11.8574C155.172 11.8574 156.573 12.6631 157.335 14.2744C158.448 12.6631 160.035 11.8574 162.096 11.8574C163.814 11.8574 165.094 12.3604 165.934 13.3662C166.773 14.3623 167.193 15.8662 167.193 17.8779V28H162.945V17.8926C162.945 16.9941 162.77 16.3398 162.418 15.9297C162.066 15.5098 161.446 15.2998 160.558 15.2998C159.288 15.2998 158.409 15.9053 157.921 17.1162L157.936 28H153.702V17.9072C153.702 16.9893 153.521 16.3252 153.16 15.915C152.799 15.5049 152.184 15.2998 151.314 15.2998C150.113 15.2998 149.244 15.7979 148.707 16.7939V28H144.474V12.1504H148.443ZM170.1 27.1475C170.1 26.8662 170.182 26.6318 170.346 26.4443C170.516 26.2568 170.768 26.1631 171.102 26.1631C171.436 26.1631 171.688 26.2568 171.857 26.4443C172.033 26.6318 172.121 26.8662 172.121 27.1475C172.121 27.417 172.033 27.6426 171.857 27.8242C171.688 28.0059 171.436 28.0967 171.102 28.0967C170.768 28.0967 170.516 28.0059 170.346 27.8242C170.182 27.6426 170.1 27.417 170.1 27.1475ZM178.625 26.8486C179.205 26.8486 179.712 26.6729 180.146 26.3213C180.579 25.9697 180.819 25.5303 180.866 25.0029H182.404C182.375 25.5479 182.188 26.0664 181.842 26.5586C181.496 27.0508 181.033 27.4434 180.453 27.7363C179.879 28.0293 179.27 28.1758 178.625 28.1758C177.33 28.1758 176.299 27.7451 175.531 26.8838C174.77 26.0166 174.389 24.833 174.389 23.333V23.0605C174.389 22.1348 174.559 21.3115 174.898 20.5908C175.238 19.8701 175.725 19.3105 176.357 18.9121C176.996 18.5137 177.749 18.3145 178.616 18.3145C179.683 18.3145 180.567 18.6338 181.271 19.2725C181.979 19.9111 182.357 20.7402 182.404 21.7598H180.866C180.819 21.1445 180.585 20.6406 180.163 20.248C179.747 19.8496 179.231 19.6504 178.616 19.6504C177.79 19.6504 177.148 19.9492 176.691 20.5469C176.24 21.1387 176.015 21.9971 176.015 23.1221V23.4297C176.015 24.5254 176.24 25.3691 176.691 25.9609C177.143 26.5527 177.787 26.8486 178.625 26.8486ZM183.802 23.1572C183.802 22.2256 183.983 21.3877 184.347 20.6436C184.716 19.8994 185.226 19.3252 185.876 18.9209C186.532 18.5166 187.279 18.3145 188.117 18.3145C189.412 18.3145 190.458 18.7627 191.255 19.6592C192.058 20.5557 192.459 21.748 192.459 23.2363V23.3506C192.459 24.2764 192.28 25.1084 191.923 25.8467C191.571 26.5791 191.064 27.1504 190.402 27.5605C189.746 27.9707 188.99 28.1758 188.135 28.1758C186.846 28.1758 185.8 27.7275 184.997 26.8311C184.2 25.9346 183.802 24.748 183.802 23.2715V23.1572ZM185.437 23.3506C185.437 24.4053 185.68 25.252 186.166 25.8906C186.658 26.5293 187.314 26.8486 188.135 26.8486C188.961 26.8486 189.617 26.5264 190.104 25.8818C190.59 25.2314 190.833 24.3232 190.833 23.1572C190.833 22.1143 190.584 21.2705 190.086 20.626C189.594 19.9756 188.938 19.6504 188.117 19.6504C187.314 19.6504 186.667 19.9697 186.175 20.6084C185.683 21.2471 185.437 22.1611 185.437 23.3506ZM196.027 18.4902L196.071 19.5449C196.769 18.7246 197.709 18.3145 198.893 18.3145C200.223 18.3145 201.128 18.8242 201.608 19.8438C201.925 19.3867 202.335 19.0176 202.839 18.7363C203.349 18.4551 203.949 18.3145 204.641 18.3145C206.727 18.3145 207.787 19.4189 207.822 21.6279V28H206.196V21.7246C206.196 21.0449 206.041 20.5381 205.73 20.2041C205.42 19.8643 204.898 19.6943 204.166 19.6943C203.562 19.6943 203.062 19.876 202.663 20.2393C202.265 20.5967 202.033 21.0801 201.969 21.6895V28H200.334V21.7686C200.334 20.3857 199.657 19.6943 198.304 19.6943C197.237 19.6943 196.508 20.1484 196.115 21.0566V28H194.489V18.4902H196.027Z" fill="#212121"/>
<path d="M4.93548 29C7.66128 29 9.87097 26.7838 9.87097 24.05C9.87097 21.3162 7.66128 19.1 4.93548 19.1C2.20969 19.1 0 21.3162 0 24.05C0 26.7838 2.20969 29 4.93548 29Z" fill="#E91E63"/>
<path d="M29.0644 29C31.7902 29 33.9999 26.7838 33.9999 24.05C33.9999 21.3162 31.7902 19.1 29.0644 19.1C26.3386 19.1 24.1289 21.3162 24.1289 24.05C24.1289 26.7838 26.3386 29 29.0644 29Z" fill="#E91E63"/>
<path d="M17.0019 29C19.7277 29 21.9374 26.7838 21.9374 24.05C21.9374 21.3162 19.7277 19.1 17.0019 19.1C14.2761 19.1 12.0664 21.3162 12.0664 24.05C12.0664 26.7838 14.2761 29 17.0019 29Z" fill="#E91E63"/>
<path d="M17.0019 16.9C19.7277 16.9 21.9374 14.6838 21.9374 11.95C21.9374 9.21619 19.7277 7 17.0019 7C14.2761 7 12.0664 9.21619 12.0664 11.95C12.0664 14.6838 14.2761 16.9 17.0019 16.9Z" fill="#E91E63"/>
</svg>
