<svg width="40" height="26" viewBox="0 0 40 26" fill="none" xmlns="http://www.w3.org/2000/svg">
<g clip-path="url(#clip0)">
<path d="M5.80645 26C9.01327 26 11.6129 23.3809 11.6129 20.15C11.6129 16.9192 9.01327 14.3 5.80645 14.3C2.59964 14.3 0 16.9192 0 20.15C0 23.3809 2.59964 26 5.80645 26Z" fill="#E91E63"/>
<path d="M34.1932 26C37.4 26 39.9996 23.3809 39.9996 20.15C39.9996 16.9192 37.4 14.3 34.1932 14.3C30.9864 14.3 28.3867 16.9192 28.3867 20.15C28.3867 23.3809 30.9864 26 34.1932 26Z" fill="#E91E63"/>
<path d="M20.0018 26C23.2086 26 25.8082 23.3809 25.8082 20.15C25.8082 16.9192 23.2086 14.3 20.0018 14.3C16.7949 14.3 14.1953 16.9192 14.1953 20.15C14.1953 23.3809 16.7949 26 20.0018 26Z" fill="#E91E63"/>
<path d="M20.0018 11.7C23.2086 11.7 25.8082 9.08087 25.8082 5.85C25.8082 2.61913 23.2086 0 20.0018 0C16.7949 0 14.1953 2.61913 14.1953 5.85C14.1953 9.08087 16.7949 11.7 20.0018 11.7Z" fill="#E91E63"/>
</g>
<defs>
<clipPath id="clip0">
<rect width="40" height="26" fill="white"/>
</clipPath>
</defs>
</svg>
