<?xml version="1.0" encoding="UTF-8" standalone="no"?>
<!-- Generator: Adobe Illustrator 19.0.0, SVG Export Plug-In . SVG Version: 6.00 Build 0)  -->

<svg
   xmlns:dc="http://purl.org/dc/elements/1.1/"
   xmlns:cc="http://creativecommons.org/ns#"
   xmlns:rdf="http://www.w3.org/1999/02/22-rdf-syntax-ns#"
   xmlns:svg="http://www.w3.org/2000/svg"
   xmlns="http://www.w3.org/2000/svg"
   xmlns:sodipodi="http://sodipodi.sourceforge.net/DTD/sodipodi-0.dtd"
   xmlns:inkscape="http://www.inkscape.org/namespaces/inkscape"
   version="1.2"
   id="Layer_1"
   x="0px"
   y="0px"
   viewBox="0 0 603.29999 191.5"
   xml:space="preserve"
   inkscape:version="0.91 r13725"
   sodipodi:docname="quickbooks.svg"
   width="603.29999"
   height="191.5"><metadata
     id="metadata17"><rdf:RDF><cc:Work
         rdf:about=""><dc:format>image/svg+xml</dc:format><dc:type
           rdf:resource="http://purl.org/dc/dcmitype/StillImage" /></cc:Work></rdf:RDF></metadata><defs
     id="defs15" /><sodipodi:namedview
     pagecolor="#ffffff"
     bordercolor="#666666"
     borderopacity="1"
     objecttolerance="10"
     gridtolerance="10"
     guidetolerance="10"
     inkscape:pageopacity="0"
     inkscape:pageshadow="2"
     inkscape:window-width="959"
     inkscape:window-height="539"
     id="namedview13"
     showgrid="false"
     inkscape:zoom="0.38562092"
     inkscape:cx="301.6"
     inkscape:cy="95.699997"
     inkscape:window-x="2880"
     inkscape:window-y="1620"
     inkscape:window-maximized="0"
     inkscape:current-layer="Layer_1" /><g
     id="QuickBooks_-_Clearspace__x26__Lockup"
     transform="translate(-94.400002,-210.2)"><g
       id="QuickBooks_Lockup"><g
         id="Wordmark"><path
           id="_xAE__1_"
           d="m 664,332.3 c 0,-1.1 -0.9,-1.5 -1.9,-1.5 l -1.8,0 0,5 0.9,0 0,-2.1 0.6,0 1.2,2.1 1.1,0 -1.3,-2.2 c 0.7,-0.1 1.2,-0.6 1.2,-1.3 z m -2.8,0.7 0,-1.4 0.8,0 c 0.5,0 1,0.1 1,0.7 0,0.6 -0.6,0.7 -1.1,0.7 l -0.7,0 z m 0.9,-4.1 c -2.5,0 -4.4,2 -4.4,4.4 0,2.4 2,4.4 4.4,4.4 2.4,0 4.4,-1.9 4.4,-4.4 0,-2.5 -2,-4.4 -4.4,-4.4 z m 0,8.2 c -2.1,0 -3.7,-1.7 -3.7,-3.7 0,-2.1 1.7,-3.7 3.7,-3.7 2.1,0 3.7,1.7 3.7,3.7 0,2 -1.7,3.7 -3.7,3.7 z"
           inkscape:connector-curvature="0" /><path
           id="quickbooks"
           d="m 376,329.7 c -6.5,0 -9.8,-5.8 -9.8,-11.4 0,-5.6 3.6,-11.2 9.5,-11.2 2.8,0 6.3,1.4 7.6,3.3 l 6.9,-6.9 c -3.3,-3.5 -8.6,-5.6 -14.5,-5.6 -12,0 -20.7,8.6 -20.7,20.4 0,12 8.6,20.4 20.9,20.4 5.9,0 11.3,-1.7 14.5,-5.2 l -6.7,-7.2 c -1.5,2 -4.7,3.4 -7.7,3.4 z m -38.5,8 10.7,0 0,-38.7 -10.7,0 0,38.7 z m -19.4,-17.5 c 0,4.5 -3,9.4 -8.5,9.4 -4.3,0 -6.5,-3 -6.5,-9.3 l 0,-21.3 -10.7,0 0,24 c 0,8 4,15.8 14.6,15.8 5,0 9.2,-4 11.4,-6.9 l 0.2,0 0,5.8 10.2,0 0,-38.7 -10.7,0 0,21.2 z m -45,-16.3 -0.2,0 c -1.5,-1.7 -5.6,-6 -12.2,-6 -10.9,0 -19.3,8.5 -19.3,20.3 0,11.9 7.7,20.6 18.8,20.6 5,0 9.7,-2.7 12.4,-5.7 l 0.2,0 0,23.7 10.7,0 0,-57.8 -10.3,0 0,4.9 z m -10.3,25.8 c -6.6,0 -10.4,-5.8 -10.4,-11.5 0,-5.4 3.4,-11.3 10.4,-11.3 6.4,0 10.3,5.9 10.3,11.5 0,5.5 -3.9,11.3 -10.3,11.3 z m 243.3,-31.8 c -12.2,0 -21,8.5 -21,20.3 0,12.2 9,20.7 21,20.7 12,0 21,-8.6 21,-20.7 0,-11.7 -8.8,-20.3 -21,-20.3 z m 0,31.8 c -7,0 -10.1,-5.9 -10.1,-11.5 0,-5.4 3.2,-11.3 10.1,-11.3 7,0 10.1,5.9 10.1,11.3 0,5.5 -3.1,11.5 -10.1,11.5 z m 133.6,-15.8 c -5.5,-1.3 -7.4,-2 -7.4,-4.2 0,-3.1 3.9,-3.7 5.7,-3.7 3.3,0 7.1,2 8.5,3.9 l 6.3,-6 c -2.9,-3.7 -8.6,-5.8 -14.7,-5.8 -7.7,0 -15.8,3.9 -15.8,12.6 0,7.5 5.8,9.7 11.6,11.1 6,1.4 8.2,2.4 8.2,4.9 0,3.6 -4.1,4.2 -5.5,4.2 -3.5,0 -7.5,-2 -9.7,-4.6 l -6.5,6.6 c 3.5,3.9 9.6,6.3 15.8,6.3 10.4,0 16.6,-5 16.6,-13.2 -0.2,-8.2 -7.7,-10.8 -13.1,-12.1 z m -20.2,-14.9 -13.8,0 -13.8,16.1 -0.2,0 0,-37.4 -10.7,0 0,60 10.7,0 0,-19.1 0.2,0 14.3,19.1 14.1,0 -16.6,-21.1 15.8,-17.6 z M 461,297.9 c -4.9,0 -8.5,2.1 -11.9,5.3 l -0.1,0 0,-25.6 -10.7,0 0,60 10.2,0 0,-5.5 0.2,0 c 2.4,4 7.2,6.6 12.2,6.6 11,0 19.4,-8.7 19.4,-20.6 -0.1,-11.6 -8.4,-20.2 -19.3,-20.2 z m -2.1,31.8 c -6.4,0 -10.3,-5.7 -10.3,-11.3 0,-5.5 3.9,-11.5 10.3,-11.5 6.9,0 10.4,5.9 10.4,11.3 0,5.7 -3.7,11.5 -10.4,11.5 z m -24.6,-30.7 -13.8,0 -13.8,16.1 -0.2,0 0,-37.4 -10.7,0 0,60 10.7,0 0,-19.1 0.2,0 14.3,19.1 14.1,0 -16.6,-21.1 15.8,-17.6 z M 553,297.9 c -12.2,0 -21,8.5 -21,20.3 0,12.2 9,20.7 21,20.7 12,0 21,-8.6 21,-20.7 0,-11.7 -8.8,-20.3 -21,-20.3 z m 0,31.8 c -7,0 -10.1,-5.9 -10.1,-11.5 0,-5.4 3.2,-11.3 10.1,-11.3 7,0 10.1,5.9 10.1,11.3 0.1,5.5 -3.1,11.5 -10.1,11.5 z"
           inkscape:connector-curvature="0" /></g><g
         id="Icon_2_"><circle
           id="Circle_2_"
           cx="184.39999"
           cy="300.20001"
           r="45"
           style="fill:#2ca01c" /><path
           id="qb"
           d="m 151.9,300.2 c 0,9.7 7.8,17.5 17.5,17.5 l 2.5,0 0,-6.5 -2.5,0 c -6.1,0 -11,-4.9 -11,-11 0,-6.1 4.9,-11 11,-11 l 6,0 c 0,0 0,33.4 0,34 0,3.6 2.9,6.5 6.5,6.5 l 0,-47 c 0,0 -6.7,0 -12.5,0 -9.7,0 -17.5,7.9 -17.5,17.5 z m 47.5,-17.5 -2.5,0 0,6.5 2.5,0 c 6.1,0 11,4.9 11,11 0,6.1 -4.9,11 -11,11 l -6,0 c 0,0 0,-33.4 0,-34 0,-3.6 -2.9,-6.5 -6.5,-6.5 l 0,47 c 0,0 6.7,0 12.5,0 9.7,0 17.5,-7.8 17.5,-17.5 0,-9.6 -7.9,-17.5 -17.5,-17.5 z"
           inkscape:connector-curvature="0"
           style="fill:#ffffff" /></g><path
         id="intuit_2_"
         d="m 285.4,265.5 c 1.6,0 3,-1.3 3,-3 0,-1.6 -1.3,-3 -3,-3 -1.6,0 -3,1.3 -3,3 0.1,1.6 1.4,3 3,3 z m -17.7,2 c -2.9,0 -5.2,1.8 -6.1,3.7 l -0.1,0 0,-3.2 -4.7,0 0,19.7 4.9,0 0,-10.8 c 0,-2.6 1.5,-5.3 4.6,-5.3 3.2,0 3.7,2.9 3.7,5.2 l 0,10.9 4.9,0 0,-12.3 c 0.1,-4 -2.1,-7.9 -7.2,-7.9 z m -20.8,20.2 4.9,0 0,-19.7 -4.9,0 0,19.7 z m 89.5,-22.2 c 1.6,0 3,-1.3 3,-3 0,-1.6 -1.3,-3 -3,-3 -1.6,0 -3,1.3 -3,3 0,1.6 1.3,3 3,3 z m -8,2.5 0,4.4 5.5,0 0,15.3 4.9,0 0,-15.3 5.5,0 0,-4.4 -15.9,0 z m -8.4,19.7 4.9,0 0,-19.7 -4.9,0 0,19.7 z m -42.5,-15.3 5.5,0 0,15.3 4.9,0 0,-15.3 5.5,0 0,-4.4 -16,0 0,4.4 z m 32.5,6.5 c 0,2.6 -1.5,5.3 -4.6,5.3 -3.2,0 -3.7,-2.9 -3.7,-5.2 l 0,-10.9 -4.9,0 0,12.3 c 0,4 2.1,8 7.3,8 2.9,0 5.2,-1.8 6.1,-3.7 l 0.1,0 0,3.2 4.7,0 0,-19.7 -5,0 0,10.7 z"
         inkscape:connector-curvature="0" /></g><rect
       id="Clearspace_1_"
       x="94.400002"
       y="210.2"
       width="603.29999"
       height="191.5"
       style="fill:none" /></g></svg>