<svg width="193" height="48" viewBox="0 0 193 48" fill="none" xmlns="http://www.w3.org/2000/svg">
<path d="M63.64 10.972C64.96 11.116 66.016 11.35 66.808 11.674C67.612 11.998 68.194 12.424 68.554 12.952C68.914 13.48 69.094 14.14 69.094 14.932C69.094 15.796 68.812 16.552 68.248 17.2C67.696 17.836 66.928 18.328 65.944 18.676C64.96 19.012 63.838 19.18 62.578 19.18C61.174 19.18 59.986 19.006 59.014 18.658C58.042 18.31 57.316 17.848 56.836 17.272C56.356 16.684 56.116 16.042 56.116 15.346C56.116 15.226 56.152 15.13 56.224 15.058C56.308 14.986 56.41 14.95 56.53 14.95H60.22C60.472 14.95 60.676 15.028 60.832 15.184C61.036 15.376 61.264 15.508 61.516 15.58C61.768 15.64 62.122 15.67 62.578 15.67C63.718 15.67 64.288 15.496 64.288 15.148C64.288 15.004 64.21 14.884 64.054 14.788C63.91 14.68 63.646 14.59 63.262 14.518C62.89 14.434 62.338 14.35 61.606 14.266C59.962 14.074 58.702 13.666 57.826 13.042C56.95 12.406 56.512 11.512 56.512 10.36C56.512 9.544 56.758 8.824 57.25 8.2C57.742 7.576 58.438 7.09 59.338 6.742C60.25 6.394 61.306 6.22 62.506 6.22C63.754 6.22 64.846 6.418 65.782 6.814C66.718 7.198 67.432 7.678 67.924 8.254C68.416 8.83 68.662 9.394 68.662 9.946C68.662 10.066 68.62 10.162 68.536 10.234C68.464 10.306 68.362 10.342 68.23 10.342H64.36C64.156 10.342 63.97 10.27 63.802 10.126C63.67 10.006 63.514 9.91 63.334 9.838C63.154 9.766 62.878 9.73 62.506 9.73C61.702 9.73 61.3 9.898 61.3 10.234C61.3 10.414 61.456 10.558 61.768 10.666C62.08 10.762 62.704 10.864 63.64 10.972ZM84.153 6.4C84.285 6.4 84.399 6.448 84.495 6.544C84.591 6.64 84.639 6.754 84.639 6.886V9.784C84.639 9.916 84.591 10.03 84.495 10.126C84.399 10.222 84.285 10.27 84.153 10.27H80.283V18.514C80.283 18.646 80.235 18.76 80.139 18.856C80.043 18.952 79.929 19 79.797 19H76.089C75.957 19 75.843 18.952 75.747 18.856C75.651 18.76 75.603 18.646 75.603 18.514V10.27H71.733C71.601 10.27 71.487 10.222 71.391 10.126C71.295 10.03 71.247 9.916 71.247 9.784V6.886C71.247 6.754 71.295 6.64 71.391 6.544C71.487 6.448 71.601 6.4 71.733 6.4H84.153ZM90.6439 18.388C90.4879 18.796 90.2179 19 89.8339 19H86.4319C86.3239 19 86.2279 18.964 86.1439 18.892C86.0719 18.808 86.0359 18.712 86.0359 18.604L86.0539 18.496L89.9779 6.994C90.0259 6.838 90.1159 6.7 90.2479 6.58C90.3799 6.46 90.5599 6.4 90.7879 6.4H95.7919C96.0199 6.4 96.1999 6.46 96.3319 6.58C96.4639 6.7 96.5539 6.838 96.6019 6.994L100.526 18.496L100.544 18.604C100.544 18.712 100.502 18.808 100.418 18.892C100.346 18.964 100.256 19 100.148 19H96.7459C96.3619 19 96.0919 18.796 95.9359 18.388L95.4859 17.128H91.0939L90.6439 18.388ZM93.2899 9.874L92.0119 13.618H94.5679L93.2899 9.874ZM115.675 18.442C115.699 18.49 115.711 18.544 115.711 18.604C115.711 18.712 115.669 18.808 115.585 18.892C115.513 18.964 115.423 19 115.315 19H111.229C111.061 19 110.905 18.958 110.761 18.874C110.629 18.79 110.533 18.682 110.473 18.55L108.889 14.986H107.377V18.514C107.377 18.646 107.329 18.76 107.233 18.856C107.137 18.952 107.023 19 106.891 19H103.003C102.871 19 102.757 18.952 102.661 18.856C102.565 18.76 102.517 18.646 102.517 18.514V6.886C102.517 6.754 102.565 6.64 102.661 6.544C102.757 6.448 102.871 6.4 103.003 6.4H110.005C111.085 6.4 112.027 6.574 112.831 6.922C113.647 7.27 114.271 7.774 114.703 8.434C115.135 9.094 115.351 9.868 115.351 10.756C115.351 12.388 114.721 13.57 113.461 14.302L115.675 18.442ZM109.627 11.656C109.891 11.656 110.095 11.572 110.239 11.404C110.383 11.224 110.455 11.002 110.455 10.738C110.455 10.474 110.383 10.246 110.239 10.054C110.107 9.85 109.903 9.748 109.627 9.748H107.377V11.656H109.627ZM130.032 6.4C130.164 6.4 130.278 6.448 130.374 6.544C130.47 6.64 130.518 6.754 130.518 6.886V9.784C130.518 9.916 130.47 10.03 130.374 10.126C130.278 10.222 130.164 10.27 130.032 10.27H126.162V18.514C126.162 18.646 126.114 18.76 126.018 18.856C125.922 18.952 125.808 19 125.676 19H121.968C121.836 19 121.722 18.952 121.626 18.856C121.53 18.76 121.482 18.646 121.482 18.514V10.27H117.612C117.48 10.27 117.366 10.222 117.27 10.126C117.174 10.03 117.126 9.916 117.126 9.784V6.886C117.126 6.754 117.174 6.64 117.27 6.544C117.366 6.448 117.48 6.4 117.612 6.4H130.032ZM139.115 19.18C137.099 19.18 135.497 18.742 134.309 17.866C133.133 16.99 132.545 15.622 132.545 13.762V6.886C132.545 6.754 132.593 6.64 132.689 6.544C132.785 6.448 132.899 6.4 133.031 6.4H136.793C136.925 6.4 137.039 6.448 137.135 6.544C137.231 6.64 137.279 6.754 137.279 6.886V14.05C137.279 14.542 137.441 14.92 137.765 15.184C138.101 15.448 138.551 15.58 139.115 15.58C139.679 15.58 140.123 15.448 140.447 15.184C140.783 14.92 140.951 14.542 140.951 14.05V6.886C140.951 6.754 140.999 6.64 141.095 6.544C141.191 6.448 141.305 6.4 141.437 6.4H145.199C145.331 6.4 145.445 6.448 145.541 6.544C145.637 6.64 145.685 6.754 145.685 6.886V13.762C145.685 15.622 145.091 16.99 143.903 17.866C142.727 18.742 141.131 19.18 139.115 19.18ZM156.244 6.4C157.372 6.4 158.356 6.592 159.196 6.976C160.036 7.36 160.678 7.882 161.122 8.542C161.566 9.202 161.788 9.94 161.788 10.756C161.788 12.1 161.368 13.156 160.528 13.924C159.688 14.68 158.26 15.058 156.244 15.058H153.868V18.514C153.868 18.646 153.82 18.76 153.724 18.856C153.628 18.952 153.514 19 153.382 19H149.512C149.38 19 149.266 18.952 149.17 18.856C149.074 18.76 149.026 18.646 149.026 18.514V6.886C149.026 6.754 149.074 6.64 149.17 6.544C149.266 6.448 149.38 6.4 149.512 6.4H156.244ZM156.172 11.728C156.46 11.728 156.688 11.644 156.856 11.476C157.024 11.296 157.108 11.062 157.108 10.774C157.108 10.474 157.024 10.228 156.856 10.036C156.688 9.844 156.46 9.748 156.172 9.748H153.886V11.728H156.172ZM67.798 34.43C68.266 34.574 68.668 34.892 69.004 35.384C69.34 35.864 69.508 36.416 69.508 37.04C69.508 38.372 69.076 39.368 68.212 40.028C67.348 40.676 66.088 41 64.432 41H57.016C56.884 41 56.77 40.952 56.674 40.856C56.578 40.76 56.53 40.646 56.53 40.514V28.886C56.53 28.754 56.578 28.64 56.674 28.544C56.77 28.448 56.884 28.4 57.016 28.4H64.252C65.956 28.4 67.21 28.712 68.014 29.336C68.83 29.948 69.238 30.878 69.238 32.126V32.18C69.238 32.756 69.082 33.248 68.77 33.656C68.458 34.064 68.134 34.322 67.798 34.43ZM64.36 32.288C64.36 32.072 64.294 31.886 64.162 31.73C64.042 31.574 63.862 31.496 63.622 31.496H61.21V33.134H63.622C63.862 33.134 64.042 33.05 64.162 32.882C64.294 32.702 64.36 32.504 64.36 32.288ZM63.82 37.904C64.096 37.904 64.3 37.814 64.432 37.634C64.576 37.442 64.648 37.232 64.648 37.004V36.986C64.648 36.758 64.57 36.56 64.414 36.392C64.27 36.224 64.072 36.14 63.82 36.14H61.21V37.904H63.82ZM83.775 37.49C83.907 37.49 84.021 37.538 84.117 37.634C84.213 37.73 84.261 37.844 84.261 37.976V40.514C84.261 40.646 84.213 40.76 84.117 40.856C84.021 40.952 83.907 41 83.775 41H72.399C72.267 41 72.153 40.952 72.057 40.856C71.961 40.76 71.913 40.646 71.913 40.514V28.886C71.913 28.754 71.961 28.64 72.057 28.544C72.153 28.448 72.267 28.4 72.399 28.4H83.595C83.727 28.4 83.841 28.448 83.937 28.544C84.033 28.64 84.081 28.754 84.081 28.886V31.424C84.081 31.556 84.033 31.67 83.937 31.766C83.841 31.862 83.727 31.91 83.595 31.91H76.593V33.044H82.605C82.737 33.044 82.851 33.092 82.947 33.188C83.043 33.284 83.091 33.398 83.091 33.53V35.87C83.091 36.002 83.043 36.116 82.947 36.212C82.851 36.308 82.737 36.356 82.605 36.356H76.593V37.49H83.775ZM98.8699 28.4C99.0019 28.4 99.1159 28.448 99.2119 28.544C99.3079 28.64 99.3559 28.754 99.3559 28.886V40.514C99.3559 40.646 99.3079 40.76 99.2119 40.856C99.1159 40.952 99.0019 41 98.8699 41H95.9719C95.6839 41 95.4439 40.874 95.2519 40.622L91.3279 35.618V40.514C91.3279 40.646 91.2799 40.76 91.1839 40.856C91.0879 40.952 90.9739 41 90.8419 41H87.4939C87.3619 41 87.2479 40.952 87.1519 40.856C87.0559 40.76 87.0079 40.646 87.0079 40.514V28.886C87.0079 28.754 87.0559 28.64 87.1519 28.544C87.2479 28.448 87.3619 28.4 87.4939 28.4H90.4099C90.6979 28.4 90.9319 28.52 91.1119 28.76L95.0359 34.178V28.886C95.0359 28.754 95.0839 28.64 95.1799 28.544C95.2759 28.448 95.3899 28.4 95.5219 28.4H98.8699ZM106.873 36.14C106.873 36.632 107.035 37.01 107.359 37.274C107.695 37.538 108.145 37.67 108.709 37.67C109.213 37.67 109.585 37.586 109.825 37.418C110.065 37.25 110.269 36.998 110.437 36.662C110.593 36.35 110.803 36.194 111.067 36.194H114.955C115.063 36.194 115.153 36.236 115.225 36.32C115.309 36.392 115.351 36.482 115.351 36.59C115.351 37.322 115.105 38.042 114.613 38.75C114.121 39.446 113.371 40.028 112.363 40.496C111.367 40.952 110.149 41.18 108.709 41.18C107.425 41.18 106.279 40.988 105.271 40.604C104.275 40.208 103.483 39.608 102.895 38.804C102.307 37.988 102.013 36.974 102.013 35.762V33.638C102.013 32.426 102.307 31.418 102.895 30.614C103.483 29.798 104.275 29.198 105.271 28.814C106.279 28.418 107.425 28.22 108.709 28.22C110.149 28.22 111.367 28.454 112.363 28.922C113.371 29.378 114.121 29.96 114.613 30.668C115.105 31.364 115.351 32.078 115.351 32.81C115.351 32.918 115.309 33.014 115.225 33.098C115.153 33.17 115.063 33.206 114.955 33.206H111.067C110.803 33.206 110.593 33.05 110.437 32.738C110.269 32.402 110.065 32.15 109.825 31.982C109.585 31.814 109.213 31.73 108.709 31.73C108.145 31.73 107.695 31.862 107.359 32.126C107.035 32.39 106.873 32.768 106.873 33.26V36.14ZM129.816 28.4C129.948 28.4 130.062 28.448 130.158 28.544C130.254 28.64 130.302 28.754 130.302 28.886V40.514C130.302 40.646 130.254 40.76 130.158 40.856C130.062 40.952 129.948 41 129.816 41H126.108C125.976 41 125.862 40.952 125.766 40.856C125.67 40.76 125.622 40.646 125.622 40.514V36.68H122.022V40.514C122.022 40.646 121.974 40.76 121.878 40.856C121.782 40.952 121.668 41 121.536 41H117.828C117.696 41 117.582 40.958 117.486 40.874C117.39 40.778 117.342 40.658 117.342 40.514V28.886C117.342 28.754 117.39 28.64 117.486 28.544C117.582 28.448 117.696 28.4 117.828 28.4H121.536C121.668 28.4 121.782 28.448 121.878 28.544C121.974 28.64 122.022 28.754 122.022 28.886V32.576H125.622V28.886C125.622 28.754 125.67 28.64 125.766 28.544C125.862 28.448 125.976 28.4 126.108 28.4H129.816ZM141.473 28.886C141.653 28.562 141.911 28.4 142.247 28.4H145.541C145.673 28.4 145.787 28.448 145.883 28.544C145.979 28.64 146.027 28.754 146.027 28.886V40.514C146.027 40.646 145.979 40.76 145.883 40.856C145.787 40.952 145.673 41 145.541 41H142.283C142.151 41 142.037 40.952 141.941 40.856C141.845 40.76 141.797 40.646 141.797 40.514V34.934L140.483 37.526C140.447 37.61 140.363 37.706 140.231 37.814C140.099 37.922 139.931 37.976 139.727 37.976H138.503C138.299 37.976 138.131 37.922 137.999 37.814C137.867 37.706 137.783 37.61 137.747 37.526L136.433 34.934V40.514C136.433 40.646 136.385 40.76 136.289 40.856C136.193 40.952 136.079 41 135.947 41H132.689C132.557 41 132.443 40.952 132.347 40.856C132.251 40.76 132.203 40.646 132.203 40.514V28.886C132.203 28.754 132.251 28.64 132.347 28.544C132.443 28.448 132.557 28.4 132.689 28.4H135.983C136.319 28.4 136.577 28.562 136.757 28.886L139.115 33.206L141.473 28.886ZM151.816 40.388C151.66 40.796 151.39 41 151.006 41H147.604C147.496 41 147.4 40.964 147.316 40.892C147.244 40.808 147.208 40.712 147.208 40.604L147.226 40.496L151.15 28.994C151.198 28.838 151.288 28.7 151.42 28.58C151.552 28.46 151.732 28.4 151.96 28.4H156.964C157.192 28.4 157.372 28.46 157.504 28.58C157.636 28.7 157.726 28.838 157.774 28.994L161.698 40.496L161.716 40.604C161.716 40.712 161.674 40.808 161.59 40.892C161.518 40.964 161.428 41 161.32 41H157.918C157.534 41 157.264 40.796 157.108 40.388L156.658 39.128H152.266L151.816 40.388ZM154.462 31.874L153.184 35.618H155.74L154.462 31.874ZM176.847 40.442C176.871 40.49 176.883 40.544 176.883 40.604C176.883 40.712 176.841 40.808 176.757 40.892C176.685 40.964 176.595 41 176.487 41H172.401C172.233 41 172.077 40.958 171.933 40.874C171.801 40.79 171.705 40.682 171.645 40.55L170.061 36.986H168.549V40.514C168.549 40.646 168.501 40.76 168.405 40.856C168.309 40.952 168.195 41 168.063 41H164.175C164.043 41 163.929 40.952 163.833 40.856C163.737 40.76 163.689 40.646 163.689 40.514V28.886C163.689 28.754 163.737 28.64 163.833 28.544C163.929 28.448 164.043 28.4 164.175 28.4H171.177C172.257 28.4 173.199 28.574 174.003 28.922C174.819 29.27 175.443 29.774 175.875 30.434C176.307 31.094 176.523 31.868 176.523 32.756C176.523 34.388 175.893 35.57 174.633 36.302L176.847 40.442ZM170.799 33.656C171.063 33.656 171.267 33.572 171.411 33.404C171.555 33.224 171.627 33.002 171.627 32.738C171.627 32.474 171.555 32.246 171.411 32.054C171.279 31.85 171.075 31.748 170.799 31.748H168.549V33.656H170.799ZM192.428 40.37C192.476 40.442 192.5 40.52 192.5 40.604C192.5 40.712 192.458 40.808 192.374 40.892C192.302 40.964 192.212 41 192.104 41H187.46C187.184 41 186.968 40.904 186.812 40.712L183.68 36.842V40.514C183.68 40.646 183.632 40.76 183.536 40.856C183.44 40.952 183.326 41 183.194 41H179.486C179.354 41 179.24 40.952 179.144 40.856C179.048 40.76 179 40.646 179 40.514V28.886C179 28.754 179.048 28.64 179.144 28.544C179.24 28.448 179.354 28.4 179.486 28.4H183.194C183.326 28.4 183.44 28.448 183.536 28.544C183.632 28.64 183.68 28.754 183.68 28.886V32.27L186.524 28.706C186.704 28.502 186.926 28.4 187.19 28.4H191.528C191.636 28.4 191.726 28.442 191.798 28.526C191.882 28.598 191.924 28.688 191.924 28.796C191.924 28.892 191.894 28.976 191.834 29.048L187.568 34.25L192.428 40.37Z" fill="#103747"/>
<path d="M38 6H10C7.8 6 6 7.8 6 10V38C6 40.2 7.8 42 10 42H38C40.2 42 42 40.2 42 38V10C42 7.8 40.2 6 38 6ZM16 34C14.9 34 14 33.1 14 32V22C14 20.9 14.9 20 16 20C17.1 20 18 20.9 18 22V32C18 33.1 17.1 34 16 34ZM24 34C22.9 34 22 33.1 22 32V16C22 14.9 22.9 14 24 14C25.1 14 26 14.9 26 16V32C26 33.1 25.1 34 24 34ZM32 34C30.9 34 30 33.1 30 32V28C30 26.9 30.9 26 32 26C33.1 26 34 26.9 34 28V32C34 33.1 33.1 34 32 34Z" fill="#103747"/>
</svg>
